<svg width="current" height="current" viewBox="0 0 48 48" fill="none" xmlns="http://www.w3.org/2000/svg">
<path d="M27.4014 13.5981C27.4014 15.034 28.5655 16.198 30.0014 16.198C31.4374 16.198 32.6014 15.034 32.6014 13.5981C32.6014 12.1621 31.4374 10.998 30.0014 10.998C28.5655 10.998 27.4014 12.1621 27.4014 13.5981Z" fill="current"/>
<path d="M27.4014 34.3988C27.4014 35.8348 28.5655 36.9988 30.0014 36.9988C31.4374 36.9988 32.6014 35.8348 32.6014 34.3988C32.6014 32.9629 31.4374 31.7988 30.0014 31.7988C28.5655 31.7988 27.4014 32.9629 27.4014 34.3988Z" fill="current"/>
<path d="M27.4014 23.9984C27.4014 25.4344 28.5655 26.5984 30.0014 26.5984C31.4374 26.5984 32.6014 25.4344 32.6014 23.9984C32.6014 22.5625 31.4374 21.3984 30.0014 21.3984C28.5655 21.3984 27.4014 22.5625 27.4014 23.9984Z" fill="current"/>
<path d="M15.4014 13.5981C15.4014 15.034 16.5655 16.198 18.0014 16.198C19.4374 16.198 20.6014 15.034 20.6014 13.5981C20.6014 12.1621 19.4374 10.998 18.0014 10.998C16.5655 10.998 15.4014 12.1621 15.4014 13.5981Z" fill="current"/>
<path d="M15.4014 34.3988C15.4014 35.8348 16.5655 36.9988 18.0014 36.9988C19.4374 36.9988 20.6014 35.8348 20.6014 34.3988C20.6014 32.9629 19.4374 31.7988 18.0014 31.7988C16.5655 31.7988 15.4014 32.9629 15.4014 34.3988Z" fill="current"/>
<path d="M15.4014 23.9984C15.4014 25.4344 16.5655 26.5984 18.0014 26.5984C19.4374 26.5984 20.6014 25.4344 20.6014 23.9984C20.6014 22.5625 19.4374 21.3984 18.0014 21.3984C16.5655 21.3984 15.4014 22.5625 15.4014 23.9984Z" fill="current"/>
</svg>
