<svg width="current" height="current" viewBox="0 0 48 48" fill="none" xmlns="http://www.w3.org/2000/svg">
<path d="M34.2293 18.1703L36.5793 15.8203L34.1793 13.4203L31.7593 15.8403C30.0093 14.5703 27.9493 13.7103 25.7093 13.4203V11.7003H28.0093V8.30029H20.0093V11.7003H22.3093V13.4203C20.0693 13.7103 17.9993 14.5703 16.2593 15.8403L13.8393 13.4203L11.4393 15.8203L13.7893 18.1703C11.9393 20.4403 10.8193 23.3403 10.8193 26.5003C10.8193 33.7803 16.7393 39.7003 24.0193 39.7003C31.2993 39.7003 37.2193 33.7803 37.2193 26.5003C37.2193 23.3403 36.0993 20.4503 34.2493 18.1703H34.2293ZM23.9993 36.3003C18.5993 36.3003 14.1993 31.9003 14.1993 26.5003C14.1993 21.1003 18.5993 16.7003 23.9993 16.7003C29.3993 16.7003 33.7993 21.1003 33.7993 26.5003C33.7993 31.9003 29.3993 36.3003 23.9993 36.3003Z" fill="current"/>
<path d="M20.1993 26.0003H16.7993V31.0003H20.1993V26.0003Z" fill="current"/>
<path d="M25.6993 21.0003H22.2993V31.0003H25.6993V21.0003Z" fill="current"/>
<path d="M31.1993 24.0003H27.7993V31.0003H31.1993V24.0003Z" fill="current"/>
</svg>
