<svg width="current" height="current" viewBox="0 0 48 48" fill="none" xmlns="http://www.w3.org/2000/svg">
<path d="M8.80012 11.1998L13.7701 16.1698C11.2901 18.0598 9.54012 20.5098 8.54012 22.8798C8.23012 23.5998 8.23012 24.3998 8.54012 25.1298C10.6101 29.9998 15.7601 35.2098 24.0101 35.2098C26.9101 35.2098 29.3001 34.5998 31.2801 33.6798L36.8101 39.2098L39.2101 36.8098L11.2001 8.7998L8.80012 11.1998ZM24.0001 31.7998C15.9801 31.7998 12.6801 26.0798 11.7501 23.9998C12.2901 22.7998 13.6201 20.4098 16.1801 18.5798L18.2301 20.6298C17.6501 21.6198 17.3001 22.7698 17.3001 23.9998C17.3001 27.6898 20.3101 30.6998 24.0001 30.6998C25.2301 30.6998 26.3801 30.3598 27.3701 29.7698L28.6501 31.0498C27.3101 31.5098 25.7801 31.7998 24.0001 31.7998ZM24.7901 27.1998C24.5401 27.2598 24.2701 27.2998 24.0001 27.2998C22.1801 27.2998 20.7001 25.8198 20.7001 23.9998C20.7001 23.7298 20.7401 23.4598 20.8001 23.2098L24.7901 27.1998Z" fill="current"/>
<path d="M39.4701 22.8798C38.4701 20.5198 34.3801 12.7998 24.0001 12.7998C22.4601 12.7998 21.0301 12.9798 19.7101 13.3098L22.6601 16.2598C23.0901 16.2198 23.5301 16.1998 24.0001 16.1998C32.0201 16.1998 35.3201 21.9198 36.2501 23.9998C35.8901 24.8098 35.1601 26.1698 33.9401 27.5298L36.3501 29.9398C38.0801 28.0298 39.0501 26.1098 39.4801 25.1198C39.7801 24.3998 39.7801 23.5998 39.4801 22.8798H39.4701Z" fill="current"/>
<path d="M24.0001 17.2998C23.9001 17.2998 23.8101 17.3098 23.7201 17.3098L30.6901 24.2798C30.6901 24.1898 30.7001 24.0898 30.7001 23.9998C30.7001 20.3098 27.6901 17.2998 24.0001 17.2998Z" fill="current"/>
</svg>
