<svg width="current" height="current" viewBox="0 0 48 48" fill="none" xmlns="http://www.w3.org/2000/svg">
<path d="M12.2106 37.4692C11.8667 37.465 11.527 37.3937 11.2106 37.2593C10.7219 37.0573 10.3041 36.7146 10.0104 36.2749C9.71662 35.8352 9.56005 35.3181 9.56055 34.7893V15.5992C9.56316 14.2589 10.0955 12.9738 11.0414 12.0242C11.9873 11.0745 13.2702 10.5372 14.6106 10.5293H33.4106C34.7545 10.5319 36.0424 11.067 36.9927 12.0172C37.9429 12.9674 38.4779 14.2554 38.4806 15.5992V27.2094C38.4779 28.5532 37.9429 29.8411 36.9927 30.7914C36.0424 31.7416 34.7545 32.2767 33.4106 32.2793H18.6106L14.1306 36.6993C13.8779 36.949 13.5779 37.1456 13.2482 37.2778C12.9185 37.41 12.5657 37.4751 12.2106 37.4692ZM14.6106 13.4692C14.0457 13.4692 13.5039 13.6937 13.1045 14.0931C12.705 14.4926 12.4806 15.0343 12.4806 15.5992V34.1393L16.9207 29.7593C17.1861 29.4924 17.5444 29.3384 17.9207 29.3293H33.3806C33.9429 29.3293 34.4821 29.106 34.8796 28.7084C35.2772 28.3108 35.5006 27.7716 35.5006 27.2094V15.5992C35.5019 15.32 35.448 15.0433 35.342 14.7849C35.2361 14.5265 35.0802 14.2917 34.8832 14.0938C34.6862 13.8958 34.4521 13.7388 34.1942 13.6316C33.9364 13.5244 33.6599 13.4692 33.3806 13.4692H14.6106Z" fill="current"/>
<path d="M16.7399 20.1989C16.4519 20.5229 16.2985 20.9448 16.3113 21.3782C16.324 21.8115 16.5019 22.2236 16.8085 22.5302C17.115 22.8367 17.5272 23.0146 17.9606 23.0273C18.3939 23.0401 18.8158 22.8868 19.1399 22.5988C19.4279 22.2747 19.5811 21.8529 19.5684 21.4196C19.5556 20.9862 19.3779 20.574 19.0713 20.2675C18.7647 19.9609 18.3526 19.783 17.9192 19.7703C17.4858 19.7575 17.0639 19.9109 16.7399 20.1989Z" fill="current"/>
<path d="M22.7996 20.2001C22.5627 20.4382 22.4017 20.741 22.3367 21.0706C22.2718 21.4001 22.306 21.7415 22.4349 22.0516C22.5638 22.3618 22.7817 22.6268 23.0611 22.8132C23.3405 22.9997 23.6688 23.0992 24.0047 23.0992C24.3406 23.0992 24.6689 22.9997 24.9483 22.8132C25.2277 22.6268 25.4456 22.3618 25.5745 22.0516C25.7035 21.7415 25.7376 21.4001 25.6727 21.0706C25.6078 20.741 25.4466 20.4382 25.2097 20.2001C25.0517 20.0413 24.864 19.9153 24.6572 19.8293C24.4504 19.7434 24.2287 19.6992 24.0047 19.6992C23.7808 19.6992 23.559 19.7434 23.3523 19.8293C23.1455 19.9153 22.9576 20.0413 22.7996 20.2001Z" fill="current"/>
<path d="M31.2695 20.1997C31.1156 20.0265 30.9279 19.8866 30.718 19.7886C30.5081 19.6906 30.2804 19.6365 30.0488 19.6296C29.8173 19.6228 29.5868 19.6634 29.3715 19.7489C29.1561 19.8344 28.9606 19.963 28.7968 20.1268C28.6329 20.2906 28.5043 20.4862 28.4188 20.7015C28.3333 20.9169 28.2927 21.1475 28.2996 21.379C28.3064 21.6106 28.3604 21.8383 28.4584 22.0482C28.5564 22.2581 28.6963 22.4457 28.8695 22.5996C29.1936 22.8876 29.6155 23.041 30.0488 23.0282C30.4822 23.0154 30.8944 22.8376 31.2009 22.531C31.5075 22.2244 31.6852 21.8124 31.698 21.379C31.7108 20.9457 31.5575 20.5238 31.2695 20.1997Z" fill="current"/>
</svg>
