<svg width="current" height="current" viewBox="0 0 48 48" fill="none" xmlns="http://www.w3.org/2000/svg">
<path d="M34.7 30.4499V21.1499C34.6946 18.6097 33.7866 16.1542 32.138 14.2216C30.4894 12.2891 28.2076 11.0055 25.7 10.5999V8.1499H22.3V10.5999C19.7924 11.0055 17.5106 12.2891 15.862 14.2216C14.2134 16.1542 13.3054 18.6097 13.3 21.1499V30.4499H11V33.8499H19.3V35.1499C19.3 36.3964 19.7952 37.5919 20.6766 38.4733C21.558 39.3547 22.7535 39.8499 24 39.8499C25.2465 39.8499 26.442 39.3547 27.3234 38.4733C28.2048 37.5919 28.7 36.3964 28.7 35.1499V33.8499H37V30.4499H34.7ZM25.3 35.1499C25.3 35.4947 25.163 35.8253 24.9192 36.0691C24.6754 36.3129 24.3448 36.4499 24 36.4499C23.6552 36.4499 23.3246 36.3129 23.0808 36.0691C22.837 35.8253 22.7 35.4947 22.7 35.1499V33.8499H25.3V35.1499ZM27 30.4499H16.7V21.1499C16.7 19.2138 17.4691 17.357 18.8381 15.988C20.2071 14.619 22.0639 13.8499 24 13.8499C25.9361 13.8499 27.7929 14.619 29.1619 15.988C30.5309 17.357 31.3 19.2138 31.3 21.1499V30.4499H27Z" fill="current"/>
</svg>
