<svg width="current" height="current" viewBox="0 0 48 48" fill="none" xmlns="http://www.w3.org/2000/svg">
<path d="M13.5981 26.6003C15.034 26.6003 16.198 25.4363 16.198 24.0004C16.198 22.5644 15.034 21.4004 13.5981 21.4004C12.1621 21.4004 10.998 22.5644 10.998 24.0004C10.998 25.4363 12.1621 26.6003 13.5981 26.6003Z" fill="current"/>
<path d="M34.3988 26.6003C35.8348 26.6003 36.9988 25.4363 36.9988 24.0004C36.9988 22.5644 35.8348 21.4004 34.3988 21.4004C32.9629 21.4004 31.7988 22.5644 31.7988 24.0004C31.7988 25.4363 32.9629 26.6003 34.3988 26.6003Z" fill="current"/>
<path d="M23.9984 26.6003C25.4344 26.6003 26.5984 25.4363 26.5984 24.0004C26.5984 22.5644 25.4344 21.4004 23.9984 21.4004C22.5625 21.4004 21.3984 22.5644 21.3984 24.0004C21.3984 25.4363 22.5625 26.6003 23.9984 26.6003Z" fill="current"/>
</svg>
