<svg width="current" height="current" viewBox="0 0 48 48" fill="none" xmlns="http://www.w3.org/2000/svg">
<path d="M21.9508 28.1997L20.7508 26.3997C20.2308 25.6197 19.3508 25.1497 18.4108 25.1497C17.4708 25.1497 16.6008 25.6197 16.0708 26.3997L14.4708 28.7997C13.8908 29.6597 13.8408 30.7697 14.3308 31.6797C14.8208 32.5897 15.7708 33.1597 16.8008 33.1597H29.3508C30.3508 33.1597 31.2608 32.6397 31.7708 31.7797C32.2808 30.9197 32.2908 29.8697 31.8008 28.9897L29.1808 24.2697C28.6708 23.3497 27.7008 22.7797 26.6408 22.7797C25.5808 22.7797 24.6208 23.3497 24.1008 24.2697L21.9208 28.1997H21.9508Z" fill="current"/>
<path d="M36.7008 11.2997V5.92969H33.3008V11.2997H27.9308V14.6997H33.3008V20.0697H36.7008V14.6997H42.0708V11.2997H36.7008Z" fill="current"/>
<path d="M33.3008 33.3997C33.3008 34.4497 32.4508 35.2997 31.4008 35.2997H14.6008C13.5508 35.2997 12.7008 34.4497 12.7008 33.3997V16.5997C12.7008 15.5497 13.5508 14.6997 14.6008 14.6997H24.2308V11.2997H14.6008C11.6808 11.2997 9.30078 13.6797 9.30078 16.5997V33.3997C9.30078 36.3197 11.6808 38.6997 14.6008 38.6997H31.4008C34.3208 38.6997 36.7008 36.3197 36.7008 33.3997V23.7697H33.3008V33.3997Z" fill="current"/>
</svg>
