<svg width="current" height="current" viewBox="0 0 48 48" fill="none" xmlns="http://www.w3.org/2000/svg">
<path d="M35.8301 16.1502C34.4602 14.0783 32.5691 12.4035 30.3468 11.2941C28.1245 10.1847 25.6493 9.67979 23.1701 9.83016L26.2801 6.47016L23.7901 4.16016L18.3501 10.0002C18.0861 10.2895 17.8828 10.6289 17.7523 10.9982C17.6218 11.3675 17.5666 11.7592 17.5901 12.1502C17.6155 12.5332 17.7171 12.9074 17.8888 13.2508C18.0605 13.5942 18.2989 13.8999 18.5901 14.1502L24.7101 19.2902L26.9001 16.6802L22.7701 13.2102C25.2779 12.9 27.8151 13.4789 29.94 14.8463C32.065 16.2137 33.6433 18.283 34.4001 20.6939C35.1569 23.1048 35.0444 25.7048 34.0821 28.0413C33.1198 30.3778 31.3686 32.3029 29.1335 33.4816C26.8983 34.6603 24.3205 35.0179 21.8489 34.4922C19.3773 33.9664 17.1682 32.5907 15.6063 30.6043C14.0443 28.618 13.2283 26.1469 13.3002 23.621C13.3722 21.0951 14.3275 18.6744 16.0001 16.7802L13.4401 14.5002C11.6635 16.4745 10.4763 18.9076 10.0133 21.5229C9.55033 24.1382 9.83009 26.8309 10.8208 29.2952C11.8116 31.7595 13.4736 33.8965 15.6181 35.4635C17.7625 37.0305 20.3035 37.9647 22.9523 38.1599C25.6011 38.3551 28.2515 37.8035 30.6025 36.5678C32.9536 35.3321 34.9109 33.4618 36.2522 31.1693C37.5934 28.8769 38.2649 26.2543 38.1903 23.5993C38.1157 20.9444 37.298 18.3636 35.8301 16.1502Z" fill="current"/>
</svg>
