<svg width="current" height="current" viewBox="0 0 48 48" fill="none" xmlns="http://www.w3.org/2000/svg">
<path d="M24.0008 39.6999C23.5708 39.6999 23.1508 39.6099 22.7508 39.4199C19.9408 38.0699 10.8008 32.8399 10.8008 21.9099V16.6199C10.8008 14.3999 12.2008 12.3999 14.2908 11.6399L23.0108 8.46986C23.6508 8.23986 24.3508 8.23986 24.9908 8.46986L33.7108 11.6299C35.8008 12.3899 37.2008 14.3899 37.2008 16.6099V21.8999C37.2008 32.8299 28.0608 38.0599 25.2508 39.4099C24.8508 39.5999 24.4208 39.6999 23.9908 39.6999H24.0008ZM15.4508 14.8399C14.7008 15.1099 14.2008 15.8299 14.2008 16.6299V21.9199C14.2008 30.6099 21.4308 34.9799 24.0008 36.2599C26.5608 34.9899 33.8008 30.6199 33.8008 21.9199V16.6299C33.8008 15.8299 33.3008 15.1199 32.5508 14.8399L24.0008 11.7399L15.4508 14.8399Z" fill="current"/>
<path d="M24.7908 22.0399H24.7408C23.6008 21.7399 22.6908 21.5099 22.6908 20.8299C22.6908 20.3099 23.2808 20.0699 23.8608 20.0699C24.4408 20.0699 25.1108 20.3399 25.1108 21.1199V21.1399L28.5308 21.1099C28.5308 19.1399 27.3908 17.7599 25.4108 17.3199L25.2908 17.2899V16.0799H22.5308V17.2799L22.4108 17.2999C20.3908 17.7099 19.2208 19.0299 19.2208 20.9199C19.2208 23.6999 21.4608 24.2599 23.2608 24.6999H23.3208C24.4608 24.9899 25.3508 25.2199 25.3508 25.9499C25.3508 26.5799 24.6508 26.9199 23.9908 26.9199C23.2908 26.9199 22.5808 26.5399 22.5808 25.6999V25.6799L19.0608 25.6999C19.0608 27.7999 20.3608 29.3199 22.5308 29.7699L22.6508 29.7899V31.0599H25.4108V29.7799L25.5308 29.7599C27.6808 29.3099 28.9208 27.8999 28.9208 25.8799C28.9208 23.0899 26.5308 22.4699 24.7808 22.0199L24.7908 22.0399Z" fill="current"/>
</svg>
