<svg width="current" height="current" viewBox="0 0 48 48" fill="none" xmlns="http://www.w3.org/2000/svg">
<path d="M24.0008 40.7008C20.6978 40.7008 17.4691 39.7213 14.7228 37.8863C11.9765 36.0513 9.83599 33.4431 8.57201 30.3916C7.30802 27.34 6.9773 23.9823 7.62167 20.7428C8.26605 17.5033 9.85657 14.5276 12.1921 12.1921C14.5276 9.85657 17.5033 8.26605 20.7428 7.62168C23.9823 6.9773 27.3401 7.30801 30.3916 8.57199C33.4431 9.83598 36.0513 11.9765 37.8863 14.7228C39.7214 17.4691 40.7008 20.6978 40.7008 24.0007C40.6955 28.4282 38.9343 32.6729 35.8036 35.8036C32.6729 38.9343 28.4283 40.6955 24.0008 40.7008ZM24.0008 10.7008C21.3703 10.7008 18.7989 11.4808 16.6117 12.9422C14.4245 14.4037 12.7198 16.4808 11.7132 18.9111C10.7065 21.3414 10.4432 24.0155 10.9563 26.5954C11.4695 29.1754 12.7362 31.5452 14.5963 33.4052C16.4563 35.2653 18.8261 36.532 21.4061 37.0451C23.986 37.5583 26.6602 37.2949 29.0905 36.2883C31.5207 35.2817 33.5979 33.577 35.0593 31.3899C36.5208 29.2027 37.3008 26.6312 37.3008 24.0007C37.2981 20.4741 35.896 17.0928 33.4024 14.5991C30.9087 12.1054 27.5274 10.7034 24.0008 10.7008Z" fill="current"/>
<path d="M17.841 33.0514C17.3821 33.0498 16.9301 32.9393 16.5222 32.729C16.1143 32.5187 15.7622 32.2146 15.4947 31.8417C15.2272 31.4688 15.0521 31.0377 14.9836 30.5839C14.9152 30.1301 14.9554 29.6666 15.101 29.2314L17.791 21.1414C18.0557 20.3622 18.4965 19.6545 19.0793 19.0735C19.6621 18.4925 20.371 18.0538 21.151 17.7914L29.231 15.1013C29.7448 14.9183 30.3002 14.8861 30.8317 15.0083C31.3633 15.1306 31.8488 15.4023 32.231 15.7914C32.6194 16.1741 32.8921 16.6586 33.0176 17.1892C33.1432 17.7199 33.1167 18.2752 32.941 18.7914L30.241 26.8814C29.9793 27.6606 29.5407 28.3686 28.9595 28.9499C28.3782 29.5311 27.6702 29.9697 26.891 30.2314L18.801 32.9314C18.4896 33.0231 18.1654 33.0636 17.841 33.0514ZM29.361 18.6414L22.221 21.0214C21.9413 21.114 21.6871 21.2708 21.4787 21.4792C21.2704 21.6875 21.1136 21.9416 21.021 22.2213L18.641 29.3614L25.781 26.9814C26.0607 26.8887 26.3149 26.7321 26.5232 26.5237C26.7316 26.3154 26.8883 26.0611 26.981 25.7814L29.361 18.6414Z" fill="current"/>
<path d="M24.0008 25.7008C24.9397 25.7008 25.7008 24.9397 25.7008 24.0008C25.7008 23.0619 24.9397 22.3008 24.0008 22.3008C23.0619 22.3008 22.3008 23.0619 22.3008 24.0008C22.3008 24.9397 23.0619 25.7008 24.0008 25.7008Z" fill="current"/>
</svg>
