<svg width="current" height="current" viewBox="0 0 48 48" fill="none" xmlns="http://www.w3.org/2000/svg">
<path d="M37.6698 17.67C37.6398 17.52 37.5898 17.39 37.5198 17.26C37.4998 17.23 37.4898 17.19 37.4698 17.16C37.3998 17.03 37.3098 16.91 37.1998 16.8L29.1998 8.80005C29.0898 8.69005 28.9698 8.61005 28.8398 8.53005C28.8098 8.51005 28.7798 8.50005 28.7498 8.48005C28.5198 8.37005 28.2698 8.30005 27.9998 8.30005H15.5998C12.6798 8.30005 10.2998 10.68 10.2998 13.6V34.4001C10.2998 37.3201 12.6798 39.7001 15.5998 39.7001H32.3998C35.3198 39.7001 37.6998 37.3201 37.6998 34.4001V18C37.6998 17.89 37.6898 17.78 37.6698 17.67ZM31.8998 16.3H29.6998V14.1L31.8998 16.3ZM32.3998 36.3H15.5998C14.5498 36.3 13.6998 35.4501 13.6998 34.4001V13.6C13.6998 12.55 14.5498 11.7 15.5998 11.7H26.2998V16.8C26.2998 18.4 27.5998 19.7 29.1998 19.7H34.2998V34.4001C34.2998 35.4501 33.4498 36.3 32.3998 36.3Z" fill="current"/>
<path d="M22.2498 28.56L19.2398 25.31L16.7498 27.62L20.5298 31.7001C20.9498 32.16 21.5498 32.43 22.1698 32.44C22.1898 32.44 22.1998 32.44 22.2198 32.44C22.8198 32.44 23.4098 32.2001 23.8398 31.7701L31.1898 24.4501L28.7898 22.04L22.2398 28.56H22.2498Z" fill="current"/>
</svg>
