<svg width="current" height="current" viewBox="0 0 48 48" fill="none" xmlns="http://www.w3.org/2000/svg">
<path d="M36.7108 17.9691L27.3108 10.4591C25.3608 8.89906 22.6408 8.89906 20.6908 10.4591L11.2908 17.9691C10.0208 18.9791 9.30078 20.4891 9.30078 22.1091V33.3991C9.30078 36.3191 11.6808 38.6991 14.6008 38.6991H33.4008C36.3208 38.6991 38.7008 36.3191 38.7008 33.3991V22.1091C38.7008 20.4891 37.9708 18.9791 36.7108 17.9691ZM22.2008 35.2991V29.6991H25.8008V35.2991H22.2008ZM35.3008 33.3991C35.3008 34.4491 34.4508 35.2991 33.4008 35.2991H29.2008V29.1991C29.2008 27.5991 27.9008 26.2991 26.3008 26.2991H21.7008C20.1008 26.2991 18.8008 27.5991 18.8008 29.1991V35.2991H14.6008C13.5508 35.2991 12.7008 34.4491 12.7008 33.3991V22.1091C12.7008 21.5291 12.9608 20.9891 13.4108 20.6291L22.8108 13.1191C23.1608 12.8391 23.5808 12.6991 24.0008 12.6991C24.4208 12.6991 24.8408 12.8391 25.1908 13.1191L34.5908 20.6291C35.0408 20.9891 35.3008 21.5291 35.3008 22.1091V33.3991Z" fill="current"/>
</svg>
