<svg width="current" height="current" viewBox="0 0 48 48" fill="none" xmlns="http://www.w3.org/2000/svg">
<path d="M23.9999 40.7008C20.6969 40.7008 17.4681 39.7213 14.7218 37.8863C11.9755 36.0513 9.835 33.4431 8.57102 30.3916C7.30703 27.34 6.97633 23.9823 7.6207 20.7428C8.26507 17.5033 9.8556 14.5276 12.1911 12.1921C14.5267 9.85657 17.5023 8.26605 20.7418 7.62168C23.9813 6.9773 27.3391 7.30801 30.3906 8.57199C33.4421 9.83598 36.0503 11.9765 37.8853 14.7228C39.7204 17.4691 40.6998 20.6978 40.6998 24.0007C40.6945 28.4282 38.9334 32.6729 35.8027 35.8036C32.672 38.9343 28.4273 40.6955 23.9999 40.7008ZM23.9999 10.7008C21.3694 10.7008 18.7979 11.4808 16.6107 12.9422C14.4235 14.4037 12.7189 16.4808 11.7123 18.9111C10.7056 21.3414 10.4422 24.0155 10.9554 26.5954C11.4686 29.1754 12.7353 31.5452 14.5953 33.4052C16.4553 35.2653 18.8252 36.532 21.4051 37.0451C23.9851 37.5583 26.6593 37.2949 29.0896 36.2883C31.5198 35.2817 33.5969 33.577 35.0583 31.3899C36.5197 29.2027 37.2998 26.6312 37.2998 24.0007C37.2971 20.4741 35.8951 17.0928 33.4015 14.5991C30.9078 12.1054 27.5264 10.7034 23.9999 10.7008Z" fill="current"/>
<path d="M25.6881 29.25H22.2881V32.25H25.6881V29.25Z" fill="current"/>
<path d="M25.6984 27.051H22.3485V26.051C22.3261 25.22 22.5446 24.4001 22.9775 23.6904C23.4104 22.9807 24.0392 22.4114 24.7884 22.051C24.9772 21.9961 25.1531 21.904 25.306 21.7804C25.4588 21.6567 25.5854 21.504 25.6785 21.3308C25.7716 21.1576 25.8293 20.9676 25.8482 20.772C25.8671 20.5763 25.8467 20.3788 25.7884 20.191C25.7084 19.8982 25.554 19.631 25.3403 19.4155C25.1265 19.2 24.8606 19.0434 24.5684 18.961C24.2944 18.8847 24.0063 18.873 23.727 18.9267C23.4476 18.9805 23.1846 19.0984 22.9584 19.271C22.7393 19.4392 22.5622 19.6558 22.4407 19.9039C22.3193 20.152 22.2569 20.4248 22.2585 20.701H18.8585C18.8545 19.9071 19.0327 19.1227 19.3795 18.4084C19.7262 17.6942 20.2322 17.069 20.8585 16.581C21.4953 16.0924 22.2357 15.7563 23.0228 15.5985C23.8098 15.4407 24.6225 15.4655 25.3985 15.671C26.2785 15.9068 27.0809 16.37 27.7252 17.0143C28.3694 17.6585 28.8326 18.461 29.0684 19.3411C29.3879 20.4916 29.2718 21.7195 28.7423 22.7897C28.2127 23.8599 27.3069 24.697 26.1984 25.141C26.0536 25.2361 25.936 25.3672 25.8571 25.5215C25.7782 25.6757 25.7408 25.8479 25.7485 26.021L25.6984 27.051Z" fill="current"/>
</svg>
