<svg width="current" height="current" viewBox="0 0 48 48" fill="none" xmlns="http://www.w3.org/2000/svg">
<path d="M33.4008 9.2998H14.6008C13.1959 9.30245 11.8494 9.86169 10.856 10.8551C9.86266 11.8484 9.30342 13.195 9.30078 14.5998V27.3998C9.30342 28.8046 9.86266 30.1512 10.856 31.1446C11.8494 32.1379 13.1959 32.6972 14.6008 32.6998H22.2008V35.2998H18.0008V38.6998H30.0008V35.2998H25.8008V32.6998H33.4008C34.8056 32.6972 36.1522 32.1379 37.1455 31.1446C38.1389 30.1512 38.6981 28.8046 38.7008 27.3998V14.5998C38.6981 13.195 38.1389 11.8484 37.1455 10.8551C36.1522 9.86169 34.8056 9.30245 33.4008 9.2998Z" fill="current"/>
</svg>
