<svg width="current" height="current" viewBox="0 0 48 48" fill="none" xmlns="http://www.w3.org/2000/svg">
<path d="M40.6996 19.3302C40.6996 18.1702 40.0396 17.1502 38.9796 16.6802L25.1796 10.5502C24.4296 10.2202 23.5696 10.2202 22.8296 10.5502L9.02957 16.6802C7.96957 17.1502 7.30957 18.1702 7.30957 19.3302C7.30957 20.4902 7.96957 21.5102 9.02957 21.9802L12.8096 23.6602V31.8602C12.8096 32.5302 13.1996 33.1402 13.8196 33.4102L22.8296 37.4402C23.2096 37.6102 23.6096 37.6902 24.0096 37.6902C24.4096 37.6902 24.8196 37.6102 25.1996 37.4402L34.2096 33.4102C34.8196 33.1402 35.2196 32.5302 35.2196 31.8602V23.6602L37.3196 22.7302V31.3302H40.7196V19.3302H40.6996ZM31.7996 30.7602L23.9996 34.2502L16.1996 30.7602V25.1702L22.8196 28.1102C23.1996 28.2802 23.5996 28.3602 23.9996 28.3602C24.3996 28.3602 24.7996 28.2802 25.1796 28.1102L31.7996 25.1702V30.7602ZM23.9996 24.9102L11.4296 19.3302L23.9996 13.7502L36.5696 19.3302L23.9996 24.9102Z" fill="current"/>
</svg>
