<svg width="current" height="current" viewBox="0 0 48 48" fill="none" xmlns="http://www.w3.org/2000/svg">
<path d="M24 40.6988C14.79 40.6988 7.30005 33.2088 7.30005 23.9988C7.30005 14.7888 14.79 7.29883 24 7.29883C33.21 7.29883 40.7001 14.7888 40.7001 23.9988C40.7001 33.2088 33.21 40.6988 24 40.6988ZM24 10.6988C16.67 10.6988 10.7 16.6688 10.7 23.9988C10.7 31.3288 16.67 37.2988 24 37.2988C31.33 37.2988 37.3 31.3288 37.3 23.9988C37.3 16.6688 31.33 10.6988 24 10.6988Z" fill="current"/>
<path d="M32.2001 30.8488H28.8V23.6388L25.32 27.9188C24.68 28.7088 23.33 28.7088 22.68 27.9188L19.2 23.6288V30.8388H15.8V18.8388C15.8 18.1188 16.25 17.4788 16.93 17.2388C17.61 16.9988 18.36 17.2088 18.82 17.7688L24 24.1488L29.18 17.7688C29.6301 17.2088 30.39 16.9988 31.07 17.2388C31.75 17.4788 32.2001 18.1188 32.2001 18.8388V30.8488Z" fill="current"/>
</svg>
