<svg width="current" height="current" viewBox="0 0 48 48" fill="none" xmlns="http://www.w3.org/2000/svg">
<path d="M37.6698 17.6698C37.6398 17.5198 37.5898 17.3898 37.5198 17.2598C37.4998 17.2298 37.4898 17.1898 37.4698 17.1598C37.3998 17.0298 37.3098 16.9098 37.1998 16.7998L29.1998 8.7998C29.0898 8.6898 28.9698 8.6098 28.8398 8.5298C28.8098 8.5098 28.7798 8.4998 28.7498 8.4798C28.5198 8.3698 28.2698 8.2998 27.9998 8.2998H15.5998C12.6798 8.2998 10.2998 10.6798 10.2998 13.5998V34.3998C10.2998 37.3198 12.6798 39.6998 15.5998 39.6998H32.3998C35.3198 39.6998 37.6998 37.3198 37.6998 34.3998V17.9998C37.6998 17.8898 37.6898 17.7798 37.6698 17.6698ZM31.8998 16.2998H29.6998V14.0998L31.8998 16.2998ZM32.3998 36.2998H15.5998C14.5498 36.2998 13.6998 35.4498 13.6998 34.3998V13.5998C13.6998 12.5498 14.5498 11.6998 15.5998 11.6998H26.2998V16.7998C26.2998 18.3998 27.5998 19.6998 29.1998 19.6998H34.2998V34.3998C34.2998 35.4498 33.4498 36.2998 32.3998 36.2998Z" fill="current"/>
<path d="M27.7998 20.7998L23.9998 24.5998L20.1998 20.7998L17.7998 23.1998L21.5998 26.9998L17.7998 30.7998L20.1998 33.1998L23.9998 29.3998L27.7998 33.1998L30.1998 30.7998L26.3998 26.9998L30.1998 23.1998L27.7998 20.7998Z" fill="current"/>
</svg>
