<svg width="current" height="current" viewBox="0 0 192 192" fill="current" xmlns="http://www.w3.org/2000/svg">
<path d="M96 164C133.555 164 164 133.555 164 96C164 58.4446 133.555 28 96 28C58.4446 28 28 58.4446 28 96C28 133.555 58.4446 164 96 164Z" fill="current"/>
<path d="M46.5205 135.37L96.0005 164H37.2105C30.0805 164 26.5105 155.38 31.5505 150.34L46.5205 135.37Z" fill="current"/>
<path d="M66 104C70.4183 104 74 100.418 74 96C74 91.5817 70.4183 88 66 88C61.5817 88 58 91.5817 58 96C58 100.418 61.5817 104 66 104Z" fill="white"/>
<path d="M96 104C100.418 104 104 100.418 104 96C104 91.5817 100.418 88 96 88C91.5817 88 88 91.5817 88 96C88 100.418 91.5817 104 96 104Z" fill="white"/>
<path d="M126 104C130.418 104 134 100.418 134 96C134 91.5817 130.418 88 126 88C121.582 88 118 91.5817 118 96C118 100.418 121.582 104 126 104Z" fill="white"/>
</svg>
