<svg width="current" height="current" viewBox="0 0 48 48" fill="none" xmlns="http://www.w3.org/2000/svg">
<path d="M32.3998 19.2998H31.6998V15.9998C31.6998 11.7498 28.2498 8.2998 23.9998 8.2998C19.7498 8.2998 16.2998 11.7498 16.2998 15.9998V19.2998H15.5998C12.6798 19.2998 10.2998 21.6798 10.2998 24.5998V34.3998C10.2998 37.3198 12.6798 39.6998 15.5998 39.6998H32.3998C35.3198 39.6998 37.6998 37.3198 37.6998 34.3998V24.5998C37.6998 21.6798 35.3198 19.2998 32.3998 19.2998ZM25.6998 30.2498V33.2998H22.2998V30.2498C21.7498 29.7698 21.3998 29.0798 21.3998 28.2998C21.3998 26.8598 22.5598 25.6998 23.9998 25.6998C25.4398 25.6998 26.5998 26.8598 26.5998 28.2998C26.5998 29.0798 26.2498 29.7798 25.6998 30.2498ZM28.2998 19.2998H19.6998V15.9998C19.6998 13.6298 21.6298 11.6998 23.9998 11.6998C26.3698 11.6998 28.2998 13.6298 28.2998 15.9998V19.2998Z" fill="current"/>
</svg>
