<svg width="current" height="current" viewBox="0 0 48 48" fill="none" xmlns="http://www.w3.org/2000/svg">
<path d="M33.7998 38.7008C33.3135 38.7001 32.8354 38.5762 32.4099 38.3408L23.9999 33.7507L15.5898 38.3408C15.1486 38.5818 14.6522 38.7039 14.1495 38.6952C13.6468 38.6865 13.1551 38.5472 12.7224 38.291C12.2898 38.0349 11.9312 37.6706 11.6818 37.234C11.4324 36.7974 11.3007 36.3036 11.2998 35.8008V14.6007C11.2998 13.1951 11.8582 11.8471 12.8522 10.8531C13.8461 9.85921 15.1942 9.30078 16.5999 9.30078H31.3999C32.8055 9.30078 34.1535 9.85921 35.1475 10.8531C36.1414 11.8471 36.6998 13.1951 36.6998 14.6007V35.8008C36.7021 36.3039 36.5722 36.7987 36.323 37.2357C36.0738 37.6727 35.7141 38.0366 35.2799 38.2908C34.832 38.557 34.3209 38.6986 33.7998 38.7008ZM23.9999 30.1107C24.2834 30.1104 24.5622 30.1828 24.8098 30.3208L33.2998 34.9508V14.6007C33.2972 14.0976 33.0962 13.6159 32.7405 13.2601C32.3847 12.9044 31.903 12.7034 31.3999 12.7008H16.5999C16.0959 12.7008 15.6127 12.9009 15.2563 13.2572C14.9 13.6135 14.6998 14.0968 14.6998 14.6007V34.9508L23.1798 30.3208C23.4314 30.1836 23.7133 30.1113 23.9999 30.1107Z" fill="current"/>
</svg>
