<svg width="current" height="current" viewBox="0 0 48 48" fill="none" xmlns="http://www.w3.org/2000/svg">
<path d="M24.0033 37.4325C23.3058 37.4356 22.6146 37.2992 21.9706 37.0313C21.3266 36.7634 20.7427 36.3693 20.2533 35.8724C17.8933 33.5224 12.3232 27.9324 11.3932 26.9724C8.58324 24.0724 7.66327 20.7424 8.73327 17.3324C9.18763 15.8133 10.0253 14.4367 11.1656 13.335C12.3059 12.2333 13.7105 11.4436 15.2443 11.0418C16.7781 10.64 18.3896 10.6397 19.9236 11.0409C21.4576 11.442 22.8625 12.2311 24.0033 13.3324C25.144 12.2311 26.5489 11.442 28.0829 11.0409C29.6169 10.6397 31.2284 10.64 32.7622 11.0418C34.296 11.4436 35.7007 12.2333 36.841 13.335C37.9813 14.4367 38.8189 15.8133 39.2732 17.3324C40.3332 20.7424 39.4133 24.0724 36.6133 26.9724C35.7933 27.8124 31.3433 32.2824 27.7433 35.8724C27.255 36.3681 26.6727 36.7615 26.0305 37.0294C25.3883 37.2972 24.6991 37.4343 24.0033 37.4325ZM17.5832 14.1825C17.2721 14.1859 16.9614 14.2092 16.6533 14.2524C15.5694 14.43 14.5568 14.9071 13.7298 15.6298C12.9029 16.3526 12.2944 17.2921 11.9733 18.3424C11.2833 20.5524 11.8932 22.6024 13.8332 24.6024C14.7732 25.6024 20.8333 31.6024 22.6633 33.4724C23.023 33.8194 23.5034 34.0134 24.0033 34.0134C24.5032 34.0134 24.9835 33.8194 25.3433 33.4724C30.4033 28.4024 33.5433 25.2524 34.1633 24.6024C36.1033 22.6024 36.7132 20.6024 36.0232 18.3424C35.6976 17.2634 35.0672 16.3016 34.2079 15.5723C33.3486 14.8431 32.297 14.3777 31.1794 14.2319C30.0619 14.0861 28.926 14.2663 27.9084 14.7507C26.8908 15.2351 26.0348 16.003 25.4433 16.9624C25.2903 17.2062 25.0779 17.4072 24.826 17.5465C24.5742 17.6858 24.2911 17.7589 24.0033 17.7589C23.7155 17.7589 23.4323 17.6858 23.1805 17.5465C22.9286 17.4072 22.7163 17.2062 22.5633 16.9624C22.0408 16.1112 21.3084 15.4086 20.4364 14.9218C19.5644 14.435 18.5819 14.1805 17.5832 14.1825Z" fill="current"/>
</svg>
