<svg width="current" height="current" viewBox="0 0 48 48" fill="none" xmlns="http://www.w3.org/2000/svg">
<path d="M26.3 18.8H21.7C20.1 18.8 18.8 20.1 18.8 21.7V26.3C18.8 27.9 20.1 29.2 21.7 29.2H26.3C27.9 29.2 29.2 27.9 29.2 26.3V21.7C29.2 20.1 27.9 18.8 26.3 18.8ZM25.8 25.8H22.2V22.2H25.8V25.8Z" fill="current"/>
<path d="M39 21.7V18.3H35.7V17.6C35.7 14.68 33.32 12.3 30.4 12.3H29.7V9H26.3V12.3H21.7V9H18.3V12.3H17.6C14.68 12.3 12.3 14.68 12.3 17.6V18.3H9V21.7H12.3V26.3H9V29.7H12.3V30.4C12.3 33.32 14.68 35.7 17.6 35.7H18.3V39H21.7V35.7H26.3V39H29.7V35.7H30.4C33.32 35.7 35.7 33.32 35.7 30.4V29.7H39V26.3H35.7V21.7H39ZM32.3 30.4C32.3 31.45 31.45 32.3 30.4 32.3H17.6C16.55 32.3 15.7 31.45 15.7 30.4V17.6C15.7 16.55 16.55 15.7 17.6 15.7H30.4C31.45 15.7 32.3 16.55 32.3 17.6V30.4Z" fill="current"/>
</svg>
