<svg width="current" height="current" viewBox="0 0 48 48" fill="none" xmlns="http://www.w3.org/2000/svg">
<path d="M24 39.7099C23.57 39.7099 23.14 39.6099 22.74 39.4199C19.94 38.0799 10.8 32.8499 10.8 21.9099V16.6199C10.8 14.3999 12.2 12.3999 14.29 11.6399L23.01 8.46986C23.65 8.23986 24.35 8.23986 24.99 8.46986L33.71 11.6299C35.8 12.3899 37.2001 14.3899 37.2001 16.6099V21.8999C37.2001 32.8399 28.06 38.0699 25.25 39.4099C24.85 39.5999 24.42 39.6999 24 39.6999V39.7099ZM15.45 14.8399C14.7 15.1099 14.2 15.8299 14.2 16.6299V21.9199C14.2 30.6099 21.43 34.9799 24 36.2599C26.57 34.9799 33.8 30.6199 33.8 21.9199V16.6299C33.8 15.8299 33.3 15.1199 32.55 14.8399L24 11.7399L15.45 14.8399Z" fill="current"/>
</svg>
