<svg width="current" height="current" viewBox="0 0 48 48" fill="none" xmlns="http://www.w3.org/2000/svg">
<path d="M37.1004 29.9C37.1004 28.82 36.5404 27.87 35.7004 27.31V11H32.3004V27.31C31.4604 27.86 30.9004 28.81 30.9004 29.9C30.9004 30.99 31.4604 31.93 32.3004 32.49V37H35.7004V32.49C36.5404 31.94 37.1004 30.98 37.1004 29.9Z" fill="current"/>
<path d="M25.7004 15.51V11H22.3004V15.51C21.4604 16.06 20.9004 17.02 20.9004 18.1C20.9004 19.18 21.4604 20.13 22.3004 20.69V37H25.7004V20.69C26.5404 20.14 27.1004 19.19 27.1004 18.1C27.1004 17.01 26.5404 16.07 25.7004 15.51Z" fill="current"/>
<path d="M15.7004 24.41V11H12.3004V24.41C11.4604 24.96 10.9004 25.92 10.9004 27C10.9004 28.08 11.4604 29.03 12.3004 29.59V37H15.7004V29.59C16.5404 29.04 17.1004 28.09 17.1004 27C17.1004 25.91 16.5404 24.97 15.7004 24.41Z" fill="current"/>
</svg>
