<svg width="current" height="current" viewBox="0 0 48 48" fill="none" xmlns="http://www.w3.org/2000/svg">
<path d="M38.1698 21.1688C38.1398 21.0188 38.0898 20.8888 38.0198 20.7588C37.9998 20.7288 37.9898 20.6888 37.9698 20.6588C37.8998 20.5288 37.8098 20.4088 37.6998 20.2988L31.6998 14.2988C31.5898 14.1888 31.4698 14.1088 31.3398 14.0288C31.3098 14.0088 31.2798 13.9988 31.2498 13.9788C31.0198 13.8688 30.7698 13.7988 30.4998 13.7988H21.0998C18.1798 13.7988 15.7998 16.1788 15.7998 19.0988V34.8988C15.7998 37.8188 18.1798 40.1988 21.0998 40.1988H32.8998C35.8198 40.1988 38.1998 37.8188 38.1998 34.8988V21.4988C38.1998 21.3888 38.1898 21.2788 38.1698 21.1688ZM32.8998 36.7988H21.0998C20.0498 36.7988 19.1998 35.9488 19.1998 34.8988V19.0988C19.1998 18.0488 20.0498 17.1988 21.0998 17.1988H28.7998V20.2988C28.7998 21.8988 30.0998 23.1988 31.6998 23.1988H34.7998V34.8988C34.7998 35.9488 33.9498 36.7988 32.8998 36.7988Z" fill="current"/>
<path d="M30.4998 7.79883H15.0998C12.1798 7.79883 9.7998 10.1788 9.7998 13.0988V32.4988H13.1998V13.0988C13.1998 12.0488 14.0498 11.1988 15.0998 11.1988H30.4998V7.79883Z" fill="current"/>
</svg>
