<svg width="current" height="current" viewBox="0 0 48 48" fill="none" xmlns="http://www.w3.org/2000/svg">
<path d="M35.2998 24.9998V33.3998C35.2998 34.4498 34.4498 35.2998 33.3998 35.2998H14.5998C13.5498 35.2998 12.6998 34.4498 12.6998 33.3998V24.9998H9.2998V33.3998C9.2998 36.3198 11.6798 38.6998 14.5998 38.6998H33.3998C36.3198 38.6998 38.6998 36.3198 38.6998 33.3998V24.9998H35.2998Z" fill="current"/>
<path d="M23.9998 28.7798C24.7898 28.7798 25.5498 28.4498 26.0998 27.8798L32.1498 21.5298L29.6898 19.1798L25.6998 23.3698V9.33984H22.2998V23.3698L18.3098 19.1798L15.8498 21.5298L21.8998 27.8798C22.4398 28.4498 23.2098 28.7798 23.9998 28.7798Z" fill="current"/>
</svg>
