<svg width="current" height="current" viewBox="0 0 48 48" fill="none" xmlns="http://www.w3.org/2000/svg">
<path d="M34.4008 17.2988H33.2008V12.1988C33.2008 10.5988 31.9008 9.29883 30.3008 9.29883H17.7008C16.1008 9.29883 14.8008 10.5988 14.8008 12.1988V17.2988H13.6008C10.6808 17.2988 8.30078 19.6788 8.30078 22.5988V29.7988C8.30078 31.3988 9.60078 32.6988 11.2008 32.6988H14.8008V35.7988C14.8008 37.3988 16.1008 38.6988 17.7008 38.6988H30.3008C31.9008 38.6988 33.2008 37.3988 33.2008 35.7988V32.6988H36.8008C38.4008 32.6988 39.7008 31.3988 39.7008 29.7988V22.5988C39.7008 19.6788 37.3208 17.2988 34.4008 17.2988ZM18.2008 12.6988H29.8008V17.2988H18.2008V12.6988ZM29.8008 35.2988H18.2008V28.6988H29.8008V35.2988ZM36.3008 29.2988H33.2008V26.9988C33.2008 26.0588 32.4408 25.2988 31.5008 25.2988H16.5008C15.5608 25.2988 14.8008 26.0588 14.8008 26.9988V29.2988H11.7008V22.5988C11.7008 21.5488 12.5508 20.6988 13.6008 20.6988H34.4008C35.4508 20.6988 36.3008 21.5488 36.3008 22.5988V29.2988Z" fill="current"/>
<path d="M32.2908 22.2988C31.6308 22.9588 31.6308 24.0388 32.2908 24.6988C32.9508 25.3588 34.0308 25.3588 34.6908 24.6988C35.3508 24.0388 35.3508 22.9588 34.6908 22.2988C34.0308 21.6388 32.9508 21.6388 32.2908 22.2988Z" fill="current"/>
</svg>
