<svg width="current" height="current" viewBox="0 0 48 48" fill="none" xmlns="http://www.w3.org/2000/svg">
<path d="M37.3498 12.4108L36.2698 16.8608C33.7798 12.5708 29.1498 9.80078 23.9998 9.80078C16.1698 9.80078 9.7998 16.1708 9.7998 24.0008C9.7998 31.8308 16.1698 38.2008 23.9998 38.2008C30.4798 38.2008 36.1398 33.8208 37.7498 27.5508L34.4598 26.7008C33.2298 31.4708 28.9298 34.7908 23.9998 34.7908C18.0398 34.7908 13.1998 29.9508 13.1998 23.9908C13.1998 18.0308 18.0398 13.1908 23.9998 13.1908C28.1198 13.1908 31.7998 15.5208 33.6098 19.0708L28.4298 17.5508L27.4698 20.8108L35.1398 23.0708C35.4098 23.1508 35.6798 23.1908 35.9498 23.1908C36.4598 23.1908 36.9598 23.0608 37.3998 22.8008C38.0798 22.4108 38.5798 21.7408 38.7698 20.9708L40.6498 13.2008L37.3498 12.4008V12.4108Z" fill="current"/>
</svg>
