<svg width="current" height="current" viewBox="0 0 48 48" fill="current" xmlns="http://www.w3.org/2000/svg">
<path fill-rule="evenodd" clip-rule="evenodd" d="M25.2619 10.7691L24.0105 11.9197L22.7597 10.7685C23.0817 10.4186 23.5355 10.2196 24.011 10.2197C24.4864 10.2198 24.9401 10.4191 25.2619 10.7691ZM24.01 14.5082C23.9641 14.5627 23.9173 14.6185 23.8696 14.6756C23.0225 15.689 21.8966 17.0984 20.7742 18.6878C19.648 20.2827 18.5489 22.0263 17.7374 23.7107C16.9101 25.4279 16.4605 26.9247 16.4605 28.0697C16.4605 32.2408 19.8394 35.6197 24.0105 35.6197C28.1817 35.6197 31.5605 32.2408 31.5605 28.0697C31.5605 26.9275 31.1113 25.4322 30.2838 23.715C29.4722 22.0309 28.373 20.287 27.2467 18.6913C26.1243 17.1011 24.9982 15.6908 24.1511 14.6765C24.1031 14.6191 24.0561 14.563 24.01 14.5082ZM24.0105 11.9197C22.7597 10.7685 22.76 10.7682 22.7597 10.7685L22.7503 10.7788L22.7276 10.8036C22.7082 10.8248 22.6803 10.8556 22.6444 10.8953C22.5727 10.9749 22.4691 11.0905 22.3382 11.2389C22.0766 11.5355 21.7053 11.9634 21.2609 12.4951C20.3736 13.5567 19.187 15.0411 17.9969 16.7266C16.8106 18.4067 15.5972 20.3194 14.6743 22.235C13.7673 24.1177 13.0605 26.1647 13.0605 28.0697C13.0605 34.1186 17.9617 39.0197 24.0105 39.0197C30.0594 39.0197 34.9605 34.1186 34.9605 28.0697C34.9605 26.1669 34.2536 24.1209 33.3467 22.239C32.4239 20.3241 31.2106 18.4112 30.0244 16.7306C28.8343 15.0445 27.6479 13.5593 26.7606 12.497C26.3162 11.9649 25.945 11.5367 25.6834 11.2398C25.5525 11.0914 25.4489 10.9756 25.3772 10.896C25.3413 10.8563 25.3134 10.8255 25.294 10.8042L25.2714 10.7794L25.2631 10.7703C25.2628 10.77 25.2619 10.7691 24.0105 11.9197Z" fill="current"/>
<path d="M29.5201 27.6397H26.4301C26.4301 27.1797 26.4901 26.4397 24.5301 23.4497L26.5401 20.9197C28.5101 23.9397 29.5101 26.1997 29.5101 27.6297L29.5201 27.6397Z" fill="current"/>
</svg>
