<svg width="current" height="current" viewBox="0 0 48 48" fill="none" xmlns="http://www.w3.org/2000/svg">
<path d="M24.0008 7.2998C14.7908 7.2998 7.30078 14.7898 7.30078 23.9998C7.30078 33.2098 14.7908 40.6998 24.0008 40.6998C33.2108 40.6998 40.7008 33.2098 40.7008 23.9998C40.7008 14.7898 33.2108 7.2998 24.0008 7.2998ZM23.0008 23.6998H18.7008V31.9998H15.3008V19.5998C15.3008 16.6798 17.6808 14.2998 20.6008 14.2998H24.0008V17.6998H20.6008C19.5508 17.6998 18.7008 18.5498 18.7008 19.5998V20.2998H23.0008V23.6998ZM34.2008 29.5998L31.8008 31.9998L29.0008 29.1998L26.2008 31.9998L23.8008 29.5998L26.6008 26.7998L23.8008 23.9998L26.2008 21.5998L29.0008 24.3998L31.8008 21.5998L34.2008 23.9998L31.4008 26.7998L34.2008 29.5998Z" fill="current"/>
</svg>
