<svg width="current" height="current" viewBox="0 0 48 48" fill="none" xmlns="http://www.w3.org/2000/svg">
<path d="M26.2998 13.6998V16.7998C26.2998 18.3998 27.5998 19.6998 29.1998 19.6998H32.2998V25.8998L35.6998 29.2998V17.9998C35.6998 17.8898 35.6898 17.7798 35.6698 17.6698C35.6398 17.5198 35.5898 17.3898 35.5198 17.2598C35.4998 17.2298 35.4898 17.1898 35.4698 17.1598C35.3998 17.0298 35.3098 16.9098 35.1998 16.7998L29.1998 10.7998C29.0898 10.6898 28.9698 10.6098 28.8398 10.5298C28.8098 10.5098 28.7798 10.4998 28.7498 10.4798C28.5198 10.3698 28.2698 10.2998 27.9998 10.2998H17.5998C17.3198 10.2998 17.0498 10.3398 16.7898 10.3798L20.1098 13.6998H26.3098H26.2998Z" fill="current"/>
<path d="M11.1998 8.7998L8.7998 11.1998L12.3798 14.7798C12.3398 15.0498 12.2998 15.3198 12.2998 15.5998V32.3998C12.2998 35.3198 14.6798 37.6998 17.5998 37.6998H30.3998C31.7598 37.6998 32.9798 37.1698 33.9198 36.3198L36.7998 39.1998L39.1998 36.7998L11.1998 8.7998ZM30.3998 34.2998H17.5998C16.5498 34.2998 15.6998 33.4498 15.6998 32.3998V18.0998L31.5198 33.9198C31.1998 34.1498 30.8198 34.2898 30.3998 34.2898V34.2998Z" fill="current"/>
</svg>
