<svg width="current" height="current" viewBox="0 0 48 48" fill="none" xmlns="http://www.w3.org/2000/svg">
<path d="M35.7839 12.1808C33.4489 9.84903 30.4749 8.26182 27.238 7.61976C24.0011 6.97769 20.6466 7.30957 17.5983 8.57349C14.55 9.83741 11.9448 11.9766 10.1119 14.7207C8.27907 17.4648 7.30078 20.6908 7.30078 23.9907C7.30078 27.2907 8.27907 30.5166 10.1119 33.2607C11.9448 36.0049 14.55 38.1442 17.5983 39.4081C20.6466 40.672 24.0011 41.0039 27.238 40.3618C30.4749 39.7198 33.4489 38.1325 35.7839 35.8008C38.9117 32.6662 40.6683 28.4189 40.6683 23.9907C40.6683 19.5626 38.9117 15.3154 35.7839 12.1808ZM32.974 25.6908H25.674V32.9907H22.324V25.6908H15.0239V22.2908H22.324V14.9907H25.724V22.2908H33.0239L32.974 25.6908Z" fill="current"/>
</svg>
