<svg width="current" height="current" viewBox="0 0 48 48" fill="none" xmlns="http://www.w3.org/2000/svg">
<path d="M30.4008 39.7008H17.6008C14.6808 39.7008 12.3008 37.3208 12.3008 34.4008V13.6008C12.3008 10.6808 14.6808 8.30078 17.6008 8.30078H30.4008C33.3208 8.30078 35.7008 10.6808 35.7008 13.6008V34.4008C35.7008 37.3208 33.3208 39.7008 30.4008 39.7008ZM17.6008 11.7008C16.5508 11.7008 15.7008 12.5508 15.7008 13.6008V34.4008C15.7008 35.4508 16.5508 36.3008 17.6008 36.3008H30.4008C31.4508 36.3008 32.3008 35.4508 32.3008 34.4008V13.6008C32.3008 12.5508 31.4508 11.7008 30.4008 11.7008H17.6008Z" fill="current"/>
<path d="M27.0008 31.3008H21.0008V34.7008H27.0008V31.3008Z" fill="current"/>
</svg>
