<svg width="current" height="current" viewBox="0 0 32 32" fill="none" xmlns="http://www.w3.org/2000/svg">
<path fill-rule="evenodd" clip-rule="evenodd" d="M9.60052 5.5332C8.09094 5.5332 6.86719 6.75696 6.86719 8.26654V23.7332C6.86719 25.2428 8.09094 26.4665 9.60052 26.4665H22.4005C23.9101 26.4665 25.1339 25.2428 25.1339 23.7332V8.26654C25.1339 6.75696 23.9101 5.5332 22.4005 5.5332H9.60052ZM17.103 9.76634L17.1015 9.7647C16.5002 9.13095 15.4897 9.13095 14.8885 9.7647L11.8828 12.917L13.2338 14.2051L14.9983 12.3545V19.6405L13.241 17.7974L11.89 19.0855L14.8956 22.2378C15.4968 22.8716 16.5074 22.8716 17.1086 22.2378L17.1102 22.2362L20.1143 19.0855L18.7633 17.7974L16.9983 19.6485V12.3616L18.7561 14.2051L20.1071 12.917L17.103 9.76634Z" fill="current"/>
</svg>
