<svg width="current" height="current" viewBox="0 0 48 48" fill="none" xmlns="http://www.w3.org/2000/svg">
<path d="M38.7008 22.71C38.7008 19.25 36.0708 16.4 32.7008 16.05V12.07C32.7008 10.97 32.0908 9.98004 31.1208 9.49004C30.1408 8.99004 28.9808 9.08004 28.1008 9.73004L19.4508 16.02H14.6008C11.6808 16.02 9.30078 18.4 9.30078 21.32V24.12C9.30078 26.94 11.5208 29.23 14.3008 29.39V37.01H17.7008V29.42H19.4508L28.1008 35.71C28.6108 36.08 29.2008 36.27 29.8008 36.27C30.2508 36.27 30.7008 36.17 31.1208 35.95C32.1008 35.45 32.7008 34.46 32.7008 33.37V29.39C36.0708 29.04 38.7008 26.18 38.7008 22.73V22.71ZM29.3008 32.37L21.0008 26.33C20.7108 26.12 20.3608 26 20.0008 26H14.6008C13.5508 26 12.7008 25.15 12.7008 24.1V21.3C12.7008 20.25 13.5508 19.4 14.6008 19.4H20.0008C20.3608 19.4 20.7108 19.29 21.0008 19.07L29.3008 13.03V32.35V32.37ZM32.7008 25.93V19.48C34.1808 19.8 35.3008 21.13 35.3008 22.71C35.3008 24.29 34.1808 25.61 32.7008 25.94V25.93Z" fill="current"/>
</svg>
