<svg width="current" height="current" viewBox="0 0 48 48" fill="none" xmlns="http://www.w3.org/2000/svg">
<path d="M23.9698 17.0464C22.6447 17.0464 21.3493 17.4393 20.2475 18.1755C19.1456 18.9117 18.2869 19.9581 17.7798 21.1824C17.2727 22.4066 17.14 23.7538 17.3985 25.0535C17.657 26.3531 18.2952 27.5469 19.2322 28.4839C20.1692 29.4209 21.363 30.0591 22.6627 30.3176C23.9623 30.5761 25.3095 30.4434 26.5338 29.9363C27.758 29.4292 28.8045 28.5706 29.5407 27.4688C30.2769 26.3669 30.6698 25.0715 30.6698 23.7463C30.6698 21.9694 29.9639 20.2653 28.7074 19.0088C27.4509 17.7523 25.7468 17.0464 23.9698 17.0464ZM23.9698 27.0464C23.3171 27.0464 22.6791 26.8528 22.1364 26.4902C21.5937 26.1276 21.1707 25.6123 20.921 25.0093C20.6712 24.4063 20.6058 23.7427 20.7332 23.1025C20.8605 22.4624 21.1749 21.8744 21.6364 21.4128C22.0979 20.9513 22.6859 20.6371 23.326 20.5098C23.9661 20.3824 24.6296 20.4477 25.2326 20.6975C25.8356 20.9473 26.351 21.3704 26.7136 21.9131C27.0762 22.4558 27.2698 23.0937 27.2698 23.7463C27.2698 24.6216 26.9221 25.461 26.3032 26.0798C25.6844 26.6987 24.845 27.0464 23.9698 27.0464Z" fill="current"/>
<path d="M39.1698 36.5364L35.4798 32.8564C37.2028 30.6925 38.2802 28.0863 38.5883 25.3374C38.8964 22.5885 38.4227 19.8084 37.2216 17.3167C36.0204 14.8249 34.1406 12.7229 31.7982 11.2517C29.4558 9.78051 26.7459 9 23.9798 9C21.2137 9 18.5037 9.78051 16.1613 11.2517C13.8189 12.7229 11.9391 14.8249 10.738 17.3167C9.53685 19.8084 9.06317 22.5885 9.37128 25.3374C9.67939 28.0863 10.7568 30.6925 12.4798 32.8564L8.7998 36.5364L11.1998 38.9463L14.8898 35.2563C17.4768 37.3221 20.6891 38.4473 23.9998 38.4473C27.3104 38.4473 30.5227 37.3221 33.1098 35.2563L36.7998 38.9463L39.1698 36.5364ZM23.9698 35.0464C21.7349 35.0464 19.5501 34.3837 17.6918 33.1421C15.8336 31.9004 14.3852 30.1356 13.5299 28.0708C12.6746 26.006 12.4509 23.7337 12.8869 21.5417C13.3229 19.3498 14.3992 17.3364 15.9795 15.7561C17.5598 14.1758 19.5733 13.0996 21.7653 12.6636C23.9572 12.2276 26.2293 12.4514 28.2941 13.3066C30.3589 14.1619 32.1237 15.6102 33.3654 17.4685C34.607 19.3268 35.2698 21.5114 35.2698 23.7463C35.2671 26.7425 34.0757 29.6151 31.9572 31.7336C29.8386 33.8522 26.9659 35.0437 23.9698 35.0464Z" fill="current"/>
</svg>
