<svg width="current" height="current" viewBox="0 0 48 48" fill="none" xmlns="http://www.w3.org/2000/svg">
<path d="M23.9999 32.0001C30.4499 32.0001 35.6999 26.7501 35.6999 20.3001C35.6999 13.8501 30.4499 8.6001 23.9999 8.6001C17.5499 8.6001 12.2999 13.8501 12.2999 20.3001C12.2999 26.7501 17.5499 32.0001 23.9999 32.0001ZM22.2999 14.2901H25.6999V19.5601L28.7299 22.5901L26.3299 24.9901L23.1499 21.8101C22.6099 21.2701 22.2999 20.5201 22.2999 19.7601V14.2801V14.2901Z" fill="current"/>
<path d="M35.9999 33.2001C34.9199 33.2001 33.9699 33.7601 33.4099 34.6001H26.5899C26.0399 33.7601 25.0899 33.2001 23.9999 33.2001C22.9099 33.2001 21.9699 33.7601 21.4099 34.6001H14.5899C14.0399 33.7601 13.0899 33.2001 11.9999 33.2001C10.2899 33.2001 8.8999 34.5901 8.8999 36.3001C8.8999 38.0101 10.2899 39.4001 11.9999 39.4001C13.0799 39.4001 14.0299 38.8401 14.5899 38.0001H21.4099C21.9599 38.8401 22.9199 39.4001 23.9999 39.4001C25.0799 39.4001 26.0299 38.8401 26.5899 38.0001H33.4099C33.9599 38.8401 34.9199 39.4001 35.9999 39.4001C37.7099 39.4001 39.0999 38.0101 39.0999 36.3001C39.0999 34.5901 37.7099 33.2001 35.9999 33.2001Z" fill="current"/>
</svg>
