<svg width="current" height="current" viewBox="0 0 48 48" fill="none" xmlns="http://www.w3.org/2000/svg">
<path d="M34.4008 8.29993H19.6008C16.6808 8.29993 14.3008 10.6799 14.3008 13.5999V28.3999C14.3008 31.3199 16.6808 33.6999 19.6008 33.6999H34.4008C37.3208 33.6999 39.7008 31.3199 39.7008 28.3999V13.5999C39.7008 10.6799 37.3208 8.29993 34.4008 8.29993ZM36.3008 28.3999C36.3008 29.4499 35.4508 30.2999 34.4008 30.2999H19.6008C18.5508 30.2999 17.7008 29.4499 17.7008 28.3999V13.5999C17.7008 12.5499 18.5508 11.6999 19.6008 11.6999H34.4008C35.4508 11.6999 36.3008 12.5499 36.3008 13.5999V28.3999Z" fill="current"/>
<path d="M32.1008 21.0399C31.6508 20.2299 30.7908 19.7199 29.8608 19.7199C28.9308 19.7199 28.0708 20.2199 27.6208 21.0399L26.1608 23.6599L25.5708 22.7799C25.0908 22.0699 24.3008 21.6399 23.4408 21.6399C22.5808 21.6399 21.7908 22.0699 21.3108 22.7799L20.0708 24.6399C19.5408 25.4299 19.5008 26.4299 19.9408 27.2699C20.3908 28.0999 21.2508 28.6199 22.2008 28.6199H31.9508C32.8708 28.6199 33.6908 28.1499 34.1608 27.3599C34.6208 26.5699 34.6408 25.6199 34.1908 24.8199L32.0908 21.0399H32.1008Z" fill="current"/>
<path d="M11.7008 34.3999V15.9999H8.30078V34.3999C8.30078 37.3199 10.6808 39.6999 13.6008 39.6999H32.0008V36.2999H13.6008C12.5508 36.2999 11.7008 35.4499 11.7008 34.3999Z" fill="current"/>
</svg>
