<svg width="current" height="current" viewBox="0 0 48 48" fill="none" xmlns="http://www.w3.org/2000/svg">
<path d="M8.7998 11.1998L12.8498 15.2498C10.9498 17.6598 9.8098 20.6998 9.8098 23.9998C9.8098 31.8298 16.1798 38.1998 24.0098 38.1998C27.2798 38.1998 30.3298 37.0698 32.7698 35.1598L36.8098 39.1998L39.2098 36.7998L11.1998 8.7998L8.7998 11.1998ZM23.9998 34.7998C18.0398 34.7998 13.1998 29.9598 13.1998 23.9998C13.1998 21.6398 13.9798 19.4598 15.2698 17.6798L30.3298 32.7398C28.5298 34.0398 26.3398 34.8098 23.9998 34.8098V34.7998Z" fill="current"/>
<path d="M23.9998 13.1998C28.1198 13.1998 31.7998 15.5298 33.6098 19.0798L28.4298 17.5598L27.4698 20.8198L35.1398 23.0798C35.4098 23.1598 35.6798 23.1998 35.9498 23.1998C36.4598 23.1998 36.9598 23.0698 37.3998 22.8098C38.0798 22.4098 38.5798 21.7498 38.7698 20.9798L40.6498 13.2098L37.3498 12.4098L36.2698 16.8598C33.7798 12.5698 29.1498 9.7998 23.9998 9.7998C21.7298 9.7998 19.5998 10.3498 17.6998 11.2898L20.2798 13.8698C21.4398 13.4398 22.6898 13.1998 23.9998 13.1998Z" fill="current"/>
<path d="M34.1298 27.7298L36.7098 30.3098C37.1398 29.4398 37.4998 28.5198 37.7498 27.5498L34.4598 26.6998C34.3698 27.0498 34.2598 27.3898 34.1398 27.7198L34.1298 27.7298Z" fill="current"/>
</svg>
