<svg width="current" height="current" viewBox="0 0 24 24" fill="none" xmlns="http://www.w3.org/2000/svg">
<path d="M16.6999 4.65039H7.2999C5.8399 4.65039 4.6499 5.84039 4.6499 7.30039V13.7004C4.6499 15.1604 5.8399 16.3504 7.2999 16.3504H11.0999V17.6504H8.9999V19.3504H14.9999V17.6504H12.8999V16.3504H16.6999C18.1599 16.3504 19.3499 15.1604 19.3499 13.7004V7.30039C19.3499 5.84039 18.1599 4.65039 16.6999 4.65039ZM17.6499 13.7004C17.6499 14.2254 17.2249 14.6504 16.6999 14.6504H7.2999C6.7749 14.6504 6.3499 14.2254 6.3499 13.7004V7.30039C6.3499 6.77539 6.7749 6.35039 7.2999 6.35039H16.6999C17.2249 6.35039 17.6499 6.77539 17.6499 7.30039V13.7004Z" fill="current"/>
<path d="M14.9999 8.15039H8.9999V9.85039H14.9999V8.15039Z" fill="current"/>
<path d="M14.9999 11.1504H8.9999V12.8504H14.9999V11.1504Z" fill="current"/>
</svg>
