<svg width="current" height="current" viewBox="0 0 48 48" fill="none" xmlns="http://www.w3.org/2000/svg">
<path d="M37.88 26.6591L36.53 25.269C36.203 24.927 36.0204 24.4722 36.02 23.999C36.0172 23.5253 36.2003 23.0693 36.53 22.729L37.88 21.3291C38.3165 20.8746 38.5942 20.291 38.6717 19.6655C38.7492 19.0401 38.6223 18.4063 38.3099 17.859L36.4699 14.6691C36.1542 14.123 35.6689 13.6949 35.0879 13.4495C34.5068 13.204 33.8616 13.1547 33.25 13.3091L31.3399 13.7791C31.1168 13.8382 30.8841 13.852 30.6556 13.8193C30.4271 13.7867 30.2076 13.7084 30.01 13.5891C29.6002 13.3521 29.2988 12.9646 29.1699 12.509L28.63 10.639C28.4547 10.0343 28.088 9.50267 27.5849 9.12402C27.0819 8.74538 26.4696 8.54014 25.8399 8.53906H22.15C21.5217 8.54068 20.9108 8.74627 20.4094 9.125C19.908 9.50373 19.5433 10.0351 19.37 10.639L18.8199 12.5291C18.6904 12.9551 18.3999 13.3139 18.01 13.5291C17.5806 13.7776 17.0713 13.8493 16.5899 13.729L14.75 13.259C14.1384 13.1047 13.4932 13.154 12.9121 13.3994C12.331 13.6448 11.8458 14.073 11.53 14.619L9.68991 17.8091C9.37465 18.3549 9.24515 18.9884 9.32089 19.6141C9.39664 20.2399 9.67357 20.8242 10.11 21.2791L11.4699 22.6791C11.7996 23.0193 11.9827 23.4753 11.98 23.9491C11.9796 24.4223 11.7969 24.877 11.4699 25.219L10.11 26.609C9.67501 27.0647 9.39915 27.6489 9.32346 28.2743C9.24776 28.8997 9.37625 29.5328 9.68991 30.0791L11.53 33.269C11.8462 33.8126 12.3293 34.2396 12.9077 34.4865C13.4861 34.7333 14.1287 34.7868 14.74 34.639L16.6699 34.1591C17.1101 34.0471 17.5767 34.1117 17.9699 34.3391C18.3922 34.5877 18.7035 34.9884 18.8399 35.4591L19.37 37.3091C19.5447 37.9122 19.9099 38.4426 20.411 38.821C20.912 39.1995 21.5221 39.4058 22.15 39.4091H25.8399C26.4692 39.4064 27.0807 39.2004 27.5835 38.822C28.0862 38.4436 28.4533 37.913 28.63 37.3091L29.1799 35.389C29.3045 34.9664 29.5876 34.6081 29.9699 34.389C30.3955 34.14 30.9019 34.0683 31.38 34.1891L33.25 34.6591C33.8627 34.8091 34.5074 34.7567 35.0879 34.5098C35.6683 34.2628 36.1532 33.8346 36.4699 33.2891L38.3099 30.099C38.6151 29.5549 38.7381 28.9274 38.6607 28.3083C38.5834 27.6893 38.3097 27.1113 37.88 26.6591ZM24 28.999C23.0111 28.999 22.0444 28.7058 21.2221 28.1564C20.3999 27.607 19.759 26.8261 19.3806 25.9125C19.0021 24.9988 18.9031 23.9935 19.096 23.0236C19.289 22.0537 19.7652 21.1628 20.4644 20.4635C21.1637 19.7642 22.0546 19.288 23.0245 19.0951C23.9944 18.9022 24.9998 19.0012 25.9134 19.3796C26.8271 19.7581 27.6079 20.3989 28.1573 21.2212C28.7067 22.0434 29 23.0101 29 23.999C29 25.3251 28.4732 26.5969 27.5355 27.5345C26.5978 28.4722 25.3261 28.999 24 28.999Z" fill="current"/>
</svg>
