<svg width="current" height="current" viewBox="0 0 48 48" fill="none" xmlns="http://www.w3.org/2000/svg">
<path d="M24.0009 38.8C20.0509 38.8 16.3309 37.26 13.5409 34.47C10.7409 31.68 9.21094 27.96 9.21094 24.01C9.21094 20.06 10.7509 16.34 13.5409 13.55L16.0809 16.09C13.9609 18.21 12.8009 21.02 12.8009 24.01C12.8009 27 13.9709 29.81 16.0809 31.93C20.4509 36.3 27.5509 36.3 31.9209 31.93C34.0409 29.81 35.2009 27 35.2009 24.01C35.2009 21.02 34.0309 18.21 31.9209 16.09L34.4609 13.55C37.2609 16.34 38.7909 20.06 38.7909 24.01C38.7909 27.96 37.2509 31.68 34.4609 34.47C31.6709 37.27 27.9509 38.8 24.0009 38.8Z" fill="current"/>
<path d="M25.8009 9H22.2009V25H25.8009V9Z" fill="current"/>
</svg>
