<svg width="current" height="current" viewBox="0 0 48 48" fill="none" xmlns="http://www.w3.org/2000/svg">
<path d="M35.784 12.1808C33.4489 9.84903 30.475 8.26182 27.2381 7.61976C24.0012 6.97769 20.6466 7.30957 17.5983 8.57349C14.55 9.83741 11.9447 11.9766 10.1119 14.7207C8.27901 17.4648 7.30078 20.6908 7.30078 23.9907C7.30078 27.2907 8.27901 30.5166 10.1119 33.2607C11.9447 36.0049 14.55 38.1442 17.5983 39.4081C20.6466 40.672 24.0012 41.0039 27.2381 40.3618C30.475 39.7198 33.4489 38.1325 35.784 35.8008C38.9118 32.6662 40.6683 28.4189 40.6683 23.9907C40.6683 19.5626 38.9118 15.3154 35.784 12.1808ZM33.374 33.3908C31.5139 35.2507 29.1441 36.5172 26.5641 37.0303C23.9842 37.5434 21.3101 37.2799 18.8799 36.2732C16.4498 35.2665 14.3727 33.5619 12.9113 31.3748C11.45 29.1876 10.6699 26.6162 10.6699 23.9857C10.6699 21.3553 11.45 18.784 12.9113 16.5968C14.3727 14.4097 16.4498 12.7049 18.8799 11.6982C21.3101 10.6916 23.9842 10.4281 26.5641 10.9412C29.1441 11.4542 31.5139 12.7209 33.374 14.5808C35.866 17.0764 37.2658 20.4589 37.2658 23.9857C37.2658 27.5125 35.866 30.8952 33.374 33.3908Z" fill="current"/>
<path d="M25.6746 14.9902H22.2746V22.2902H14.9746V25.6902H22.2746V32.9902H25.6746V25.6902H32.9746V22.2902H25.6746V14.9902Z" fill="current"/>
</svg>
