<svg width="current" height="current" viewBox="0 0 48 48" fill="none" xmlns="http://www.w3.org/2000/svg">
<path d="M33.3998 15.3008H30.1998V12.2008C30.1998 10.6008 28.8998 9.30078 27.2998 9.30078H20.6998C19.0998 9.30078 17.7998 10.6008 17.7998 12.2008V15.3008H14.5998C11.6798 15.3008 9.2998 17.6808 9.2998 20.6008V33.4008C9.2998 36.3208 11.6798 38.7008 14.5998 38.7008H33.3998C36.3198 38.7008 38.6998 36.3208 38.6998 33.4008V20.6008C38.6998 17.6808 36.3198 15.3008 33.3998 15.3008ZM22.1998 21.5008H25.7998V25.2008H29.4998V28.8008H25.7998V32.5008H22.1998V28.8008H18.4998V25.2008H22.1998V21.5008ZM21.1998 12.7008H26.7998V15.3008H21.1998V12.7008Z" fill="current"/>
</svg>
