<svg width="current" height="current" viewBox="0 0 48 48" fill="none" xmlns="http://www.w3.org/2000/svg">
<path d="M15.8135 39.06C15.3909 39.0591 14.9736 38.9657 14.5908 38.7866C14.2081 38.6075 13.869 38.3469 13.5975 38.023C13.3261 37.6992 13.1287 37.3199 13.0192 36.9117C12.9096 36.5036 12.8906 36.0763 12.9635 35.66L14.2035 28.41L8.91345 23.28C8.51406 22.9034 8.22944 22.4215 8.09229 21.89C7.95513 21.3584 7.97112 20.7988 8.13843 20.276C8.30574 19.7531 8.61745 19.2883 9.03772 18.9352C9.45799 18.582 9.96969 18.3548 10.5136 18.28L17.8535 17.2201L21.1336 10.6101C21.3711 10.1239 21.7411 9.71475 22.2012 9.42989C22.6612 9.14502 23.1925 8.99606 23.7335 9.00008C24.2729 8.99794 24.8019 9.14781 25.26 9.43257C25.7181 9.71733 26.0867 10.1255 26.3235 10.6101L29.6135 17.2201L36.9435 18.28C37.4895 18.3511 38.0042 18.5762 38.427 18.9289C38.8499 19.2817 39.1635 19.7475 39.3313 20.2719C39.4991 20.7964 39.5142 21.3578 39.3746 21.8905C39.2351 22.4232 38.9468 22.9051 38.5435 23.28L33.2536 28.41L34.5036 35.66C34.5946 36.1925 34.5351 36.7399 34.3318 37.2405C34.1285 37.741 33.7893 38.1748 33.3527 38.4929C32.916 38.811 32.3992 39.0009 31.8605 39.041C31.3217 39.0811 30.7824 38.97 30.3035 38.7201L23.7335 35.29L17.1635 38.7201C16.7485 38.9433 16.2847 39.06 15.8135 39.06ZM12.0136 21.54L17.2235 26.54C17.4198 26.7343 17.5667 26.9729 17.652 27.2356C17.7372 27.4983 17.7583 27.7775 17.7135 28.05L16.4835 35.19L22.9435 31.81C23.1869 31.687 23.4558 31.6229 23.7285 31.6229C24.0012 31.6229 24.2702 31.687 24.5136 31.81L30.9835 35.19L29.7536 28.05C29.7035 27.7774 29.7221 27.4967 29.8076 27.2331C29.8932 26.9695 30.043 26.7313 30.2435 26.54L35.4535 21.54L28.2435 20.54C27.9718 20.5014 27.7134 20.3976 27.4905 20.2374C27.2676 20.0772 27.0867 19.8654 26.9635 19.6201L23.7335 13.1001L20.5036 19.6201C20.3803 19.8654 20.1995 20.0772 19.9766 20.2374C19.7537 20.3976 19.4953 20.5014 19.2235 20.54L12.0136 21.54Z" fill="current"/>
</svg>
