<svg width="current" height="current" viewBox="0 0 48 48" fill="none" xmlns="http://www.w3.org/2000/svg">
<path d="M38.0722 25.7522L33.3022 20.9722C33.0044 20.6742 32.6453 20.4449 32.2498 20.2998C31.8543 20.1547 31.432 20.0974 31.0122 20.1321L23.2222 20.7822L15.4022 12.9722L21.0922 13.1123L21.1822 9.71214L12.5022 9.50218C12.1041 9.48672 11.7071 9.55367 11.3361 9.69896C10.9651 9.84425 10.6282 10.0647 10.3465 10.3464C10.0648 10.6281 9.84431 10.9652 9.69902 11.3362C9.55372 11.7071 9.48671 12.1041 9.50218 12.5022L9.7122 21.1921L13.1122 21.1023L12.9722 15.4121L20.7822 23.2322L20.1322 31.0222C20.0988 31.4419 20.1566 31.8637 20.3016 32.259C20.4466 32.6543 20.6754 33.0137 20.9722 33.3122L25.7522 38.0823C26.2806 38.6196 26.9987 38.9282 27.7522 38.9421C28.0933 38.9394 28.4315 38.8786 28.7522 38.7622C29.2721 38.571 29.7265 38.235 30.0614 37.7937C30.3964 37.3524 30.5979 36.8244 30.6422 36.2722L31.0622 31.1521L36.1922 30.7322C36.7442 30.6864 37.2714 30.4831 37.711 30.1462C38.1507 29.8094 38.4844 29.3533 38.6722 28.8323C38.8833 28.3163 38.9389 27.7498 38.8323 27.2026C38.7257 26.6554 38.4615 26.1512 38.0722 25.7522ZM23.5722 31.0322L23.9622 26.3323L27.8122 30.1821L27.4222 34.8821L23.5722 31.0322ZM30.2122 27.7822L26.3722 23.9321L31.0622 23.5422L34.9122 27.3921L30.2122 27.7822Z" fill="current"/>
</svg>
