<svg width="current" height="current" viewBox="0 0 48 48" fill="none" xmlns="http://www.w3.org/2000/svg">
<path d="M17.8008 36.6998H15.2008C13.6008 36.6998 12.3008 35.3998 12.3008 33.7998V14.1998C12.3008 12.5998 13.6008 11.2998 15.2008 11.2998H17.8008C19.4008 11.2998 20.7008 12.5998 20.7008 14.1998V33.7998C20.7008 35.3998 19.4008 36.6998 17.8008 36.6998ZM15.7008 33.2998H17.3008V14.6998H15.7008V33.2998Z" fill="current"/>
<path d="M32.8008 36.6998H30.2008C28.6008 36.6998 27.3008 35.3998 27.3008 33.7998V14.1998C27.3008 12.5998 28.6008 11.2998 30.2008 11.2998H32.8008C34.4008 11.2998 35.7008 12.5998 35.7008 14.1998V33.7998C35.7008 35.3998 34.4008 36.6998 32.8008 36.6998ZM30.7008 33.2998H32.3008V14.6998H30.7008V33.2998Z" fill="current"/>
</svg>
