<svg width="current" height="current" viewBox="0 0 48 48" fill="none" xmlns="http://www.w3.org/2000/svg">
<path d="M34.5808 8.2998H20.4208C19.0637 8.30245 17.7629 8.84272 16.8033 9.80234C15.8437 10.762 15.3034 12.0627 15.3008 13.4198V15.2998H13.6008C12.1959 15.3024 10.8494 15.8617 9.85603 16.8551C8.86266 17.8484 8.30342 19.195 8.30078 20.5998V34.3998C8.30342 35.8046 8.86266 37.1512 9.85603 38.1446C10.8494 39.1379 12.1959 39.6972 13.6008 39.6998H27.4008C28.8056 39.6972 30.1522 39.1379 31.1455 38.1446C32.1389 37.1512 32.6981 35.8046 32.7008 34.3998V32.6998H34.4008C35.8056 32.6972 37.1522 32.1379 38.1455 31.1446C39.1389 30.1512 39.6981 28.8046 39.7008 27.3998V13.3998C39.6929 12.0462 39.1503 10.7505 38.1912 9.79525C37.2322 8.83995 35.9344 8.30242 34.5808 8.2998ZM29.3008 34.3998C29.3008 34.9037 29.1006 35.387 28.7443 35.7433C28.388 36.0996 27.9047 36.2998 27.4008 36.2998H13.6008C13.0969 36.2998 12.6136 36.0996 12.2573 35.7433C11.901 35.387 11.7008 34.9037 11.7008 34.3998V20.5998C11.7008 20.0959 11.901 19.6126 12.2573 19.2563C12.6136 18.9 13.0969 18.6998 13.6008 18.6998H27.4008C27.9047 18.6998 28.388 18.9 28.7443 19.2563C29.1006 19.6126 29.3008 20.0959 29.3008 20.5998V34.3998ZM36.3008 27.3998C36.3008 27.9037 36.1006 28.387 35.7443 28.7433C35.388 29.0996 34.9047 29.2998 34.4008 29.2998H32.7008V20.5998C32.6981 19.195 32.1389 17.8484 31.1455 16.8551C30.1522 15.8617 28.8056 15.3024 27.4008 15.2998H18.7008V13.4198C18.7008 12.9636 18.882 12.5261 19.2046 12.2036C19.5271 11.881 19.9646 11.6998 20.4208 11.6998H34.5808C35.037 11.6998 35.4744 11.881 35.797 12.2036C36.1196 12.5261 36.3008 12.9636 36.3008 13.4198V27.3998Z" fill="current"/>
</svg>
