<svg width="current" height="current" viewBox="0 0 48 48" fill="none" xmlns="http://www.w3.org/2000/svg">
<path d="M33.4008 11.6299H32.2007V10H28.8008V11.6299H19.2007V10H15.8008V11.6299H14.6008C13.9048 11.6299 13.2156 11.7671 12.5726 12.0334C11.9295 12.2998 11.3452 12.6902 10.8531 13.1824C10.3609 13.6745 9.97057 14.2588 9.70422 14.9019C9.43787 15.5449 9.30078 16.2339 9.30078 16.9299V32.3301C9.30342 33.7349 9.86265 35.0813 10.856 36.0747C11.8494 37.0681 13.1959 37.6272 14.6008 37.6299H33.4008C34.8056 37.6272 36.1521 37.0681 37.1455 36.0747C38.1389 35.0813 38.6981 33.7349 38.7007 32.3301V16.9299C38.7007 16.2339 38.5637 15.5449 38.2973 14.9019C38.031 14.2588 37.6406 13.6745 37.1484 13.1824C36.6563 12.6902 36.072 12.2998 35.429 12.0334C34.786 11.7671 34.0968 11.6299 33.4008 11.6299ZM14.6008 15.03H15.8008V17.03H19.2007V15.03H28.8008V17.03H32.2007V15.03H33.4008C33.9039 15.0327 34.3856 15.2336 34.7414 15.5894C35.0971 15.9451 35.2982 16.4268 35.3008 16.9299V18.51H12.7007V16.9299C12.7007 16.426 12.9009 15.9427 13.2573 15.5864C13.6136 15.2301 14.0969 15.03 14.6008 15.03ZM33.4008 34.23H14.6008C14.0969 34.23 13.6136 34.0299 13.2573 33.6736C12.9009 33.3173 12.7007 32.834 12.7007 32.3301V21.9099H35.3508V32.3301C35.3495 32.5835 35.2978 32.8339 35.1987 33.0671C35.0997 33.3004 34.9552 33.5116 34.7737 33.6885C34.5923 33.8653 34.3774 34.0042 34.1417 34.0972C33.906 34.1901 33.6541 34.2353 33.4008 34.23Z" fill="current"/>
<path d="M32 23.8711H16V27.2711H32V23.8711Z" fill="current"/>
<path d="M24 28.8711H16V32.2711H24V28.8711Z" fill="current"/>
</svg>
