<svg width="current" height="current" viewBox="0 0 48 48" fill="none" xmlns="http://www.w3.org/2000/svg">
<path d="M24 20.9C22.29 20.9 20.9 22.29 20.9 24C20.9 25.71 22.29 27.1 24 27.1C25.71 27.1 27.1 25.71 27.1 24C27.1 22.29 25.71 20.9 24 20.9Z" fill="current"/>
<path d="M39 22.3H37.08C36.31 16.38 31.62 11.69 25.7 10.92V9H22.3V10.92C16.38 11.69 11.69 16.38 10.92 22.3H9V25.7H10.92C11.69 31.62 16.38 36.31 22.3 37.08V39H25.7V37.08C31.62 36.31 36.31 31.62 37.08 25.7H39V22.3ZM25.7 33.64V31.5H22.3V33.64C18.26 32.93 15.07 29.74 14.36 25.7H16.5V22.3H14.36C15.07 18.26 18.26 15.07 22.3 14.36V16.5H25.7V14.36C29.74 15.07 32.93 18.26 33.64 22.3H31.5V25.7H33.64C32.93 29.74 29.74 32.93 25.7 33.64Z" fill="current"/>
</svg>
