<svg width="current" height="current" viewBox="0 0 48 48" fill="none" xmlns="http://www.w3.org/2000/svg">
<path d="M37.7399 18.7303C37.6847 18.3607 37.5272 18.014 37.285 17.7295C37.0429 17.4449 36.7259 17.2339 36.3699 17.1203C36.0062 17.0015 35.6169 16.9854 35.2446 17.0736C34.8723 17.1618 34.5316 17.351 34.2599 17.6203L30.4099 21.4703C30.3675 21.5158 30.3131 21.5484 30.2529 21.5644C30.1927 21.5803 30.1293 21.5789 30.0699 21.5603L27.4099 20.8303C27.3519 20.8158 27.299 20.7858 27.2567 20.7435C27.2144 20.7012 27.1844 20.6483 27.1699 20.5903L26.4399 17.9303C26.4213 17.8709 26.4199 17.8075 26.4359 17.7473C26.4518 17.6871 26.4844 17.6327 26.5299 17.5903L30.3799 13.7403C30.6512 13.4698 30.8417 13.1291 30.93 12.7564C31.0183 12.3837 31.001 11.9937 30.8799 11.6303C30.7663 11.2743 30.5553 10.9573 30.2707 10.7152C29.9862 10.473 29.6395 10.3155 29.2699 10.2603C27.5559 10.0055 25.8051 10.1955 24.1856 10.8122C22.5661 11.4289 21.1324 12.4514 20.0219 13.7818C18.9114 15.1121 18.1616 16.7056 17.8443 18.4092C17.527 20.1128 17.6529 21.8694 18.2099 23.5103L11.4499 30.2603C11.0369 30.6726 10.7092 31.1623 10.4854 31.7013C10.2616 32.2403 10.1462 32.8181 10.1458 33.4018C10.1448 34.5804 10.6121 35.7112 11.4449 36.5453C12.2777 37.3794 13.4077 37.8485 14.5864 37.8495C15.7651 37.8504 16.8958 37.3831 17.7299 36.5503L24.4899 29.7903C26.1308 30.3473 27.8874 30.4732 29.591 30.1559C31.2946 29.8386 32.8881 29.0888 34.2184 27.9783C35.5488 26.8678 36.5713 25.4341 37.188 23.8146C37.8047 22.1951 37.9947 20.4443 37.7399 18.7303Z" fill="current"/>
</svg>
