<svg width="current" height="current" viewBox="0 0 48 48" fill="none" xmlns="http://www.w3.org/2000/svg">
<path d="M17.4008 9.30078H14.6008C11.6737 9.30078 9.30078 11.6737 9.30078 14.6008V17.4008C9.30078 20.3279 11.6737 22.7008 14.6008 22.7008H17.4008C20.3279 22.7008 22.7008 20.3279 22.7008 17.4008V14.6008C22.7008 11.6737 20.3279 9.30078 17.4008 9.30078Z" fill="current"/>
<path d="M33.4008 9.30078H30.6008C27.6737 9.30078 25.3008 11.6737 25.3008 14.6008V17.4008C25.3008 20.3279 27.6737 22.7008 30.6008 22.7008H33.4008C36.3279 22.7008 38.7008 20.3279 38.7008 17.4008V14.6008C38.7008 11.6737 36.3279 9.30078 33.4008 9.30078Z" fill="current"/>
<path d="M17.4008 25.3008H14.6008C11.6737 25.3008 9.30078 27.6737 9.30078 30.6008V33.4008C9.30078 36.3279 11.6737 38.7008 14.6008 38.7008H17.4008C20.3279 38.7008 22.7008 36.3279 22.7008 33.4008V30.6008C22.7008 27.6737 20.3279 25.3008 17.4008 25.3008Z" fill="current"/>
<path d="M33.4008 25.3008H30.6008C27.6737 25.3008 25.3008 27.6737 25.3008 30.6008V33.4008C25.3008 36.3279 27.6737 38.7008 30.6008 38.7008H33.4008C36.3279 38.7008 38.7008 36.3279 38.7008 33.4008V30.6008C38.7008 27.6737 36.3279 25.3008 33.4008 25.3008Z" fill="current"/>
</svg>
