<svg width="current" height="current" viewBox="0 0 48 48" fill="none" xmlns="http://www.w3.org/2000/svg">
<path d="M33.3998 9.30078H14.5998C11.6798 9.30078 9.2998 11.6808 9.2998 14.6008V33.4008C9.2998 36.3208 11.6798 38.7008 14.5998 38.7008H33.3998C36.3198 38.7008 38.6998 36.3208 38.6998 33.4008V14.6008C38.6998 11.6808 36.3198 9.30078 33.3998 9.30078ZM14.5998 12.7008H33.3998C34.4498 12.7008 35.2998 13.5508 35.2998 14.6008V27.3008H28.6898C27.5598 27.3008 26.5598 27.9508 26.0598 28.9908C25.6698 29.8008 24.8798 30.3008 23.9998 30.3008C23.1198 30.3008 22.3198 29.8008 21.9398 28.9908C21.4398 27.9508 20.4398 27.3008 19.3098 27.3008H12.6998V14.6008C12.6998 13.5508 13.5498 12.7008 14.5998 12.7008ZM35.2998 33.4008C35.2998 34.4508 34.4498 35.3008 33.3998 35.3008H14.5998C13.5498 35.3008 12.6998 34.4508 12.6998 33.4008V30.7008H18.9898C19.9798 32.5308 21.9098 33.7008 23.9898 33.7008C26.0698 33.7008 28.0098 32.5308 28.9898 30.7008H35.2798V33.4008H35.2998Z" fill="current"/>
</svg>
