<svg width="current" height="current" viewBox="0 0 48 48" fill="none" xmlns="http://www.w3.org/2000/svg">
<path d="M33.4406 10.5293H14.6405C13.2949 10.5293 12.0043 11.0631 11.0519 12.0137C10.0995 12.9642 9.5632 14.2537 9.56055 15.5992V34.7893C9.56184 35.3164 9.71796 35.8315 10.0095 36.2706C10.3011 36.7098 10.7153 37.0535 11.2006 37.2593C11.5176 37.3918 11.857 37.463 12.2006 37.4692C12.9008 37.4677 13.5723 37.1913 14.0706 36.6993L18.5505 32.2793H33.4005C34.7444 32.2767 36.0324 31.7416 36.9827 30.7914C37.9329 29.8411 38.4678 28.5532 38.4705 27.2094V15.5992C38.4679 14.2623 37.9385 12.9804 36.9968 12.0312C36.0552 11.0821 34.7775 10.5425 33.4406 10.5293ZM19.1705 22.5992C18.8465 22.8872 18.4246 23.0406 17.9912 23.0278C17.5579 23.0151 17.1457 22.8372 16.8391 22.5306C16.5326 22.2241 16.3547 21.812 16.3419 21.3787C16.3292 20.9453 16.4825 20.5234 16.7705 20.1993C17.0946 19.9113 17.5165 19.758 17.9498 19.7708C18.3832 19.7835 18.7954 19.9614 19.1019 20.2679C19.4085 20.5745 19.5863 20.9867 19.599 21.42C19.6118 21.8534 19.4586 22.2752 19.1705 22.5992ZM25.2405 22.5992C24.9222 22.9188 24.4901 23.0989 24.0391 23.0999C23.588 23.1008 23.155 22.9225 22.8355 22.6042C22.5159 22.286 22.3359 21.8539 22.335 21.4028C22.334 20.9518 22.5122 20.5189 22.8305 20.1993C22.988 20.0411 23.1753 19.9154 23.3815 19.8295C23.5876 19.7436 23.8087 19.6992 24.032 19.6987C24.2553 19.6983 24.4765 19.7417 24.683 19.8268C24.8895 19.9118 25.0772 20.0367 25.2355 20.1943C25.3937 20.3519 25.5195 20.5391 25.6054 20.7452C25.6913 20.9514 25.7356 21.1724 25.7361 21.3958C25.7366 21.6191 25.6931 21.8404 25.608 22.0469C25.523 22.2534 25.3981 22.441 25.2405 22.5992ZM31.3005 22.5992C31.1441 22.7589 30.9574 22.8858 30.7514 22.9724C30.5453 23.059 30.324 23.1035 30.1005 23.1035C29.877 23.1035 29.6558 23.059 29.4497 22.9724C29.2437 22.8858 29.0569 22.7589 28.9005 22.5992C28.7274 22.4453 28.5874 22.2578 28.4894 22.0479C28.3914 21.8379 28.3374 21.6102 28.3306 21.3787C28.3238 21.1471 28.3643 20.9165 28.4498 20.7012C28.5353 20.4859 28.664 20.2903 28.8278 20.1265C28.9916 19.9626 29.1872 19.834 29.4025 19.7485C29.6178 19.663 29.8483 19.6225 30.0798 19.6293C30.3114 19.6361 30.5391 19.6902 30.749 19.7882C30.9589 19.8862 31.1467 20.0262 31.3005 20.1993C31.4602 20.3558 31.587 20.5425 31.6736 20.7485C31.7602 20.9546 31.8047 21.1758 31.8047 21.3993C31.8047 21.6228 31.7602 21.8441 31.6736 22.0502C31.587 22.2562 31.4602 22.4428 31.3005 22.5992Z" fill="current"/>
</svg>
