<svg width="current" height="current" viewBox="0 0 32 32" fill="none" xmlns="http://www.w3.org/2000/svg">
<path d="M14.8532 13.8199C14.8532 13.1866 15.3666 12.6733 15.9998 12.6733C16.6331 12.6733 17.1465 13.1867 17.1465 13.8199C17.1465 14.4532 16.6331 14.9666 15.9998 14.9666C15.3666 14.9666 14.8532 14.4532 14.8532 13.8199Z" fill="current"/>
<path fill-rule="evenodd" clip-rule="evenodd" d="M9.73355 6.19995C7.78215 6.19995 6.2002 7.7819 6.2002 9.73331V22.2666C6.2002 24.2181 7.78217 25.8 9.73355 25.8H22.2669C24.2183 25.8 25.8002 24.218 25.8002 22.2666V9.73331C25.8002 7.78193 24.2183 6.19995 22.2669 6.19995H9.73355ZM15.9998 10.6733C14.262 10.6733 12.8532 12.0821 12.8532 13.8199C12.8532 15.5578 14.262 16.9666 15.9998 16.9666C17.7377 16.9666 19.1465 15.5578 19.1465 13.8199C19.1465 12.0821 17.7377 10.6733 15.9998 10.6733ZM12.9999 18.5001C11.7342 18.5001 10.7132 19.5212 10.7132 20.7868V22.7201H12.7132V20.7868C12.7132 20.6257 12.8389 20.5001 12.9999 20.5001H19.0066C19.1676 20.5001 19.2932 20.6257 19.2932 20.7868V22.7201H21.2932V20.7868C21.2932 19.5212 20.2722 18.5001 19.0066 18.5001H12.9999Z" fill="current"/>
</svg>
