<svg width="current" height="current" viewBox="0 0 48 48" fill="none" xmlns="http://www.w3.org/2000/svg">
<path d="M24.0008 8.2998C20.8956 8.2998 17.8602 9.22059 15.2783 10.9457C12.6965 12.6709 10.6842 15.1229 9.49588 17.9917C8.30758 20.8605 7.99667 24.0172 8.60246 27.0627C9.20825 30.1082 10.7035 32.9057 12.8992 35.1014C15.0949 37.2971 17.8924 38.7923 20.9379 39.3981C23.9834 40.0039 27.1401 39.693 30.0089 38.5047C32.8777 37.3164 35.3297 35.3041 37.0549 32.7223C38.78 30.1404 39.7008 27.105 39.7008 23.9998C39.6981 19.8367 38.0432 15.8449 35.0994 12.9012C32.1557 9.95741 28.1639 8.30245 24.0008 8.2998ZM25.5408 30.1998H25.4208V31.4998H22.6608V30.2298H22.5408C21.5638 30.0995 20.6693 29.613 20.0289 28.8638C19.3885 28.1145 19.0473 27.1552 19.0708 26.1698H22.5908C22.6005 26.3419 22.6453 26.5101 22.7226 26.6641C22.7999 26.8181 22.908 26.9547 23.0401 27.0653C23.1723 27.1759 23.3257 27.2582 23.491 27.3071C23.6562 27.3561 23.8297 27.3706 24.0008 27.3498C24.6608 27.3498 25.3608 27.0198 25.3608 26.3498C25.3608 25.6798 24.4608 25.3498 23.3608 25.1098H23.3008C21.5008 24.6698 19.3008 24.1098 19.3008 21.3298C19.2832 20.4367 19.6011 19.5695 20.1917 18.8993C20.7822 18.2291 21.6026 17.8047 22.4908 17.7098H22.6108V16.4998H25.3008V17.7098H25.4208C26.3152 17.847 27.1274 18.3098 27.7015 19.0093C28.2755 19.7089 28.5708 20.5958 28.5308 21.4998H25.1208C25.1208 20.7298 24.4408 20.4998 23.8608 20.4998C23.2808 20.4998 22.6908 20.7298 22.6908 21.2598C22.6908 21.7898 23.6008 22.1698 24.6908 22.4598H24.7408C26.4908 22.9098 28.8808 23.5298 28.8808 26.3198C28.9031 27.2653 28.5739 28.1854 27.9569 28.9021C27.34 29.6188 26.479 30.0812 25.5408 30.1998Z" fill="current"/>
</svg>
