<svg width="current" height="current" viewBox="0 0 48 48" fill="none" xmlns="http://www.w3.org/2000/svg">
<path d="M18.2998 25.6986C19.2386 25.6986 19.9998 24.9375 19.9998 23.9986C19.9998 23.0597 19.2386 22.2986 18.2998 22.2986C17.3609 22.2986 16.5998 23.0597 16.5998 23.9986C16.5998 24.9375 17.3609 25.6986 18.2998 25.6986Z" fill="current"/>
<path d="M40.7898 12.3786L38.4998 10.0986C38.0298 9.62859 37.2698 9.62859 36.7998 10.0986L27.6898 19.2086L26.8898 23.2886C26.8098 23.7086 27.1798 24.0786 27.5898 23.9886L31.6698 23.1886L40.7798 14.0786C41.2498 13.6086 41.2498 12.8486 40.7798 12.3786H40.7898Z" fill="current"/>
<path d="M35.8998 30.3986C35.8998 31.4486 35.0498 32.2986 33.9998 32.2986H18.4698C17.8498 32.2986 17.2698 31.9986 16.9098 31.4886L12.4298 25.0886C11.9698 24.4386 11.9698 23.5586 12.4298 22.9086L16.9098 16.5086C17.2698 15.9986 17.8498 15.6986 18.4698 15.6986H26.3098V12.2986H18.4698C16.7398 12.2986 15.1198 13.1486 14.1298 14.5586L9.64977 20.9586C8.37977 22.7786 8.37977 25.2186 9.64977 27.0386L14.1298 33.4386C15.1198 34.8586 16.7398 35.6986 18.4698 35.6986H33.9998C36.9198 35.6986 39.2998 33.3186 39.2998 30.3986V22.5986H35.8998V30.3986Z" fill="current"/>
</svg>
