<svg width="current" height="current" viewBox="0 0 18 19" fill="none" xmlns="http://www.w3.org/2000/svg">
<path d="M6.27005 12.9612L3.45005 10.2875C3.23255 10.0813 3.11255 9.79625 3.11255 9.5C3.11255 9.20375 3.2363 8.915 3.45005 8.7125L6.27005 6.03875L7.14755 6.965L4.47005 9.50375L7.14755 12.0425L6.27005 12.9688V12.9612Z" fill="current"/>
<path d="M11.73 12.9612L10.8525 12.035L13.53 9.49625L10.8525 6.9575L11.73 6.03125L14.55 8.705C14.7675 8.91125 14.8875 9.19625 14.8875 9.4925C14.8875 9.78875 14.7638 10.0775 14.55 10.28L11.73 12.9537V12.9612Z" fill="current"/>
<path d="M8.95753 6.06458L7.78656 12.7122L9.04223 12.9334L10.2132 6.28576L8.95753 6.06458Z" fill="current"/>
</svg>
