<svg width="current" height="current" viewBox="0 0 48 48" fill="none" xmlns="http://www.w3.org/2000/svg">
<path d="M12.0432 30.6461C11.6232 31.0661 11.0432 31.8961 10.1432 34.6461C10.0012 35.081 9.96415 35.5432 10.035 35.9951C10.1058 36.447 10.2825 36.8757 10.5507 37.2462C10.8188 37.6168 11.1708 37.9187 11.5779 38.1272C11.9851 38.3357 12.4358 38.445 12.8932 38.446C13.2026 38.4458 13.51 38.3952 13.8032 38.2961C16.5032 37.4161 17.3432 36.8161 17.8032 36.3961C18.5604 35.6376 18.9852 34.6094 18.9843 33.5376C18.9834 32.4658 18.5567 31.4382 17.7982 30.681C17.0396 29.9238 16.0114 29.4991 14.9396 29.5C13.8679 29.5009 12.8404 29.9275 12.0832 30.686L12.0432 30.6461Z" fill="current"/>
<path d="M37.5524 10.8553C37.2155 10.5164 36.8 10.266 36.3429 10.1264C35.8858 9.98686 35.4013 9.9624 34.9324 10.0553L33.8325 10.2754C29.7247 11.087 25.8646 12.8508 22.5624 15.4253C20.942 14.4384 19.0371 14.0241 17.1531 14.249C15.2691 14.4738 13.5151 15.3248 12.1724 16.6654L10.9025 17.9353C10.5399 18.2933 10.2784 18.7408 10.1445 19.2324C10.0106 19.724 10.0091 20.2423 10.1401 20.7347C10.271 21.2271 10.5298 21.6761 10.8903 22.0362C11.2507 22.3964 11.6999 22.6548 12.1924 22.7854L15.6924 23.7854C15.6025 24.2472 15.6276 24.724 15.7654 25.1739C15.9031 25.6238 16.1494 26.033 16.4825 26.3653L22.0925 31.9753C22.6254 32.5035 23.3422 32.8045 24.0925 32.8153C24.2741 32.8067 24.4547 32.7834 24.6324 32.7453L25.6324 36.2654C25.8013 36.8808 26.1679 37.4237 26.6757 37.8104C27.1834 38.1971 27.8042 38.4062 28.4424 38.4054C29.1939 38.3909 29.9106 38.0862 30.4424 37.5553L31.7125 36.2854C33.0515 34.937 33.8994 33.1785 34.1206 31.2911C34.3418 29.4038 33.9234 27.4967 32.9324 25.8753C35.5063 22.5791 37.2735 18.7265 38.0925 14.6253L38.3124 13.5154C38.4201 13.0438 38.407 12.5528 38.2741 12.0877C38.1412 11.6227 37.893 11.1987 37.5524 10.8553ZM28.4324 17.3753C28.9467 17.3753 29.4494 17.5278 29.877 17.8134C30.3045 18.0991 30.6377 18.5052 30.8345 18.9803C31.0313 19.4554 31.0828 19.9782 30.9825 20.4825C30.8822 20.9869 30.6345 21.4502 30.2709 21.8138C29.9073 22.1774 29.444 22.425 28.9397 22.5254C28.4353 22.6257 27.9126 22.5742 27.4375 22.3774C26.9624 22.1806 26.5563 21.8473 26.2706 21.4198C25.9849 20.9922 25.8325 20.4895 25.8325 19.9753C25.8324 19.6322 25.9004 19.2924 26.0323 18.9757C26.1642 18.6589 26.3575 18.3714 26.601 18.1297C26.8446 17.888 27.1336 17.697 27.4514 17.5675C27.7691 17.438 28.1093 17.3727 28.4525 17.3753H28.4324Z" fill="current"/>
</svg>
