<svg width="current" height="current" viewBox="0 0 48 48" fill="none" xmlns="http://www.w3.org/2000/svg">
<path d="M24.0005 40.7C23.2305 40.7 22.5005 40.4 21.9505 39.85L18.7605 36.66H14.2505C12.6505 36.66 11.3505 35.36 11.3505 33.76V29.24L8.16055 26.05C7.61055 25.5 7.31055 24.77 7.31055 24C7.31055 23.23 7.61055 22.5 8.16055 21.95L11.3505 18.76V14.25C11.3505 12.65 12.6505 11.35 14.2505 11.35H18.7605L21.9505 8.15996C23.0505 7.05996 24.9605 7.05996 26.0505 8.15996L29.2405 11.35H33.7505C35.3505 11.35 36.6505 12.65 36.6505 14.25V18.76L39.8405 21.95C40.3905 22.5 40.6905 23.23 40.6905 24C40.6905 24.77 40.3905 25.5 39.8405 26.05L36.6505 29.24V33.76C36.6505 35.36 35.3505 36.66 33.7505 36.66H29.2405L26.0505 39.85C25.5005 40.4 24.7705 40.7 24.0005 40.7ZM14.7405 33.26H18.9605C19.7205 33.26 20.4705 33.57 21.0105 34.11L24.0005 37.1L26.9905 34.11C27.5405 33.56 28.2705 33.26 29.0405 33.26H33.2605V29.04C33.2605 28.27 33.5605 27.54 34.1105 26.99L37.1005 24L34.1105 21.01C33.5705 20.47 33.2605 19.72 33.2605 18.96V14.74H29.0405C28.2705 14.74 27.5405 14.44 26.9905 13.89L24.0005 10.9L21.0105 13.89C20.4705 14.43 19.7205 14.74 18.9605 14.74H14.7405V18.96C14.7405 19.73 14.4305 20.47 13.8905 21.01L10.9105 23.99L13.9005 26.98C14.4505 27.53 14.7505 28.26 14.7505 29.03V33.25L14.7405 33.26Z" fill="current"/>
<path d="M24.0005 32.7C19.2005 32.7 15.3005 28.8 15.3005 24C15.3005 19.2 19.2005 15.3 24.0005 15.3C28.8005 15.3 32.7005 19.2 32.7005 24C32.7005 28.8 28.8005 32.7 24.0005 32.7ZM24.0005 18.7C21.0805 18.7 18.7005 21.08 18.7005 24C18.7005 26.92 21.0805 29.3 24.0005 29.3C26.9205 29.3 29.3005 26.92 29.3005 24C29.3005 21.08 26.9205 18.7 24.0005 18.7Z" fill="current"/>
</svg>
