<svg width="current" height="current" viewBox="0 0 48 48" fill="none" xmlns="http://www.w3.org/2000/svg">
<path d="M33.3999 11.3008H14.5999C13.1942 11.3008 11.8461 11.8592 10.8522 12.8531C9.85823 13.8471 9.2998 15.1951 9.2998 16.6007V31.4008C9.2998 32.8064 9.85823 34.1545 10.8522 35.1484C11.8461 36.1424 13.1942 36.7008 14.5999 36.7008H33.3999C34.8047 36.6982 36.1513 36.1389 37.1447 35.1455C38.138 34.1521 38.6972 32.8056 38.6998 31.4008V16.6007C38.6998 15.1951 38.1414 13.8471 37.1475 12.8531C36.1535 11.8592 34.8055 11.3008 33.3999 11.3008ZM25.8499 24.6608C25.3289 25.0943 24.6726 25.3317 23.9949 25.3317C23.3171 25.3317 22.6608 25.0943 22.1399 24.6608L13.0398 17.0808L15.2198 14.4707L23.9999 21.7808L32.7799 14.4707L34.9498 17.0808L25.8499 24.6608Z" fill="current"/>
</svg>
