<svg width="current" height="current" viewBox="0 0 48 48" fill="none" xmlns="http://www.w3.org/2000/svg">
<path d="M38.9789 30.3495L28.5888 12.3495C28.1276 11.5403 27.4594 10.8684 26.6528 10.4027C25.8462 9.93701 24.9302 9.69419 23.9989 9.69933C23.0685 9.69319 22.1532 9.93443 21.3467 10.3983C20.5401 10.8622 19.8714 11.5322 19.4089 12.3395L9.00892 30.3395C8.54374 31.1452 8.29883 32.059 8.29883 32.9894C8.29884 33.9197 8.54374 34.8338 9.00892 35.6395C9.4741 36.4452 10.1431 37.1143 10.9488 37.5795C11.7545 38.0446 12.6685 38.2894 13.5989 38.2894H34.3489C35.2792 38.2894 36.1932 38.0446 36.9989 37.5795C37.8046 37.1143 38.4736 36.4452 38.9388 35.6395C39.404 34.8338 39.6489 33.9197 39.6489 32.9894C39.6489 32.059 39.404 31.1452 38.9388 30.3395L38.9789 30.3495ZM25.6988 31.5394H22.3489V28.5394H25.7489L25.6988 31.5394ZM25.6988 26.5394H22.3489V18.9393H25.7489L25.6988 26.5394Z" fill="current"/>
</svg>
