<svg width="current" height="current" viewBox="0 0 48 48" fill="none" xmlns="http://www.w3.org/2000/svg">
<path d="M41.73 25.2601C41.41 23.3701 39.94 21.8201 38.07 21.4001C37.61 21.3001 37.15 21.2601 36.7 21.2901V16.2101C36.7 14.6101 35.4 13.3101 33.8 13.3101H28.78C28.82 12.8501 28.78 12.3901 28.69 11.9201C28.3 10.0101 26.75 8.51013 24.83 8.18013C23.42 7.94013 21.98 8.32013 20.9 9.24013C19.81 10.1501 19.19 11.4901 19.19 12.9101C19.19 13.0401 19.19 13.1801 19.21 13.3101H14.19C12.59 13.3101 11.29 14.6101 11.29 16.2101V21.8801C11.29 22.4701 11.59 23.0101 12.09 23.3201C12.59 23.6301 13.21 23.6601 13.74 23.4101C14.48 23.0501 15.22 23.0101 15.99 23.2901C16.94 23.6401 17.66 24.4801 17.84 25.4301C18.01 26.3201 17.79 27.1801 17.23 27.8501C16.41 28.8401 15.01 29.2101 13.74 28.6001C13.21 28.3401 12.59 28.3801 12.1 28.6901C11.6 29.0001 11.3 29.5401 11.3 30.1301V35.8001C11.3 37.4001 12.6 38.7001 14.2 38.7001H31.4C34.32 38.7001 36.7 36.3201 36.7 33.4001V30.8601C38.2 30.9401 39.68 30.3301 40.66 29.1701C41.57 28.0901 41.96 26.6601 41.73 25.2501V25.2601Z" fill="current"/>
</svg>
