<svg width="current" height="current" viewBox="0 0 48 48" fill="none" xmlns="http://www.w3.org/2000/svg">
<path d="M33.4008 20.3008H30.7008V14.6007C30.7008 13.1951 30.1424 11.8471 29.1484 10.8531C28.1545 9.85921 26.8065 9.30078 25.4008 9.30078H14.6008C13.1951 9.30078 11.8471 9.85921 10.8531 10.8531C9.85921 11.8471 9.30078 13.1951 9.30078 14.6007V33.4008C9.30342 34.8056 9.86265 36.1521 10.856 37.1455C11.8494 38.1389 13.1959 38.6982 14.6008 38.7008H33.4008C34.8057 38.6982 36.1522 38.1389 37.1456 37.1455C38.1389 36.1521 38.6982 34.8056 38.7008 33.4008V25.6007C38.7008 24.1951 38.1424 22.8471 37.1484 21.8531C36.1545 20.8592 34.8065 20.3008 33.4008 20.3008ZM21.7008 35.3008H18.3008V30.0007H21.7008V35.3008ZM23.5008 25.7008H16.5008V22.3008H23.5008V25.7008ZM23.5008 19.2008H16.5008V15.8008H23.5008V19.2008ZM35.3008 33.4008C35.3008 33.9047 35.1006 34.3879 34.7443 34.7443C34.388 35.1006 33.9047 35.3008 33.4008 35.3008H30.7008V23.7008H33.4008C33.9047 23.7008 34.388 23.9009 34.7443 24.2572C35.1006 24.6135 35.3008 25.0968 35.3008 25.6007V33.4008Z" fill="current"/>
</svg>
