<svg width="current" height="current" viewBox="0 0 48 48" fill="none" xmlns="http://www.w3.org/2000/svg">
<path d="M33.3 33.4001C33.3 34.4501 32.45 35.3001 31.4 35.3001H14.6C13.55 35.3001 12.7 34.4501 12.7 33.4001V16.6001C12.7 15.5501 13.55 14.7001 14.6 14.7001H24V11.3001H14.6C11.68 11.3001 9.30005 13.6801 9.30005 16.6001V33.4001C9.30005 36.3201 11.68 38.7001 14.6 38.7001H31.4C34.32 38.7001 36.7001 36.3201 36.7001 33.4001V24.0001H33.3V33.4001Z" fill="current"/>
<path d="M37.85 10.1501C37.29 9.59014 36.48 9.26014 35.73 9.30014L27.74 9.49014L27.82 12.8901L32.82 12.7701L24.05 21.5401L26.4501 23.9401L35.2201 15.1701L35.1 20.1701L38.5 20.2501L38.7001 12.2601C38.7201 11.4701 38.41 10.7001 37.85 10.1401V10.1501Z" fill="current"/>
</svg>
