<svg width="current" height="current" viewBox="0 0 48 48" fill="none" xmlns="http://www.w3.org/2000/svg">
<path d="M24.0504 8.15039C24.0504 8.15039 23.9704 8.15039 23.9504 8.15039C22.3304 10.3504 20.8204 13.1304 20.0204 17.3004H27.9704C27.1804 13.1304 25.6604 10.3604 24.0404 8.15039H24.0504Z" fill="current"/>
<path d="M38.3404 17.3004C36.4304 13.2404 32.8604 10.1004 28.5004 8.81039C29.7804 11.0804 30.8304 13.8104 31.4204 17.3004H38.3404Z" fill="current"/>
<path d="M9.66039 17.3004H16.5804C17.1704 13.8004 18.2204 11.0804 19.5004 8.81039C15.1404 10.1104 11.5704 13.2404 9.66039 17.3004Z" fill="current"/>
<path d="M38.3404 30.7004H31.4204C30.8304 34.2004 29.7804 36.9204 28.5004 39.1904C32.8604 37.8904 36.4304 34.7604 38.3404 30.7004Z" fill="current"/>
<path d="M23.9504 39.8504C23.9504 39.8504 23.9804 39.8504 24.0004 39.8504C24.0204 39.8504 24.0304 39.8504 24.0504 39.8504C25.6704 37.6504 27.1804 34.8704 27.9804 30.7004H20.0304C20.8204 34.8704 22.3404 37.6404 23.9604 39.8504H23.9504Z" fill="current"/>
<path d="M9.66039 30.7004C11.5704 34.7604 15.1404 37.9004 19.5004 39.1904C18.2204 36.9204 17.1704 34.1904 16.5804 30.7004H9.66039Z" fill="current"/>
<path d="M28.4204 20.7004H19.5804C19.5004 21.7304 19.4504 22.8204 19.4504 24.0004C19.4504 25.1804 19.5004 26.2704 19.5804 27.3004H28.4204C28.5004 26.2704 28.5504 25.1804 28.5504 24.0004C28.5504 22.8204 28.5004 21.7304 28.4204 20.7004Z" fill="current"/>
<path d="M31.8304 27.3004H39.5004C39.7304 26.2304 39.8504 25.1304 39.8504 24.0004C39.8504 22.8704 39.7304 21.7704 39.5004 20.7004H31.8304C31.9104 21.7404 31.9504 22.8304 31.9504 24.0004C31.9504 25.1704 31.9004 26.2604 31.8304 27.3004Z" fill="current"/>
<path d="M16.1704 20.7004H8.50039C8.27039 21.7704 8.15039 22.8704 8.15039 24.0004C8.15039 25.1304 8.27039 26.2304 8.50039 27.3004H16.1704C16.0904 26.2604 16.0504 25.1704 16.0504 24.0004C16.0504 22.8304 16.1004 21.7404 16.1704 20.7004Z" fill="current"/>
</svg>
