<svg width="current" height="current" viewBox="0 0 48 48" fill="none" xmlns="http://www.w3.org/2000/svg">
<path d="M24.0001 37.7001C23.2101 37.7001 22.4401 37.3701 21.9001 36.7901L17.1001 31.7301C16.3001 30.8901 16.0801 29.6501 16.5401 28.5901C17.0001 27.5201 18.0401 26.8401 19.2001 26.8401H28.8001C29.9601 26.8401 31.0101 27.5301 31.4601 28.5901C31.9101 29.6501 31.7001 30.8901 30.9001 31.7301L26.1001 36.7901C25.5501 37.3701 24.7901 37.6901 24.0001 37.6901V37.7001ZM20.3701 30.2401L24.0001 34.0701L27.6401 30.2401H20.3701Z" fill="current"/>
<path d="M28.8001 21.1601H19.2001C18.0401 21.1601 16.9901 20.4701 16.5401 19.4101C16.0801 18.3401 16.3001 17.1101 17.1001 16.2701L21.9001 11.2101C22.4401 10.6401 23.2101 10.3101 24.0001 10.3101C24.7901 10.3101 25.5601 10.6401 26.1001 11.2101L30.9001 16.2701C31.7001 17.1101 31.9201 18.3501 31.4601 19.4101C31.0001 20.4701 29.9601 21.1601 28.8001 21.1601ZM20.3701 17.7601H27.6401L24.0001 13.9301L20.3701 17.7601Z" fill="current"/>
</svg>
