<svg width="current" height="current" viewBox="0 0 48 48" fill="none" xmlns="http://www.w3.org/2000/svg">
<path d="M33.3708 11.3008H31.6708V11.2008C31.6708 10.4317 31.3652 9.694 30.8214 9.15015C30.2775 8.60629 29.5399 8.30078 28.7708 8.30078H19.1708C18.4016 8.30078 17.664 8.60629 17.1201 9.15015C16.5763 9.694 16.2708 10.4317 16.2708 11.2008V11.3008H14.6008C13.1951 11.3008 11.847 11.8592 10.8531 12.8531C9.85915 13.8471 9.30078 15.1951 9.30078 16.6007V34.4008C9.30342 35.8056 9.86265 37.1521 10.856 38.1455C11.8494 39.1389 13.1959 39.6982 14.6008 39.7008H33.4008C34.8056 39.6982 36.1521 39.1389 37.1455 38.1455C38.1389 37.1521 38.6981 35.8056 38.7008 34.4008V16.6007C38.7008 15.9022 38.5627 15.2105 38.2945 14.5656C38.0263 13.9206 37.6332 13.335 37.1378 12.8424C36.6425 12.3499 36.0547 11.9601 35.4082 11.6956C34.7617 11.431 34.0693 11.2968 33.3708 11.3008ZM19.6708 13.0007V11.7008H28.2708V14.3008H19.6708V13.0007ZM24.2508 30.0007C23.7174 30.527 23 30.8248 22.2508 30.8308H22.1908C21.803 30.8252 21.4204 30.7407 21.0662 30.5825C20.7121 30.4244 20.3938 30.1958 20.1308 29.9108L16.7708 26.3208L19.2508 24.0007L22.2508 27.2207L28.8008 20.7507L31.1908 23.1708L24.2508 30.0007Z" fill="current"/>
</svg>
