<svg width="current" height="current" viewBox="0 0 48 48" fill="none" xmlns="http://www.w3.org/2000/svg">
<path d="M24.5099 14.5499C25.096 13.9562 25.7955 13.4864 26.5669 13.1686C27.3382 12.8508 28.1657 12.6914 28.9999 12.6999C30.2485 12.703 31.4684 13.0747 32.5066 13.7685C33.5447 14.4622 34.3549 15.4471 34.8355 16.5995C35.3162 17.7519 35.4458 19.0206 35.2082 20.2464C34.9706 21.4722 34.3763 22.6005 33.4999 23.4899L29.7499 27.1999L32.1499 29.5999L35.8599 25.8899C36.7627 24.987 37.4789 23.9152 37.9675 22.7356C38.4561 21.556 38.7076 20.2917 38.7076 19.0149C38.7076 17.7381 38.4561 16.4738 37.9675 15.2942C37.4789 14.1145 36.7627 13.0427 35.8599 12.1399C34.957 11.237 33.8852 10.5209 32.7056 10.0323C31.526 9.54365 30.2617 9.29216 28.9849 9.29216C26.4063 9.29216 23.9332 10.3165 22.1099 12.1399L18.3999 15.8499L20.7999 18.2499L24.5099 14.5499Z" fill="current"/>
<path d="M23.4899 33.4499C22.9049 34.035 22.2103 34.4991 21.4459 34.8157C20.6815 35.1324 19.8623 35.2953 19.0349 35.2953C18.2075 35.2953 17.3882 35.1324 16.6238 34.8157C15.8594 34.4991 15.1649 34.035 14.5799 33.4499C13.9936 32.8655 13.5284 32.1712 13.2111 31.4067C12.8937 30.6422 12.7303 29.8226 12.7303 28.9949C12.7303 28.1671 12.8937 27.3475 13.2111 26.583C13.5284 25.8186 13.9936 25.1242 14.5799 24.5399L18.2899 20.8299L15.8799 18.4299L12.1699 22.1399C10.3587 23.9595 9.34186 26.4225 9.34186 28.9899C9.34186 31.5573 10.3587 34.0202 12.1699 35.8399C13.9912 37.6517 16.4558 38.6688 19.0249 38.6688C21.5939 38.6688 24.0585 37.6517 25.8799 35.8399L29.5899 32.1299L27.1899 29.7299L23.4899 33.4499Z" fill="current"/>
<path d="M38.8699 29.7199H33.8699V33.1199H38.8699V29.7199Z" fill="current"/>
<path d="M33.1199 33.8699H29.7199V38.8699H33.1199V33.8699Z" fill="current"/>
<path d="M18.2799 9.12988H14.8799V14.1299H18.2799V9.12988Z" fill="current"/>
<path d="M14.1299 14.8799H9.12988V18.2799H14.1299V14.8799Z" fill="current"/>
</svg>
