<svg width="current" height="current" viewBox="0 0 48 48" fill="none" xmlns="http://www.w3.org/2000/svg">
<path d="M25.8409 39.4091H22.151C21.523 39.4058 20.913 39.1995 20.412 38.821C19.9109 38.4426 19.5457 37.9121 19.3709 37.309L18.8409 35.459C18.7045 34.9883 18.3932 34.5876 17.9709 34.339C17.5777 34.1116 17.1111 34.0471 16.6709 34.1591L14.7409 34.639C14.1297 34.7868 13.487 34.7332 12.9087 34.4863C12.3303 34.2395 11.8472 33.8126 11.531 33.269L9.69089 30.079C9.37723 29.5327 9.24874 28.8996 9.32443 28.2742C9.40013 27.6488 9.67599 27.0647 10.1109 26.609L11.4709 25.219C11.7979 24.877 11.9805 24.4221 11.9809 23.949C11.9837 23.4752 11.8006 23.0192 11.4709 22.679L10.1109 21.2791C9.67454 20.8242 9.39761 20.2399 9.32187 19.6141C9.24613 18.9884 9.37562 18.3548 9.69089 17.809L11.531 14.619C11.8468 14.073 12.332 13.6448 12.9131 13.3994C13.4941 13.154 14.1393 13.1047 14.7509 13.259L16.5909 13.729C17.0722 13.8504 17.5819 13.7786 18.011 13.5291C18.4009 13.3139 18.6914 12.9551 18.8209 12.5291L19.3709 10.639C19.5443 10.0351 19.909 9.50373 20.4104 9.125C20.9117 8.74627 21.5226 8.54068 22.151 8.53906H25.8409C26.4705 8.54014 27.0828 8.74538 27.5859 9.12402C28.089 9.50267 28.4557 10.0343 28.631 10.639L29.1709 12.509C29.2997 12.9646 29.6011 13.3519 30.011 13.589C30.2086 13.7083 30.4281 13.7866 30.6566 13.8192C30.8851 13.8519 31.1178 13.8382 31.3409 13.7791L33.2509 13.309C33.8625 13.1546 34.5078 13.2039 35.0888 13.4493C35.6699 13.6948 36.1551 14.1229 36.4709 14.6689L38.3109 17.859C38.6233 18.4063 38.7502 19.0401 38.6727 19.6655C38.5952 20.291 38.3175 20.8744 37.881 21.329L36.531 22.729C36.2013 23.0693 36.0182 23.5253 36.021 23.999C36.0214 24.4722 36.204 24.927 36.531 25.269L37.881 26.6591C38.3175 27.1136 38.5952 27.6971 38.6727 28.3225C38.7502 28.9479 38.6233 29.5817 38.3109 30.129L36.4709 33.319C36.1542 33.8645 35.6693 34.2928 35.0888 34.5398C34.5084 34.7868 33.8636 34.8391 33.2509 34.689L31.381 34.219C30.9029 34.0982 30.3965 34.17 29.9709 34.4189C29.5886 34.638 29.3055 34.9963 29.1809 35.4189L28.631 37.339C28.4475 37.9365 28.0777 38.4597 27.5758 38.8322C27.0738 39.2046 26.4659 39.4067 25.8409 39.4091ZM22.531 36.009H25.4609L25.911 34.459C26.2753 33.1919 27.118 32.1162 28.261 31.459C29.4531 30.7616 30.8703 30.5571 32.2109 30.889L33.7109 31.269L35.1809 28.729L34.0909 27.599C33.1482 26.6238 32.6212 25.3204 32.6212 23.964C32.6212 22.6076 33.1482 21.3042 34.0909 20.329L35.1809 19.209L33.7109 16.6689L32.1709 17.049C30.8592 17.373 29.473 17.1759 28.3037 16.4989C27.1344 15.8219 26.2731 14.7178 25.901 13.4189L25.4609 11.9091H22.531L22.0909 13.439C21.7133 14.7051 20.8652 15.7785 19.7209 16.439C19.1231 16.7891 18.4621 17.0179 17.7757 17.1123C17.0894 17.2067 16.3911 17.1648 15.7209 16.989L14.261 16.619L12.8009 19.1591L13.891 20.2891C14.8331 21.2626 15.3597 22.5642 15.3597 23.9189C15.3597 25.2737 14.8331 26.5754 13.891 27.549L12.8009 28.679L14.271 31.219L15.8309 30.829C17.1291 30.5024 18.5037 30.6962 19.661 31.369C20.845 32.052 21.7139 33.1723 22.0809 34.489L22.531 36.009Z" fill="current"/>
<path d="M24.0008 30.6501C22.6757 30.6501 21.3803 30.2571 20.2785 29.5209C19.1767 28.7847 18.3179 27.7382 17.8108 26.514C17.3037 25.2897 17.171 23.9426 17.4295 22.6429C17.6881 21.3432 18.3261 20.1495 19.2632 19.2125C20.2002 18.2754 21.394 17.6372 22.6937 17.3787C23.9934 17.1202 25.3405 17.253 26.5648 17.7601C27.7891 18.2672 28.8354 19.1259 29.5716 20.2277C30.3078 21.3295 30.7008 22.6249 30.7008 23.95C30.6981 25.7261 29.9914 27.4288 28.7354 28.6848C27.4795 29.9407 25.777 30.6474 24.0008 30.6501ZM24.0008 20.6501C23.3481 20.6501 22.7101 20.8436 22.1674 21.2062C21.6248 21.5688 21.2018 22.0842 20.952 22.6872C20.7022 23.2902 20.6369 23.9537 20.7643 24.5938C20.8916 25.2339 21.2058 25.822 21.6673 26.2835C22.1288 26.745 22.7169 27.0593 23.357 27.1866C23.9972 27.3139 24.6606 27.2486 25.2636 26.9988C25.8666 26.7491 26.382 26.3261 26.7446 25.7834C27.1072 25.2407 27.3007 24.6027 27.3007 23.95C27.3007 23.0748 26.9531 22.2355 26.3342 21.6166C25.7153 20.9978 24.876 20.6501 24.0008 20.6501Z" fill="current"/>
</svg>
