<svg width="current" height="current" viewBox="0 0 48 48" fill="none" xmlns="http://www.w3.org/2000/svg">
<path d="M38.3507 35.9408L31.3507 28.9408C33.219 26.4624 34.0778 23.3676 33.7538 20.2809C33.4298 17.1942 31.9471 14.3453 29.6049 12.3088C27.2627 10.2724 24.2352 9.20006 21.1334 9.30824C18.0316 9.41642 15.0863 10.6971 12.8916 12.8917C10.697 15.0864 9.41642 18.0316 9.30824 21.1334C9.20006 24.2352 10.2723 27.2627 12.3087 29.6049C14.3451 31.9471 17.1941 33.4298 20.2808 33.7538C23.3676 34.0778 26.4623 33.2191 28.9407 31.3508L35.9407 38.3508L38.3507 35.9408ZM21.6508 30.4508C19.9103 30.4508 18.2089 29.9347 16.7617 28.9678C15.3146 28.0008 14.1866 26.6264 13.5206 25.0184C12.8545 23.4105 12.6803 21.641 13.0198 19.934C13.3594 18.2269 14.1975 16.6589 15.4282 15.4282C16.6589 14.1975 18.2269 13.3595 19.934 13.0199C21.641 12.6804 23.4104 12.8546 25.0184 13.5206C26.6264 14.1867 28.0007 15.3146 28.9677 16.7617C29.9346 18.2089 30.4508 19.9103 30.4508 21.6508C30.4481 23.9839 29.5201 26.2206 27.8704 27.8704C26.2206 29.5201 23.9839 30.4482 21.6508 30.4508Z" fill="current"/>
<path d="M23.3406 15.6504H19.9406V19.9504H15.6406V23.3504H19.9406V27.6504H23.3406V23.3504H27.6406V19.9504H23.3406V15.6504Z" fill="current"/>
</svg>
