<svg width="current" height="current" viewBox="0 0 48 48" fill="none" xmlns="http://www.w3.org/2000/svg">
<path d="M27.2 23.61C29.19 23.61 30.8 22 30.8 20.01V13.6C30.8 11.61 29.19 10 27.2 10H21.8C19.81 10 18.2 11.61 18.2 13.6V16.43H24.5V18.19H13.6C11.61 18.19 10 19.8 10 21.79V27.19C10 29.18 11.61 30.79 13.6 30.79H16.46V28.6C16.46 25.84 18.7 23.6 21.46 23.6H27.21L27.2 23.61ZM22.49 14.29C22 14.78 21.21 14.78 20.72 14.29C20.23 13.8 20.23 13.01 20.72 12.52C21.21 12.03 22 12.03 22.49 12.52C22.98 13.01 22.98 13.8 22.49 14.29Z" fill="current"/>
<path d="M21.8 25.37C19.81 25.37 18.2 26.98 18.2 28.97V35.4C18.2 37.39 19.81 39 21.8 39H27.2C29.19 39 30.8 37.39 30.8 35.4V32.57H24.5V30.81H35.4C37.39 30.81 39 29.2 39 27.21V21.81C39 19.82 37.39 18.21 35.4 18.21H32.54V20.38C32.54 23.14 30.3 25.38 27.54 25.38H21.79L21.8 25.37ZM26.51 34.71C27 34.22 27.79 34.22 28.28 34.71C28.77 35.2 28.77 35.99 28.28 36.48C27.79 36.97 27 36.97 26.51 36.48C26.02 35.99 26.02 35.2 26.51 34.71Z" fill="current"/>
</svg>
