<svg width="current" height="current" viewBox="0 0 48 48" fill="none" xmlns="http://www.w3.org/2000/svg">
<path d="M33.3508 11.3008H31.6508V11.2007C31.6508 10.4316 31.3452 9.694 30.8014 9.15015C30.2575 8.60629 29.5199 8.30078 28.7508 8.30078H19.2008C18.4317 8.30078 17.6941 8.60629 17.1502 9.15015C16.6064 9.694 16.3008 10.4316 16.3008 11.2007V11.3008H14.6008C13.1952 11.3008 11.8471 11.8591 10.8531 12.853C9.85921 13.847 9.30078 15.1952 9.30078 16.6008V34.4009C9.30342 35.8057 9.86271 37.1521 10.8561 38.1455C11.8494 39.1389 13.196 39.698 14.6008 39.7007H33.4008C34.8057 39.698 36.1522 39.1389 37.1456 38.1455C38.1389 37.1521 38.6982 35.8057 38.7008 34.4009V16.6008C38.7008 15.9006 38.5621 15.2073 38.2927 14.561C38.0232 13.9147 37.6283 13.328 37.1309 12.8352C36.6334 12.3424 36.0432 11.9531 35.3944 11.6897C34.7456 11.4263 34.051 11.2942 33.3508 11.3008ZM19.6508 13.0007V11.7007H28.2508V14.3008H19.6508V13.0007ZM23.9508 18.6509C24.8804 18.6509 25.7891 18.9264 26.562 19.4429C27.3349 19.9593 27.9373 20.6934 28.293 21.5522C28.6488 22.4111 28.7418 23.3559 28.5605 24.2676C28.3791 25.1793 27.9315 26.0168 27.2742 26.6741C26.6169 27.3314 25.7794 27.7791 24.8677 27.9604C23.956 28.1418 23.011 28.0488 22.1522 27.6931C21.2934 27.3374 20.5594 26.7348 20.0429 25.9619C19.5265 25.189 19.2508 24.2804 19.2508 23.3508C19.2534 22.1051 19.7495 20.9111 20.6303 20.0303C21.5112 19.1494 22.7051 18.6535 23.9508 18.6509ZM31.6508 35.3508H16.2508V31.9907C16.2534 31.1588 16.5851 30.3617 17.1734 29.7734C17.7617 29.1851 18.5588 28.8535 19.3908 28.8508H28.5108C29.3428 28.8535 30.1399 29.1851 30.7282 29.7734C31.3165 30.3617 31.6482 31.1588 31.6508 31.9907V35.3508Z" fill="current"/>
</svg>
