<svg width="current" height="current" viewBox="0 0 48 48" fill="current" xmlns="http://www.w3.org/2000/svg">
<path fill-rule="evenodd" clip-rule="evenodd" d="M23.999 11.9196L25.2502 10.7691C24.9284 10.4191 24.4747 10.2198 23.9992 10.2197C23.5238 10.2196 23.07 10.4186 22.748 10.7685C22.7482 10.7682 22.7481 10.7683 23.999 11.9196L22.748 10.7685L22.7385 10.7788L22.7159 10.8036C22.6965 10.8248 22.6686 10.8556 22.6327 10.8953C22.561 10.9749 22.4574 11.0905 22.3265 11.2389C22.0649 11.5355 21.6936 11.9634 21.2492 12.4951C20.3618 13.5567 19.1753 15.0411 17.9851 16.7266C16.7988 18.4067 15.5855 20.3194 14.6626 22.235C13.7556 24.1177 13.0488 26.1647 13.0488 28.0697C13.0488 34.1186 17.9499 39.0197 23.9988 39.0197C30.0477 39.0197 34.9488 34.1186 34.9488 28.0697C34.9488 26.1669 34.2418 24.1209 33.335 22.239C32.4122 20.3241 31.1989 18.4112 30.0127 16.7306C28.8226 15.0445 27.6362 13.5593 26.7489 12.497C26.3045 11.9649 25.9333 11.5367 25.6716 11.2398C25.5408 11.0914 25.4372 10.9756 25.3655 10.896C25.3296 10.8563 25.3017 10.8255 25.2823 10.8042L25.2597 10.7794L25.2513 10.7703C25.2511 10.77 25.2502 10.7691 23.999 11.9196ZM27.7305 26.5399H30.8205C30.8205 25.1099 29.2105 22.1098 27.2405 19.0898L25.2305 21.6199C27.1805 24.6099 27.7305 26.0799 27.7305 26.5399Z" fill="current"/>
</svg>
