<svg width="current" height="current" viewBox="0 0 48 48" fill="none" xmlns="http://www.w3.org/2000/svg">
<path d="M33.49 13.2969C33.2078 12.8678 32.8233 12.5155 32.3712 12.2717C31.9192 12.028 31.4136 11.9004 30.9 11.9004C30.3864 11.9004 29.8808 12.028 29.4287 12.2717C28.9767 12.5155 28.5922 12.8678 28.31 13.2969H11V16.6968H28.31C28.5922 17.1259 28.9767 17.4782 29.4287 17.7219C29.8808 17.9657 30.3864 18.0933 30.9 18.0933C31.4136 18.0933 31.9192 17.9657 32.3712 17.7219C32.8233 17.4782 33.2078 17.1259 33.49 16.6968H37V13.2969H33.49Z" fill="current"/>
<path d="M17.1 20.8971C16.5859 20.8965 16.0798 21.0242 15.6275 21.2686C15.1753 21.5131 14.7912 21.8666 14.51 22.297H11V25.6969H14.51C14.7922 26.126 15.1767 26.4782 15.6287 26.722C16.0808 26.9658 16.5864 27.0933 17.1 27.0933C17.6136 27.0933 18.1192 26.9658 18.5712 26.722C19.0233 26.4782 19.4078 26.126 19.69 25.6969H37V22.297H19.73C19.4472 21.8588 19.0572 21.5002 18.5969 21.2552C18.1366 21.0102 17.6213 20.887 17.1 20.8971Z" fill="current"/>
<path d="M27 29.8965C26.4859 29.896 25.9798 30.0237 25.5275 30.2681C25.0753 30.5126 24.6912 30.8661 24.41 31.2964H11V34.6964H24.41C24.6922 35.1255 25.0767 35.4777 25.5287 35.7215C25.9808 35.9653 26.4864 36.0928 27 36.0928C27.5136 36.0928 28.0192 35.9653 28.4713 35.7215C28.9233 35.4777 29.3078 35.1255 29.59 34.6964H37V31.2964H29.59C29.3108 30.8641 28.9272 30.5092 28.4744 30.2645C28.0217 30.0198 27.5146 29.8933 27 29.8965Z" fill="current"/>
</svg>
