<svg width="current" height="current" viewBox="0 0 48 48" fill="none" xmlns="http://www.w3.org/2000/svg">
<path d="M33.3508 11.3008H31.6508V11.2007C31.6508 10.4316 31.3452 9.694 30.8014 9.15015C30.2575 8.60629 29.5199 8.30078 28.7508 8.30078H19.2008C18.4317 8.30078 17.6941 8.60629 17.1502 9.15015C16.6064 9.694 16.3008 10.4316 16.3008 11.2007V11.3008H14.6008C13.1952 11.3008 11.8471 11.8591 10.8531 12.853C9.85921 13.847 9.30078 15.1952 9.30078 16.6008V34.4009C9.30342 35.8057 9.86271 37.1521 10.8561 38.1455C11.8494 39.1389 13.196 39.698 14.6008 39.7007H33.4008C34.8057 39.698 36.1522 39.1389 37.1456 38.1455C38.1389 37.1521 38.6982 35.8057 38.7008 34.4009V16.6008C38.7008 15.9006 38.5621 15.2073 38.2927 14.561C38.0232 13.9147 37.6283 13.328 37.1309 12.8352C36.6334 12.3424 36.0432 11.9531 35.3944 11.6897C34.7456 11.4263 34.051 11.2942 33.3508 11.3008ZM19.6508 11.7007H28.2508V14.3008H19.6508V11.7007ZM35.2508 34.4009C35.2508 34.9048 35.0507 35.3881 34.6943 35.7444C34.338 36.1007 33.8547 36.3008 33.3508 36.3008H14.5508C14.0469 36.3008 13.5636 36.1007 13.2073 35.7444C12.851 35.3881 12.6508 34.9048 12.6508 34.4009V16.6008C12.6508 16.0969 12.851 15.6136 13.2073 15.2573C13.5636 14.901 14.0469 14.7007 14.5508 14.7007H16.2508V14.8008C16.2508 15.5699 16.5564 16.3075 17.1002 16.8513C17.6441 17.3952 18.3817 17.7007 19.1508 17.7007H28.7508C29.5199 17.7007 30.2575 17.3952 30.8014 16.8513C31.3452 16.3075 31.6508 15.5699 31.6508 14.8008V14.7007H33.3508C33.8547 14.7007 34.338 14.901 34.6943 15.2573C35.0507 15.6136 35.2508 16.0969 35.2508 16.6008V34.4009Z" fill="current"/>
<path d="M23.952 28.0505C24.8815 28.0505 25.7903 27.7749 26.5632 27.2585C27.3361 26.742 27.9385 26.0079 28.2942 25.1491C28.6499 24.2903 28.743 23.3453 28.5616 22.4335C28.3803 21.5218 27.9327 20.6844 27.2754 20.027C26.6181 19.3697 25.7806 18.922 24.8689 18.7407C23.9572 18.5593 23.0122 18.6525 22.1534 19.0082C21.2946 19.364 20.5605 19.9663 20.0441 20.7392C19.5276 21.5121 19.252 22.421 19.252 23.3505C19.2546 24.5962 19.7506 25.79 20.6315 26.6708C21.5123 27.5517 22.7063 28.0478 23.952 28.0505ZM23.952 22.0505C24.2091 22.0505 24.4604 22.1266 24.6742 22.2695C24.888 22.4123 25.0546 22.6154 25.153 22.853C25.2514 23.0905 25.2772 23.352 25.227 23.6042C25.1768 23.8564 25.053 24.0879 24.8712 24.2697C24.6894 24.4515 24.4577 24.5753 24.2056 24.6254C23.9534 24.6756 23.692 24.6499 23.4545 24.5515C23.2169 24.4531 23.0139 24.2865 22.871 24.0727C22.7282 23.8589 22.652 23.6076 22.652 23.3505C22.652 23.0058 22.7889 22.6751 23.0327 22.4313C23.2765 22.1875 23.6072 22.0505 23.952 22.0505Z" fill="current"/>
<path d="M28.512 28.8516H19.392C18.56 28.8542 17.7629 29.1859 17.1746 29.7742C16.5863 30.3625 16.2546 31.1595 16.252 31.9915V35.3516H19.652V32.2515H28.252V35.3516H31.652V31.9915C31.6493 31.1595 31.3177 30.3625 30.7294 29.7742C30.1411 29.1859 29.3439 28.8542 28.512 28.8516Z" fill="current"/>
</svg>
