<svg width="current" height="current" viewBox="0 0 48 48" fill="none" xmlns="http://www.w3.org/2000/svg">
<path d="M29.9392 14.5202L32.5292 11.9302C30.7592 10.6802 28.7092 9.81018 26.4892 9.43018V13.0902C27.7292 13.3702 28.8892 13.8602 29.9292 14.5202H29.9392Z" fill="current"/>
<path d="M34.9092 21.5002H38.5692C38.1892 19.2802 37.3192 17.2302 36.0692 15.4702L33.4792 18.0602C34.1392 19.1102 34.6292 20.2602 34.9092 21.5002Z" fill="current"/>
<path d="M23.9992 35.2002C17.8192 35.2002 12.7992 30.1802 12.7992 24.0002C12.7992 18.6802 16.5292 14.2302 21.4992 13.0902V9.43018C14.5292 10.6202 9.19922 16.6902 9.19922 24.0002C9.19922 32.1602 15.8392 38.8002 23.9992 38.8002C31.3092 38.8002 37.3792 33.4702 38.5692 26.5002H34.9092C33.7692 31.4702 29.3192 35.2002 23.9992 35.2002Z" fill="current"/>
</svg>
