<svg width="current" height="current" viewBox="0 0 48 48" fill="none" xmlns="http://www.w3.org/2000/svg">
<path d="M26.6003 34.4017C26.6003 32.9658 25.4363 31.8018 24.0004 31.8018C22.5644 31.8018 21.4004 32.9658 21.4004 34.4017C21.4004 35.8377 22.5644 37.0018 24.0004 37.0018C25.4363 37.0018 26.6003 35.8377 26.6003 34.4017Z" fill="current"/>
<path d="M26.6003 13.601C26.6003 12.165 25.4363 11.001 24.0004 11.001C22.5644 11.001 21.4004 12.165 21.4004 13.601C21.4004 15.0369 22.5644 16.201 24.0004 16.201C25.4363 16.201 26.6003 15.0369 26.6003 13.601Z" fill="current"/>
<path d="M26.6003 24.0014C26.6003 22.5654 25.4363 21.4014 24.0004 21.4014C22.5644 21.4014 21.4004 22.5654 21.4004 24.0014C21.4004 25.4373 22.5644 26.6014 24.0004 26.6014C25.4363 26.6014 26.6003 25.4373 26.6003 24.0014Z" fill="current"/>
</svg>
