<svg width="current" height="current" viewBox="0 0 48 48" fill="none" xmlns="http://www.w3.org/2000/svg">
<path d="M33.4008 11.3008H14.6008C13.1951 11.3008 11.847 11.8592 10.8531 12.8531C9.85915 13.8471 9.30078 15.1951 9.30078 16.6007V31.4008C9.30078 32.8064 9.85915 34.1545 10.8531 35.1484C11.847 36.1424 13.1951 36.7008 14.6008 36.7008H33.4008C34.8056 36.6982 36.1521 36.1389 37.1455 35.1455C38.1389 34.1521 38.6981 32.8056 38.7007 31.4008V16.6007C38.7007 15.1951 38.1424 13.8471 37.1484 12.8531C36.1545 11.8592 34.8064 11.3008 33.4008 11.3008ZM32.5008 14.7008L24.0008 21.7808L15.4908 14.7008H32.5008ZM33.4008 33.3008H14.6008C14.0969 33.3008 13.6136 33.1006 13.2573 32.7443C12.9009 32.3879 12.7007 31.9047 12.7007 31.4008V16.7908L22.1407 24.6608C22.6617 25.0943 23.3181 25.3317 23.9958 25.3317C24.6735 25.3317 25.3298 25.0943 25.8508 24.6608L35.3008 16.7908V31.4008C35.2982 31.9039 35.0971 32.3856 34.7414 32.7413C34.3856 33.0971 33.9039 33.2982 33.4008 33.3008Z" fill="current"/>
</svg>
