<svg width="current" height="current" viewBox="0 0 24 24" fill="none" xmlns="http://www.w3.org/2000/svg">
<path fill-rule="evenodd" clip-rule="evenodd" d="M8.4252 6.30547C7.23778 6.30547 6.2752 7.26806 6.2752 8.45547V15.4555C6.2752 16.6429 7.23778 17.6055 8.4252 17.6055H15.4252C16.6126 17.6055 17.5752 16.6429 17.5752 15.4555V8.45547C17.5752 7.26806 16.6126 6.30547 15.4252 6.30547H8.4252ZM4.5752 8.45547C4.5752 6.32917 6.2989 4.60547 8.4252 4.60547H15.4252C17.5515 4.60547 19.2752 6.32917 19.2752 8.45547V15.4555C19.2752 17.5818 17.5515 19.3055 15.4252 19.3055H8.4252C6.2989 19.3055 4.5752 17.5818 4.5752 15.4555V8.45547Z" fill="current"/>
</svg>
