<svg width="current" height="current" viewBox="0 0 48 48" fill="none" xmlns="http://www.w3.org/2000/svg">
<path d="M23.9999 40.7008C20.6969 40.7008 17.4681 39.7213 14.7218 37.8863C11.9755 36.0513 9.835 33.4431 8.57102 30.3916C7.30703 27.34 6.97633 23.9823 7.6207 20.7428C8.26507 17.5033 9.8556 14.5276 12.1911 12.1921C14.5267 9.85657 17.5023 8.26605 20.7418 7.62168C23.9813 6.9773 27.3391 7.30801 30.3906 8.57199C33.4421 9.83598 36.0503 11.9765 37.8853 14.7228C39.7204 17.4691 40.6998 20.6978 40.6998 24.0007C40.6945 28.4282 38.9334 32.6729 35.8027 35.8036C32.672 38.9343 28.4273 40.6955 23.9999 40.7008ZM23.9999 10.7008C21.3694 10.7008 18.7979 11.4808 16.6107 12.9422C14.4235 14.4037 12.7189 16.4808 11.7123 18.9111C10.7056 21.3414 10.4422 24.0155 10.9554 26.5954C11.4686 29.1754 12.7353 31.5452 14.5953 33.4052C16.4553 35.2653 18.8252 36.532 21.4051 37.0451C23.9851 37.5583 26.6593 37.2949 29.0896 36.2883C31.5198 35.2817 33.5969 33.577 35.0583 31.3899C36.5197 29.2027 37.2998 26.6312 37.2998 24.0007C37.2971 20.4741 35.8951 17.0928 33.4015 14.5991C30.9078 12.1054 27.5264 10.7034 23.9999 10.7008Z" fill="current"/>
<path d="M25.6881 21.75H22.2881V32.25H25.6881V21.75Z" fill="current"/>
<path d="M25.6881 15.75H22.2881V18.75H25.6881V15.75Z" fill="current"/>
</svg>
