<svg width="current" height="current" viewBox="0 0 48 48" fill="none" xmlns="http://www.w3.org/2000/svg">
<path d="M24.0008 28.8C25.8233 28.8 27.3008 27.3226 27.3008 25.5C27.3008 23.6775 25.8233 22.2 24.0008 22.2C22.1782 22.2 20.7008 23.6775 20.7008 25.5C20.7008 27.3226 22.1782 28.8 24.0008 28.8Z" fill="current"/>
<path d="M34.4008 15.3H32.0008L30.5508 12.87C30.0747 12.089 29.4066 11.4429 28.6102 10.993C27.8138 10.5432 26.9155 10.3046 26.0008 10.3H22.0008C21.0861 10.3046 20.1878 10.5432 19.3914 10.993C18.5949 11.4429 17.9269 12.089 17.4508 12.87L16.0008 15.3H13.6008C12.1959 15.3027 10.8494 15.8619 9.85603 16.8553C8.86266 17.8487 8.30342 19.1952 8.30078 20.6V32.4001C8.30342 33.8049 8.86266 35.1514 9.85603 36.1448C10.8494 37.1382 12.1959 37.6974 13.6008 37.7001H34.4008C35.8056 37.6974 37.1522 37.1382 38.1455 36.1448C39.1389 35.1514 39.6981 33.8049 39.7008 32.4001V20.6C39.6981 19.1952 39.1389 17.8487 38.1455 16.8553C37.1522 15.8619 35.8056 15.3027 34.4008 15.3ZM24.0008 32.2001C22.6756 32.2001 21.3803 31.8071 20.2785 31.0709C19.1767 30.3347 18.3179 29.2883 17.8108 28.064C17.3037 26.8398 17.171 25.4926 17.4295 24.1929C17.688 22.8933 18.3262 21.6994 19.2632 20.7624C20.2002 19.8254 21.394 19.1873 22.6937 18.9288C23.9933 18.6703 25.3405 18.8029 26.5648 19.3101C27.789 19.8172 28.8354 20.6759 29.5716 21.7777C30.3078 22.8795 30.7008 24.1749 30.7008 25.5C30.6981 27.2762 29.9914 28.9788 28.7355 30.2347C27.4796 31.4907 25.7769 32.1974 24.0008 32.2001ZM34.7008 22.7C34.4633 22.9384 34.1604 23.1009 33.8304 23.167C33.5005 23.233 33.1584 23.1997 32.8474 23.0712C32.5364 22.9427 32.2706 22.7248 32.0835 22.4451C31.8965 22.1654 31.7966 21.8365 31.7966 21.5C31.7966 21.1636 31.8965 20.8347 32.0835 20.555C32.2706 20.2753 32.5364 20.0574 32.8474 19.9289C33.1584 19.8004 33.5005 19.7671 33.8304 19.8331C34.1604 19.8992 34.4633 20.0617 34.7008 20.3C34.8604 20.4565 34.9873 20.6432 35.0738 20.8492C35.1604 21.0553 35.205 21.2765 35.205 21.5C35.205 21.7236 35.1604 21.9448 35.0738 22.1509C34.9873 22.3569 34.8604 22.5436 34.7008 22.7Z" fill="current"/>
</svg>
