<svg width="current" height="current" viewBox="0 0 48 48" fill="none" xmlns="http://www.w3.org/2000/svg">
<path d="M33.4008 16.7998H31.2008V14.5998C31.2008 11.6798 28.8208 9.2998 25.9008 9.2998H22.1008C19.1808 9.2998 16.8008 11.6798 16.8008 14.5998V16.7998H14.6008C11.6808 16.7998 9.30078 19.3398 9.30078 22.4598V25.5398C9.30078 28.6598 11.6808 31.1998 14.6008 31.1998H16.8008V33.3998C16.8008 36.3198 19.1808 38.6998 22.1008 38.6998H25.9008C28.8208 38.6998 31.2008 36.3198 31.2008 33.3998V31.1998H33.4008C36.3208 31.1998 38.7008 28.6598 38.7008 25.5398V22.4598C38.7008 19.3398 36.3208 16.7998 33.4008 16.7998ZM14.6008 27.7998C13.5508 27.7998 12.7008 26.7898 12.7008 25.5398V22.4598C12.7008 21.2098 13.5508 20.1998 14.6008 20.1998H24.0008V16.7998H20.2008V14.5998C20.2008 13.5498 21.0508 12.6998 22.1008 12.6998H25.9008C26.9508 12.6998 27.8008 13.5498 27.8008 14.5998V20.3998C27.8008 21.4498 26.9508 22.2998 25.9008 22.2998H22.1008C19.1808 22.2998 16.8008 24.6798 16.8008 27.5998V27.7998H14.6008ZM35.3008 25.5398C35.3008 26.7898 34.4508 27.7998 33.4008 27.7998H24.0008V31.1998H27.8008V33.3998C27.8008 34.4498 26.9508 35.2998 25.9008 35.2998H22.1008C21.0508 35.2998 20.2008 34.4498 20.2008 33.3998V27.5998C20.2008 26.5498 21.0508 25.6998 22.1008 25.6998H25.9008C28.8208 25.6998 31.2008 23.3198 31.2008 20.3998V20.1998H33.4008C34.4508 20.1998 35.3008 21.2098 35.3008 22.4598V25.5398Z" fill="current"/>
<path d="M25.3508 34.0998C26.0411 34.0998 26.6008 33.5402 26.6008 32.8498C26.6008 32.1594 26.0411 31.5998 25.3508 31.5998C24.6604 31.5998 24.1008 32.1594 24.1008 32.8498C24.1008 33.5402 24.6604 34.0998 25.3508 34.0998Z" fill="current"/>
<path d="M21.7708 14.2698C21.2808 14.7598 21.2808 15.5498 21.7708 16.0398C22.2608 16.5298 23.0508 16.5298 23.5408 16.0398C24.0308 15.5498 24.0308 14.7598 23.5408 14.2698C23.0508 13.7798 22.2608 13.7798 21.7708 14.2698Z" fill="current"/>
</svg>
