<svg width="current" height="current" viewBox="0 0 48 48" fill="none" xmlns="http://www.w3.org/2000/svg">
<path d="M33.3708 11.3008H31.7008V11.2008C31.7008 10.4317 31.3952 9.694 30.8514 9.15015C30.3075 8.60629 29.5699 8.30078 28.8008 8.30078H19.2008C18.4316 8.30078 17.694 8.60629 17.1502 9.15015C16.6063 9.694 16.3008 10.4317 16.3008 11.2008V11.3008H14.6008C13.1951 11.3008 11.847 11.8592 10.8531 12.8531C9.85916 13.8471 9.30078 15.1951 9.30078 16.6007V34.4008C9.30342 35.8056 9.86266 37.1521 10.856 38.1455C11.8494 39.1389 13.1959 39.6982 14.6008 39.7008H33.4008C34.8056 39.6982 36.1522 39.1389 37.1455 38.1455C38.1389 37.1521 38.6981 35.8056 38.7008 34.4008V16.6007C38.7008 15.9022 38.5627 15.2105 38.2945 14.5656C38.0263 13.9206 37.6332 13.335 37.1378 12.8424C36.6425 12.3499 36.0547 11.9601 35.4082 11.6956C34.7617 11.431 34.0693 11.2968 33.3708 11.3008ZM19.6708 11.7008H28.2708V14.3008H19.7008L19.6708 11.7008ZM35.2708 34.4008C35.2708 34.9047 35.0706 35.3879 34.7143 35.7443C34.358 36.1006 33.8747 36.3008 33.3708 36.3008H14.5708C14.0669 36.3008 13.5836 36.1006 13.2273 35.7443C12.871 35.3879 12.6708 34.9047 12.6708 34.4008V16.6007C12.6708 16.0968 12.871 15.6135 13.2273 15.2572C13.5836 14.9009 14.0669 14.7008 14.5708 14.7008H16.2708V14.8008C16.2708 15.5699 16.5763 16.3075 17.1202 16.8513C17.664 17.3952 18.4016 17.7008 19.1708 17.7008H28.7708C29.5399 17.7008 30.2775 17.3952 30.8214 16.8513C31.3652 16.3075 31.6708 15.5699 31.6708 14.8008V14.7008H33.3708C33.8747 14.7008 34.358 14.9009 34.7143 15.2572C35.0706 15.6135 35.2708 16.0968 35.2708 16.6007V34.4008Z" fill="current"/>
<path d="M22.2319 27.1711L19.2319 23.9512L16.752 26.2711L20.112 29.8611C20.3762 30.1473 20.696 30.3766 21.052 30.5348C21.4079 30.693 21.7924 30.7768 22.1819 30.7811C22.9312 30.7752 23.6486 30.4775 24.1819 29.9512L31.1019 23.1211L28.7119 20.7012L22.2319 27.1711Z" fill="current"/>
</svg>
