<svg width="current" height="current" viewBox="0 0 48 48" fill="none" xmlns="http://www.w3.org/2000/svg">
<path d="M38.6997 13.9508C38.6997 12.7108 38.2197 11.5408 37.3397 10.6608C36.4597 9.78078 35.2897 9.30078 34.0497 9.30078C32.8097 9.30078 31.6397 9.78078 30.7597 10.6608L25.5997 15.8208L13.9897 12.7608C12.9897 12.5008 11.9297 12.7908 11.1997 13.5108L10.1497 14.5608C9.51967 15.1908 9.21967 16.0508 9.31967 16.9408C9.41967 17.8208 9.90967 18.6008 10.6597 19.0708L17.8397 23.5808L15.1797 26.2408L12.0597 26.0208C11.5697 25.9808 11.0797 26.1708 10.7297 26.5208L10.3797 26.8708C9.75967 27.4908 9.45967 28.3408 9.54967 29.2108C9.63967 30.0808 10.1097 30.8608 10.8397 31.3408L14.3497 33.6608L16.6597 37.1608C17.1397 37.8908 17.9197 38.3708 18.7997 38.4508C18.8997 38.4608 18.9997 38.4708 19.0997 38.4708C19.8697 38.4708 20.5997 38.1708 21.1597 37.6208C21.7197 37.0708 22.0197 36.2708 21.9597 35.4808L21.7697 32.8408L24.4297 30.1808L28.9397 37.3608C29.4097 38.1108 30.1897 38.6008 31.0697 38.7008C31.1797 38.7108 31.2897 38.7208 31.3997 38.7208C32.1697 38.7208 32.8997 38.4208 33.4497 37.8708L34.4997 36.8208C35.2297 36.0908 35.5197 35.0308 35.2597 34.0308L32.1997 22.4208L37.3497 17.2608C38.2297 16.3808 38.7097 15.2108 38.7097 13.9708L38.6997 13.9508ZM12.9997 16.5308L13.4097 16.1208L22.8297 18.6008L20.3197 21.1108L13.0097 16.5208L12.9997 16.5308ZM31.8797 34.6008L31.4697 35.0108L26.8797 27.7008L29.3997 25.1808L31.8797 34.6008ZM18.8197 30.9608C18.4697 31.3108 18.2897 31.7908 18.3297 32.2808L18.4297 33.6208L17.0097 31.4808C16.8797 31.2908 16.7197 31.1208 16.5297 31.0008L14.3897 29.5808L15.7297 29.6808C16.2197 29.7208 16.6997 29.5408 17.0497 29.1908L33.1797 13.0608C33.6497 12.5908 34.4797 12.5908 34.9497 13.0608C35.1897 13.3008 35.3197 13.6108 35.3197 13.9508C35.3197 14.2908 35.1897 14.6008 34.9497 14.8308L18.8197 30.9608Z" fill="current"/>
</svg>
