<svg width="current" height="current" viewBox="0 0 48 48" fill="none" xmlns="http://www.w3.org/2000/svg">
<path d="M37 30.4499H34.7V21.1499C34.6946 18.6097 33.7866 16.1542 32.138 14.2216C30.4894 12.2891 28.2076 11.0055 25.7 10.5999V8.1499H22.3V10.5999C19.7924 11.0055 17.5106 12.2891 15.862 14.2216C14.2134 16.1542 13.3054 18.6097 13.3 21.1499V30.4499H11V33.8499H19.3V35.1499C19.3026 36.3956 19.7987 37.5895 20.6795 38.4704C21.5604 39.3512 22.7543 39.8473 24 39.8499C25.2457 39.8473 26.4396 39.3512 27.3205 38.4704C28.2013 37.5895 28.6974 36.3956 28.7 35.1499V33.8499H37V30.4499Z" fill="current"/>
</svg>
