<svg width="current" height="current" viewBox="0 0 48 48" fill="none" xmlns="http://www.w3.org/2000/svg">
<path d="M24 40.6988C14.79 40.6988 7.30005 33.2088 7.30005 23.9988C7.30005 14.7888 14.79 7.29883 24 7.29883C33.21 7.29883 40.7001 14.7888 40.7001 23.9988C40.7001 33.2088 33.21 40.6988 24 40.6988ZM24 10.6988C16.67 10.6988 10.7 16.6688 10.7 23.9988C10.7 31.3288 16.67 37.2988 24 37.2988C31.33 37.2988 37.3 31.3288 37.3 23.9988C37.3 16.6688 31.33 10.6988 24 10.6988Z" fill="current"/>
<path d="M21.65 30.5288C21.65 30.5288 21.61 30.5288 21.59 30.5288C20.8 30.5088 20.06 30.1788 19.52 29.5988L14.76 24.4588L17.25 22.1488L21.66 26.9088L30.8 17.7988L33.2001 20.2088L23.69 29.6788C23.14 30.2288 22.42 30.5288 21.64 30.5288H21.65Z" fill="current"/>
</svg>
