<svg width="current" height="current" viewBox="0 0 48 48" fill="none" xmlns="http://www.w3.org/2000/svg">
<path d="M31.4003 38.7007H14.6003C11.6803 38.7007 9.30029 36.3207 9.30029 33.4007V16.6007C9.30029 13.6807 11.6803 11.3007 14.6003 11.3007H22.0003V14.7007H14.6003C13.5503 14.7007 12.7003 15.5507 12.7003 16.6007V33.4007C12.7003 34.4507 13.5503 35.3007 14.6003 35.3007H31.4003C32.4503 35.3007 33.3003 34.4507 33.3003 33.4007V26.0007H36.7003V33.4007C36.7003 36.3207 34.3203 38.7007 31.4003 38.7007Z" fill="current"/>
<path d="M37.2803 14.3807L33.6203 10.7207C33.1503 10.2507 32.3903 10.2507 31.9203 10.7207L19.3603 23.2807L18.3903 28.2007C18.2303 29.0407 18.9603 29.7707 19.8003 29.6107L24.7203 28.6407L37.2803 16.0807C37.7503 15.6107 37.7503 14.8507 37.2803 14.3807Z" fill="current"/>
</svg>
