<svg width="current" height="current" viewBox="0 0 48 48" fill="none" xmlns="http://www.w3.org/2000/svg">
<path d="M33.4008 9.2998H14.6008C11.6808 9.2998 9.30078 11.6798 9.30078 14.5998V33.3998C9.30078 36.3198 11.6808 38.6998 14.6008 38.6998H33.4008C36.3208 38.6998 38.7008 36.3198 38.7008 33.3998V14.5998C38.7008 11.6798 36.3208 9.2998 33.4008 9.2998ZM24.6108 30.3398C24.6108 32.5398 22.8208 34.3198 20.6308 34.3198C18.4408 34.3198 16.6508 32.5298 16.6508 30.3398V30.0498H20.0508V30.3398C20.0508 30.6598 20.3108 30.9198 20.6308 30.9198C20.9508 30.9198 21.2108 30.6598 21.2108 30.3398V22.6198H24.6108V30.3398ZM30.0008 34.3498C27.3008 34.3498 25.6308 32.7898 25.6308 30.2698V30.0598H29.0708V30.2698C29.0708 30.8998 29.5408 31.1298 29.9908 31.1298C30.4408 31.1298 30.8608 30.9098 30.8608 30.4998C30.8608 30.0898 30.2808 29.9098 29.3408 29.6698C27.8008 29.2598 25.7608 28.7198 25.7608 26.0198C25.7608 23.7198 27.3108 22.3498 29.9008 22.3498C32.4908 22.3498 34.0108 23.7898 34.0108 26.1998H30.6508C30.6508 25.5598 30.1108 25.4898 29.8708 25.4898C29.8008 25.4898 29.1708 25.4998 29.1708 25.9298C29.1708 26.3098 29.8708 26.4998 30.6808 26.7198C32.2308 27.1498 34.3408 27.7298 34.3408 30.4398C34.3408 32.8498 32.6808 34.3498 30.0008 34.3498Z" fill="current"/>
</svg>
