<svg width="current" height="current" viewBox="0 0 48 48" fill="none" xmlns="http://www.w3.org/2000/svg">
<path d="M24.0008 8.29897C22.2515 8.29074 20.5183 8.6319 18.9026 9.30239C17.2869 9.97288 15.8212 10.9591 14.5918 12.2035C13.3623 13.4479 12.3936 14.9253 11.7426 16.549C11.0917 18.1726 10.7714 19.9099 10.8007 21.659C10.8007 28.089 16.2208 33.7789 22.0708 38.9689C22.6048 39.4374 23.2904 39.6968 24.0008 39.699C24.7085 39.6981 25.3912 39.4383 25.9207 38.9689C31.7807 33.7789 37.2008 28.089 37.2008 21.659C37.2301 19.9099 36.9099 18.1726 36.2589 16.549C35.6079 14.9253 34.6393 13.4479 33.4099 12.2035C32.1804 10.9591 30.7148 9.97288 29.0991 9.30239C27.4834 8.6319 25.7501 8.29074 24.0008 8.29897ZM28.8708 22.539C28.6694 23.408 28.239 24.2073 27.6245 24.854C27.01 25.5007 26.2336 25.9712 25.3759 26.2167C24.5183 26.4622 23.6105 26.4738 22.7469 26.2503C21.8833 26.0267 21.0953 25.5761 20.4644 24.9453C19.8336 24.3145 19.3831 23.5264 19.1595 22.6627C18.936 21.7991 18.9476 20.8914 19.1931 20.0337C19.4386 19.1761 19.9091 18.3998 20.5558 17.7853C21.2024 17.1708 22.0018 16.7404 22.8708 16.539C23.6968 16.3479 24.5577 16.37 25.3728 16.6032C26.1878 16.8363 26.9302 17.2729 27.5301 17.8719C28.1301 18.4708 28.5678 19.2125 28.8023 20.0271C29.0369 20.8418 29.0605 21.7027 28.8708 22.529V22.539Z" fill="current"/>
</svg>
