<svg width="current" height="current" viewBox="0 0 48 48" fill="none" xmlns="http://www.w3.org/2000/svg">
<path d="M29.9704 9.48003C28.9904 8.98003 27.8304 9.07003 26.9504 9.72003L18.3004 16.01H13.4504C10.5304 16.01 8.15039 18.39 8.15039 21.31V24.11C8.15039 26.93 10.3704 29.22 13.1504 29.38V37H16.5504V29.41H18.3004L26.9504 35.7C27.4604 36.07 28.0504 36.26 28.6504 36.26C29.1004 36.26 29.5504 36.16 29.9704 35.94C30.9504 35.44 31.5504 34.45 31.5504 33.36V12.06C31.5504 10.96 30.9404 9.97003 29.9704 9.48003Z" fill="current"/>
<path d="M39.8504 21.01H34.8504V24.41H39.8504V21.01Z" fill="current"/>
<path d="M36.9186 12.2561L33.3831 15.7916L35.7873 18.1958L39.3228 14.6602L36.9186 12.2561Z" fill="current"/>
<path d="M35.7885 27.2173L33.3844 29.6215L36.9199 33.157L39.3241 30.7529L35.7885 27.2173Z" fill="current"/>
</svg>
