<svg width="current" height="current" viewBox="0 0 48 48" fill="none" xmlns="http://www.w3.org/2000/svg">
<path d="M30.2005 17.7689H33.3005V22.2289H36.7005V16.0689C36.7005 15.9589 36.6905 15.8489 36.6705 15.7489C36.6405 15.5989 36.5905 15.4589 36.5205 15.3289C36.5005 15.2889 36.4805 15.2589 36.4605 15.2289C36.3905 15.0989 36.3005 14.9789 36.2005 14.8789L30.2005 8.87891C30.0905 8.76891 29.9705 8.68891 29.8505 8.60891C29.8205 8.58891 29.7905 8.56891 29.7505 8.55891C29.5205 8.44891 29.2705 8.37891 29.0105 8.37891H16.6105C13.6905 8.37891 11.3105 10.7589 11.3105 13.6789V32.4789C11.3105 35.3989 13.6905 37.7789 16.6105 37.7789H24.2405V34.3789H16.6105C15.5605 34.3789 14.7105 33.5289 14.7105 32.4789V13.6789C14.7105 12.6289 15.5605 11.7789 16.6105 11.7789H27.3105V14.8789C27.3105 16.4789 28.6105 17.7789 30.2105 17.7789L30.2005 17.7689Z" fill="current"/>
<path d="M41.7006 27.9089L39.4105 25.6289C38.9405 25.1589 38.1805 25.1589 37.7105 25.6289L28.6005 34.7389L27.8005 38.8189C27.7205 39.2389 28.0905 39.6089 28.5005 39.5189L32.5805 38.7189L41.6905 29.6089C42.1605 29.1389 42.1605 28.3789 41.6905 27.9089H41.7006Z" fill="current"/>
</svg>
