<svg width="current" height="current" viewBox="0 0 48 48" fill="none" xmlns="http://www.w3.org/2000/svg">
<path d="M35.8307 12.1991C33.0978 9.4643 29.5012 7.76189 25.6537 7.38177C21.8061 7.00164 17.9458 7.96749 14.7306 10.1147C11.5154 12.2619 9.14426 15.4576 8.02124 19.1572C6.89821 22.8567 7.09282 26.8311 8.5719 30.4033C10.051 33.9754 12.723 36.9242 16.1326 38.747C19.5422 40.5698 23.4783 41.154 27.2703 40.3998C31.0623 39.6456 34.4755 37.5998 36.9281 34.611C39.3807 31.6223 40.7211 27.8755 40.7207 24.0092C40.7192 19.5803 38.9605 15.3328 35.8307 12.1991ZM33.0208 25.7092H15.0208V22.3093H33.0208V25.7092Z" fill="current"/>
</svg>
