<svg width="current" height="current" viewBox="0 0 48 48" fill="none" xmlns="http://www.w3.org/2000/svg">
<path d="M28.1701 25.7008C27.8001 25.7008 27.4301 25.6108 27.0901 25.4308L24.0101 23.8208L20.9301 25.4308C20.1301 25.8408 19.2001 25.7708 18.4701 25.2508C17.7501 24.7208 17.3901 23.8508 17.5501 22.9708L18.1301 19.5708L15.6501 17.1708C15.0101 16.5508 14.7801 15.6308 15.0601 14.7808C15.3401 13.9308 16.0601 13.3208 16.9501 13.1908L20.3801 12.6908L21.9201 9.59078C22.3201 8.79078 23.1201 8.30078 24.0101 8.30078C24.9001 8.30078 25.7001 8.80078 26.1001 9.59078L27.6401 12.6908L31.0801 13.1908C31.9601 13.3208 32.6901 13.9308 32.9601 14.7808C33.2401 15.6308 33.0101 16.5508 32.3601 17.1708L29.8801 19.5708L30.4601 22.9708C30.6101 23.8508 30.2601 24.7208 29.5401 25.2508C29.1301 25.5508 28.6501 25.7008 28.1701 25.7008ZM19.5801 16.2408L21.1401 17.7508C21.5401 18.1408 21.7301 18.7108 21.6301 19.2608L21.2601 21.4108L23.2101 20.3908C23.7001 20.1308 24.2901 20.1308 24.7901 20.3908L26.7501 21.4108L26.3801 19.2608C26.2801 18.7108 26.4701 18.1408 26.8701 17.7508L28.4301 16.2408L26.2601 15.9308C25.7101 15.8508 25.2301 15.5008 24.9801 15.0008L24.0001 13.0308L23.0201 15.0008C22.7701 15.5008 22.2901 15.8508 21.7401 15.9308L19.5701 16.2408H19.5801Z" fill="current"/>
<path d="M24.0001 33.4508C23.6101 33.4508 23.2201 33.3708 22.8601 33.2208L13.3301 29.1208L14.6701 26.0008L24.0001 30.0108L33.3301 26.0008L34.6701 29.1208L25.1401 33.2208C24.7701 33.3808 24.3801 33.4508 23.9901 33.4508H24.0001Z" fill="current"/>
<path d="M24.0001 39.7008C23.6101 39.7008 23.2201 39.6208 22.8601 39.4708L13.3301 35.3708L14.6701 32.2508L24.0001 36.2608L33.3301 32.2508L34.6701 35.3708L25.1401 39.4708C24.7701 39.6308 24.3801 39.7008 23.9901 39.7008H24.0001Z" fill="current"/>
</svg>
