<svg width="current" height="current" viewBox="0 0 48 48" fill="none" xmlns="http://www.w3.org/2000/svg">
<path d="M30.1998 17.7789H33.2998V22.2389H36.6998V16.0789C36.6998 15.9689 36.6898 15.8589 36.6698 15.7489C36.6398 15.5989 36.5898 15.4689 36.5198 15.3389C36.4998 15.3089 36.4898 15.2689 36.4698 15.2389C36.3998 15.1089 36.3098 14.9889 36.1998 14.8789L30.1998 8.87891C30.0898 8.76891 29.9698 8.68891 29.8398 8.60891C29.8098 8.58891 29.7798 8.56891 29.7398 8.55891C29.6098 8.49891 29.4698 8.43891 29.3298 8.40891C29.2198 8.38891 29.1098 8.37891 28.9998 8.37891H16.5998C13.6798 8.37891 11.2998 10.7589 11.2998 13.6789V32.4789C11.2998 35.3989 13.6798 37.7789 16.5998 37.7789H24.2298V34.3789H16.5998C15.5498 34.3789 14.6998 33.5289 14.6998 32.4789V13.6789C14.6998 12.6289 15.5498 11.7789 16.5998 11.7789H27.2998V14.8789C27.2998 16.4789 28.5998 17.7789 30.1998 17.7789ZM30.6998 14.3789V14.1789L30.8998 14.3789H30.6998Z" fill="current"/>
<path d="M42.0698 31.2989H36.6998V25.9289H33.2998V31.2989H27.9298V34.6989H33.2998V40.0689H36.6998V34.6989H42.0698V31.2989Z" fill="current"/>
</svg>
