<svg width="current" height="current" viewBox="0 0 48 48" fill="none" xmlns="http://www.w3.org/2000/svg">
<path d="M33.4008 15.2988H30.2008V12.1988C30.2008 10.5988 28.9008 9.29883 27.3008 9.29883H20.7008C19.1008 9.29883 17.8008 10.5988 17.8008 12.1988V15.2988H14.6008C11.6808 15.2988 9.30078 17.6788 9.30078 20.5988V33.3988C9.30078 36.3188 11.6808 38.6988 14.6008 38.6988H33.4008C36.3208 38.6988 38.7008 36.3188 38.7008 33.3988V20.5988C38.7008 17.6788 36.3208 15.2988 33.4008 15.2988ZM21.2008 12.6988H26.8008V15.2988H21.2008V12.6988ZM35.3008 33.3988C35.3008 34.4488 34.4508 35.2988 33.4008 35.2988H14.6008C13.5508 35.2988 12.7008 34.4488 12.7008 33.3988V20.5988C12.7008 19.5488 13.5508 18.6988 14.6008 18.6988H33.4008C34.4508 18.6988 35.3008 19.5488 35.3008 20.5988V33.3988Z" fill="current"/>
<path d="M25.8008 21.4988H22.2008V25.1988H18.5008V28.7988H22.2008V32.4988H25.8008V28.7988H29.5008V25.1988H25.8008V21.4988Z" fill="current"/>
</svg>
