<svg width="current" height="current" viewBox="0 0 48 48" fill="none" xmlns="http://www.w3.org/2000/svg">
<path d="M36.1208 40.4001C35.7808 40.4001 35.4408 40.32 35.1308 40.17C32.0108 38.67 28.6708 35.39 28.6708 30.65V28.01C28.6708 26.54 29.6008 25.22 30.9808 24.72L35.3408 23.14C35.8508 22.96 36.4008 22.96 36.9108 23.14L41.2708 24.72C42.6508 25.22 43.5808 26.54 43.5808 28.01V30.65C43.5808 35.39 40.2508 38.67 37.1208 40.17C36.8008 40.32 36.4608 40.4001 36.1208 40.4001ZM36.1208 26.47L32.1408 27.92C32.1408 27.92 32.0808 27.97 32.0808 28.01V30.65C32.0808 34.15 34.7608 36.1 36.1308 36.8601C37.5008 36.1 40.1808 34.15 40.1808 30.65V28.01C40.1808 28.01 40.1508 27.93 40.1208 27.92L36.1308 26.47H36.1208Z" fill="current"/>
<path d="M24.7908 22.46H24.7408C23.6008 22.16 22.6908 21.93 22.6908 21.25C22.6908 20.73 23.2808 20.49 23.8608 20.49C24.4408 20.49 25.1108 20.76 25.1108 21.54V21.56L28.5308 21.53C28.5308 19.56 27.3908 18.18 25.4108 17.74L25.2908 17.71V16.5H22.5308V17.7L22.4108 17.72C20.3908 18.13 19.2208 19.45 19.2208 21.34C19.2208 24.12 21.4608 24.68 23.2608 25.12H23.3208C24.4608 25.41 25.3508 25.64 25.3508 26.37C25.3508 27 24.6508 27.34 23.9908 27.34C23.2908 27.34 22.5808 26.96 22.5808 26.12V26.1L19.0608 26.12C19.0608 28.22 20.3608 29.74 22.5308 30.19L22.6508 30.21V31.48H25.4108V30.2001L25.5308 30.18C27.6808 29.73 28.9208 28.32 28.9208 26.3C28.9208 23.51 26.5308 22.89 24.7808 22.44L24.7908 22.46Z" fill="current"/>
<path d="M24.0008 36.3C17.2208 36.3 11.7008 30.78 11.7008 24C11.7008 17.22 17.2208 11.7 24.0008 11.7C29.5808 11.7 34.2908 15.43 35.7908 20.53C35.9808 20.52 36.1708 20.5 36.3708 20.5C37.4208 20.5 38.4308 20.66 39.4008 20.93C37.9708 13.74 31.6108 8.30005 24.0008 8.30005C15.3408 8.30005 8.30078 15.34 8.30078 24C8.30078 32.66 15.3408 39.7001 24.0008 39.7001C25.5608 39.7001 27.0708 39.4601 28.4908 39.0401C27.6508 38.17 26.9608 37.1601 26.4508 36.0601C25.6608 36.2201 24.8408 36.3101 24.0008 36.3101V36.3Z" fill="current"/>
</svg>
