<svg width="current" height="current" viewBox="0 0 48 48" fill="none" xmlns="http://www.w3.org/2000/svg">
<path d="M37.1908 15.0799L25.3908 8.64986C24.5208 8.17986 23.4808 8.17986 22.6108 8.64986L10.8108 15.0799C9.88078 15.5899 9.30078 16.5599 9.30078 17.6299V30.3699C9.30078 31.4299 9.88078 32.4099 10.8108 32.9199L22.6108 39.3499C23.0408 39.5899 23.5208 39.6999 24.0008 39.6999C24.4808 39.6999 24.9508 39.5799 25.3908 39.3499L37.1908 32.9199C38.1208 32.4099 38.7008 31.4399 38.7008 30.3699V17.6299C38.7008 16.5699 38.1208 15.5899 37.1908 15.0799ZM27.8508 25.2499V27.2499H25.3508V25.2499H23.3508V22.7499H25.3508V20.7499H27.8508V22.7499H29.8508V20.7499H32.3508V22.7499H34.3508V25.2499H32.3508V27.2499H29.8508V25.2499H27.8508ZM17.8208 25.7799C18.8808 26.8099 20.6108 26.8099 21.6708 25.7799L24.0308 28.2199C22.8508 29.3599 21.2908 29.9399 19.7408 29.9399C18.1908 29.9399 16.6308 29.3699 15.4508 28.2199C14.2908 27.0999 13.6408 25.5899 13.6408 23.9899C13.6408 22.3899 14.2808 20.8899 15.4508 19.7599C17.8108 17.4699 21.6608 17.4699 24.0308 19.7599L21.6708 22.1999C20.6108 21.1699 18.8808 21.1699 17.8208 22.1999C17.3208 22.6799 17.0508 23.3099 17.0508 23.9799C17.0508 24.6499 17.3208 25.2799 17.8208 25.7599V25.7799Z" fill="current"/>
</svg>
