<svg width="current" height="current" viewBox="0 0 48 48" fill="none" xmlns="http://www.w3.org/2000/svg">
<path d="M18.1201 19.5805L17.5401 22.9805C17.3901 23.8605 17.7401 24.7305 18.4601 25.2605C19.1801 25.7905 20.1201 25.8605 20.9201 25.4405L24.0001 23.8305L27.0801 25.4405C27.4201 25.6205 27.7901 25.7105 28.1601 25.7105C28.6401 25.7105 29.1201 25.5605 29.5301 25.2605C30.2501 24.7305 30.6101 23.8605 30.4501 22.9805L29.8701 19.5805L32.3501 17.1805C32.9901 16.5605 33.2201 15.6405 32.9501 14.7905C32.6701 13.9405 31.9501 13.3305 31.0701 13.2005L27.6301 12.7005L26.0901 9.60055C25.6901 8.80055 24.8901 8.31055 24.0001 8.31055C23.1101 8.31055 22.3101 8.81055 21.9101 9.60055L20.3701 12.7005L16.9401 13.2005C16.0501 13.3305 15.3301 13.9305 15.0501 14.7905C14.7701 15.6405 15.0001 16.5605 15.6401 17.1805L18.1201 19.5805Z" fill="current"/>
<path d="M24.0001 33.4505C24.3901 33.4505 24.7801 33.3705 25.1501 33.2205L34.6801 29.1205L33.3401 26.0005L24.0101 30.0105L14.6801 26.0005L13.3401 29.1205L22.8701 33.2205C23.2301 33.3805 23.6201 33.4505 24.0101 33.4505H24.0001Z" fill="current"/>
<path d="M24.0001 36.2605L14.6701 32.2505L13.3301 35.3705L22.8601 39.4705C23.2201 39.6305 23.6101 39.7005 24.0001 39.7005C24.3901 39.7005 24.7801 39.6205 25.1501 39.4705L34.6801 35.3705L33.3401 32.2505L24.0101 36.2605H24.0001Z" fill="current"/>
</svg>
