<svg width="current" height="current" viewBox="0 0 48 48" fill="none" xmlns="http://www.w3.org/2000/svg">
<path d="M37.6998 20.2988L31.6998 14.2988C31.3798 13.9788 30.9498 13.7988 30.4998 13.7988H21.0998C18.1798 13.7988 15.7998 16.1788 15.7998 19.0988V34.8988C15.7998 37.8188 18.1798 40.1988 21.0998 40.1988H32.8998C35.8198 40.1988 38.1998 37.8188 38.1998 34.8988V21.4988C38.1998 21.0488 38.0198 20.6188 37.6998 20.2988ZM31.6998 23.1988C30.0998 23.1988 28.7998 21.8988 28.7998 20.2988V16.4988L35.4998 23.1988H31.6998Z" fill="current"/>
<path d="M30.4998 7.79883H15.0998C12.1798 7.79883 9.7998 10.1788 9.7998 13.0988V32.4988H13.1998V13.0988C13.1998 12.0488 14.0498 11.1988 15.0998 11.1988H30.4998V7.79883Z" fill="current"/>
</svg>
