<svg width="current" height="current" viewBox="0 0 24 24" fill="none" xmlns="http://www.w3.org/2000/svg">
<path d="M16.4499 4.8999H7.5499C6.0899 4.8999 4.8999 6.0899 4.8999 7.5499V16.4499C4.8999 17.9099 6.0899 19.0999 7.5499 19.0999H16.4499C17.9099 19.0999 19.0999 17.9099 19.0999 16.4499V7.5499C19.0999 6.0899 17.9099 4.8999 16.4499 4.8999ZM17.3999 16.4499C17.3999 16.9749 16.9749 17.3999 16.4499 17.3999H7.5499C7.0249 17.3999 6.5999 16.9749 6.5999 16.4499V7.5499C6.5999 7.0249 7.0249 6.5999 7.5499 6.5999H16.4499C16.9749 6.5999 17.3999 7.0249 17.3999 7.5499V16.4499Z" fill="current"/>
<path d="M13.95 9.75H10.05C9.60002 9.75 9.18502 10.015 9.00002 10.43C8.81502 10.845 8.89002 11.325 9.18502 11.665L11.135 13.87C11.355 14.115 11.665 14.255 11.995 14.255C12.325 14.255 12.635 14.115 12.855 13.865L14.805 11.665C15.105 11.325 15.18 10.84 14.99 10.43C14.8 10.02 14.395 9.75 13.94 9.75H13.95Z" fill="current"/>
</svg>
