<svg width="current" height="current" viewBox="0 0 48 48" fill="none" xmlns="http://www.w3.org/2000/svg">
<path d="M34.7998 8.30078H15.5998C12.6798 8.30078 10.2998 10.6808 10.2998 13.6008V34.4008C10.2998 37.3208 12.6798 39.7008 15.5998 39.7008H34.7998C36.3998 39.7008 37.6998 38.4008 37.6998 36.8008V11.2008C37.6998 9.60078 36.3998 8.30078 34.7998 8.30078ZM15.5998 11.7008H34.2998V29.1008H15.5998C14.9298 29.1008 14.2898 29.2408 13.6998 29.4708V13.6008C13.6998 12.5508 14.5498 11.7008 15.5998 11.7008ZM34.2998 36.3008H15.5998C14.5498 36.3008 13.6998 35.4508 13.6998 34.4008C13.6998 33.3508 14.5498 32.5008 15.5998 32.5008H34.2998V36.3008Z" fill="current"/>
<path d="M28.9998 15.3008H18.9998V18.7008H28.9998V15.3008Z" fill="current"/>
</svg>
