<svg width="current" height="current" viewBox="0 0 48 48" fill="none" xmlns="http://www.w3.org/2000/svg">
<path d="M34.3998 37.6998H13.5998C10.6798 37.6998 8.2998 35.3198 8.2998 32.3998V15.5998C8.2998 12.6798 10.6798 10.2998 13.5998 10.2998H17.6998C18.9398 10.2998 20.1398 10.7398 21.0898 11.5298L25.6198 15.2998H34.4098C37.3298 15.2998 39.7098 17.6798 39.7098 20.5998V32.3998C39.7098 35.3198 37.3298 37.6998 34.4098 37.6998H34.3998ZM13.5998 13.6998C12.5498 13.6998 11.6998 14.5498 11.6998 15.5998V32.3998C11.6998 33.4498 12.5498 34.2998 13.5998 34.2998H34.3998C35.4498 34.2998 36.2998 33.4498 36.2998 32.3998V20.5998C36.2998 19.5498 35.4498 18.6998 34.3998 18.6998H24.9998C24.5998 18.6998 24.2198 18.5598 23.9098 18.3098L18.9098 14.1398C18.5698 13.8598 18.1398 13.6998 17.6898 13.6998H13.5898H13.5998Z" fill="current"/>
</svg>
