<svg width="current" height="current" viewBox="0 0 48 48" fill="none" xmlns="http://www.w3.org/2000/svg">
<path d="M17.3989 22.7008H14.5989C13.194 22.6982 11.8475 22.1389 10.8541 21.1455C9.86076 20.1521 9.30147 18.8056 9.29883 17.4008V14.6007C9.29883 13.1951 9.85725 11.8471 10.8512 10.8531C11.8451 9.85921 13.1932 9.30078 14.5989 9.30078H17.3989C18.8046 9.30078 20.1527 9.85921 21.1466 10.8531C22.1405 11.8471 22.6989 13.1951 22.6989 14.6007V17.4008C22.6962 18.8056 22.137 20.1521 21.1437 21.1455C20.1503 22.1389 18.8038 22.6982 17.3989 22.7008ZM14.5989 12.7008C14.3494 12.7008 14.1023 12.7499 13.8718 12.8453C13.6413 12.9408 13.4318 13.0808 13.2554 13.2572C13.0789 13.4336 12.939 13.6431 12.8435 13.8737C12.748 14.1042 12.6989 14.3512 12.6989 14.6007V17.4008C12.6989 17.6503 12.748 17.8973 12.8435 18.1278C12.939 18.3583 13.0789 18.5678 13.2554 18.7443C13.4318 18.9207 13.6413 19.0606 13.8718 19.1561C14.1023 19.2516 14.3494 19.3008 14.5989 19.3008H17.3989C17.6484 19.3008 17.8955 19.2516 18.126 19.1561C18.3565 19.0606 18.566 18.9207 18.7424 18.7443C18.9189 18.5678 19.0588 18.3583 19.1543 18.1278C19.2498 17.8973 19.2988 17.6503 19.2988 17.4008V14.6007C19.2988 14.3512 19.2498 14.1042 19.1543 13.8737C19.0588 13.6431 18.9189 13.4336 18.7424 13.2572C18.566 13.0808 18.3565 12.9408 18.126 12.8453C17.8955 12.7499 17.6484 12.7008 17.3989 12.7008H14.5989Z" fill="current"/>
<path d="M33.3989 22.7008H30.5989C29.194 22.6982 27.8475 22.1389 26.8541 21.1455C25.8608 20.1521 25.3015 18.8056 25.2988 17.4008V14.6007C25.2988 13.1951 25.8573 11.8471 26.8512 10.8531C27.8451 9.85921 29.1932 9.30078 30.5989 9.30078H33.3989C34.8046 9.30078 36.1527 9.85921 37.1466 10.8531C38.1405 11.8471 38.6989 13.1951 38.6989 14.6007V17.4008C38.6962 18.8056 38.137 20.1521 37.1437 21.1455C36.1503 22.1389 34.8038 22.6982 33.3989 22.7008ZM30.5989 12.7008C30.3494 12.7008 30.1023 12.7499 29.8718 12.8453C29.6413 12.9408 29.4318 13.0808 29.2554 13.2572C29.0789 13.4336 28.939 13.6431 28.8435 13.8737C28.748 14.1042 28.6989 14.3512 28.6989 14.6007V17.4008C28.6989 17.6503 28.748 17.8973 28.8435 18.1278C28.939 18.3583 29.0789 18.5678 29.2554 18.7443C29.4318 18.9207 29.6413 19.0606 29.8718 19.1561C30.1023 19.2516 30.3494 19.3008 30.5989 19.3008H33.3989C33.6484 19.3008 33.8955 19.2516 34.126 19.1561C34.3565 19.0606 34.566 18.9207 34.7424 18.7443C34.9189 18.5678 35.0588 18.3583 35.1543 18.1278C35.2498 17.8973 35.2988 17.6503 35.2988 17.4008V14.6007C35.2988 14.3512 35.2498 14.1042 35.1543 13.8737C35.0588 13.6431 34.9189 13.4336 34.7424 13.2572C34.566 13.0808 34.3565 12.9408 34.126 12.8453C33.8955 12.7499 33.6484 12.7008 33.3989 12.7008H30.5989Z" fill="current"/>
<path d="M17.3989 38.7008H14.5989C13.194 38.6982 11.8475 38.1389 10.8541 37.1455C9.86076 36.1521 9.30147 34.8056 9.29883 33.4008V30.6007C9.29883 29.1951 9.85725 27.8471 10.8512 26.8531C11.8451 25.8592 13.1932 25.3008 14.5989 25.3008H17.3989C18.8046 25.3008 20.1527 25.8592 21.1466 26.8531C22.1405 27.8471 22.6989 29.1951 22.6989 30.6007V33.4008C22.6962 34.8056 22.137 36.1521 21.1437 37.1455C20.1503 38.1389 18.8038 38.6982 17.3989 38.7008ZM14.5989 28.7008C14.3494 28.7008 14.1023 28.7499 13.8718 28.8453C13.6413 28.9408 13.4318 29.0808 13.2554 29.2572C13.0789 29.4336 12.939 29.6431 12.8435 29.8737C12.748 30.1042 12.6989 30.3512 12.6989 30.6007V33.4008C12.6989 33.6503 12.748 33.8973 12.8435 34.1278C12.939 34.3583 13.0789 34.5678 13.2554 34.7443C13.4318 34.9207 13.6413 35.0606 13.8718 35.1561C14.1023 35.2516 14.3494 35.3008 14.5989 35.3008H17.3989C17.9028 35.3008 18.3861 35.1006 18.7424 34.7443C19.0988 34.3879 19.2988 33.9047 19.2988 33.4008V30.6007C19.2988 30.3512 19.2498 30.1042 19.1543 29.8737C19.0588 29.6431 18.9189 29.4336 18.7424 29.2572C18.566 29.0808 18.3565 28.9408 18.126 28.8453C17.8955 28.7499 17.6484 28.7008 17.3989 28.7008H14.5989Z" fill="current"/>
<path d="M33.3989 38.7008H30.5989C29.194 38.6982 27.8475 38.1389 26.8541 37.1455C25.8608 36.1521 25.3015 34.8056 25.2988 33.4008V30.6007C25.2988 29.1951 25.8573 27.8471 26.8512 26.8531C27.8451 25.8592 29.1932 25.3008 30.5989 25.3008H33.3989C34.8046 25.3008 36.1527 25.8592 37.1466 26.8531C38.1405 27.8471 38.6989 29.1951 38.6989 30.6007V33.4008C38.6962 34.8056 38.137 36.1521 37.1437 37.1455C36.1503 38.1389 34.8038 38.6982 33.3989 38.7008ZM30.5989 28.7008C30.3494 28.7008 30.1023 28.7499 29.8718 28.8453C29.6413 28.9408 29.4318 29.0808 29.2554 29.2572C29.0789 29.4336 28.939 29.6431 28.8435 29.8737C28.748 30.1042 28.6989 30.3512 28.6989 30.6007V33.4008C28.6989 33.9047 28.8991 34.3879 29.2554 34.7443C29.6117 35.1006 30.095 35.3008 30.5989 35.3008H33.3989C33.9028 35.3008 34.3861 35.1006 34.7424 34.7443C35.0988 34.3879 35.2988 33.9047 35.2988 33.4008V30.6007C35.2988 30.3512 35.2498 30.1042 35.1543 29.8737C35.0588 29.6431 34.9189 29.4336 34.7424 29.2572C34.566 29.0808 34.3565 28.9408 34.126 28.8453C33.8955 28.7499 33.6484 28.7008 33.3989 28.7008H30.5989Z" fill="current"/>
</svg>
