<svg width="current" height="current" viewBox="0 0 48 48" fill="none" xmlns="http://www.w3.org/2000/svg">
<path d="M31.4998 18.3008H16.4998V21.7008H31.4998V18.3008Z" fill="current"/>
<path d="M23.4998 24.3008H16.4998V27.7008H23.4998V24.3008Z" fill="current"/>
<path d="M23.4998 35.7008H14.5998C11.6798 35.7008 9.2998 33.3208 9.2998 30.4008V15.6008C9.2998 12.6808 11.6798 10.3008 14.5998 10.3008H33.3998C36.3198 10.3008 38.6998 12.6808 38.6998 15.6008V21.7008H35.2998V15.6008C35.2998 14.5508 34.4498 13.7008 33.3998 13.7008H14.5998C13.5498 13.7008 12.6998 14.5508 12.6998 15.6008V30.4008C12.6998 31.4508 13.5498 32.3008 14.5998 32.3008H23.4998V35.7008Z" fill="current"/>
<path d="M35.6898 39.7008C35.4798 39.7008 35.2598 39.6608 35.0498 39.5708L33.3998 38.9008L31.7498 39.5708C30.9398 39.9008 30.0098 39.5708 29.5998 38.7908L28.7698 37.2108L27.0698 36.6708C26.2398 36.4008 25.7398 35.5508 25.9298 34.6908L26.3098 32.9508L25.3598 31.4408C24.8898 30.7008 25.0698 29.7308 25.7598 29.1908L27.1698 28.1008L27.4098 26.3408C27.5298 25.4708 28.2598 24.8108 29.1598 24.8708L30.9398 24.9408L32.2598 23.7408C32.9098 23.1508 33.8998 23.1508 34.5498 23.7408L35.8698 24.9408L37.6498 24.8708C38.4998 24.8108 39.2798 25.4708 39.3998 26.3408L39.6398 28.1108L41.0498 29.2008C41.7398 29.7408 41.9098 30.7108 41.4498 31.4508L40.4998 32.9608L40.8798 34.7008C41.0698 35.5608 40.5698 36.4108 39.7398 36.6808L38.0398 37.2208L37.2098 38.8008C36.9098 39.3708 36.3198 39.7108 35.7098 39.7108L35.6898 39.7008ZM33.3998 35.3608C33.6198 35.3608 33.8398 35.4008 34.0398 35.4908L34.8998 35.8408L35.3398 35.0108C35.5498 34.6208 35.8998 34.3208 36.3198 34.1808L37.2098 33.8908L37.0098 32.9808C36.9198 32.5408 36.9998 32.0908 37.2298 31.7108L37.7298 30.9208L36.9898 30.3508C36.6398 30.0808 36.4098 29.6808 36.3498 29.2408L36.2198 28.3208L35.2898 28.3608C34.8398 28.3808 34.4098 28.2208 34.0798 27.9208L33.3898 27.2908L32.6998 27.9208C32.3698 28.2208 31.9298 28.3808 31.4898 28.3608L30.5598 28.3208L30.4298 29.2408C30.3698 29.6808 30.1398 30.0808 29.7898 30.3508L29.0498 30.9208L29.5498 31.7108C29.7898 32.0908 29.8698 32.5408 29.7698 32.9808L29.5698 33.8908L30.4598 34.1808C30.8798 34.3208 31.2398 34.6108 31.4398 35.0108L31.8798 35.8408L32.7398 35.4908C32.9498 35.4108 33.1598 35.3608 33.3798 35.3608H33.3998Z" fill="current"/>
</svg>
