<svg width="current" height="current" viewBox="0 0 48 48" fill="none" xmlns="http://www.w3.org/2000/svg">
<path d="M24 32.7C28.8049 32.7 32.7 28.8049 32.7 24C32.7 19.1951 28.8049 15.3 24 15.3C19.1951 15.3 15.3 19.1951 15.3 24C15.3 28.8049 19.1951 32.7 24 32.7Z" fill="current"/>
<path d="M25.7 7.5H22.3V13H25.7V7.5Z" fill="current"/>
<path d="M25.7 35H22.3V40.5H25.7V35Z" fill="current"/>
<path d="M34.4636 11.1372L30.5745 15.0263L32.9787 17.4305L36.8678 13.5414L34.4636 11.1372Z" fill="current"/>
<path d="M15.0236 30.5695L11.1345 34.4586L13.5387 36.8628L17.4277 32.9737L15.0236 30.5695Z" fill="current"/>
<path d="M40.5 22.3H35V25.7H40.5V22.3Z" fill="current"/>
<path d="M13 22.3H7.5V25.7H13V22.3Z" fill="current"/>
<path d="M32.9743 30.5752L30.5705 32.9798L34.4603 36.8682L36.864 34.4636L32.9743 30.5752Z" fill="current"/>
<path d="M13.542 11.13L11.1382 13.5346L15.028 17.423L17.4317 15.0184L13.542 11.13Z" fill="current"/>
</svg>
