<svg width="current" height="current" viewBox="0 0 48 48" fill="none" xmlns="http://www.w3.org/2000/svg">
<path d="M28.6208 24.6404H29.9708L30.1908 23.4504H28.8308L28.6208 24.6404Z" fill="current"/>
<path d="M37.1908 15.0804L25.3908 8.65035C24.5208 8.18035 23.4808 8.18035 22.6108 8.65035L10.8108 15.0804C9.88078 15.5904 9.30078 16.5604 9.30078 17.6304V30.3704C9.30078 31.4304 9.88078 32.4104 10.8108 32.9204L22.6108 39.3504C23.0408 39.5904 23.5208 39.7004 24.0008 39.7004C24.4808 39.7004 24.9508 39.5804 25.3908 39.3504L37.1908 32.9204C38.1208 32.4104 38.7008 31.4404 38.7008 30.3704V17.6304C38.7008 16.5704 38.1208 15.5904 37.1908 15.0804ZM33.9508 24.6404V27.1404H32.0808L31.7508 29.0004H29.2108L29.5408 27.1404H28.1808L27.8508 29.0004H25.3108L25.6408 27.1404H24.3508V24.6404H26.0808L26.2908 23.4504H24.7508V20.9504H26.7308L27.0708 19.0004H29.6108L29.2708 20.9504H30.6308L30.9708 19.0004H33.5108L33.1708 20.9504H34.3508V23.4504H32.7308L32.5208 24.6404H33.9508ZM17.8208 25.7804C18.8808 26.8104 20.6108 26.8104 21.6708 25.7804L24.0308 28.2204C22.8508 29.3604 21.2908 29.9404 19.7408 29.9404C18.1908 29.9404 16.6308 29.3704 15.4508 28.2204C14.2908 27.1004 13.6408 25.5904 13.6408 23.9904C13.6408 22.3904 14.2808 20.8904 15.4508 19.7604C17.8108 17.4704 21.6608 17.4704 24.0308 19.7604L21.6708 22.2004C20.6108 21.1704 18.8808 21.1704 17.8208 22.2004C17.3208 22.6804 17.0508 23.3104 17.0508 23.9804C17.0508 24.6504 17.3208 25.2804 17.8208 25.7604V25.7804Z" fill="current"/>
</svg>
