<svg width="current" height="current" viewBox="0 0 48 48" fill="none" xmlns="http://www.w3.org/2000/svg">
<path d="M35.8108 12.1908C32.6608 9.04078 28.4608 7.30078 24.0008 7.30078C19.5408 7.30078 15.3508 9.04078 12.1908 12.1908C9.03078 15.3408 7.30078 19.5408 7.30078 24.0008C7.30078 28.4608 9.04078 32.6508 12.1908 35.8108C15.3408 38.9708 19.5408 40.7008 24.0008 40.7008C28.4608 40.7008 32.6508 38.9608 35.8108 35.8108C38.9708 32.6608 40.7008 28.4608 40.7008 24.0008C40.7008 19.5408 38.9608 15.3508 35.8108 12.1908ZM14.6008 33.4008C12.0908 30.8908 10.7008 27.5508 10.7008 24.0008C10.7008 21.0208 11.6808 18.2008 13.4808 15.8808L32.1208 34.5208C29.8008 36.3108 26.9808 37.3008 24.0008 37.3008C20.4508 37.3008 17.1108 35.9208 14.6008 33.4008ZM34.5308 32.1108L15.8808 13.4808C18.2008 11.6908 21.0208 10.7008 24.0008 10.7008C27.5508 10.7008 30.8908 12.0808 33.4008 14.6008C35.9108 17.1108 37.3008 20.4508 37.3008 24.0008C37.3008 26.9808 36.3208 29.8008 34.5208 32.1208L34.5308 32.1108Z" fill="current"/>
</svg>
