<svg width="current" height="current" viewBox="0 0 48 48" fill="none" xmlns="http://www.w3.org/2000/svg">
<path d="M39.2742 17.3324C38.8199 15.8133 37.9823 14.4367 36.842 13.335C35.7017 12.2333 34.297 11.4436 32.7632 11.0418C31.2293 10.64 29.6179 10.6397 28.0839 11.0409C26.5499 11.442 25.145 12.2311 24.0043 13.3324C22.8635 12.2311 21.4585 11.442 19.9246 11.0409C18.3906 10.6397 16.7791 10.64 15.2453 11.0418C13.7115 11.4436 12.3069 12.2333 11.1666 13.335C10.0262 14.4367 9.18861 15.8133 8.73424 17.3324C7.66424 20.7424 8.58422 24.0724 11.3942 26.9724C12.2042 27.8124 16.6643 32.2824 20.2543 35.8724C20.745 36.3661 21.3285 36.758 21.9712 37.0254C22.6139 37.2927 23.3031 37.4304 23.9993 37.4304C24.6954 37.4304 25.3846 37.2927 26.0273 37.0254C26.67 36.758 27.2535 36.3661 27.7443 35.8724C31.3443 32.2824 35.7942 27.8124 36.6142 26.9724C39.4142 24.0724 40.3542 20.7424 39.2742 17.3324Z" fill="current"/>
</svg>
