<svg width="current" height="current" viewBox="0 0 48 48" fill="none" xmlns="http://www.w3.org/2000/svg">
<path d="M34.4008 10.2998H13.6008C12.1959 10.3024 10.8494 10.8617 9.85603 11.8551C8.86266 12.8484 8.30342 14.195 8.30078 15.5998V32.3998C8.30342 33.8046 8.86266 35.1512 9.85603 36.1446C10.8494 37.1379 12.1959 37.6972 13.6008 37.6998H34.4008C35.8056 37.6972 37.1522 37.1379 38.1455 36.1446C39.1389 35.1512 39.6981 33.8046 39.7008 32.3998V15.5998C39.6981 14.195 39.1389 12.8484 38.1455 11.8551C37.1522 10.8617 35.8056 10.3024 34.4008 10.2998ZM33.2508 19.4498C33.0133 19.6881 32.7104 19.8506 32.3804 19.9167C32.0505 19.9828 31.7084 19.9495 31.3974 19.821C31.0864 19.6925 30.8206 19.4746 30.6335 19.1949C30.4465 18.9152 30.3466 18.5863 30.3466 18.2498C30.3466 17.9133 30.4465 17.5844 30.6335 17.3047C30.8206 17.025 31.0864 16.8071 31.3974 16.6786C31.7084 16.5502 32.0505 16.5168 32.3804 16.5829C32.7104 16.649 33.0133 16.8115 33.2508 17.0498C33.4104 17.2062 33.5373 17.3929 33.6238 17.599C33.7104 17.805 33.755 18.0263 33.755 18.2498C33.755 18.4733 33.7104 18.6946 33.6238 18.9006C33.5373 19.1067 33.4104 19.2934 33.2508 19.4498ZM33.2508 25.1998C33.0127 25.4367 32.7098 25.5978 32.3802 25.6627C32.0507 25.7277 31.7093 25.6935 31.3992 25.5646C31.089 25.4357 30.824 25.2178 30.6376 24.9384C30.4511 24.659 30.3516 24.3307 30.3516 23.9948C30.3516 23.6589 30.4511 23.3306 30.6376 23.0512C30.824 22.7718 31.089 22.5539 31.3992 22.425C31.7093 22.2961 32.0507 22.2619 32.3802 22.3269C32.7098 22.3918 33.0127 22.5529 33.2508 22.7898C33.4095 22.9478 33.5355 23.1355 33.6214 23.3423C33.7074 23.5491 33.7516 23.7709 33.7516 23.9948C33.7516 24.2187 33.7074 24.4405 33.6214 24.6473C33.5355 24.8541 33.4095 25.0418 33.2508 25.1998ZM20.1108 22.7898C20.3489 22.5529 20.6518 22.3918 20.9813 22.3269C21.3109 22.2619 21.6523 22.2961 21.9624 22.425C22.2726 22.5539 22.5376 22.7718 22.724 23.0512C22.9104 23.3306 23.0099 23.6589 23.0099 23.9948C23.0099 24.3307 22.9104 24.659 22.724 24.9384C22.5376 25.2178 22.2726 25.4357 21.9624 25.5646C21.6523 25.6935 21.3109 25.7277 20.9813 25.6627C20.6518 25.5978 20.3489 25.4367 20.1108 25.1998C19.7926 24.8795 19.6141 24.4463 19.6141 23.9948C19.6141 23.5433 19.7926 23.1101 20.1108 22.7898ZM20.1108 17.0498C20.3483 16.8115 20.6512 16.649 20.9811 16.5829C21.3111 16.5168 21.6532 16.5502 21.9641 16.6786C22.2751 16.8071 22.541 17.025 22.728 17.3047C22.9151 17.5844 23.0149 17.9133 23.0149 18.2498C23.0149 18.5863 22.9151 18.9152 22.728 19.1949C22.541 19.4746 22.2751 19.6925 21.9641 19.821C21.6532 19.9495 21.3111 19.9828 20.9811 19.9167C20.6512 19.8506 20.3483 19.6881 20.1108 19.4498C19.7932 19.1312 19.6149 18.6997 19.6149 18.2498C19.6149 17.8 19.7932 17.3684 20.1108 17.0498ZM30.0008 28.0498V31.4498H18.0008V28.0498H30.0008ZM25.4808 22.7898C25.7189 22.5529 26.0218 22.3918 26.3513 22.3269C26.6809 22.2619 27.0223 22.2961 27.3324 22.425C27.6426 22.5539 27.9076 22.7718 28.094 23.0512C28.2804 23.3306 28.3799 23.6589 28.3799 23.9948C28.3799 24.3307 28.2804 24.659 28.094 24.9384C27.9076 25.2178 27.6426 25.4357 27.3324 25.5646C27.0223 25.6935 26.6809 25.7277 26.3513 25.6627C26.0218 25.5978 25.7189 25.4367 25.4808 25.1998C25.1626 24.8795 24.9841 24.4463 24.9841 23.9948C24.9841 23.5433 25.1626 23.1101 25.4808 22.7898ZM25.4808 17.0498C25.7183 16.8115 26.0212 16.649 26.3511 16.5829C26.6811 16.5168 27.0232 16.5502 27.3341 16.6786C27.6451 16.8071 27.911 17.025 28.098 17.3047C28.2851 17.5844 28.3849 17.9133 28.3849 18.2498C28.3849 18.5863 28.2851 18.9152 28.098 19.1949C27.911 19.4746 27.6451 19.6925 27.3341 19.821C27.0232 19.9495 26.6811 19.9828 26.3511 19.9167C26.0212 19.8506 25.7183 19.6881 25.4808 19.4498C25.1632 19.1312 24.9849 18.6997 24.9849 18.2498C24.9849 17.8 25.1632 17.3684 25.4808 17.0498ZM17.1508 19.4498C16.9133 19.6881 16.6104 19.8506 16.2804 19.9167C15.9505 19.9828 15.6084 19.9495 15.2974 19.821C14.9864 19.6925 14.7206 19.4746 14.5335 19.1949C14.3465 18.9152 14.2466 18.5863 14.2466 18.2498C14.2466 17.9133 14.3465 17.5844 14.5335 17.3047C14.7206 17.025 14.9864 16.8071 15.2974 16.6786C15.6084 16.5502 15.9505 16.5168 16.2804 16.5829C16.6104 16.649 16.9133 16.8115 17.1508 17.0498C17.3104 17.2062 17.4373 17.3929 17.5238 17.599C17.6104 17.805 17.655 18.0263 17.655 18.2498C17.655 18.4733 17.6104 18.6946 17.5238 18.9006C17.4373 19.1067 17.3104 19.2934 17.1508 19.4498ZM17.1508 25.1998C16.9127 25.4367 16.6098 25.5978 16.2802 25.6627C15.9507 25.7277 15.6093 25.6935 15.2992 25.5646C14.989 25.4357 14.724 25.2178 14.5376 24.9384C14.3511 24.659 14.2516 24.3307 14.2516 23.9948C14.2516 23.6589 14.3511 23.3306 14.5376 23.0512C14.724 22.7718 14.989 22.5539 15.2992 22.425C15.6093 22.2961 15.9507 22.2619 16.2802 22.3269C16.6098 22.3918 16.9127 22.5529 17.1508 22.7898C17.3095 22.9478 17.4355 23.1355 17.5214 23.3423C17.6074 23.5491 17.6516 23.7709 17.6516 23.9948C17.6516 24.2187 17.6074 24.4405 17.5214 24.6473C17.4355 24.8541 17.3095 25.0418 17.1508 25.1998Z" fill="current"/>
</svg>
