<svg width="current" height="current" viewBox="0 0 48 48" fill="none" xmlns="http://www.w3.org/2000/svg">
<path d="M37.8498 10.1509C37.0798 9.38085 35.9598 9.11085 34.9298 9.43085L13.0098 16.3209C10.7598 17.0309 9.2998 19.0209 9.2998 21.3808C9.2998 23.7408 10.7598 25.7309 13.0098 26.4309L19.5098 28.4708L21.5498 34.9709C22.2598 37.2209 24.2398 38.6809 26.6098 38.6809C28.9698 38.6809 30.9598 37.2209 31.6698 34.9709L38.5598 13.0509C38.8898 12.0109 38.6098 10.9009 37.8398 10.1309L37.8498 10.1509ZM28.4298 33.9709C28.0398 35.2009 26.9498 35.3008 26.6198 35.3008C26.2898 35.3008 25.1998 35.2009 24.8098 33.9709L22.8098 27.6009L28.7998 21.6109L26.3998 19.2108L20.4098 25.2009L14.0398 23.2009C12.8098 22.8109 12.7098 21.7208 12.7098 21.3909C12.7098 21.0609 12.8098 19.9709 14.0398 19.5809L35.0398 12.9709L28.4298 33.9709Z" fill="current"/>
</svg>
