<svg width="current" height="current" viewBox="0 0 48 48" fill="none" xmlns="http://www.w3.org/2000/svg">
<path d="M33.4008 38.6998H14.6008C11.6808 38.6998 9.30078 36.3198 9.30078 33.3998V14.5998C9.30078 11.6798 11.6808 9.2998 14.6008 9.2998H33.4008C36.3208 9.2998 38.7008 11.6798 38.7008 14.5998V33.3998C38.7008 36.3198 36.3208 38.6998 33.4008 38.6998ZM14.6008 12.6998C13.5508 12.6998 12.7008 13.5498 12.7008 14.5998V33.3998C12.7008 34.4498 13.5508 35.2998 14.6008 35.2998H33.4008C34.4508 35.2998 35.3008 34.4498 35.3008 33.3998V14.5998C35.3008 13.5498 34.4508 12.6998 33.4008 12.6998H14.6008Z" fill="current"/>
<path d="M30.6808 26.7198C29.8708 26.4998 29.1708 26.3198 29.1708 25.9298C29.1708 25.4998 29.8008 25.4898 29.8708 25.4898C30.1008 25.4898 30.6508 25.5598 30.6508 26.1998H34.0108C34.0108 23.7898 32.4708 22.3498 29.9008 22.3498C27.3308 22.3498 25.7608 23.7198 25.7608 26.0198C25.7608 28.7098 27.8008 29.2598 29.3408 29.6698C30.2808 29.9098 30.8608 30.0898 30.8608 30.4998C30.8608 30.9098 30.4308 31.1298 29.9908 31.1298C29.5508 31.1298 29.0708 30.9098 29.0708 30.2698V30.0498H25.6308V30.2698C25.6308 32.7898 27.3108 34.3498 30.0008 34.3498C32.6908 34.3498 34.3408 32.8498 34.3408 30.4398C34.3408 27.7298 32.2308 27.1498 30.6808 26.7198Z" fill="current"/>
<path d="M20.6308 34.3198C18.4308 34.3198 16.6508 32.5298 16.6508 30.3398V30.0498H20.0508V30.3398C20.0508 30.6598 20.3108 30.9198 20.6308 30.9198C20.9508 30.9198 21.2108 30.6598 21.2108 30.3398V22.6198H24.6108V30.3398C24.6108 32.5398 22.8208 34.3198 20.6308 34.3198Z" fill="current"/>
</svg>
