<svg width="64" height="64" viewBox="0 0 64 64" fill="none" xmlns="http://www.w3.org/2000/svg">
    <path d="M57.3332 25.3333H6.6665V12C6.6665 11.2928 6.94746 10.6145 7.44755 10.1144C7.94765 9.61428 8.62593 9.33333 9.33317 9.33333H24.1465C24.52 9.3337 24.8892 9.41252 25.2303 9.56469C25.5714 9.71686 25.8767 9.93898 26.1265 10.2167L33.7332 18.6667H54.6665C55.3737 18.6667 56.052 18.9476 56.5521 19.4477C57.0522 19.9478 57.3332 20.6261 57.3332 21.3333V25.3333Z" fill="#239A6D"/>
    <path d="M49.333 17.3333H14.6663C13.93 17.3333 13.333 17.9303 13.333 18.6667V42.6667C13.333 43.403 13.93 44 14.6663 44H49.333C50.0694 44 50.6663 43.403 50.6663 42.6667V18.6667C50.6663 17.9303 50.0694 17.3333 49.333 17.3333Z" fill="#CFFCEC"/>
    <path d="M54.6665 22.6667H9.33317C7.86041 22.6667 6.6665 23.8606 6.6665 25.3333V52C6.6665 53.4728 7.86041 54.6667 9.33317 54.6667H54.6665C56.1393 54.6667 57.3332 53.4728 57.3332 52V25.3333C57.3332 23.8606 56.1393 22.6667 54.6665 22.6667Z" fill="#15C480"/>
    <path d="M50.3333 62.6667C57.1448 62.6667 62.6667 57.1448 62.6667 50.3333C62.6667 43.5218 57.1448 38 50.3333 38C43.5218 38 38 43.5218 38 50.3333C38 57.1448 43.5218 62.6667 50.3333 62.6667Z" fill="#FFC82A"/>
    <path d="M50.7692 54.9332L56.6737 48.1408C57.338 47.3766 57.257 46.2187 56.4928 45.5544C55.7287 44.8901 54.5707 44.9711 53.9064 45.7352L48.0019 52.5276C47.3376 53.2918 47.4186 54.4498 48.1828 55.1141C48.9469 55.7783 50.1049 55.6974 50.7692 54.9332Z" fill="white"/>
    <path d="M50.6798 52.4329L46.6728 48.4259C45.9569 47.71 44.7961 47.71 44.0801 48.4259C43.3641 49.1419 43.3641 50.3027 44.0801 51.0186L48.087 55.0256C48.803 55.7415 49.9638 55.7415 50.6798 55.0256C51.3957 54.3096 51.3957 53.1488 50.6798 52.4329Z" fill="white"/>
</svg>
