<svg width="current" height="current" viewBox="0 0 48 48" fill="none" xmlns="http://www.w3.org/2000/svg">
<path d="M36.7998 28.3008H34.6998V13.6008C34.6998 10.6808 32.3198 8.30078 29.3998 8.30078H13.5998C10.6798 8.30078 8.2998 10.6808 8.2998 13.6008V35.5008C8.2998 37.8208 10.1798 39.7008 12.4998 39.7008H35.4998C35.6198 39.7008 35.7298 39.6908 35.8398 39.6708C37.9898 39.4908 39.6998 37.7008 39.6998 35.5008V31.2008C39.6998 29.6008 38.3998 28.3008 36.7998 28.3008ZM12.4998 36.3008C12.0598 36.3008 11.6998 35.9408 11.6998 35.5008V13.6008C11.6998 12.5508 12.5498 11.7008 13.5998 11.7008H29.3998C30.4498 11.7008 31.2998 12.5508 31.2998 13.6008V35.5008C31.2998 35.7708 31.3298 36.0408 31.3798 36.3008H12.4998ZM34.6998 35.5008V31.7008H36.2998V35.5008C36.2998 35.9408 35.9398 36.3008 35.4998 36.3008C35.0598 36.3008 34.6998 35.9408 34.6998 35.5008Z" fill="current"/>
<path d="M27.4998 18.8008H15.4998V22.2008H27.4998V18.8008Z" fill="current"/>
<path d="M27.4998 25.8008H15.4998V29.2008H27.4998V25.8008Z" fill="current"/>
</svg>
