<svg width="current" height="current" viewBox="0 0 48 48" fill="none" xmlns="http://www.w3.org/2000/svg">
<path d="M33.4008 38.6998H14.6008C11.6808 38.6998 9.30078 36.3198 9.30078 33.3998V14.5998C9.30078 11.6798 11.6808 9.2998 14.6008 9.2998H33.4008C36.3208 9.2998 38.7008 11.6798 38.7008 14.5998V33.3998C38.7008 36.3198 36.3208 38.6998 33.4008 38.6998ZM14.6008 12.6998C13.5508 12.6998 12.7008 13.5498 12.7008 14.5998V33.3998C12.7008 34.4498 13.5508 35.2998 14.6008 35.2998H33.4008C34.4508 35.2998 35.3008 34.4498 35.3008 33.3998V14.5998C35.3008 13.5498 34.4508 12.6998 33.4008 12.6998H14.6008Z" fill="current"/>
<path d="M17.1108 31.2898L14.9008 28.7098L20.4008 23.9998L14.9008 19.2898L17.1108 16.7098L23.0508 21.7998C23.6908 22.3498 24.0608 23.1498 24.0608 23.9998C24.0608 24.8498 23.6908 25.6498 23.0508 26.1998L17.1108 31.2898Z" fill="current"/>
<path d="M33.0008 27.8898H25.0008V31.2898H33.0008V27.8898Z" fill="current"/>
</svg>
