<svg width="current" height="current" viewBox="0 0 48 48" fill="none" xmlns="http://www.w3.org/2000/svg">
<path d="M30.1998 17.4002H33.2998V21.8602H36.6998V15.7002C36.6998 15.4402 36.6298 15.1902 36.5198 14.9502C36.4998 14.9202 36.4898 14.8902 36.4698 14.8502C36.3998 14.7202 36.3098 14.6002 36.1998 14.4902L30.1998 8.49023C30.0898 8.38023 29.9698 8.30023 29.8398 8.22023C29.8098 8.20023 29.7798 8.18023 29.7398 8.17023C29.5098 8.06023 29.2598 7.99023 28.9998 7.99023H16.5998C13.6798 7.99023 11.2998 10.3702 11.2998 13.2902V32.0902C11.2998 35.0102 13.6798 37.3902 16.5998 37.3902H24.2298V33.9902H16.5998C15.5498 33.9902 14.6998 33.1402 14.6998 32.0902V13.3002C14.6998 12.2502 15.5498 11.4002 16.5998 11.4002H27.2998V14.5002C27.2998 16.1002 28.5998 17.4002 30.1998 17.4002Z" fill="current"/>
<path d="M33.2998 25.0202V30.1602L31.6198 28.3902L29.1598 30.7402L33.1498 34.9202C33.6298 35.4302 34.3098 35.7202 35.0098 35.7202C35.7098 35.7202 36.3898 35.4302 36.8698 34.9202L40.8598 30.7402L38.3998 28.3902L36.7198 30.1602V25.0202H33.2998Z" fill="current"/>
<path d="M41.9998 36.8402H27.9998V40.2402H41.9998V36.8402Z" fill="current"/>
</svg>
