<svg width="current" height="current" viewBox="0 0 48 48" fill="none" xmlns="http://www.w3.org/2000/svg">
<path d="M24.0008 7.2998C14.7908 7.2998 7.30078 14.7898 7.30078 23.9998C7.30078 33.2098 14.7908 40.6998 24.0008 40.6998C33.2108 40.6998 40.7008 33.2098 40.7008 23.9998C40.7008 14.7898 33.2108 7.2998 24.0008 7.2998ZM24.0008 37.2998C16.6708 37.2998 10.7008 31.3298 10.7008 23.9998C10.7008 16.6698 16.6708 10.6998 24.0008 10.6998C31.3308 10.6998 37.3008 16.6698 37.3008 23.9998C37.3008 31.3298 31.3308 37.2998 24.0008 37.2998Z" fill="current"/>
<path d="M19.7508 15.9998H16.2408V31.9998H19.7508V15.9998Z" fill="current"/>
<path d="M28.0008 15.9998H22.6908V31.9998H26.3208V27.6298H28.0108C31.2208 27.6298 33.8208 25.0198 33.8208 21.8198C33.8208 18.6198 31.2108 16.0098 28.0108 16.0098L28.0008 15.9998ZM28.0008 23.9998H26.3108V19.6298H28.0008C29.2108 19.6298 30.1908 20.6098 30.1908 21.8198C30.1908 23.0298 29.2108 24.0098 28.0008 24.0098V23.9998Z" fill="current"/>
</svg>
