<svg width="current" height="current" viewBox="0 0 48 48" fill="none" xmlns="http://www.w3.org/2000/svg">
<path d="M33.3508 11.3008H31.6508V11.2008C31.6508 10.4317 31.3452 9.694 30.8014 9.15015C30.2575 8.60629 29.5199 8.30078 28.7508 8.30078H19.2008C18.4317 8.30078 17.6941 8.60629 17.1502 9.15015C16.6064 9.694 16.3008 10.4317 16.3008 11.2008V11.3008H14.6008C13.1952 11.3008 11.8471 11.8592 10.8531 12.8531C9.85921 13.8471 9.30078 15.1951 9.30078 16.6007V34.4008C9.30078 35.8064 9.85921 37.1545 10.8531 38.1484C11.8471 39.1424 13.1952 39.7008 14.6008 39.7008H33.4008C34.8057 39.6982 36.1522 39.1389 37.1456 38.1455C38.1389 37.1521 38.6982 35.8056 38.7008 34.4008V16.6007C38.7008 15.9005 38.5621 15.2072 38.2927 14.5609C38.0232 13.9146 37.6283 13.3281 37.1309 12.8353C36.6334 12.3425 36.0432 11.9532 35.3944 11.6898C34.7456 11.4264 34.051 11.2942 33.3508 11.3008ZM16.4508 28.8008H31.4508V32.2008H16.4508V28.8008ZM16.4508 25.2008V21.8008H31.4508V25.2008H16.4508ZM19.6508 11.7008H28.2508V14.3008H19.6508V11.7008Z" fill="current"/>
</svg>
