<svg width="current" height="current" viewBox="0 0 48 48" fill="none" xmlns="http://www.w3.org/2000/svg">
<path d="M39.5302 32.0095C39.1902 30.7295 38.3602 29.6595 37.2102 28.9895C36.5802 28.6195 35.8802 28.4095 35.1202 28.3495C35.0802 28.3495 35.0302 28.3495 34.9902 28.3495H30.0902L25.9702 21.2095L28.4202 16.9595C28.4202 16.9595 28.4602 16.8795 28.4802 16.8395C28.8102 16.1595 28.9702 15.4395 28.9702 14.6995C28.9702 11.9595 26.7402 9.72949 24.0002 9.72949C21.2602 9.72949 19.0302 11.9595 19.0302 14.6995C19.0302 15.4295 19.2002 16.1495 19.5202 16.8395C19.5402 16.8795 19.5602 16.9195 19.5802 16.9595L22.0302 21.2095L17.9102 28.3495H13.0102C13.0102 28.3495 12.9202 28.3495 12.8802 28.3495C12.1202 28.4095 11.4202 28.6195 10.7902 28.9895C9.64018 29.6495 8.82018 30.7295 8.47018 32.0095C8.13018 33.2895 8.30018 34.6295 8.97018 35.7795C9.63018 36.9295 10.7002 37.7495 11.9902 38.0895C12.4202 38.2095 12.8502 38.2595 13.2802 38.2595C14.1402 38.2595 14.9902 38.0295 15.7502 37.5895C16.3802 37.2295 16.9202 36.7195 17.3502 36.0995C17.3802 36.0595 17.4002 36.0195 17.4202 35.9895L19.8702 31.7395H28.1202L30.5702 35.9895C30.5702 35.9895 30.6202 36.0695 30.6402 36.0995C31.0702 36.7295 31.6102 37.2295 32.2402 37.5895C33.0102 38.0295 33.8602 38.2595 34.7202 38.2595C35.1502 38.2595 35.5902 38.1995 36.0102 38.0895C37.2902 37.7495 38.3602 36.9195 39.0302 35.7795C39.6902 34.6295 39.8702 33.2895 39.5302 32.0095ZM14.5202 34.2195C14.3902 34.3995 14.2302 34.5495 14.0502 34.6495C13.6902 34.8595 13.2602 34.9095 12.8602 34.8095C12.4502 34.6995 12.1202 34.4395 11.9102 34.0795C11.7002 33.7195 11.6402 33.2895 11.7502 32.8895C11.8602 32.4795 12.1202 32.1495 12.4802 31.9395C12.6502 31.8395 12.8602 31.7695 13.0802 31.7495H15.9402L14.5102 34.2295L14.5202 34.2195ZM24.0002 13.1395C24.8702 13.1395 25.5702 13.8395 25.5702 14.7095C25.5702 14.9095 25.5202 15.1195 25.4302 15.3295L24.0002 17.8095L22.5702 15.3295C22.4802 15.1195 22.4302 14.9195 22.4302 14.7095C22.4302 13.8495 23.1302 13.1395 24.0002 13.1395ZM21.8402 28.3495L24.0002 24.6095L26.1602 28.3495H21.8402ZM36.0902 34.0795C35.8802 34.4395 35.5402 34.6995 35.1402 34.8095C34.7402 34.9195 34.3102 34.8595 33.9502 34.6495C33.7802 34.5495 33.6202 34.3995 33.4902 34.2195L32.0602 31.7395H34.9202C35.1502 31.7595 35.3502 31.8295 35.5202 31.9295C35.8802 32.1395 36.1402 32.4795 36.2502 32.8795C36.3602 33.2795 36.3002 33.7095 36.0902 34.0695V34.0795Z" fill="current"/>
</svg>
