<svg width="current" height="current" viewBox="0 0 48 48" fill="none" xmlns="http://www.w3.org/2000/svg">
<path fill-rule="evenodd" clip-rule="evenodd" d="M14.6008 12.7C13.5514 12.7 12.7008 13.5507 12.7008 14.6V33.4C12.7008 34.4494 13.5515 35.3 14.6008 35.3H33.4008C34.4501 35.3 35.3008 34.4494 35.3008 33.4V14.6C35.3008 13.5507 34.4501 12.7 33.4008 12.7H14.6008ZM9.30078 14.6C9.30078 11.6729 11.6737 9.30005 14.6008 9.30005H33.4008C36.3279 9.30005 38.7008 11.6729 38.7008 14.6V33.4C38.7008 36.3271 36.3279 38.7001 33.4008 38.7001H14.6008C11.6737 38.7001 9.30078 36.3271 9.30078 33.4V14.6Z" fill="current"/>
<path d="M19.9207 21.4297L24.0007 27.4897L28.0807 21.4297H19.9207Z" fill="current"/>
<path fill-rule="evenodd" clip-rule="evenodd" d="M18.42 20.631C18.7153 20.0763 19.2924 19.7297 19.9207 19.7297H28.0807C28.709 19.7297 29.2861 20.0763 29.5814 20.631C29.8766 21.1857 29.8418 21.8579 29.4909 22.3792L25.4109 28.4392C25.095 28.9084 24.5664 29.1897 24.0007 29.1897C23.435 29.1897 22.9064 28.9084 22.5905 28.4392L18.5105 22.3792C18.1596 21.8579 18.1248 21.1857 18.42 20.631ZM23.1147 23.1297L24.0007 24.4458L24.8868 23.1297H23.1147Z" fill="current"/>
</svg>
