<svg width="current" height="current" viewBox="0 0 24 24" fill="none" xmlns="http://www.w3.org/2000/svg">
<path fill-rule="evenodd" clip-rule="evenodd" d="M14.0199 4.66602H16.7699C18.2044 4.66602 19.3699 5.83157 19.3699 7.26602V9.98601H17.6699V7.26602C17.6699 6.77046 17.2655 6.36602 16.7699 6.36602H14.0199V4.66602Z" fill="current"/>
<path fill-rule="evenodd" clip-rule="evenodd" d="M4.66455 7.23574C4.66455 5.8013 5.83011 4.63574 7.26455 4.63574H9.98455V6.33574H7.26455C6.76899 6.33574 6.36455 6.74018 6.36455 7.23574V9.98574H4.66455V7.23574Z" fill="current"/>
<path fill-rule="evenodd" clip-rule="evenodd" d="M4.63477 16.735V14.015H6.33477V16.735C6.33477 17.2306 6.73921 17.635 7.23477 17.635H9.98477V19.335H7.23477C5.80032 19.335 4.63477 18.1695 4.63477 16.735Z" fill="current"/>
<path fill-rule="evenodd" clip-rule="evenodd" d="M19.3346 14.015V16.765C19.3346 18.1995 18.169 19.365 16.7346 19.365H14.0146V17.665H16.7346C17.2301 17.665 17.6346 17.2606 17.6346 16.765V14.015H19.3346Z" fill="current"/>
</svg>
