<svg width="current" height="current" viewBox="0 0 48 48" fill="none" xmlns="http://www.w3.org/2000/svg">
<path d="M30.9008 24.5303L26.1108 19.4702C25.5545 18.9025 24.7956 18.579 24.0008 18.5703C23.6081 18.5709 23.2197 18.6509 22.8587 18.8055C22.4978 18.9602 22.172 19.1863 21.9008 19.4702L17.1008 24.5303C16.7094 24.9413 16.4472 25.458 16.3466 26.0166C16.2461 26.5752 16.3117 27.151 16.5353 27.6726C16.7588 28.1943 17.1305 28.6389 17.6044 28.9513C18.0782 29.2637 18.6332 29.4303 19.2008 29.4303H28.8008C29.3683 29.4303 29.9234 29.2637 30.3972 28.9513C30.871 28.6389 31.2427 28.1943 31.4663 27.6726C31.6899 27.151 31.7554 26.5752 31.6549 26.0166C31.5544 25.458 31.2922 24.9413 30.9008 24.5303Z" fill="current"/>
</svg>
