<svg width="current" height="current" viewBox="0 0 48 48" fill="none" xmlns="http://www.w3.org/2000/svg">
<path d="M34.4008 10.2998H13.6008C12.1959 10.3024 10.8494 10.8617 9.85603 11.8551C8.86266 12.8484 8.30342 14.195 8.30078 15.5998V32.3998C8.30342 33.8046 8.86266 35.1512 9.85603 36.1446C10.8494 37.1379 12.1959 37.6972 13.6008 37.6998H34.4008C35.8056 37.6972 37.1522 37.1379 38.1455 36.1446C39.1389 35.1512 39.6981 33.8046 39.7008 32.3998V15.5998C39.6981 14.195 39.1389 12.8484 38.1455 11.8551C37.1522 10.8617 35.8056 10.3024 34.4008 10.2998ZM36.3008 32.3998C36.3008 32.9037 36.1006 33.387 35.7443 33.7433C35.388 34.0996 34.9047 34.2998 34.4008 34.2998H13.6008C13.0969 34.2998 12.6136 34.0996 12.2573 33.7433C11.901 33.387 11.7008 32.9037 11.7008 32.3998V15.5998C11.7008 15.0959 11.901 14.6126 12.2573 14.2563C12.6136 13.9 13.0969 13.6998 13.6008 13.6998H34.4008C34.9047 13.6998 35.388 13.9 35.7443 14.2563C36.1006 14.6126 36.3008 15.0959 36.3008 15.5998V32.3998Z" fill="current"/>
<path d="M14.7508 17.0498C14.5124 17.2873 14.3499 17.5902 14.2839 17.9201C14.2178 18.2501 14.2511 18.5922 14.3796 18.9032C14.5081 19.2141 14.726 19.48 15.0057 19.6671C15.2854 19.8541 15.6143 19.954 15.9508 19.954C16.2873 19.954 16.6162 19.8541 16.8959 19.6671C17.1756 19.48 17.3934 19.2141 17.5219 18.9032C17.6504 18.5922 17.6838 18.2501 17.6177 17.9201C17.5516 17.5902 17.3891 17.2873 17.1508 17.0498C16.9944 16.8902 16.8077 16.7633 16.6016 16.6767C16.3955 16.5902 16.1743 16.5456 15.9508 16.5456C15.7273 16.5456 15.506 16.5902 15.3 16.6767C15.0939 16.7633 14.9072 16.8902 14.7508 17.0498Z" fill="current"/>
<path d="M22.5208 19.4498C22.7577 19.2117 22.9188 18.9088 22.9837 18.5793C23.0486 18.2497 23.0145 17.9083 22.8856 17.5982C22.7567 17.288 22.5388 17.023 22.2594 16.8366C21.98 16.6501 21.6517 16.5506 21.3158 16.5506C20.9799 16.5506 20.6516 16.6501 20.3722 16.8366C20.0928 17.023 19.8749 17.288 19.746 17.5982C19.6171 17.9083 19.5829 18.2497 19.6478 18.5793C19.7128 18.9088 19.8739 19.2117 20.1108 19.4498C20.2687 19.6085 20.4565 19.7345 20.6633 19.8205C20.8701 19.9064 21.0918 19.9506 21.3158 19.9506C21.5397 19.9506 21.7615 19.9064 21.9683 19.8205C22.175 19.7345 22.3628 19.6085 22.5208 19.4498Z" fill="current"/>
<path d="M27.8908 19.4498C28.1277 19.2117 28.2888 18.9088 28.3537 18.5793C28.4186 18.2497 28.3845 17.9083 28.2556 17.5982C28.1267 17.288 27.9088 17.023 27.6294 16.8366C27.35 16.6501 27.0217 16.5506 26.6858 16.5506C26.3499 16.5506 26.0216 16.6501 25.7422 16.8366C25.4628 17.023 25.2449 17.288 25.116 17.5982C24.9871 17.9083 24.9529 18.2497 25.0178 18.5793C25.0828 18.9088 25.2439 19.2117 25.4808 19.4498C25.6387 19.6085 25.8265 19.7345 26.0333 19.8205C26.2401 19.9064 26.4618 19.9506 26.6858 19.9506C26.9097 19.9506 27.1315 19.9064 27.3383 19.8205C27.545 19.7345 27.7328 19.6085 27.8908 19.4498Z" fill="current"/>
<path d="M30.8508 17.0498C30.6124 17.2873 30.45 17.5902 30.3839 17.9201C30.3178 18.2501 30.3511 18.5922 30.4796 18.9032C30.6081 19.2141 30.826 19.48 31.1057 19.6671C31.3854 19.8541 31.7143 19.954 32.0508 19.954C32.3873 19.954 32.7162 19.8541 32.9959 19.6671C33.2756 19.48 33.4934 19.2141 33.6219 18.9032C33.7504 18.5922 33.7838 18.2501 33.7177 17.9201C33.6516 17.5902 33.4891 17.2873 33.2508 17.0498C33.0944 16.8902 32.9077 16.7633 32.7016 16.6767C32.4956 16.5902 32.2743 16.5456 32.0508 16.5456C31.8273 16.5456 31.606 16.5902 31.4 16.6767C31.1939 16.7633 31.0072 16.8902 30.8508 17.0498Z" fill="current"/>
<path d="M14.7508 22.7898C14.5124 23.0273 14.3499 23.3302 14.2839 23.6601C14.2178 23.9901 14.2511 24.3322 14.3796 24.6432C14.5081 24.9541 14.726 25.22 15.0057 25.4071C15.2854 25.5941 15.6143 25.694 15.9508 25.694C16.2873 25.694 16.6162 25.5941 16.8959 25.4071C17.1756 25.22 17.3934 24.9541 17.5219 24.6432C17.6504 24.3322 17.6838 23.9901 17.6177 23.6601C17.5516 23.3302 17.3891 23.0273 17.1508 22.7898C16.8321 22.4723 16.4006 22.294 15.9508 22.294C15.5009 22.294 15.0694 22.4723 14.7508 22.7898Z" fill="current"/>
<path d="M22.5208 25.1998C22.7577 24.9617 22.9188 24.6588 22.9837 24.3293C23.0486 23.9997 23.0145 23.6583 22.8856 23.3482C22.7567 23.038 22.5388 22.773 22.2594 22.5866C21.98 22.4001 21.6517 22.3006 21.3158 22.3006C20.9799 22.3006 20.6516 22.4001 20.3722 22.5866C20.0928 22.773 19.8749 23.038 19.746 23.3482C19.6171 23.6583 19.5829 23.9997 19.6478 24.3293C19.7128 24.6588 19.8739 24.9617 20.1108 25.1998C20.4311 25.518 20.8643 25.6965 21.3158 25.6965C21.7673 25.6965 22.2004 25.518 22.5208 25.1998Z" fill="current"/>
<path d="M27.8908 25.1998C28.1277 24.9617 28.2888 24.6588 28.3537 24.3293C28.4186 23.9997 28.3845 23.6583 28.2556 23.3482C28.1267 23.038 27.9088 22.773 27.6294 22.5866C27.35 22.4001 27.0217 22.3006 26.6858 22.3006C26.3499 22.3006 26.0216 22.4001 25.7422 22.5866C25.4628 22.773 25.2449 23.038 25.116 23.3482C24.9871 23.6583 24.9529 23.9997 25.0178 24.3293C25.0828 24.6588 25.2439 24.9617 25.4808 25.1998C25.8011 25.518 26.2343 25.6965 26.6858 25.6965C27.1373 25.6965 27.5704 25.518 27.8908 25.1998Z" fill="current"/>
<path d="M30.8508 22.7898C30.6124 23.0273 30.45 23.3302 30.3839 23.6601C30.3178 23.9901 30.3511 24.3322 30.4796 24.6432C30.6081 24.9541 30.826 25.22 31.1057 25.4071C31.3854 25.5941 31.7143 25.694 32.0508 25.694C32.3873 25.694 32.7162 25.5941 32.9959 25.4071C33.2756 25.22 33.4934 24.9541 33.6219 24.6432C33.7504 24.3322 33.7838 23.9901 33.7177 23.6601C33.6516 23.3302 33.4891 23.0273 33.2508 22.7898C32.9321 22.4723 32.5006 22.294 32.0508 22.294C31.6009 22.294 31.1694 22.4723 30.8508 22.7898Z" fill="current"/>
<path d="M30.0008 28.0498H18.0008V31.4498H30.0008V28.0498Z" fill="current"/>
</svg>
