<svg width="current" height="current" viewBox="0 0 48 48" fill="none" xmlns="http://www.w3.org/2000/svg">
<path d="M23.9996 31.3602C23.5996 31.3602 23.1996 31.2802 22.8196 31.1102L12.7996 26.6602V31.8602C12.7996 32.5302 13.1896 33.1402 13.8096 33.4102L22.8196 37.4402C23.1996 37.6102 23.5996 37.6902 24.0096 37.6902C24.4196 37.6902 24.8196 37.6102 25.1896 37.4402L34.1996 33.4102C34.8096 33.1402 35.2096 32.5302 35.2096 31.8602V26.6602L25.1896 31.1102C24.8196 31.2802 24.4096 31.3602 24.0096 31.3602H23.9996Z" fill="current"/>
<path d="M40.6996 19.3302C40.6996 18.1702 40.0396 17.1502 38.9796 16.6802L25.1796 10.5502C24.4296 10.2202 23.5796 10.2202 22.8296 10.5502L9.02957 16.6802C7.96957 17.1502 7.30957 18.1702 7.30957 19.3302C7.30957 20.4902 7.96957 21.5102 9.02957 21.9802L22.8296 28.1102C23.2096 28.2802 23.6096 28.3602 24.0096 28.3602C24.4096 28.3602 24.8096 28.2802 25.1896 28.1102L37.3096 22.7202V31.3202H40.7096V19.3202L40.6996 19.3302Z" fill="current"/>
</svg>
