<svg width="current" height="current" viewBox="0 0 48 48" fill="none" xmlns="http://www.w3.org/2000/svg">
<path d="M28.8001 26.8388H19.2001C18.0401 26.8388 16.9901 27.5288 16.5401 28.5888C16.0801 29.6588 16.3001 30.8888 17.1001 31.7288L21.9001 36.7888C22.4501 37.3688 23.2101 37.6888 24.0001 37.6888C24.7901 37.6888 25.5601 37.3588 26.1001 36.7888L30.9001 31.7288C31.7001 30.8888 31.9201 29.6488 31.4601 28.5888C31.0001 27.5188 29.9601 26.8388 28.8001 26.8388Z" fill="current"/>
<path d="M19.2001 21.1588H28.8001C29.9601 21.1588 31.0101 20.4688 31.4601 19.4088C31.9201 18.3388 31.7001 17.1088 30.9001 16.2688L26.1001 11.2088C25.5601 10.6288 24.7901 10.2988 24.0001 10.2988C23.2101 10.2988 22.4401 10.6288 21.9001 11.1988L17.1001 16.2588C16.3001 17.0988 16.0801 18.3388 16.5401 19.3988C17.0001 20.4688 18.0401 21.1488 19.2001 21.1488V21.1588ZM24.0001 13.9288L27.6301 17.7588H20.3601L23.9901 13.9288H24.0001Z" fill="current"/>
</svg>
