<svg width="current" height="current" viewBox="0 0 48 48" fill="none" xmlns="http://www.w3.org/2000/svg">
<path d="M33.4008 9.30005H14.6008C11.6808 9.30005 9.30078 11.68 9.30078 14.6V27.4C9.30078 30.32 11.6808 32.7001 14.6008 32.7001H22.2008V35.3H18.0008V38.7001H30.0008V35.3H25.8008V32.7001H33.4008C36.3208 32.7001 38.7008 30.32 38.7008 27.4V14.6C38.7008 11.68 36.3208 9.30005 33.4008 9.30005ZM35.3008 27.4C35.3008 28.45 34.4508 29.3 33.4008 29.3H14.6008C13.5508 29.3 12.7008 28.45 12.7008 27.4V14.6C12.7008 13.55 13.5508 12.7 14.6008 12.7H33.4008C34.4508 12.7 35.3008 13.55 35.3008 14.6V27.4Z" fill="current"/>
<path d="M19.1908 15.77L15.5608 19.23C15.0808 19.69 14.8008 20.34 14.8008 21C14.8008 21.66 15.0808 22.32 15.5608 22.78L19.1908 26.24L21.5308 23.78L18.6208 21.01L21.5308 18.24L19.1908 15.78V15.77Z" fill="current"/>
<path d="M28.8108 15.77L26.4708 18.23L29.3808 21L26.4708 23.77L28.8108 26.23L32.4408 22.77C32.9208 22.31 33.2008 21.66 33.2008 20.99C33.2008 20.32 32.9208 19.67 32.4408 19.22L28.8108 15.76V15.77Z" fill="current"/>
</svg>
