<svg width="current" height="current" viewBox="0 0 24 24" fill="none" xmlns="http://www.w3.org/2000/svg">
<path d="M13.2992 17.1994C13.2992 16.4814 12.7172 15.8994 11.9992 15.8994C11.2812 15.8994 10.6992 16.4814 10.6992 17.1994C10.6992 17.9174 11.2812 18.4994 11.9992 18.4994C12.7172 18.4994 13.2992 17.9174 13.2992 17.1994Z" fill="current"/>
<path d="M13.2992 6.79902C13.2992 6.08102 12.7172 5.49902 11.9992 5.49902C11.2812 5.49902 10.6992 6.08102 10.6992 6.79902C10.6992 7.51702 11.2812 8.09902 11.9992 8.09902C12.7172 8.09902 13.2992 7.51702 13.2992 6.79902Z" fill="current"/>
<path d="M13.2992 11.9992C13.2992 11.2812 12.7172 10.6992 11.9992 10.6992C11.2812 10.6992 10.6992 11.2812 10.6992 11.9992C10.6992 12.7171 11.2812 13.2992 11.9992 13.2992C12.7172 13.2992 13.2992 12.7171 13.2992 11.9992Z" fill="current"/>
</svg>
