<svg width="current" height="current" viewBox="0 0 48 48" fill="none" xmlns="http://www.w3.org/2000/svg">
<path d="M24.0008 26.4407C23.5708 26.4407 23.1408 26.3407 22.7408 26.1507L10.9408 20.4807C9.93078 19.9907 9.30078 18.9907 9.30078 17.8707C9.30078 16.7507 9.93078 15.7407 10.9508 15.2607L22.7508 9.59066C23.5508 9.21066 24.4608 9.21066 25.2608 9.59066L37.0608 15.2607C38.0708 15.7507 38.7008 16.7507 38.7008 17.8707C38.7008 18.9907 38.0708 20.0007 37.0508 20.4807L25.2508 26.1507C24.8508 26.3407 24.4208 26.4407 23.9908 26.4407H24.0008ZM13.3508 17.8707L23.9908 22.9807L34.6408 17.8707L23.9908 12.7507L13.3508 17.8707Z" fill="current"/>
<path d="M24.0008 32.6407C23.5708 32.6407 23.1408 32.5407 22.7408 32.3507L9.41078 25.9507L10.8808 22.8907L24.0008 29.1907L37.1208 22.8907L38.5908 25.9507L25.2608 32.3507C24.8608 32.5407 24.4308 32.6407 24.0008 32.6407Z" fill="current"/>
<path d="M24.0008 38.7007C23.5708 38.7007 23.1408 38.6007 22.7408 38.4107L9.41078 32.0007L10.8808 28.9407L24.0008 35.2407L37.1208 28.9407L38.5908 32.0007L25.2608 38.4107C24.8608 38.6007 24.4308 38.7007 24.0008 38.7007Z" fill="current"/>
</svg>
