<svg width="current" height="current" viewBox="0 0 24 24" fill="none" xmlns="http://www.w3.org/2000/svg">
<path d="M16.6999 4.6499H7.2999C5.8399 4.6499 4.6499 5.8399 4.6499 7.2999V16.6999C4.6499 18.1599 5.8399 19.3499 7.2999 19.3499H16.6999C18.1599 19.3499 19.3499 18.1599 19.3499 16.6999V7.2999C19.3499 5.8399 18.1599 4.6499 16.6999 4.6499ZM17.6499 16.6999C17.6499 17.2249 17.2249 17.6499 16.6999 17.6499H7.2999C6.7749 17.6499 6.3499 17.2249 6.3499 16.6999V7.2999C6.3499 6.7749 6.7749 6.3499 7.2999 6.3499H16.6999C17.2249 6.3499 17.6499 6.7749 17.6499 7.2999V16.6999Z" fill="current"/>
<path d="M7.9999 9.7599H11.0999V15.9999H12.8999V9.7599H15.9999V7.9599H7.9999V9.7599Z" fill="current"/>
</svg>
