<svg width="current" height="current" viewBox="0 0 48 48" fill="none" xmlns="http://www.w3.org/2000/svg">
<path d="M34.3282 27.16C34.1744 25.8781 33.5572 24.6967 32.5927 23.8383C31.6283 22.98 30.3833 22.504 29.0922 22.5H25.3922V20.22C26.5329 19.9321 27.5453 19.2726 28.2696 18.3455C28.9939 17.4184 29.3889 16.2765 29.3922 15.1V14.3C29.3906 12.8948 28.8317 11.5477 27.8381 10.5541C26.8445 9.56045 25.4973 9.00159 24.0922 9H23.2922C21.887 9.00159 20.5399 9.56045 19.5463 10.5541C18.5527 11.5477 17.9938 12.8948 17.9922 14.3V15.1C17.9959 16.2764 18.391 17.4181 19.1152 18.3451C19.8395 19.2721 20.8516 19.9318 21.9922 20.22V22.5H18.2922C17.0012 22.5044 15.7564 22.9806 14.7921 23.8388C13.8277 24.6971 13.2104 25.8782 13.0562 27.16C11.9006 27.4371 10.8717 28.0945 10.1347 29.0267C9.39767 29.9589 8.9953 31.1117 8.99219 32.3V33.1C8.99378 34.5052 9.55268 35.8523 10.5463 36.8459C11.5399 37.8395 12.887 38.3984 14.2922 38.4H15.0922C16.4973 38.3984 17.8445 37.8395 18.8381 36.8459C19.8317 35.8523 20.3906 34.5052 20.3922 33.1V32.3C20.3882 31.1426 20.0051 30.0184 19.3015 29.0995C18.5978 28.1806 17.6125 27.5176 16.4962 27.212C16.6194 26.8313 16.8599 26.4994 17.1832 26.2638C17.5065 26.0281 17.8961 25.9008 18.2962 25.9H29.0962C29.4962 25.9011 29.8856 26.0285 30.2089 26.2642C30.5321 26.4998 30.7727 26.8315 30.8962 27.212C29.7794 27.5169 28.7934 28.1797 28.0893 29.0987C27.3852 30.0177 27.0019 31.1423 26.9982 32.3V33.1C26.9998 34.5052 27.5587 35.8523 28.5523 36.8459C29.5459 37.8395 30.893 38.3984 32.2982 38.4H33.0982C34.5033 38.3984 35.8505 37.8395 36.8441 36.8459C37.8377 35.8523 38.3966 34.5052 38.3982 33.1V32.3C38.3951 31.1108 37.992 29.9571 37.2537 29.0248C36.5155 28.0925 35.485 27.4356 34.3282 27.16Z" fill="current"/>
</svg>
