<svg width="current" height="current" viewBox="0 0 48 48" fill="none" xmlns="http://www.w3.org/2000/svg">
<path d="M34.8008 23.6504H34.7008V13.9504C34.7008 11.0304 32.3208 8.65039 29.4008 8.65039H18.6008C15.6808 8.65039 13.3008 11.0304 13.3008 13.9504V23.6504H13.2008C11.6008 23.6504 10.3008 24.9504 10.3008 26.5504V29.1504C10.3008 30.7504 11.6008 32.0504 13.2008 32.0504H22.3008V34.1504H18.2008C16.6008 34.1504 15.3008 35.4504 15.3008 37.0504V39.3504H18.7008V37.5504H29.3008V39.3504H32.7008V37.0504C32.7008 35.4504 31.4008 34.1504 29.8008 34.1504H25.7008V32.0504H34.8008C36.4008 32.0504 37.7008 30.7504 37.7008 29.1504V26.5504C37.7008 24.9504 36.4008 23.6504 34.8008 23.6504ZM16.7008 13.9504C16.7008 12.9004 17.5508 12.0504 18.6008 12.0504H29.4008C30.4508 12.0504 31.3008 12.9004 31.3008 13.9504V23.6504H16.7008V13.9504ZM34.3008 28.6504H13.7008V27.0504H34.3008V28.6504Z" fill="current"/>
</svg>
