<svg width="current" height="current" viewBox="0 0 48 48" fill="none" xmlns="http://www.w3.org/2000/svg">
<path d="M38 30.3H35.96C37.02 29.33 37.7 27.95 37.7 26.4V17.6C37.7 14.68 35.32 12.3 32.4 12.3H23.6C20.68 12.3 18.3 14.68 18.3 17.6V26.4C18.3 27.95 18.98 29.33 20.04 30.3H17.6C16.55 30.3 15.7 29.45 15.7 28.4V14.6C15.7 11.68 13.32 9.30005 10.4 9.30005H10V12.7H10.4C11.45 12.7 12.3 13.55 12.3 14.6V28.4C12.3 31.32 14.68 33.7001 17.6 33.7001H18.38C18.33 33.9601 18.3 34.23 18.3 34.5C18.3 36.82 20.18 38.7001 22.5 38.7001C24.82 38.7001 26.7 36.82 26.7 34.5C26.7 34.23 26.67 33.9601 26.62 33.7001H29.38C29.33 33.9601 29.3 34.23 29.3 34.5C29.3 36.82 31.18 38.7001 33.5 38.7001C35.82 38.7001 37.7 36.82 37.7 34.5C37.7 34.23 37.67 33.9601 37.62 33.7001H38V30.3ZM21.7 17.6C21.7 16.55 22.55 15.7 23.6 15.7H26.3V19H29.7V15.7H32.4C33.45 15.7 34.3 16.55 34.3 17.6V26.4C34.3 27.45 33.45 28.3 32.4 28.3H23.6C22.55 28.3 21.7 27.45 21.7 26.4V17.6ZM23.3 34.5C23.3 34.9401 22.94 35.3 22.5 35.3C22.06 35.3 21.7 34.9401 21.7 34.5C21.7 34.06 22.06 33.7001 22.5 33.7001C22.94 33.7001 23.3 34.06 23.3 34.5ZM34.3 34.5C34.3 34.9401 33.94 35.3 33.5 35.3C33.06 35.3 32.7 34.9401 32.7 34.5C32.7 34.06 33.06 33.7001 33.5 33.7001C33.94 33.7001 34.3 34.06 34.3 34.5Z" fill="current"/>
</svg>
