<svg width="current" height="current" viewBox="0 0 48 48" fill="none" xmlns="http://www.w3.org/2000/svg">
<path d="M23.9991 40.7002H23.5991C21.332 40.6585 19.0974 40.1525 17.0335 39.2134C14.9695 38.2743 13.12 36.9221 11.5991 35.2402C8.7995 32.0699 7.28794 27.9664 7.36197 23.7376C7.436 19.5087 9.09025 15.4606 11.9991 12.3902C14.4995 9.79907 17.7737 8.09001 21.3291 7.52023C21.9364 7.41863 22.5602 7.51292 23.1103 7.78946C23.6604 8.06601 24.1082 8.51044 24.3888 9.05843C24.6695 9.60642 24.7685 10.2295 24.6715 10.8375C24.5744 11.4455 24.2864 12.0068 23.8491 12.4402C22.2402 14.0397 21.2722 16.1727 21.1277 18.4368C20.9832 20.7008 21.6722 22.9396 23.0647 24.7306C24.4572 26.5217 26.4569 27.7413 28.6868 28.1594C30.9166 28.5775 33.2224 28.1652 35.1691 27.0002C35.6972 26.6904 36.3095 26.555 36.9189 26.6133C37.5284 26.6716 38.1039 26.9207 38.5636 27.325C39.0233 27.7293 39.3438 28.2683 39.4795 28.8654C39.6151 29.4624 39.559 30.087 39.3191 30.6502C38.4817 32.5773 37.2912 34.3308 35.8091 35.8202C34.2619 37.3753 32.4212 38.6075 30.3938 39.4453C28.3664 40.283 26.1928 40.7096 23.9991 40.7002ZM20.3991 11.2002C18.1121 11.818 16.0374 13.049 14.3991 14.7602C12.0808 17.2174 10.7697 20.4556 10.7252 23.8335C10.6808 27.2114 11.9063 30.4829 14.1591 33.0002C15.5689 34.5504 17.3251 35.7456 19.2844 36.4883C21.2438 37.231 23.3509 37.5002 25.434 37.2741C27.5172 37.0479 29.5174 36.3328 31.2717 35.1869C33.0261 34.041 34.4848 32.4969 35.5291 30.6802C33.2745 31.673 30.7801 31.9891 28.3491 31.5902C26.1663 31.2381 24.1135 30.3217 22.3938 28.932C20.6742 27.5422 19.3475 25.7273 18.5452 23.667C17.7429 21.6067 17.4929 19.3725 17.8198 17.1858C18.1467 14.9991 19.0393 12.9358 20.4091 11.2002H20.3991Z" fill="current"/>
</svg>
