<svg width="current" height="current" viewBox="0 0 48 48" fill="none" xmlns="http://www.w3.org/2000/svg">
<path d="M32.3998 19.2998H31.6998V15.9998C31.6998 11.7498 28.2498 8.2998 23.9998 8.2998C19.7498 8.2998 16.2998 11.7498 16.2998 15.9998V19.2998H15.5998C12.6798 19.2998 10.2998 21.6798 10.2998 24.5998V34.3998C10.2998 37.3198 12.6798 39.6998 15.5998 39.6998H32.3998C35.3198 39.6998 37.6998 37.3198 37.6998 34.3998V24.5998C37.6998 21.6798 35.3198 19.2998 32.3998 19.2998ZM19.6998 15.9998C19.6998 13.6298 21.6298 11.6998 23.9998 11.6998C26.3698 11.6998 28.2998 13.6298 28.2998 15.9998V19.2998H19.6998V15.9998ZM34.2998 34.3998C34.2998 35.4498 33.4498 36.2998 32.3998 36.2998H15.5998C14.5498 36.2998 13.6998 35.4498 13.6998 34.3998V24.5998C13.6998 23.5498 14.5498 22.6998 15.5998 22.6998H32.3998C33.4498 22.6998 34.2998 23.5498 34.2998 24.5998V34.3998Z" fill="current"/>
<path d="M26.5999 28.3002C26.5999 26.8602 25.4399 25.7002 23.9999 25.7002C22.5599 25.7002 21.3999 26.8602 21.3999 28.3002C21.3999 29.0802 21.7499 29.7802 22.2999 30.2502V33.3002H25.6999V30.2502C26.2499 29.7702 26.5999 29.0802 26.5999 28.3002Z" fill="current"/>
</svg>
