<svg width="47" height="current" viewBox="0 0 47 48" fill="none" xmlns="http://www.w3.org/2000/svg">
<path d="M37.7726 27.8441C37.4516 27.5538 37.0452 27.3754 36.6142 27.3357C36.1833 27.2961 35.7511 27.3973 35.3826 27.6241C33.2589 28.8965 30.7432 29.3481 28.3096 28.8937C25.876 28.4393 23.6927 27.1103 22.1713 25.1573C20.65 23.2043 19.8957 20.7621 20.0506 18.2913C20.2056 15.8205 21.2591 13.4918 23.0126 11.7441C23.3224 11.438 23.5267 11.0411 23.5958 10.611C23.6649 10.181 23.5952 9.7401 23.3968 9.35231C23.1985 8.96452 22.8818 8.65 22.4926 8.45433C22.1035 8.25866 21.6621 8.19203 21.2326 8.26409C17.8531 8.80567 14.7425 10.4347 12.3726 12.9041C9.62025 15.8245 8.06098 19.6694 8.00175 23.6819C7.94253 27.6945 9.38764 31.5838 12.0526 34.5841C13.4915 36.1755 15.2406 37.4559 17.1924 38.3467C19.1442 39.2374 21.2575 39.7198 23.4026 39.7641H23.7726C25.8536 39.7705 27.9152 39.3637 29.8378 38.5672C31.7604 37.7707 33.5058 36.6004 34.9726 35.1241C36.3835 33.719 37.5107 32.0554 38.2926 30.2241C38.4801 29.8255 38.5308 29.3761 38.4367 28.9458C38.3427 28.5154 38.1092 28.1282 37.7726 27.8441Z" fill="current"/>
</svg>
