<svg width="current" height="current" viewBox="0 0 48 48" fill="none" xmlns="http://www.w3.org/2000/svg">
<path d="M34.336 27.1698C34.1827 25.8881 33.5658 24.7067 32.6017 23.8483C31.6376 22.9899 30.3928 22.5138 29.102 22.5098H25.402V20.2298C26.5427 19.9419 27.5551 19.2823 28.2794 18.3552C29.0036 17.4281 29.3986 16.2863 29.402 15.1098V14.3098C29.4004 12.9046 28.8415 11.5575 27.8479 10.5639C26.8543 9.57027 25.5071 9.01135 24.102 9.00977H23.302C21.8968 9.01135 20.5496 9.57027 19.556 10.5639C18.5624 11.5575 18.0035 12.9046 18.002 14.3098V15.1098C18.0053 16.2863 18.4003 17.4281 19.1246 18.3552C19.8488 19.2823 20.8612 19.9419 22.002 20.2298V22.5098H18.302C17.0111 22.5138 15.7663 22.9899 14.8022 23.8483C13.8381 24.7067 13.2213 25.8881 13.068 27.1698C11.9122 27.4468 10.883 28.1042 10.1457 29.0363C9.40831 29.9685 9.00552 31.1213 9.00195 32.3098V33.1098C9.00354 34.5149 9.56244 35.8621 10.556 36.8557C11.5496 37.8493 12.8968 38.4082 14.302 38.4098H15.102C16.5071 38.4082 17.8543 37.8493 18.8479 36.8557C19.8415 35.8621 20.4004 34.5149 20.402 33.1098V32.3098C20.3979 31.1521 20.0145 30.0278 19.3105 29.1088C18.6064 28.1899 17.6206 27.527 16.504 27.2218C16.6272 26.8411 16.8677 26.5092 17.191 26.2736C17.5143 26.0379 17.9039 25.9106 18.304 25.9098H29.104C29.504 25.9106 29.8936 26.0379 30.2169 26.2736C30.5403 26.5092 30.7807 26.8411 30.904 27.2218C29.7873 27.527 28.8015 28.1899 28.0975 29.1088C27.3934 30.0278 27.01 31.1521 27.006 32.3098V33.1098C27.0075 34.5149 27.5665 35.8621 28.5601 36.8557C29.5536 37.8493 30.9008 38.4082 32.306 38.4098H33.106C34.5111 38.4082 35.8583 37.8493 36.8519 36.8557C37.8455 35.8621 38.4044 34.5149 38.406 33.1098V32.3098C38.4022 31.1207 37.9988 29.9675 37.2607 29.0353C36.5225 28.1031 35.4925 27.4461 34.336 27.1698ZM21.402 15.1098V14.3098C21.402 13.8062 21.6019 13.3233 21.9577 12.967C22.3136 12.6107 22.7964 12.4103 23.3 12.4098H24.1C24.6035 12.4103 25.0863 12.6107 25.4422 12.967C25.7981 13.3233 25.998 13.8062 25.998 14.3098V15.1098C25.998 15.6133 25.7981 16.0963 25.4422 16.4526C25.0863 16.8089 24.6035 17.0092 24.1 17.0098H23.3C23.0498 17.0095 22.8021 16.9599 22.5712 16.8636C22.3402 16.7674 22.1306 16.6265 21.9542 16.449C21.7779 16.2716 21.6383 16.061 21.5435 15.8295C21.4487 15.598 21.4006 15.3499 21.402 15.0998V15.1098ZM17.002 33.1098C17.002 33.6133 16.8021 34.0963 16.4462 34.4526C16.0903 34.8089 15.6075 35.0092 15.104 35.0098H14.304C13.8004 35.0092 13.3176 34.8089 12.9617 34.4526C12.6059 34.0963 12.406 33.6133 12.406 33.1098V32.3098C12.406 31.8062 12.6059 31.3233 12.9617 30.967C13.3176 30.6107 13.8004 30.4103 14.304 30.4098H15.104C15.6075 30.4103 16.0903 30.6107 16.4462 30.967C16.8021 31.3233 17.002 31.8062 17.002 32.3098V33.1098ZM35.002 33.1098C35.002 33.6133 34.8021 34.0963 34.4462 34.4526C34.0903 34.8089 33.6075 35.0092 33.104 35.0098H32.304C31.8004 35.0092 31.3176 34.8089 30.9617 34.4526C30.6059 34.0963 30.406 33.6133 30.406 33.1098V32.3098C30.406 31.8062 30.6059 31.3233 30.9617 30.967C31.3176 30.6107 31.8004 30.4103 32.304 30.4098H33.104C33.6075 30.4103 34.0903 30.6107 34.4462 30.967C34.8021 31.3233 35.002 31.8062 35.002 32.3098V33.1098Z" fill="current"/>
</svg>
