<svg width="current" height="current" viewBox="0 0 48 48" fill="none" xmlns="http://www.w3.org/2000/svg">
<path d="M37.3503 12.4098L36.2703 16.8798C33.7803 12.5798 29.1603 9.7998 24.0003 9.7998C17.5303 9.7998 11.8803 14.1798 10.2603 20.4498L13.5503 21.2998C14.7803 16.5298 19.0703 13.1998 23.9903 13.1998C28.1003 13.1998 31.7703 15.5298 33.5803 19.0798L28.4203 17.5598L27.4603 20.8198L35.1303 23.0798C35.4003 23.1598 35.6703 23.1998 35.9403 23.1998C36.4503 23.1998 36.9503 23.0698 37.3903 22.8098C38.0703 22.4198 38.5703 21.7498 38.7603 20.9798L40.6403 13.2098L37.3403 12.4098H37.3503Z" fill="current"/>
<path d="M24.0003 34.7998C19.8903 34.7998 16.2203 32.4698 14.4103 28.9198L19.5703 30.4398L20.5303 27.1798L12.8603 24.9198C12.1003 24.6998 11.2803 24.7998 10.5903 25.1898C9.91033 25.5798 9.41033 26.2498 9.22033 27.0198L7.34033 34.7898L10.6403 35.5898L11.7203 31.1198C14.2103 35.4198 18.8303 38.1998 23.9903 38.1998C30.4603 38.1998 36.1103 33.8198 37.7303 27.5498L34.4403 26.6998C33.2103 31.4698 28.9203 34.7998 24.0003 34.7998Z" fill="current"/>
</svg>
