<svg width="current" height="current" viewBox="0 0 48 48" fill="none" xmlns="http://www.w3.org/2000/svg">
<path d="M23.9999 7.30078C20.6969 7.30078 17.4681 8.28021 14.7218 10.1152C11.9755 11.9503 9.835 14.5585 8.57102 17.61C7.30703 20.6615 6.97633 24.0193 7.6207 27.2588C8.26507 30.4983 9.8556 33.4739 12.1911 35.8094C14.5267 38.145 17.5023 39.7355 20.7418 40.3799C23.9813 41.0243 27.3391 40.6935 30.3906 39.4296C33.4421 38.1656 36.0503 36.0251 37.8853 33.2788C39.7204 30.5325 40.6998 27.3037 40.6998 24.0007C40.6945 19.5732 38.9334 15.3286 35.8027 12.1979C32.672 9.06717 28.4273 7.30607 23.9999 7.30078ZM25.6998 32.3008H22.3498V21.8008H25.7499L25.6998 32.3008ZM25.6998 18.8008H22.3498V15.8008H25.7499L25.6998 18.8008Z" fill="current"/>
</svg>
