<svg width="current" height="current" viewBox="0 0 48 48" fill="none" xmlns="http://www.w3.org/2000/svg">
<path d="M23.9989 7.30078C20.6959 7.30078 17.4671 8.28021 14.7208 10.1152C11.9745 11.9503 9.83402 14.5585 8.57004 17.61C7.30606 20.6615 6.97535 24.0193 7.61972 27.2588C8.2641 30.4983 9.85462 33.4739 12.1902 35.8094C14.5257 38.145 17.5013 39.7355 20.7408 40.3799C23.9803 41.0243 27.3382 40.6935 30.3897 39.4296C33.4413 38.1656 36.0494 36.0251 37.8844 33.2788C39.7194 30.5325 40.6988 27.3037 40.6988 24.0007C40.6935 19.5732 38.9324 15.3286 35.8017 12.1979C32.671 9.06717 28.4264 7.30607 23.9989 7.30078ZM32.9089 18.7607L30.2088 26.8507C29.9472 27.6299 29.5086 28.338 28.9273 28.9192C28.3461 29.5004 27.6381 29.9392 26.8589 30.2008L18.7689 32.9008C18.4687 32.9994 18.1548 33.0501 17.8388 33.0508C17.3799 33.0492 16.928 32.9387 16.5201 32.7284C16.1122 32.5181 15.76 32.214 15.4925 31.8411C15.2251 31.4682 15.05 31.037 14.9815 30.5833C14.9131 30.1295 14.9533 29.6659 15.0988 29.2307L17.7889 21.1407C18.0536 20.3616 18.4945 19.6539 19.0772 19.0729C19.66 18.4918 20.3689 18.0531 21.1489 17.7908L29.2389 15.1007C29.7525 14.9164 30.3083 14.8835 30.8401 15.0059C31.3719 15.1282 31.8573 15.4006 32.2389 15.7908C32.6159 16.1744 32.8783 16.6557 32.9967 17.1804C33.115 17.7051 33.0847 18.2524 32.9089 18.7607Z" fill="current"/>
<path d="M23.9988 25.7007C24.9377 25.7007 25.6988 24.9396 25.6988 24.0007C25.6988 23.0618 24.9377 22.3008 23.9988 22.3008C23.06 22.3008 22.2988 23.0618 22.2988 24.0007C22.2988 24.9396 23.06 25.7007 23.9988 25.7007Z" fill="current"/>
</svg>
