<svg width="current" height="current" viewBox="0 0 48 48" fill="none" xmlns="http://www.w3.org/2000/svg">
<path d="M23.6986 15.459L11.5487 27.5991C11.3132 27.8415 11.1533 28.1472 11.0886 28.479L9.85867 34.739C9.76552 35.2054 9.78901 35.6876 9.92691 36.1428C10.0648 36.598 10.3129 37.0123 10.6492 37.3486C10.9855 37.685 11.3997 37.9329 11.8549 38.0708C12.3101 38.2087 12.7923 38.2323 13.2587 38.1392L19.5187 36.9089C19.8491 36.8425 20.152 36.6789 20.3887 36.439L32.5287 24.2991L23.6986 15.459Z" fill="current"/>
<path d="M36.6301 12.6892L35.2902 11.3494C34.2947 10.3564 32.9461 9.79883 31.5402 9.79883C30.1342 9.79883 28.7856 10.3564 27.7902 11.3494L26.0801 13.0593L34.9202 21.8994L36.6301 20.1892C37.6231 19.1938 38.1807 17.8452 38.1807 16.4392C38.1807 15.0332 37.6231 13.6846 36.6301 12.6892Z" fill="current"/>
</svg>
