<svg width="current" height="current" viewBox="0 0 48 48" fill="none" xmlns="http://www.w3.org/2000/svg">
<path d="M35.8307 12.1994C33.0978 9.46455 29.5012 7.76189 25.6537 7.38177C21.8061 7.00164 17.9458 7.96749 14.7306 10.1147C11.5154 12.2619 9.14426 15.4576 8.02124 19.1572C6.89821 22.8567 7.09282 26.8312 8.5719 30.4034C10.051 33.9755 12.723 36.9243 16.1326 38.7471C19.5422 40.5699 23.4783 41.154 27.2703 40.3998C31.0623 39.6456 34.4755 37.5999 36.9281 34.6111C39.3807 31.6224 40.7211 27.8756 40.7207 24.0093C40.7192 19.5804 38.9605 15.333 35.8307 12.1994ZM28.1107 30.4594L23.1708 25.4594C22.6344 24.9312 22.3287 24.2122 22.3207 23.4594V14.9893H25.7207V23.2593L30.5208 28.0494L28.1107 30.4594Z" fill="current"/>
</svg>
