<svg width="current" height="current" viewBox="0 0 48 48" fill="none" xmlns="http://www.w3.org/2000/svg">
<path d="M23.3508 22.7499V25.2499H25.3508V27.2499H27.8508V25.2499H29.8508V27.2499H32.3508V25.2499H34.3508V22.7499H32.3508V20.7499H29.8508V22.7499H27.8508V20.7499H25.3508V22.7499H23.3508Z" fill="current"/>
<path d="M15.4508 19.7699C14.2908 20.8999 13.6408 22.3999 13.6408 23.9999C13.6408 25.5999 14.2808 27.0999 15.4508 28.2299C16.6308 29.3699 18.1908 29.9399 19.7408 29.9399C21.2908 29.9399 22.8508 29.3699 24.0308 28.2299L21.6708 25.7899C20.6108 26.8199 18.8808 26.8199 17.8208 25.7899C17.3208 25.3099 17.0508 24.6799 17.0508 24.0099C17.0508 23.3399 17.3208 22.7099 17.8208 22.2299C18.8808 21.1999 20.6108 21.1999 21.6708 22.2299L24.0308 19.7899C21.6608 17.4999 17.8208 17.4999 15.4508 19.7899V19.7699Z" fill="current"/>
<path d="M37.1908 15.0799L25.3908 8.64986C24.5208 8.17986 23.4808 8.17986 22.6108 8.64986L10.8108 15.0799C9.88078 15.5899 9.30078 16.5599 9.30078 17.6299V30.3699C9.30078 31.4299 9.88078 32.4099 10.8108 32.9199L22.6108 39.3499C23.0408 39.5899 23.5208 39.6999 23.9908 39.6999C24.4608 39.6999 24.9408 39.5799 25.3808 39.3499L37.1808 32.9199C38.1108 32.4099 38.6908 31.4399 38.6908 30.3699V17.6299C38.6908 16.5699 38.1108 15.5899 37.1808 15.0799H37.1908ZM35.3008 30.0699L24.0008 36.2299L12.7008 30.0699V17.9199L24.0008 11.7599L35.3008 17.9199V30.0699Z" fill="current"/>
</svg>
