<svg width="current" height="current" viewBox="0 0 48 48" fill="none" xmlns="http://www.w3.org/2000/svg">
<path d="M31.3998 12.4499H31.0998V9.1499H27.4998V12.4499H20.4998V9.1499H16.8998V12.4499H16.5998C13.6798 12.4499 11.2998 14.8299 11.2998 17.7499V35.9499C11.2998 37.5499 12.5998 38.8499 14.1998 38.8499H33.7998C35.3998 38.8499 36.6998 37.5499 36.6998 35.9499V17.7499C36.6998 14.8299 34.3198 12.4499 31.3998 12.4499ZM33.2998 35.4499H14.6998V17.7499C14.6998 16.6999 15.5498 15.8499 16.5998 15.8499H31.3998C32.4498 15.8499 33.2998 16.6999 33.2998 17.7499V35.4499Z" fill="current"/>
<path d="M30.9998 27.2999H16.9998V30.6999H27.5998V32.9999H30.9998V27.2999Z" fill="current"/>
</svg>
