<svg width="current" height="current" viewBox="0 0 48 48" fill="none" xmlns="http://www.w3.org/2000/svg">
<path d="M39.5943 20.2346C39.4295 19.7145 39.1218 19.2511 38.7063 18.8975C38.2907 18.5438 37.7841 18.3141 37.2443 18.2346L29.9143 17.1747L26.6343 10.5647C26.3947 10.0797 26.0242 9.67146 25.5648 9.38599C25.1053 9.10051 24.5753 8.94922 24.0343 8.94922C23.4934 8.94922 22.9633 9.10051 22.5038 9.38599C22.0444 9.67146 21.6739 10.0797 21.4343 10.5647L18.1543 17.1747L10.8143 18.2346C10.2705 18.3094 9.75887 18.5366 9.3386 18.8898C8.91833 19.243 8.60656 19.7077 8.43925 20.2306C8.27194 20.7534 8.25589 21.3129 8.39305 21.8445C8.5302 22.376 8.81494 22.858 9.21434 23.2346L14.5043 28.3646L13.2643 35.6146C13.1915 36.0309 13.2105 36.4582 13.32 36.8663C13.4295 37.2745 13.6269 37.6538 13.8984 37.9777C14.1699 38.3015 14.5089 38.5621 14.8916 38.7412C15.2744 38.9203 15.6917 39.0137 16.1143 39.0146C16.5855 39.0147 17.0494 38.8979 17.4643 38.6747L24.0343 35.2446L30.6043 38.6747C31.0833 38.9246 31.6225 39.0357 32.1613 38.9956C32.7 38.9555 33.2169 38.7656 33.6535 38.4475C34.0902 38.1294 34.4293 37.6956 34.6326 37.1951C34.8359 36.6945 34.8954 36.1471 34.8043 35.6146L33.5543 28.3646L38.8443 23.2346C39.2397 22.8563 39.5199 22.3738 39.6526 21.8429C39.7853 21.312 39.7651 20.7545 39.5943 20.2346Z" fill="current"/>
</svg>
