<svg width="current" height="current" viewBox="0 0 48 48" fill="none" xmlns="http://www.w3.org/2000/svg">
<path d="M36.5209 30.3998L29.7009 20.4698V12.6998H32.0009V9.2998H16.0009V12.6998H18.3008V20.4698L11.4809 30.3998C10.9311 31.1943 10.6095 32.1241 10.5508 33.0884C10.4921 34.0527 10.6986 35.0146 11.1478 35.8699C11.5971 36.7252 12.272 37.4411 13.0993 37.9399C13.9266 38.4388 14.8748 38.7016 15.8409 38.6998H32.1609C33.1269 38.7016 34.0751 38.4388 34.9024 37.9399C35.7297 37.4411 36.4046 36.7252 36.8539 35.8699C37.3031 35.0146 37.5096 34.0527 37.4509 33.0884C37.3922 32.1241 37.0706 31.1943 36.5209 30.3998ZM33.8409 34.2798C33.6795 34.5845 33.4374 34.839 33.1411 35.0154C32.8448 35.1917 32.5057 35.2832 32.1609 35.2798H15.8409C15.4913 35.2818 15.1479 35.1873 14.8486 35.0068C14.5493 34.8262 14.3056 34.5665 14.1443 34.2564C13.983 33.9463 13.9104 33.5976 13.9345 33.2489C13.9586 32.9002 14.0785 32.5648 14.2809 32.2798L21.4009 21.9998C21.6065 21.7077 21.7117 21.3568 21.7009 20.9998V12.6998H26.3008V20.9998C26.29 21.3568 26.3952 21.7077 26.6009 21.9998L33.7209 32.3598C33.9129 32.6389 34.0255 32.965 34.0467 33.3032C34.0678 33.6414 33.9967 33.9789 33.8409 34.2798Z" fill="current"/>
</svg>
