<svg width="current" height="current" viewBox="0 0 48 48" fill="none" xmlns="http://www.w3.org/2000/svg">
<path d="M13.8998 37.7001H12.1998C10.5998 37.7001 9.2998 36.4 9.2998 34.8V21.2C9.2998 19.6 10.5998 18.3 12.1998 18.3H13.8998V37.7001Z" fill="current"/>
<path d="M37.4598 20.19C36.4498 18.99 34.9698 18.3 33.3998 18.3H28.7698L29.3998 15.99C29.8398 14.38 29.5098 12.7 28.4998 11.38C27.4898 10.06 25.9498 9.30005 24.2898 9.30005H23.7098C22.6598 9.30005 21.6898 9.87005 21.1698 10.79L17.2998 17.76V37.5601L20.2698 38.55C20.5698 38.65 20.8798 38.7001 21.1898 38.7001H31.6698C34.2498 38.7001 36.4398 36.8601 36.8898 34.32L38.6198 24.52C38.8898 22.97 38.4698 21.4 37.4598 20.19Z" fill="current"/>
</svg>
