<svg width="current" height="current" viewBox="0 0 48 48" fill="none" xmlns="http://www.w3.org/2000/svg">
<path d="M24.0008 7.30005C14.7908 7.30005 7.30078 14.79 7.30078 24C7.30078 33.21 14.7908 40.7001 24.0008 40.7001C33.2108 40.7001 40.7008 33.21 40.7008 24C40.7008 14.79 33.2108 7.30005 24.0008 7.30005ZM24.0008 37.3C16.6708 37.3 10.7008 31.33 10.7008 24C10.7008 16.67 16.6708 10.7 24.0008 10.7C31.3308 10.7 37.3008 16.67 37.3008 24C37.3008 31.33 31.3308 37.3 24.0008 37.3Z" fill="current"/>
<path d="M21.7008 17H18.3008V31H21.7008V17Z" fill="current"/>
<path d="M29.7008 17H26.3008V31H29.7008V17Z" fill="current"/>
</svg>
