<svg width="current" height="current" viewBox="0 0 48 48" fill="none" xmlns="http://www.w3.org/2000/svg">
<path d="M30.1998 17.7713H33.2998V22.2313H36.6998V16.0713C36.6998 15.9613 36.6898 15.8613 36.6698 15.7513V15.7313C36.6398 15.5913 36.5898 15.4613 36.5198 15.3313C36.4998 15.2913 36.4798 15.2613 36.4598 15.2213C36.3898 15.1013 36.3098 14.9813 36.1998 14.8713L30.1998 8.86133C30.0898 8.75133 29.9698 8.67133 29.8498 8.59133C29.8198 8.57133 29.7898 8.55133 29.7498 8.54133C29.5198 8.43133 29.2698 8.36133 28.9998 8.36133H16.5998C13.6798 8.36133 11.2998 10.7413 11.2998 13.6613V32.4613C11.2998 35.3813 13.6798 37.7613 16.5998 37.7613H24.2298V34.3613H16.5998C15.5498 34.3613 14.6998 33.5113 14.6998 32.4613V13.6813C14.6998 12.6313 15.5498 11.7813 16.5998 11.7813H27.2998V14.8813C27.2998 16.4813 28.5998 17.7813 30.1998 17.7813V17.7713Z" fill="current"/>
<path d="M41.1698 30.9013L35.3798 25.3913L33.0298 27.8513L36.6498 31.3013H27.9198V34.7013H36.6498L33.0298 38.1513L35.3798 40.6113L41.1598 35.1013C41.7298 34.5613 42.0598 33.7913 42.0598 33.0013C42.0598 32.2113 41.7298 31.4413 41.1598 30.9013H41.1698Z" fill="current"/>
</svg>
