<svg width="current" height="current" viewBox="0 0 48 48" fill="none" xmlns="http://www.w3.org/2000/svg">
<path d="M24 24.7001C22.4771 24.7001 20.9884 24.2485 19.7222 23.4024C18.4559 22.5563 17.469 21.3537 16.8862 19.9467C16.3034 18.5397 16.1509 16.9915 16.448 15.4979C16.7451 14.0042 17.4785 12.6322 18.5553 11.5553C19.6322 10.4785 21.0042 9.74511 22.4979 9.44801C23.9915 9.1509 25.5397 9.30339 26.9467 9.88618C28.3537 10.469 29.5563 11.4559 30.4024 12.7222C31.2484 13.9884 31.7001 15.4771 31.7001 17.0001C31.7001 19.0422 30.8888 21.0007 29.4448 22.4448C28.0007 23.8888 26.0422 24.7001 24 24.7001ZM24 12.7001C23.1496 12.7001 22.3182 12.9522 21.6111 13.4247C20.904 13.8972 20.3528 14.5688 20.0274 15.3545C19.7019 16.1402 19.6168 17.0048 19.7827 17.8389C19.9486 18.6731 20.3581 19.4392 20.9595 20.0406C21.5609 20.642 22.327 21.0515 23.1612 21.2174C23.9953 21.3833 24.8599 21.2982 25.6456 20.9727C26.4313 20.6473 27.1029 20.0961 27.5754 19.389C28.0479 18.6819 28.3 17.8505 28.3 17.0001C28.2974 15.8604 27.8435 14.7682 27.0377 13.9624C26.2319 13.1566 25.1397 12.7027 24 12.7001Z" fill="current"/>
<path d="M15.6 26.3001C14.1952 26.3027 12.8487 26.8619 11.8553 27.8553C10.8619 28.8487 10.3027 30.1952 10.3 31.6001V37.0001H13.7V31.6001C13.7 31.0961 13.9002 30.6129 14.2565 30.2565C14.6129 29.9002 15.0961 29.7001 15.6 29.7001H26.6C27.0405 28.448 27.7197 27.2934 28.6 26.3001H15.6Z" fill="current"/>
<path d="M42.52 33.7001C42.3602 33.5331 42.2707 33.3112 42.27 33.0801C42.2707 32.849 42.3602 32.627 42.52 32.4601L43.2 31.7601C43.4218 31.5295 43.5622 31.2329 43.6001 30.9153C43.638 30.5976 43.5713 30.2763 43.41 30.0001L42.49 28.4101C42.3339 28.1378 42.0931 27.9241 41.8042 27.8014C41.5154 27.6786 41.1944 27.6536 40.89 27.7301L39.89 27.9601C39.778 27.9905 39.661 27.9982 39.5459 27.9828C39.4309 27.9673 39.3201 27.929 39.22 27.8701C39.0209 27.745 38.8722 27.5538 38.8 27.3301L38.54 26.4001C38.4519 26.0989 38.2692 25.8342 38.0188 25.645C37.7684 25.4559 37.4638 25.3525 37.15 25.3501H35.36C35.0485 25.3585 34.7479 25.4672 34.5029 25.6599C34.258 25.8527 34.0816 26.1192 34 26.4201L33.73 27.3601C33.7 27.4698 33.6482 27.5723 33.5778 27.6616C33.5073 27.7509 33.4197 27.8252 33.32 27.8801C33.2162 27.9431 33.1006 27.9845 32.9803 28.0017C32.86 28.0189 32.7374 28.0115 32.62 27.9801L31.7 27.7501C31.3957 27.6719 31.0741 27.6961 30.7848 27.819C30.4956 27.9419 30.255 28.1567 30.1 28.4301L29.15 30.0001C28.9928 30.2722 28.9283 30.5881 28.9662 30.9001C29.004 31.2121 29.1423 31.5034 29.36 31.7301L30.03 32.4301C30.1126 32.5119 30.1781 32.6092 30.2228 32.7165C30.2675 32.8238 30.2906 32.9388 30.2906 33.0551C30.2906 33.1713 30.2675 33.2863 30.2228 33.3936C30.1781 33.5009 30.1126 33.5982 30.03 33.6801L29.36 34.3801C29.1423 34.6067 29.004 34.898 28.9662 35.21C28.9283 35.522 28.9928 35.8379 29.15 36.1101L30.07 37.7001C30.2262 37.9723 30.467 38.186 30.7559 38.3087C31.0447 38.4315 31.3657 38.4565 31.67 38.3801L32.67 38.1401C32.8871 38.0888 33.1155 38.1209 33.31 38.2301C33.5214 38.3529 33.6759 38.5541 33.74 38.7901L34.01 39.7101C34.0967 40.012 34.2791 40.2777 34.5298 40.4671C34.7805 40.6564 35.0859 40.7592 35.4 40.76H37.2C37.5138 40.7576 37.8184 40.6542 38.0688 40.4651C38.3192 40.2759 38.5019 40.0112 38.59 39.7101L38.86 38.76C38.9174 38.5451 39.0576 38.3617 39.25 38.2501C39.4662 38.1301 39.7192 38.0945 39.96 38.1501L40.89 38.3801C41.1944 38.4565 41.5154 38.4315 41.8042 38.3087C42.0931 38.186 42.3339 37.9723 42.49 37.7001L43.41 36.1101C43.5641 35.837 43.6268 35.5218 43.589 35.2106C43.5513 34.8993 43.415 34.6083 43.2 34.3801L42.52 33.7001ZM36.28 35.92C35.7164 35.92 35.1654 35.7529 34.6967 35.4397C34.228 35.1266 33.8627 34.6815 33.647 34.1607C33.4313 33.6399 33.3748 33.0669 33.4848 32.514C33.5948 31.9612 33.8662 31.4534 34.2648 31.0548C34.6634 30.6562 35.1712 30.3848 35.724 30.2748C36.2769 30.1648 36.8499 30.2213 37.3707 30.437C37.8915 30.6527 38.3366 31.018 38.6497 31.4867C38.9629 31.9554 39.13 32.5064 39.13 33.0701C39.13 33.8259 38.8298 34.5508 38.2953 35.0853C37.7608 35.6198 37.0359 35.92 36.28 35.92Z" fill="current"/>
</svg>
