<svg width="current" height="current" viewBox="0 0 48 48" fill="none" xmlns="http://www.w3.org/2000/svg">
<path fill-rule="evenodd" clip-rule="evenodd" d="M14.5988 9.29993C11.6717 9.29993 9.29883 11.6728 9.29883 14.5999V33.3999C9.29883 36.327 11.6717 38.6999 14.5988 38.6999H33.3988C36.326 38.6999 38.6988 36.327 38.6988 33.3999V14.5999C38.6988 11.6728 36.3259 9.29993 33.3988 9.29993H14.5988ZM19.9188 19.7296C19.2904 19.7296 18.7133 20.0762 18.4181 20.6309C18.1229 21.1855 18.1577 21.8578 18.5086 22.379L22.5886 28.439C22.9045 28.9083 23.4331 29.1896 23.9988 29.1896C24.5644 29.1896 25.093 28.9083 25.4089 28.439L29.4889 22.379C29.8398 21.8578 29.8746 21.1855 29.5794 20.6309C29.2842 20.0762 28.7071 19.7296 28.0788 19.7296H19.9188Z" fill="current"/>
</svg>
