<svg width="current" height="current" viewBox="0 0 48 48" fill="none" xmlns="http://www.w3.org/2000/svg">
<path d="M28.26 17.65C28.5871 18.7251 29.248 19.668 30.147 20.3423C31.046 21.0165 32.1363 21.3871 33.26 21.4H34.06C35.4648 21.3974 36.8114 20.8381 37.8047 19.8447C38.7981 18.8514 39.3574 17.5048 39.36 16.1V15.2999C39.36 13.8943 38.8016 12.5463 37.8077 11.5524C36.8137 10.5584 35.4657 10 34.06 10H33.26C32.0375 10.0011 30.8529 10.4249 29.9071 11.1995C28.9612 11.974 28.3122 13.0517 28.07 14.25H19.29C19.0461 13.0526 18.3966 11.9759 17.4511 11.2017C16.5056 10.4274 15.322 10.003 14.1 10H13.3C11.8944 10 10.5463 10.5584 9.55234 11.5524C8.55839 12.5463 8 13.8943 8 15.2999V16.1C8.00264 17.5048 8.56188 18.8514 9.55525 19.8447C10.5486 20.8381 11.8952 21.3974 13.3 21.4H14.1C15.2237 21.3871 16.314 21.0165 17.213 20.3423C18.112 19.668 18.7729 18.7251 19.1 17.65H21.96V27.85C21.9627 29.2548 22.5219 30.6014 23.5153 31.5947C24.5086 32.5881 25.8552 33.1474 27.26 33.15H28.07C28.3122 34.3483 28.9612 35.426 29.9071 36.2006C30.8529 36.9751 32.0375 37.3989 33.26 37.4H34.06C35.4648 37.3974 36.8114 36.8381 37.8047 35.8447C38.7981 34.8514 39.3574 33.5048 39.36 32.1V31.2999C39.36 29.8943 38.8016 28.5463 37.8077 27.5524C36.8137 26.5584 35.4657 26 34.06 26H33.26C32.1359 26.0114 31.0449 26.3812 30.1456 27.0557C29.2463 27.7301 28.5857 28.6741 28.26 29.75H27.26C26.7561 29.75 26.2728 29.5498 25.9165 29.1935C25.5602 28.8372 25.36 28.3539 25.36 27.85V17.65H28.26ZM31.4 31.2999C31.4 30.796 31.6002 30.3127 31.9565 29.9564C32.3128 29.6001 32.7961 29.4 33.3 29.4H34.1C34.6039 29.4 35.0872 29.6001 35.4435 29.9564C35.7998 30.3127 36 30.796 36 31.2999V32.1C36 32.6039 35.7998 33.0872 35.4435 33.4435C35.0872 33.7998 34.6039 34 34.1 34H33.3C32.7961 34 32.3128 33.7998 31.9565 33.4435C31.6002 33.0872 31.4 32.6039 31.4 32.1V31.2999ZM31.4 15.2999C31.4 14.796 31.6002 14.3127 31.9565 13.9564C32.3128 13.6001 32.7961 13.4 33.3 13.4H34.1C34.6039 13.4 35.0872 13.6001 35.4435 13.9564C35.7998 14.3127 36 14.796 36 15.2999V16.1C36 16.6039 35.7998 17.0872 35.4435 17.4435C35.0872 17.7998 34.6039 18 34.1 18H33.3C32.7961 18 32.3128 17.7998 31.9565 17.4435C31.6002 17.0872 31.4 16.6039 31.4 16.1V15.2999ZM16 16.1C16 16.6039 15.7998 17.0872 15.4435 17.4435C15.0872 17.7998 14.6039 18 14.1 18H13.3C12.7961 18 12.3128 17.7998 11.9565 17.4435C11.6002 17.0872 11.4 16.6039 11.4 16.1V15.2999C11.4 14.796 11.6002 14.3127 11.9565 13.9564C12.3128 13.6001 12.7961 13.4 13.3 13.4H14.1C14.6039 13.4 15.0872 13.6001 15.4435 13.9564C15.7998 14.3127 16 14.796 16 15.2999V16.1Z" fill="current"/>
</svg>
