<svg width="current" height="current" viewBox="0 0 48 48" fill="none" xmlns="http://www.w3.org/2000/svg">
<path d="M33.3699 9.30087H14.5999C13.1942 9.30087 11.8461 9.85929 10.8522 10.8532C9.85823 11.8472 9.2998 13.1951 9.2998 14.6008V33.4008C9.30245 34.8057 9.86173 36.1522 10.8551 37.1456C11.8485 38.139 13.195 38.6982 14.5999 38.7009H33.3999C34.8047 38.6982 36.1513 38.139 37.1447 37.1456C38.138 36.1522 38.6972 34.8057 38.6998 33.4008V14.6008C38.6998 13.9023 38.5618 13.2106 38.2936 12.5656C38.0254 11.9206 37.6323 11.335 37.137 10.8425C36.6416 10.3499 36.0538 9.96022 35.4073 9.69564C34.7609 9.43106 34.0684 9.29691 33.3699 9.30087ZM19.6698 32.0008H16.2699V24.0008H19.6698V32.0008ZM25.6698 32.0008H22.2699V16.0008H25.6698V32.0008ZM31.6698 32.0008H28.2699V22.0008H31.6698V32.0008Z" fill="current"/>
</svg>
