<svg width="current" height="current" viewBox="0 0 48 48" fill="none" xmlns="http://www.w3.org/2000/svg">
<path d="M23.9989 24.7008C22.476 24.7008 20.9872 24.2492 19.7209 23.4031C18.4547 22.557 17.4678 21.3544 16.885 19.9474C16.3022 18.5404 16.1497 16.9922 16.4468 15.4986C16.7439 14.0049 17.4773 12.6329 18.5542 11.5561C19.6311 10.4792 21.003 9.74586 22.4967 9.44875C23.9904 9.15165 25.5386 9.30407 26.9455 9.88686C28.3525 10.4697 29.5552 11.4567 30.4012 12.7229C31.2473 13.9892 31.6988 15.4778 31.6988 17.0008C31.6936 19.0413 30.8806 20.9968 29.4377 22.4397C27.9948 23.8826 26.0394 24.6955 23.9989 24.7008ZM23.9989 12.7008C23.1484 12.7008 22.3171 12.9529 21.61 13.4254C20.9028 13.8979 20.3517 14.5695 20.0262 15.3552C19.7008 16.141 19.6156 17.0055 19.7815 17.8396C19.9474 18.6737 20.357 19.44 20.9584 20.0414C21.5597 20.6428 22.3259 21.0522 23.16 21.2182C23.9941 21.3841 24.8587 21.2989 25.6444 20.9734C26.4301 20.648 27.1017 20.0969 27.5742 19.3898C28.0467 18.6827 28.2988 17.8512 28.2988 17.0008C28.2962 15.8611 27.8423 14.769 27.0365 13.9632C26.2307 13.1573 25.1385 12.7035 23.9989 12.7008Z" fill="current"/>
<path d="M37.7281 37.0007H34.3281V31.6007C34.3281 31.0968 34.1279 30.6135 33.7716 30.2572C33.4153 29.9009 32.932 29.7008 32.4281 29.7008H15.6282C15.3787 29.7008 15.1315 29.7499 14.901 29.8453C14.6705 29.9408 14.4611 30.0808 14.2847 30.2572C14.1082 30.4336 13.9683 30.6431 13.8728 30.8737C13.7773 31.1042 13.7281 31.3512 13.7281 31.6007V37.0007H10.3281V31.6007C10.3281 30.1951 10.8866 28.8471 11.8805 27.8531C12.8744 26.8592 14.2225 26.3008 15.6282 26.3008H32.4281C33.8337 26.3008 35.1818 26.8592 36.1758 27.8531C37.1697 28.8471 37.7281 30.1951 37.7281 31.6007V37.0007Z" fill="current"/>
</svg>
