<svg width="current" height="current" viewBox="0 0 48 48" fill="none" xmlns="http://www.w3.org/2000/svg">
<path d="M23.9998 32.6998C19.1998 32.6998 15.2998 28.7998 15.2998 23.9998C15.2998 19.1998 19.1998 15.2998 23.9998 15.2998C28.7998 15.2998 32.6998 19.1998 32.6998 23.9998C32.6998 28.7998 28.7998 32.6998 23.9998 32.6998ZM23.9998 18.6998C21.0798 18.6998 18.6998 21.0798 18.6998 23.9998C18.6998 26.9198 21.0798 29.2998 23.9998 29.2998C26.9198 29.2998 29.2998 26.9198 29.2998 23.9998C29.2998 21.0798 26.9198 18.6998 23.9998 18.6998Z" fill="current"/>
<path d="M25.6998 7.49902H22.2998V12.999H25.6998V7.49902Z" fill="current"/>
<path d="M25.6998 34.999H22.2998V40.499H25.6998V34.999Z" fill="current"/>
<path d="M34.4643 11.1363L30.5752 15.0254L32.9794 17.4296L36.8684 13.5405L34.4643 11.1363Z" fill="current"/>
<path d="M15.0239 30.5689L11.1348 34.458L13.5389 36.8622L17.428 32.9731L15.0239 30.5689Z" fill="current"/>
<path d="M40.5 22.2998H35V25.6998H40.5V22.2998Z" fill="current"/>
<path d="M13 22.2998H7.5V25.6998H13V22.2998Z" fill="current"/>
<path d="M32.975 30.5749L30.5713 32.9795L34.4611 36.8679L36.8648 34.4633L32.975 30.5749Z" fill="current"/>
<path d="M13.5424 11.1296L11.1387 13.5342L15.0284 17.4226L17.4322 15.018L13.5424 11.1296Z" fill="current"/>
</svg>
