<svg width="current" height="current" viewBox="0 0 48 48" fill="none" xmlns="http://www.w3.org/2000/svg">
<path d="M32.8998 40.1998H21.0998C18.1798 40.1998 15.7998 37.8198 15.7998 34.8998V19.0998C15.7998 16.1798 18.1798 13.7998 21.0998 13.7998H32.8998C35.8198 13.7998 38.1998 16.1798 38.1998 19.0998V34.8998C38.1998 37.8198 35.8198 40.1998 32.8998 40.1998ZM21.0998 17.1998C20.0498 17.1998 19.1998 18.0498 19.1998 19.0998V34.8998C19.1998 35.9498 20.0498 36.7998 21.0998 36.7998H32.8998C33.9498 36.7998 34.7998 35.9498 34.7998 34.8998V19.0998C34.7998 18.0498 33.9498 17.1998 32.8998 17.1998H21.0998Z" fill="current"/>
<path d="M13.1998 32.4998H9.7998V13.0998C9.7998 10.1798 12.1798 7.7998 15.0998 7.7998H30.4998V11.1998H15.0998C14.0498 11.1998 13.1998 12.0498 13.1998 13.0998V32.4998Z" fill="current"/>
</svg>
