<svg width="current" height="current" viewBox="0 0 48 48" fill="none" xmlns="http://www.w3.org/2000/svg">
<path d="M39.2703 17.2195C38.2203 13.8295 35.3003 11.3095 31.8503 10.7895C28.9303 10.3495 26.0503 11.2995 24.0003 13.2795C21.9503 11.3095 19.0603 10.3495 16.1503 10.7895C12.7003 11.3095 9.79028 13.8395 8.73028 17.2195C7.67028 20.6295 8.59028 23.9595 11.3903 26.8595C12.3103 27.8195 17.9003 33.4095 20.2503 35.7695C21.2503 36.7695 22.5803 37.3195 24.0003 37.3195C25.4203 37.3195 26.7503 36.7695 27.7503 35.7695C31.3403 32.1695 35.8003 27.6995 36.6103 26.8595C39.4103 23.9595 40.3303 20.6295 39.2703 17.2195ZM34.1603 24.4995C33.5303 25.1495 30.4803 28.2195 25.3303 33.3695C24.6103 34.0895 23.3703 34.0895 22.6503 33.3695C20.3003 31.0195 14.7303 25.4395 13.8203 24.4995C11.8803 22.4995 11.2703 20.4495 11.9603 18.2295C12.6303 16.0795 14.4703 14.4795 16.6403 14.1495C16.9503 14.0995 17.2603 14.0795 17.5703 14.0795C19.6003 14.0795 21.4503 15.0895 22.5503 16.8495C22.8603 17.3495 23.4103 17.6495 23.9903 17.6495C24.5703 17.6495 25.1203 17.3495 25.4303 16.8495C26.7003 14.8195 28.9603 13.7895 31.3303 14.1495C33.5003 14.4795 35.3403 16.0795 36.0103 18.2295C36.7003 20.4395 36.0903 22.4895 34.1503 24.4995H34.1603Z" fill="current"/>
<path d="M25.8003 18.4995H22.2003V22.1995H18.5003V25.7995H22.2003V29.4995H25.8003V25.7995H29.5003V22.1995H25.8003V18.4995Z" fill="current"/>
</svg>
