<svg width="current" height="current" viewBox="0 0 48 48" fill="none" xmlns="http://www.w3.org/2000/svg">
<path d="M23.9994 27.2998C25.8219 27.2998 27.2994 25.8223 27.2994 23.9998C27.2994 22.1773 25.8219 20.6998 23.9994 20.6998C22.1768 20.6998 20.6994 22.1773 20.6994 23.9998C20.6994 25.8223 22.1768 27.2998 23.9994 27.2998Z" fill="current"/>
<path d="M39.4694 22.8798C38.4694 20.5198 34.3794 12.7998 23.9994 12.7998C15.7494 12.7998 10.5994 18.0098 8.52938 22.8798C8.21937 23.5998 8.21937 24.3998 8.52938 25.1298C10.5994 29.9998 15.7494 35.2098 23.9994 35.2098C34.3894 35.2098 38.4694 27.4998 39.4694 25.1298C39.7694 24.4098 39.7694 23.6098 39.4694 22.8898V22.8798ZM17.2994 23.9998C17.2994 20.3098 20.3094 17.2998 23.9994 17.2998C27.6894 17.2998 30.6994 20.3098 30.6994 23.9998C30.6994 27.6898 27.6894 30.6998 23.9994 30.6998C20.3094 30.6998 17.2994 27.6898 17.2994 23.9998Z" fill="current"/>
</svg>
