<svg width="current" height="current" viewBox="0 0 48 48" fill="none" xmlns="http://www.w3.org/2000/svg">
<path d="M24.0008 40.7003C14.7908 40.7003 7.30078 33.2103 7.30078 24.0003C7.30078 14.7903 14.7908 7.30029 24.0008 7.30029C33.2108 7.30029 40.7008 14.7903 40.7008 24.0003C40.7008 33.2103 33.2108 40.7003 24.0008 40.7003ZM24.0008 10.7003C16.6708 10.7003 10.7008 16.6703 10.7008 24.0003C10.7008 31.3303 16.6708 37.3003 24.0008 37.3003C31.3308 37.3003 37.3008 31.3303 37.3008 24.0003C37.3008 16.6703 31.3308 10.7003 24.0008 10.7003Z" fill="current"/>
<path d="M30.4208 22.9703L20.8208 17.1703C20.0208 16.6903 19.0008 17.2603 19.0008 18.2003V29.8003C19.0008 30.7303 20.0208 31.3103 20.8208 30.8303L30.4208 25.0303C31.1908 24.5603 31.1908 23.4403 30.4208 22.9803V22.9703Z" fill="current"/>
</svg>
