<svg width="24" height="24" viewBox="0 0 24 24" fill="none" xmlns="http://www.w3.org/2000/svg">
<path d="M16.7004 10.1504H15.3504V7.30035C15.3504 6.59753 15.0712 5.92355 14.5742 5.42657C14.0772 4.9296 13.4032 4.65039 12.7004 4.65039H7.30038C6.59756 4.65039 5.92355 4.9296 5.42657 5.42657C4.9296 5.92355 4.65039 6.59753 4.65039 7.30035V16.7004C4.65171 17.4028 4.93132 18.0761 5.42801 18.5728C5.92469 19.0694 6.59797 19.3491 7.30038 19.3504H16.7004C17.4028 19.3491 18.0761 19.0694 18.5728 18.5728C19.0695 18.0761 19.3491 17.4028 19.3504 16.7004V12.8004C19.3504 12.0975 19.0712 11.4235 18.5742 10.9266C18.0772 10.4296 17.4032 10.1504 16.7004 10.1504ZM6.3504 16.7004V7.30035C6.3504 7.0484 6.45047 6.80676 6.62863 6.6286C6.80679 6.45044 7.04843 6.3504 7.30038 6.3504H12.7004C12.9524 6.3504 13.194 6.45044 13.3722 6.6286C13.5503 6.80676 13.6504 7.0484 13.6504 7.30035V17.6504H10.8504V15.0004H9.15039V17.6504H7.30038C7.04843 17.6504 6.80679 17.5503 6.62863 17.3721C6.45047 17.194 6.3504 16.9523 6.3504 16.7004ZM17.6504 16.7004C17.6504 16.8251 17.6258 16.9486 17.5781 17.0639C17.5304 17.1792 17.4604 17.2839 17.3722 17.3721C17.2839 17.4603 17.1792 17.5303 17.0639 17.5781C16.9487 17.6258 16.8252 17.6504 16.7004 17.6504H15.3504V11.8504H16.7004C16.9524 11.8504 17.194 11.9504 17.3722 12.1286C17.5503 12.3068 17.6504 12.5484 17.6504 12.8004V16.7004Z"/>
<path d="M11.75 7.90039H8.25V9.6004H11.75V7.90039Z" />
<path d="M11.75 11.1504H8.25V12.8504H11.75V11.1504Z" />
</svg>