<svg width="current" height="current" viewBox="0 0 48 48" fill="none" xmlns="http://www.w3.org/2000/svg">
<path d="M22.7691 22.5H19.3691V30.5H22.7691V22.5Z" fill="current"/>
<path d="M28.7691 22.5H25.3691V30.5H28.7691V22.5Z" fill="current"/>
<path d="M37.07 14.3008H30.07V12.2007C30.0674 11.4324 29.761 10.6964 29.2177 10.1531C28.6744 9.60979 27.9383 9.30342 27.17 9.30078H20.9C20.1309 9.30078 19.3933 9.60629 18.8494 10.1501C18.3055 10.694 18 11.4316 18 12.2007V14.3008H11V17.7007H12.3V33.4009C12.3026 34.8057 12.8619 36.1521 13.8553 37.1455C14.8486 38.1389 16.1952 38.698 17.6 38.7007H30.4C31.8048 38.698 33.1514 38.1389 34.1447 37.1455C35.1381 36.1521 35.6974 34.8057 35.7 33.4009V17.7007H37L37.07 14.3008ZM21.44 12.7007H26.71V14.3008H21.44V12.7007ZM32.37 33.4009C32.37 33.9048 32.1698 34.3881 31.8135 34.7444C31.4572 35.1007 30.9739 35.3008 30.47 35.3008H17.67C17.1661 35.3008 16.6828 35.1007 16.3265 34.7444C15.9702 34.3881 15.77 33.9048 15.77 33.4009V17.7007H32.37V33.4009Z" fill="current"/>
</svg>
