<svg width="current" height="current" viewBox="0 0 48 48" fill="none" xmlns="http://www.w3.org/2000/svg">
<path d="M23.9999 7.30078C20.6969 7.30078 17.4681 8.28021 14.7218 10.1152C11.9755 11.9503 9.835 14.5585 8.57102 17.61C7.30703 20.6615 6.97633 24.0193 7.6207 27.2588C8.26507 30.4983 9.8556 33.4739 12.1911 35.8094C14.5267 38.145 17.5023 39.7355 20.7418 40.3799C23.9813 41.0243 27.3391 40.6935 30.3906 39.4296C33.4421 38.1656 36.0503 36.0251 37.8853 33.2788C39.7204 30.5325 40.6998 27.3037 40.6998 24.0007C40.6945 19.5732 38.9334 15.3286 35.8027 12.1979C32.672 9.06717 28.4273 7.30607 23.9999 7.30078ZM25.6998 32.3008H22.3498V29.3008H25.7499L25.6998 32.3008ZM26.1499 25.2407C26.0051 25.3359 25.8875 25.4671 25.8086 25.6213C25.7297 25.7756 25.6921 25.9476 25.6998 26.1207V27.1207H22.3498V26.1207C22.3274 25.2897 22.5459 24.47 22.9789 23.7603C23.4118 23.0505 24.0406 22.4811 24.7898 22.1207C24.9785 22.0658 25.1545 21.9739 25.3073 21.8502C25.4602 21.7266 25.5868 21.5737 25.6799 21.4005C25.773 21.2274 25.8307 21.0374 25.8496 20.8417C25.8684 20.646 25.8481 20.4485 25.7898 20.2607C25.7098 19.9679 25.5554 19.7008 25.3416 19.4852C25.1279 19.2697 24.862 19.1132 24.5698 19.0308C24.2957 18.9545 24.0077 18.9428 23.7284 18.9966C23.449 19.0504 23.1859 19.1682 22.9598 19.3408C22.7407 19.509 22.5636 19.7255 22.4421 19.9736C22.3207 20.2217 22.2583 20.4945 22.2599 20.7708H18.8598C18.8559 19.9768 19.0341 19.1925 19.3808 18.4783C19.7276 17.764 20.2335 17.1388 20.8598 16.6508C21.4985 16.1619 22.2406 15.8258 23.0293 15.6681C23.8179 15.5104 24.6323 15.5351 25.4099 15.7407C26.2885 15.9771 27.0894 16.4408 27.7319 17.0851C28.3744 17.7293 28.8358 18.5315 29.0698 19.4108C29.3807 20.5647 29.2547 21.7928 28.7158 22.8595C28.1769 23.9262 27.2632 24.7564 26.1499 25.1908V25.2407Z" fill="current"/>
</svg>
