<svg width="current" height="current" viewBox="0 0 48 48" fill="none" xmlns="http://www.w3.org/2000/svg">
<path d="M32.4008 39.7001H15.6008C12.6808 39.7001 10.3008 37.3201 10.3008 34.4001V13.6C10.3008 10.68 12.6808 8.30005 15.6008 8.30005H32.4008C35.3208 8.30005 37.7008 10.68 37.7008 13.6V34.4001C37.7008 37.3201 35.3208 39.7001 32.4008 39.7001ZM15.6008 11.7C14.5508 11.7 13.7008 12.55 13.7008 13.6V34.4001C13.7008 35.4501 14.5508 36.3 15.6008 36.3H32.4008C33.4508 36.3 34.3008 35.4501 34.3008 34.4001V13.6C34.3008 12.55 33.4508 11.7 32.4008 11.7H15.6008Z" fill="current"/>
<path d="M25.7008 15.75H22.3008V26.25H25.7008V15.75Z" fill="current"/>
<path d="M25.7008 29.25H22.3008V32.25H25.7008V29.25Z" fill="current"/>
</svg>
