<svg width="current" height="current" viewBox="0 0 48 48" fill="none" xmlns="http://www.w3.org/2000/svg">
<path d="M34.2002 27.7986L32.0602 25.6586V22.6386C32.0602 21.6986 31.3002 20.9386 30.3602 20.9386H27.3402L26.8002 20.3986L31.8102 17.6486C32.3502 17.3486 32.6902 16.7786 32.6902 16.1586V11.2086C32.6902 9.60859 31.3902 8.30859 29.7902 8.30859H18.1902C16.5902 8.30859 15.2902 9.60859 15.2902 11.2086V16.1586C15.2902 16.7786 15.6302 17.3486 16.1702 17.6486L21.1802 20.3986L20.6402 20.9386H17.6202C16.6802 20.9386 15.9202 21.6986 15.9202 22.6386V25.6586L13.7802 27.7986C13.1202 28.4586 13.1202 29.5386 13.7802 30.1986L15.9202 32.3386V35.3586C15.9202 36.2986 16.6802 37.0586 17.6202 37.0586H20.6402L22.7802 39.1986C23.1102 39.5286 23.5502 39.6986 23.9802 39.6986C24.4102 39.6986 24.8502 39.5286 25.1802 39.1986L27.3202 37.0586H30.3402C31.2802 37.0586 32.0402 36.2986 32.0402 35.3586V32.3386L34.1802 30.1986C34.8402 29.5386 34.8402 28.4586 34.1802 27.7986H34.2002ZM29.3002 15.1486L25.7002 17.1286V11.6986H29.3002V15.1486ZM18.7002 11.6986H22.3002V17.1286L18.7002 15.1486V11.6986ZM29.1602 30.4286C28.8402 30.7486 28.6602 31.1786 28.6602 31.6286V33.6586H26.6302C26.1802 33.6586 25.7502 33.8386 25.4302 34.1586L24.0002 35.5886L22.5702 34.1586C22.2502 33.8386 21.8202 33.6586 21.3702 33.6586H19.3402V31.6286C19.3402 31.1786 19.1602 30.7486 18.8402 30.4286L17.4102 28.9986L18.8402 27.5686C19.1602 27.2486 19.3402 26.8186 19.3402 26.3686V24.3386H21.3702C21.8202 24.3386 22.2502 24.1586 22.5702 23.8386L24.0002 22.4086L25.4302 23.8386C25.7502 24.1586 26.1802 24.3386 26.6302 24.3386H28.6602V26.3686C28.6602 26.8186 28.8402 27.2486 29.1602 27.5686L30.5902 28.9986L29.1602 30.4286Z" fill="current"/>
<path d="M22.8002 27.7986C22.1402 28.4586 22.1402 29.5386 22.8002 30.1986C23.4602 30.8586 24.5402 30.8586 25.2002 30.1986C25.8602 29.5386 25.8602 28.4586 25.2002 27.7986C24.5402 27.1386 23.4602 27.1386 22.8002 27.7986Z" fill="current"/>
</svg>
