<svg width="current" height="current" viewBox="0 0 48 48" fill="none" xmlns="http://www.w3.org/2000/svg">
<path d="M33.3998 15.3H30.1998V12.2C30.1998 10.6 28.8998 9.30005 27.2998 9.30005H20.6998C19.0998 9.30005 17.7998 10.6 17.7998 12.2V15.3H14.5998C11.6798 15.3 9.2998 17.68 9.2998 20.6V22.3H38.6998V20.6C38.6998 17.68 36.3198 15.3 33.3998 15.3ZM21.1998 12.7H26.7998V15.3H21.1998V12.7Z" fill="current"/>
<path d="M25.6998 29H22.2998V25.7001H9.2998V33.4001C9.2998 36.3201 11.6798 38.7001 14.5998 38.7001H33.3998C36.3198 38.7001 38.6998 36.3201 38.6998 33.4001V25.7001H25.6998V29Z" fill="current"/>
</svg>
