<svg width="current" height="current" viewBox="0 0 48 48" fill="none" xmlns="http://www.w3.org/2000/svg">
<path d="M12.0432 30.5953C11.6232 31.0153 11.0432 31.8453 10.1432 34.5953C10.0012 35.0302 9.96415 35.4924 10.035 35.9443C10.1058 36.3962 10.2825 36.8249 10.5507 37.1954C10.8188 37.566 11.1708 37.8679 11.5779 38.0764C11.9851 38.2849 12.4358 38.3942 12.8932 38.3953C13.2026 38.395 13.51 38.3444 13.8032 38.2454C16.5032 37.3654 17.3432 36.7653 17.8032 36.3453C18.5604 35.5868 18.9852 34.5586 18.9843 33.4868C18.9834 32.415 18.5567 31.3874 17.7982 30.6303C17.0396 29.8731 16.0114 29.4483 14.9396 29.4492C13.8679 29.4502 12.8404 29.8767 12.0832 30.6353L12.0432 30.5953ZM15.3732 33.8953C14.8533 34.2135 14.2956 34.4655 13.7132 34.6453C13.8852 34.0647 14.1341 33.5099 14.4532 32.9954C14.5135 32.9236 14.5878 32.8648 14.6715 32.8226C14.7553 32.7805 14.8467 32.7559 14.9403 32.7502C15.0339 32.7446 15.1276 32.7581 15.2158 32.7899C15.304 32.8217 15.3847 32.8712 15.4532 32.9353C15.5653 33.0751 15.6195 33.2527 15.6046 33.4313C15.5897 33.6099 15.5069 33.7759 15.3732 33.8953Z" fill="current"/>
<path d="M34.9324 10.0056L33.8325 10.2257C29.7247 11.0374 25.8646 12.8012 22.5624 15.3756C20.942 14.3887 19.0371 13.9745 17.1531 14.1994C15.2691 14.4242 13.5151 15.2752 12.1724 16.6158L10.9025 17.8857C10.5399 18.2436 10.2784 18.6912 10.1445 19.1828C10.0106 19.6744 10.0091 20.1927 10.1401 20.6851C10.271 21.1775 10.5298 21.6265 10.8903 21.9866C11.2507 22.3467 11.6999 22.6052 12.1924 22.7358L15.6924 23.7358C15.6025 24.1976 15.6276 24.6744 15.7654 25.1243C15.9031 25.5742 16.1494 25.9834 16.4825 26.3157L22.0925 31.9257C22.6242 32.4557 23.3418 32.757 24.0925 32.7657C24.2741 32.7571 24.4547 32.7337 24.6324 32.6957L25.6324 36.2157C25.8013 36.8312 26.1679 37.3741 26.6757 37.7608C27.1834 38.1475 27.8042 38.3566 28.4424 38.3557C29.1939 38.3413 29.9106 38.0366 30.4424 37.5056L31.7125 36.2358C33.0515 34.8874 33.8994 33.1288 34.1206 31.2415C34.3418 29.3541 33.9234 27.4471 32.9324 25.8257C35.5084 22.527 37.2756 18.6706 38.0925 14.5657L38.3124 13.4657C38.4055 12.998 38.3817 12.5145 38.2433 12.0581C38.1048 11.6018 37.856 11.1866 37.5188 10.8494C37.1816 10.5122 36.7664 10.2634 36.31 10.1249C35.8536 9.98647 35.3702 9.96267 34.9025 10.0557L34.9324 10.0056ZM14.5724 19.0056C15.25 18.3317 16.1039 17.8625 17.0361 17.652C17.9683 17.4415 18.941 17.4983 19.8425 17.8157C18.9833 18.7186 18.1849 19.6773 17.4525 20.6857L13.9125 19.6857L14.5724 19.0056ZM29.3325 33.7657L28.6724 34.4357L27.6724 30.8857C28.6609 30.1484 29.5997 29.3468 30.4825 28.4858C30.8114 29.3859 30.878 30.3609 30.6744 31.2974C30.4708 32.2339 30.0054 33.0933 29.3325 33.7757V33.7657ZM34.7925 13.8457C34.1649 16.9864 32.9018 19.9654 31.0806 22.6C29.2595 25.2346 26.9188 27.4689 24.2025 29.1657L19.2025 24.1657L19.5925 23.5457C21.2932 20.9739 23.4879 18.7655 26.0492 17.0489C28.6104 15.3322 31.4872 14.1414 34.5124 13.5457L34.8824 13.4657L34.7925 13.8457Z" fill="current"/>
<path d="M28.4535 17.3262C27.9393 17.3262 27.4366 17.4786 27.0091 17.7643C26.5815 18.05 26.2482 18.4561 26.0514 18.9312C25.8546 19.4063 25.8032 19.929 25.9035 20.4334C26.0038 20.9377 26.2514 21.4011 26.615 21.7647C26.9786 22.1283 27.4419 22.3759 27.9463 22.4762C28.4506 22.5765 28.9734 22.5251 29.4485 22.3283C29.9236 22.1315 30.3296 21.7982 30.6153 21.3706C30.901 20.9431 31.0535 20.4404 31.0535 19.9262C31.0548 19.5844 30.9885 19.2456 30.8583 18.9296C30.7281 18.6135 30.5367 18.3264 30.295 18.0847C30.0533 17.843 29.7661 17.6516 29.45 17.5214C29.134 17.3912 28.7953 17.3249 28.4535 17.3262Z" fill="current"/>
</svg>
