<svg width="current" height="current" viewBox="0 0 48 48" fill="none" xmlns="http://www.w3.org/2000/svg">
<path d="M34.2303 18.1698L36.5803 15.8198L34.1803 13.4198L31.7603 15.8398C30.0103 14.5698 27.9503 13.7098 25.7103 13.4198V11.6998H28.0103V8.2998H20.0103V11.6998H22.3103V13.4198C20.0703 13.7098 18.0003 14.5698 16.2603 15.8398L13.8403 13.4198L11.4403 15.8198L13.7903 18.1698C11.9403 20.4398 10.8203 23.3398 10.8203 26.4998C10.8203 33.7798 16.7403 39.6998 24.0203 39.6998C31.3003 39.6998 37.2203 33.7798 37.2203 26.4998C37.2203 23.3398 36.1003 20.4498 34.2503 18.1698H34.2303ZM16.8003 25.9998H20.2003V30.9998H16.8003V25.9998ZM22.3003 20.9998H25.7003V30.9998H22.3003V20.9998ZM27.8003 23.9998H31.2003V30.9998H27.8003V23.9998Z" fill="current"/>
</svg>
