<svg width="current" height="current" viewBox="0 0 24 24" fill="none" xmlns="http://www.w3.org/2000/svg">
<path d="M19.1004 17.9004L16.4704 15.2704C17.3304 14.1554 17.8504 12.7654 17.8504 11.2504C17.8504 7.61039 14.8904 4.65039 11.2504 4.65039C7.61039 4.65039 4.65039 7.61039 4.65039 11.2504C4.65039 14.8904 7.61039 17.8504 11.2504 17.8504C12.7654 17.8504 14.1554 17.3304 15.2704 16.4704L17.9004 19.1004L19.1004 17.9004ZM11.2504 16.1504C8.55039 16.1504 6.35039 13.9504 6.35039 11.2504C6.35039 8.55039 8.55039 6.35039 11.2504 6.35039C13.9504 6.35039 16.1504 8.55039 16.1504 11.2504C16.1504 13.9504 13.9504 16.1504 11.2504 16.1504Z" fill="current"/>
<path d="M9.35039 11.0004H7.65039V13.5004H9.35039V11.0004Z" fill="current"/>
<path d="M12.1004 8.50039H10.4004V13.5004H12.1004V8.50039Z" fill="current"/>
<path d="M14.8504 10.0004H13.1504V13.5004H14.8504V10.0004Z" fill="current"/>
</svg>
