<svg width="current" height="current" viewBox="0 0 48 48" fill="none" xmlns="http://www.w3.org/2000/svg">
<path d="M24.0008 40.6988C14.7908 40.6988 7.30078 33.2088 7.30078 23.9988C7.30078 14.7888 14.7908 7.29883 24.0008 7.29883C33.2108 7.29883 40.7008 14.7888 40.7008 23.9988C40.7008 33.2088 33.2108 40.6988 24.0008 40.6988ZM24.0008 10.6988C16.6708 10.6988 10.7008 16.6688 10.7008 23.9988C10.7008 31.3288 16.6708 37.2988 24.0008 37.2988C31.3308 37.2988 37.3008 31.3288 37.3008 23.9988C37.3008 16.6688 31.3308 10.6988 24.0008 10.6988Z" fill="current"/>
<path d="M29.5008 22.8988C30.8815 22.8988 32.0008 21.7795 32.0008 20.3988C32.0008 19.0181 30.8815 17.8988 29.5008 17.8988C28.1201 17.8988 27.0008 19.0181 27.0008 20.3988C27.0008 21.7795 28.1201 22.8988 29.5008 22.8988Z" fill="current"/>
<path d="M18.5008 22.8988C19.8815 22.8988 21.0008 21.7795 21.0008 20.3988C21.0008 19.0181 19.8815 17.8988 18.5008 17.8988C17.1201 17.8988 16.0008 19.0181 16.0008 20.3988C16.0008 21.7795 17.1201 22.8988 18.5008 22.8988Z" fill="current"/>
<path d="M30.0008 27.6988H18.0008V31.0988H30.0008V27.6988Z" fill="current"/>
</svg>
