<svg width="current" height="current" viewBox="0 0 48 48" fill="none" xmlns="http://www.w3.org/2000/svg">
<path d="M24.0008 7.30078C20.6978 7.30078 17.4691 8.28021 14.7228 10.1152C11.9765 11.9503 9.83599 14.5583 8.57201 17.6099C7.30802 20.6614 6.9773 24.0193 7.62167 27.2588C8.26605 30.4983 9.85657 33.4738 12.1921 35.8093C14.5276 38.1449 17.5033 39.7355 20.7428 40.3799C23.9823 41.0243 27.3401 40.6934 30.3916 39.4294C33.4431 38.1655 36.0513 36.0251 37.8863 33.2788C39.7214 30.5325 40.7008 27.3037 40.7008 24.0007C40.6955 19.5732 38.9343 15.3287 35.8036 12.198C32.6729 9.06729 28.4283 7.30607 24.0008 7.30078ZM24.0008 37.3008C21.3703 37.3008 18.7989 36.5207 16.6117 35.0593C14.4245 33.5979 12.7198 31.5206 11.7132 29.0903C10.7065 26.6601 10.4432 23.986 10.9563 21.406C11.4695 18.8261 12.7362 16.4562 14.5963 14.5962C16.4563 12.7362 18.8261 11.4695 21.4061 10.9563C23.986 10.4431 26.6602 10.7065 29.0905 11.7131C31.5207 12.7198 33.5979 14.4244 35.0593 16.6116C36.5208 18.7987 37.3008 21.3702 37.3008 24.0007C37.2955 27.5265 35.8925 30.9063 33.3995 33.3994C30.9064 35.8925 27.5265 37.2955 24.0008 37.3008Z" fill="current"/>
<path d="M29.1699 16.4219L23.9999 21.6019L18.8299 16.4219L16.4199 18.8319L21.5999 24.0018L16.4199 29.1719L18.8299 31.5819L23.9999 26.4019L29.1699 31.5819L31.5799 29.1719L26.4099 24.0018L31.5799 18.8319L29.1699 16.4219Z" fill="current"/>
</svg>
