<svg width="current" height="current" viewBox="0 0 48 48" fill="none" xmlns="http://www.w3.org/2000/svg">
<path d="M28.7988 29.4303H19.1988C18.6313 29.4303 18.0762 29.2637 17.6024 28.9513C17.1286 28.6389 16.7569 28.1943 16.5333 27.6726C16.3097 27.151 16.2442 26.5752 16.3447 26.0166C16.4452 25.458 16.7074 24.9413 17.0988 24.5303L21.8989 19.4702C22.1701 19.1863 22.4959 18.9602 22.8568 18.8055C23.2177 18.6509 23.6062 18.5709 23.9989 18.5703C24.393 18.5707 24.783 18.6505 25.1456 18.8052C25.5081 18.9598 25.8358 19.186 26.1088 19.4702L30.8989 24.5303C31.2903 24.9413 31.5525 25.458 31.653 26.0166C31.7536 26.5752 31.6879 27.151 31.4643 27.6726C31.2407 28.1943 30.869 28.6389 30.3952 28.9513C29.9214 29.2637 29.3663 29.4303 28.7988 29.4303ZM20.3689 26.0303H27.6389L23.9989 22.2003L20.3689 26.0303Z" fill="current"/>
</svg>
