<svg width="current" height="current" viewBox="0 0 48 48" fill="none" xmlns="http://www.w3.org/2000/svg">
<path d="M36.8525 11.1522C36.575 10.8717 36.2426 10.6514 35.8761 10.5052C35.5096 10.3589 35.1169 10.2898 34.7225 10.3022L26.0425 10.5121L26.1225 13.9122L31.8225 13.7722L13.7725 31.7722L13.9125 26.0722L10.5125 25.9921L10.3025 34.6822C10.2891 35.0714 10.3541 35.4592 10.4939 35.8227C10.6336 36.1862 10.845 36.5178 11.1157 36.7978C11.3863 37.0778 11.7106 37.3003 12.0691 37.4522C12.4276 37.6042 12.8131 37.6824 13.2025 37.6822H13.2725L21.9525 37.4622L21.8725 34.0722L16.1725 34.2022L34.1725 16.2022L34.0325 21.9022L37.4325 21.9821L37.6425 13.3022C37.6637 12.909 37.6046 12.5155 37.4688 12.1458C37.3329 11.7762 37.1233 11.4381 36.8525 11.1522Z" fill="current"/>
</svg>
