<svg width="current" height="current" viewBox="0 0 48 48" fill="none" xmlns="http://www.w3.org/2000/svg">
<path d="M38.5908 15.84C38.0908 13.43 35.9508 11.61 33.4008 11.61H32.2008V9.96997H28.8008V11.61H19.2008V9.96997H15.8008V11.61H14.6008C11.6808 11.61 9.30078 13.99 9.30078 16.91V32.37C9.30078 35.29 11.6808 37.67 14.6008 37.67H33.4008C36.3208 37.67 38.7008 35.29 38.7008 32.37V16.91C38.7008 16.54 38.6608 16.19 38.5908 15.84ZM33.4008 34.27H14.6008C13.5508 34.27 12.7008 33.42 12.7008 32.37V21.91H35.3008V32.37C35.3008 33.42 34.4508 34.27 33.4008 34.27Z" fill="current"/>
</svg>
