<svg width="current" height="current" viewBox="0 0 48 48" fill="none" xmlns="http://www.w3.org/2000/svg">
<path d="M33.4008 9.30078H12.2007C11.4316 9.30078 10.694 9.60629 10.1501 10.1501C9.60629 10.694 9.30078 11.4317 9.30078 12.2008V35.8008C9.30078 36.5699 9.60629 37.3075 10.1501 37.8513C10.694 38.3952 11.4316 38.7008 12.2007 38.7008H33.4008C34.8056 38.6982 36.1521 38.1389 37.1455 37.1455C38.1389 36.1521 38.6981 34.8056 38.7007 33.4008V14.6007C38.7007 13.1951 38.1424 11.8471 37.1484 10.8531C36.1545 9.85921 34.8064 9.30078 33.4008 9.30078ZM22.3008 12.7008V17.7008L21.3008 17.1608C21.0528 17.0294 20.7764 16.9607 20.4958 16.9607C20.2152 16.9607 19.9388 17.0294 19.6908 17.1608L18.6908 17.7008V12.7008H22.3008ZM12.7007 12.7008H15.3508V18.5808C15.3494 19.0825 15.4787 19.576 15.726 20.0126C15.9732 20.4492 16.3298 20.8139 16.7607 21.0708C17.2091 21.3456 17.7249 21.4909 18.2508 21.4907C18.7293 21.4885 19.1998 21.3683 19.6208 21.1407L20.5508 20.6407L21.4708 21.1407C21.9136 21.3771 22.4101 21.4948 22.9119 21.4825C23.4137 21.4703 23.9038 21.3285 24.3345 21.0708C24.7653 20.8131 25.1221 20.4484 25.3702 20.0121C25.6184 19.5758 25.7495 19.0828 25.7508 18.5808V12.7008H29.3508V35.3008H12.7508L12.7007 12.7008ZM35.3008 33.4008C35.2982 33.9039 35.0971 34.3856 34.7414 34.7413C34.3856 35.0971 33.9039 35.2982 33.4008 35.3008H32.7007V12.7008H33.4008C33.9039 12.7034 34.3856 12.9044 34.7414 13.2601C35.0971 13.6159 35.2982 14.0976 35.3008 14.6007V33.4008Z" fill="current"/>
</svg>
