<svg width="current" height="current" viewBox="0 0 48 48" fill="none" xmlns="http://www.w3.org/2000/svg">
<path d="M33.4008 9.30078H14.6008C11.6808 9.30078 9.30078 11.6808 9.30078 14.6008V33.4008C9.30078 36.3208 11.6808 38.7008 14.6008 38.7008H33.4008C36.3208 38.7008 38.7008 36.3208 38.7008 33.4008V14.6008C38.7008 11.6808 36.3208 9.30078 33.4008 9.30078ZM33.4008 31.2708C32.8708 32.1708 31.9408 32.7008 30.9008 32.7008H17.3008C16.2308 32.7008 15.2508 32.1108 14.7408 31.1708C14.2408 30.2208 14.2908 29.0808 14.8808 28.1908L16.6108 25.5908C17.1508 24.7808 18.0508 24.3008 19.0208 24.3008C19.9908 24.3008 20.8908 24.7808 21.4308 25.5908L22.8608 27.7308L25.4208 23.1208C25.9308 22.2008 26.9008 21.6308 27.9608 21.6308C29.0208 21.6308 29.9808 22.2008 30.5008 23.1208L33.4308 28.3908C33.9308 29.3008 33.9208 30.3708 33.3908 31.2708H33.4008Z" fill="current"/>
</svg>
