<svg width="current" height="current" viewBox="0 0 48 48" fill="none" xmlns="http://www.w3.org/2000/svg">
<path d="M23.9988 40.6999C20.6959 40.6999 17.4671 39.7205 14.7208 37.8855C11.9745 36.0505 9.83403 33.4423 8.57005 30.3907C7.30606 27.3392 6.97535 23.9814 7.61972 20.7419C8.26409 17.5024 9.85462 14.5268 12.1902 12.1913C14.5257 9.85571 17.5013 8.26519 20.7408 7.62082C23.9803 6.97645 27.3381 7.30716 30.3897 8.57115C33.4412 9.83513 36.0494 11.9756 37.8844 14.7219C39.7194 17.4682 40.6988 20.697 40.6988 23.9999C40.6935 28.4274 38.9324 32.6721 35.8017 35.8028C32.671 38.9335 28.4263 40.6946 23.9988 40.6999ZM23.9988 10.6999C21.3683 10.6999 18.7969 11.48 16.6098 12.9414C14.4226 14.4028 12.7179 16.48 11.7112 18.9102C10.7046 21.3405 10.4412 24.0147 10.9544 26.5946C11.4676 29.1746 12.7343 31.5444 14.5943 33.4045C16.4544 35.2645 18.8242 36.5312 21.4041 37.0444C23.9841 37.5576 26.6583 37.2942 29.0885 36.2875C31.5188 35.2809 33.596 33.5762 35.0574 31.389C36.5188 29.2018 37.2988 26.6304 37.2988 23.9999C37.2935 20.4742 35.8906 17.0943 33.3975 14.6013C30.9044 12.1082 27.5246 10.7052 23.9988 10.6999Z" fill="current"/>
<path d="M25.6988 15.7499H22.2988V26.2499H25.6988L25.6988 15.7499Z" fill="current"/>
<path d="M25.6988 29.2499H22.2988V32.2499H25.6988V29.2499Z" fill="current"/>
</svg>
