<svg width="current" height="current" viewBox="0 0 48 48" fill="none" xmlns="http://www.w3.org/2000/svg">
<path d="M23.9988 40.6999C27.3018 40.6999 30.5306 39.7205 33.2769 37.8855C36.0232 36.0505 38.1636 33.4423 39.4276 30.3907C40.6916 27.3392 41.0223 23.9814 40.3779 20.7419C39.7336 17.5024 38.143 14.5268 35.8075 12.1913C33.472 9.85571 30.4963 8.26519 27.2568 7.62082C24.0174 6.97645 20.6595 7.30716 17.608 8.57115C14.5565 9.83513 11.9483 11.9756 10.1133 14.7219C8.27827 17.4682 7.29883 20.697 7.29883 23.9999C7.30412 28.4274 9.06528 32.6721 12.196 35.8028C15.3267 38.9335 19.5713 40.6946 23.9988 40.6999ZM22.2988 15.6999H25.6988V26.1999H22.2988V15.6999ZM22.2988 29.1999H25.6988V32.1999H22.2988V29.1999Z" fill="current"/>
</svg>
