<svg width="current" height="current" viewBox="0 0 48 48" fill="none" xmlns="http://www.w3.org/2000/svg">
<path d="M24.0008 7.29883C14.7908 7.29883 7.30078 14.7888 7.30078 23.9988C7.30078 33.2088 14.7908 40.6988 24.0008 40.6988C33.2108 40.6988 40.7008 33.2088 40.7008 23.9988C40.7008 14.7888 33.2108 7.29883 24.0008 7.29883ZM24.0008 37.2988C16.6708 37.2988 10.7008 31.3288 10.7008 23.9988C10.7008 16.6688 16.6708 10.6988 24.0008 10.6988C31.3308 10.6988 37.3008 16.6688 37.3008 23.9988C37.3008 31.3288 31.3308 37.2988 24.0008 37.2988Z" fill="current"/>
<path d="M30.0008 26.1988H18.0008C17.5008 26.1988 17.0208 26.4188 16.7008 26.7988C16.3808 27.1788 16.2408 27.6888 16.3208 28.1788C16.9508 31.8988 20.1808 34.5888 24.0008 34.5888C27.8208 34.5888 31.0408 31.8888 31.6808 28.1788C31.7608 27.6888 31.6308 27.1788 31.3008 26.7988C30.9808 26.4188 30.5008 26.1988 30.0008 26.1988Z" fill="current"/>
<path d="M17.7008 20.3988C17.7008 19.9588 18.0608 19.5988 18.5008 19.5988C18.9408 19.5988 19.3008 19.9588 19.3008 20.3988V22.3988H22.7008V20.3988C22.7008 18.0788 20.8208 16.1988 18.5008 16.1988C16.1808 16.1988 14.3008 18.0788 14.3008 20.3988V22.3988H17.7008V20.3988Z" fill="current"/>
<path d="M29.5008 16.1988C27.1808 16.1988 25.3008 18.0788 25.3008 20.3988V22.3988H28.7008V20.3988C28.7008 19.9588 29.0608 19.5988 29.5008 19.5988C29.9408 19.5988 30.3008 19.9588 30.3008 20.3988V22.3988H33.7008V20.3988C33.7008 18.0788 31.8208 16.1988 29.5008 16.1988Z" fill="current"/>
</svg>
