<svg width="current" height="current" viewBox="0 0 48 48" fill="none" xmlns="http://www.w3.org/2000/svg">
<path d="M23.9992 29.4303C23.6055 29.4302 23.2161 29.3494 22.8549 29.1929C22.4937 29.0364 22.1684 28.8074 21.8992 28.5203L17.0991 23.4603C16.711 23.0489 16.4517 22.533 16.353 21.9761C16.2544 21.4192 16.3208 20.8456 16.544 20.3259C16.7671 19.8063 17.1374 19.3632 17.6091 19.0513C18.0809 18.7393 18.6335 18.5722 19.1991 18.5703H28.7991C29.3646 18.5722 29.9174 18.7393 30.3892 19.0513C30.8609 19.3632 31.2312 19.8063 31.4544 20.3259C31.6775 20.8456 31.7439 21.4192 31.6453 21.9761C31.5466 22.533 31.2873 23.0489 30.8992 23.4603L26.1091 28.5203C25.8376 28.8072 25.5105 29.0359 25.1477 29.1924C24.785 29.3488 24.3942 29.4298 23.9992 29.4303ZM20.3692 21.9702L23.9992 25.8003L27.6392 21.9702H20.3692Z" fill="current"/>
</svg>
