<svg width="current" height="current" viewBox="0 0 48 48" fill="none" xmlns="http://www.w3.org/2000/svg">
<path d="M39.1998 36.7998L11.1998 8.7998L8.7998 11.1998L11.7998 14.1998C11.7998 14.3198 11.7998 14.4398 11.7998 14.5598V30.9998H15.1998V17.5998L17.8298 20.2398C17.8298 20.3598 17.8298 20.4798 17.8298 20.5998V33.3998C17.8324 34.8046 18.3917 36.1512 19.3851 37.1446C20.3784 38.1379 21.725 38.6972 23.1298 38.6998H30.9298C31.6365 38.6981 32.3355 38.5537 32.985 38.2753C33.6346 37.997 34.2212 37.5903 34.7098 37.0798L36.7998 39.1998L39.1998 36.7998ZM30.8998 35.2998H23.0998C22.5959 35.2998 22.1126 35.0996 21.7563 34.7433C21.4 34.387 21.1998 33.9037 21.1998 33.3998V23.5998L32.2898 34.6898C32.1121 34.8811 31.8971 35.0339 31.658 35.1388C31.4189 35.2437 31.1609 35.2985 30.8998 35.2998Z" fill="current"/>
<path d="M28.4998 12.6998V9.2998H17.0998C16.6815 9.30188 16.265 9.35562 15.8598 9.4598L19.0998 12.6998H28.4998Z" fill="current"/>
<path d="M21.8598 15.4598L25.0998 18.6998H30.8998C31.4037 18.6998 31.887 18.9 32.2433 19.2563C32.5996 19.6126 32.7998 20.0959 32.7998 20.5998V26.3998L36.1998 29.7998V20.5998C36.1972 19.195 35.6379 17.8484 34.6446 16.8551C33.6512 15.8617 32.3046 15.3024 30.8998 15.2998H23.0998C22.6815 15.3019 22.265 15.3556 21.8598 15.4598Z" fill="current"/>
</svg>
