<svg width="current" height="current" viewBox="0 0 48 48" fill="none" xmlns="http://www.w3.org/2000/svg">
<path d="M28.8309 9.9008C27.1805 9.88512 25.5576 10.3235 24.1396 11.1681C22.7217 12.0127 21.5633 13.231 20.7911 14.6896C20.019 16.1483 19.6628 17.7912 19.7615 19.4386C19.8602 21.0861 20.41 22.6748 21.3508 24.0308L10.6309 34.7107L13.0309 37.1208L15.0309 35.1208L17.7509 37.8407L20.1609 35.4308L17.4409 32.7207L18.9609 31.2007L21.6708 33.9208L24.0809 31.5108L21.3608 28.8008L23.6808 26.4707C24.8484 27.2346 26.1776 27.7166 27.5634 27.8786C28.9492 28.0406 30.3536 27.8782 31.6659 27.4042C32.9781 26.9302 34.1623 26.1576 35.1246 25.1474C36.087 24.1372 36.8013 22.917 37.2112 21.5833C37.621 20.2496 37.7152 18.8389 37.4863 17.4626C37.2573 16.0862 36.7115 14.782 35.892 13.6529C35.0724 12.5237 34.0015 11.6006 32.7639 10.9563C31.5263 10.3121 30.1559 9.96449 28.7609 9.94084L28.8309 9.9008Z" fill="current"/>
</svg>
