<svg width="16" height="16" viewBox="0 0 16 16" fill="none" xmlns="http://www.w3.org/2000/svg">
    <path d="M2.8125 2.91387L4.84562 4.947C5.25206 4.52563 5.73877 4.18992 6.27703 3.95967C6.8153 3.72943 7.39422 3.6093 7.97966 3.60639C8.56509 3.60348 9.14518 3.71783 9.68571 3.94271C10.2262 4.16759 10.7163 4.49844 11.1269 4.91575L13.1581 2.88168C12.4805 2.19806 11.6738 1.656 10.7848 1.28703C9.89574 0.918061 8.94224 0.729547 7.97971 0.732455C7.01718 0.735363 6.06483 0.929635 5.17807 1.30397C4.29131 1.67831 3.48783 2.22523 2.81437 2.91293L2.8125 2.91387Z" fill="#F0432C"/>
    <path d="M2.83923 13.1175L4.87048 11.0863C4.46416 10.6768 4.1426 10.1913 3.92421 9.65736C3.70583 9.12347 3.59491 8.55174 3.59782 7.97492C3.60072 7.3981 3.71739 6.82752 3.94113 6.29585C4.16488 5.76419 4.49131 5.28188 4.90173 4.87656L2.86923 2.84375C2.19196 3.51605 1.65386 4.31527 1.28571 5.19569C0.917558 6.07612 0.726569 7.02048 0.723666 7.97477C0.720764 8.92906 0.906005 9.87457 1.2688 10.7572C1.63159 11.6399 2.16481 12.4423 2.83798 13.1187L2.83923 13.1175Z" fill="#FFBF00"/>
    <path d="M9.43701 9.43262V9.46262H9.46701L9.43701 9.43262Z" fill="#24AA49"/>
    <path d="M7.98438 15.2567C8.93994 15.2579 9.8863 15.0699 10.7689 14.7036C11.6514 14.3373 12.4527 13.7999 13.1266 13.1223L11.0938 11.0889C10.6863 11.4987 10.2018 11.824 9.66819 12.046C9.13456 12.2679 8.56232 12.3822 7.98438 12.3822C7.40643 12.3822 6.83419 12.2679 6.30056 12.046C5.76694 11.824 5.28246 11.4987 4.875 11.0889L2.84375 13.1201C3.51721 13.7979 4.31818 14.3356 5.20047 14.7023C6.08276 15.069 7.02892 15.2574 7.98438 15.2567Z" fill="#24AA49"/>
    <path d="M15.1362 6.57275L9.4668 6.58057V9.46244H12.1493C11.9272 10.0858 11.5674 10.651 11.0965 11.1159L13.1293 13.149C13.9804 12.3035 14.6091 11.2606 14.9593 10.1131C15.3094 8.96566 15.3702 7.74939 15.1362 6.57275Z" fill="#3384FC"/>
</svg>
