<svg width="current" height="current" viewBox="0 0 48 48" fill="none" xmlns="http://www.w3.org/2000/svg">
<path d="M25.7281 18.9297H22.3281V26.5297H25.7281V18.9297Z" fill="current"/>
<path d="M25.7281 28.5293H22.3281V31.5293H25.7281V28.5293Z" fill="current"/>
<path d="M34.3889 38.2893H13.5989C12.6685 38.2893 11.7545 38.0445 10.9488 37.5793C10.1431 37.1142 9.4741 36.4451 9.00892 35.6394C8.54374 34.8337 8.29884 33.9196 8.29883 32.9893C8.29883 32.0589 8.54374 31.1451 9.00892 30.3394L19.4089 12.3394C19.8761 11.5362 20.5458 10.8695 21.3513 10.4062C22.1567 9.94295 23.0697 9.69922 23.9989 9.69922C24.9281 9.69922 25.841 9.94295 26.6465 10.4062C27.4519 10.8695 28.1217 11.5362 28.5888 12.3394L38.9789 30.3394C39.444 31.1451 39.6889 32.0589 39.6889 32.9893C39.6889 33.9196 39.444 34.8337 38.9789 35.6394C38.5137 36.4451 37.8446 37.1142 37.0389 37.5793C36.2332 38.0445 35.3192 38.2893 34.3889 38.2893ZM22.3889 14.0293L11.9989 32.0293C11.8323 32.3177 11.7446 32.645 11.7444 32.978C11.7441 33.3111 11.8314 33.6383 11.9975 33.927C12.1637 34.2157 12.4027 34.4557 12.6908 34.6228C12.9789 34.79 13.3058 34.8784 13.6389 34.8794H34.3889C34.7228 34.8802 35.051 34.7929 35.3404 34.6265C35.6299 34.46 35.8705 34.2201 36.0378 33.9312C36.2051 33.6422 36.2932 33.3144 36.2934 32.9805C36.2936 32.6466 36.2059 32.3185 36.0389 32.0293L25.6389 14.0293C25.4745 13.7403 25.2357 13.5008 24.9472 13.3354C24.6588 13.1701 24.3313 13.0852 23.9989 13.0894C23.6719 13.0925 23.3515 13.1809 23.0692 13.3457C22.7868 13.5105 22.5523 13.7461 22.3889 14.0293Z" fill="current"/>
</svg>
