<svg width="current" height="current" viewBox="0 0 32 32" fill="none" xmlns="http://www.w3.org/2000/svg">
<path d="M24.0005 24.6673V21.4673C24.0005 21.0273 23.6405 20.6673 23.2005 20.6673H8.80052C8.36052 20.6673 8.00052 21.0273 8.00052 21.4673V24.6673" fill="current"/>
<path fill-rule="evenodd" clip-rule="evenodd" d="M6.86719 21.4673C6.86719 20.4014 7.7346 19.534 8.80052 19.534H23.2005C24.2664 19.534 25.1339 20.4014 25.1339 21.4673V24.6673H22.8672V21.8006H9.13385V24.6673H6.86719V21.4673Z" fill="current"/>
<path d="M24.0005 7.33398V10.534C24.0005 10.974 23.6405 11.334 23.2005 11.334H8.80052C8.36052 11.334 8.00052 10.974 8.00052 10.534V7.33398" fill="current"/>
<path fill-rule="evenodd" clip-rule="evenodd" d="M9.13385 10.2007V7.33398H6.86719V10.534C6.86719 11.5999 7.7346 12.4673 8.80052 12.4673H23.2005C24.2664 12.4673 25.1339 11.5999 25.1339 10.534V7.33398H22.8672V10.2007H9.13385Z" fill="current"/>
<path fill-rule="evenodd" clip-rule="evenodd" d="M7.00052 15.0007H25.0005V17.0007H7.00052V15.0007Z" fill="current"/>
</svg>
