<svg width="current" height="current" viewBox="0 0 48 48" fill="none" xmlns="http://www.w3.org/2000/svg">
<path d="M33.4008 11.63H32.2007V10H28.8008V11.63H19.2007V10H15.8008V11.63H14.6008C13.1959 11.6326 11.8494 12.1919 10.856 13.1853C9.86265 14.1787 9.30342 15.5252 9.30078 16.9301V32.33C9.30342 33.7348 9.86265 35.0813 10.856 36.0747C11.8494 37.0681 13.1959 37.6274 14.6008 37.63H33.4008C34.8056 37.6274 36.1521 37.0681 37.1455 36.0747C38.1389 35.0813 38.6981 33.7348 38.7007 32.33V16.9301C38.6981 15.5252 38.1389 14.1787 37.1455 13.1853C36.1521 12.1919 34.8056 11.6326 33.4008 11.63ZM14.6008 15.03H15.8008V17.03H19.2007V15.03H28.8008V17.03H32.2007V15.03H33.4008C33.9039 15.0327 34.3856 15.2336 34.7414 15.5894C35.0971 15.9451 35.2982 16.427 35.3008 16.9301V18.5H12.7007V16.92C12.7034 16.4179 12.9048 15.9372 13.2608 15.583C13.6168 15.2288 14.0986 15.03 14.6008 15.03ZM33.4008 34.23H14.6008C14.0969 34.23 13.6136 34.0298 13.2573 33.6735C12.9009 33.3171 12.7007 32.8339 12.7007 32.33V21.91H35.3508V32.33C35.3495 32.5833 35.2978 32.8339 35.1987 33.0671C35.0997 33.3004 34.9552 33.5116 34.7737 33.6885C34.5923 33.8653 34.3774 34.0042 34.1417 34.0972C33.906 34.1901 33.6541 34.2353 33.4008 34.23Z" fill="current"/>
</svg>
