<svg width="current" height="current" viewBox="0 0 48 48" fill="none" xmlns="http://www.w3.org/2000/svg">
<path d="M36.6466 12.6912L35.3066 11.3513C34.3111 10.3584 32.9626 9.80078 31.5566 9.80078C30.1506 9.80078 28.802 10.3584 27.8066 11.3513L24.8966 14.2612L11.5566 27.6113C11.3131 27.8453 11.1487 28.1493 11.0866 28.4812L9.85658 34.7412C9.77207 35.1612 9.78201 35.5948 9.88567 36.0105C9.98934 36.4262 10.1841 36.8136 10.4559 37.1448C10.7278 37.4759 11.0698 37.7426 11.4573 37.9253C11.8448 38.108 12.2681 38.2022 12.6966 38.2012C12.8849 38.2015 13.0726 38.1816 13.2566 38.1414L19.5166 36.9111C19.8469 36.8447 20.1499 36.6811 20.3866 36.4412L33.7266 23.1013L36.6366 20.1912C37.6308 19.1971 38.1902 17.8493 38.1921 16.4434C38.194 15.0374 37.6382 13.6879 36.6466 12.6912ZM18.3566 33.6912L13.3566 34.6912L14.3566 29.6912L26.1266 17.9211L28.1266 19.9211L30.1266 21.9211L18.3566 33.6912ZM34.2466 17.8013L32.5266 19.5312L30.5266 17.5312L28.5266 15.5312L30.2366 13.8213C30.6047 13.4868 31.0842 13.3015 31.5816 13.3015C32.0789 13.3015 32.5585 13.4868 32.9266 13.8213L34.2766 15.1711C34.6283 15.5284 34.8255 16.0098 34.8255 16.5112C34.8255 17.0126 34.6283 17.494 34.2766 17.8513L34.2466 17.8013Z" fill="current"/>
</svg>
