<svg width="current" height="current" viewBox="0 0 48 48" fill="none" xmlns="http://www.w3.org/2000/svg">
<path d="M10.9408 20.4807L22.7408 26.1507C23.1408 26.3407 23.5708 26.4407 24.0008 26.4407C24.4308 26.4407 24.8608 26.3407 25.2508 26.1507L37.0508 20.4807C38.0608 19.9907 38.6908 18.9907 38.6908 17.8707C38.6908 16.7507 38.0608 15.7407 37.0508 15.2607L25.2508 9.59066C24.4508 9.21066 23.5408 9.21066 22.7408 9.59066L10.9408 15.2607C9.93078 15.7507 9.30078 16.7507 9.30078 17.8707C9.30078 18.9907 9.93078 20.0007 10.9408 20.4807Z" fill="current"/>
<path d="M24.0008 29.1807L10.8808 22.8807L9.41078 25.9407L22.7408 32.3407C23.1408 32.5307 23.5708 32.6307 24.0008 32.6307C24.4308 32.6307 24.8608 32.5307 25.2508 32.3407L38.5808 25.9407L37.1108 22.8807L23.9908 29.1807H24.0008Z" fill="current"/>
<path d="M24.0008 35.2407L10.8808 28.9407L9.41078 32.0007L22.7408 38.4007C23.1408 38.5907 23.5708 38.6907 24.0008 38.6907C24.4308 38.6907 24.8608 38.5907 25.2508 38.4007L38.5808 31.9907L37.1108 28.9307L23.9908 35.2307L24.0008 35.2407Z" fill="current"/>
</svg>
