<svg width="current" height="current" viewBox="0 0 48 48" fill="none" xmlns="http://www.w3.org/2000/svg">
<path d="M37.4598 20.19C36.4498 18.99 34.9698 18.3 33.3998 18.3H28.7698L29.3998 15.99C29.8398 14.38 29.5098 12.7 28.4998 11.38C27.4898 10.06 25.9498 9.30005 24.2898 9.30005H23.7098C22.6598 9.30005 21.6898 9.87005 21.1698 10.79L16.9998 18.3H12.1998C10.5998 18.3 9.2998 19.6 9.2998 21.2V34.8C9.2998 36.4 10.5998 37.7001 12.1998 37.7001H17.7198L20.2698 38.55C20.5698 38.65 20.8798 38.7001 21.1898 38.7001H31.6698C34.2498 38.7001 36.4398 36.8601 36.8898 34.32L38.6198 24.52C38.8898 22.97 38.4698 21.4 37.4598 20.19ZM12.6998 21.7H16.2998V34.3H12.6998V21.7ZM35.2698 23.93L33.5398 33.73C33.3798 34.64 32.5898 35.3 31.6698 35.3H21.2798L19.6998 34.7701V20.44L23.9998 12.7H24.2898C24.8898 12.7 25.4398 12.97 25.7998 13.45C26.1598 13.92 26.2798 14.53 26.1198 15.1L24.3198 21.7H33.3998C33.9698 21.7 34.4898 21.94 34.8598 22.38C35.2298 22.82 35.3698 23.37 35.2798 23.93H35.2698Z" fill="current"/>
</svg>
