<svg width="current" height="current" viewBox="0 0 48 48" fill="none" xmlns="http://www.w3.org/2000/svg">
<path d="M23.9988 8.2998C20.8937 8.2998 17.8582 9.22059 15.2764 10.9457C12.6945 12.6709 10.6822 15.1229 9.49393 17.9917C8.30563 20.8605 7.99472 24.0172 8.60051 27.0627C9.20629 30.1082 10.7016 32.9057 12.8973 35.1014C15.0929 37.2971 17.8904 38.7923 20.9359 39.3981C23.9814 40.0039 27.1382 39.693 30.007 38.5047C32.8758 37.3164 35.3278 35.3041 37.0529 32.7223C38.778 30.1404 39.6988 27.105 39.6988 23.9998C39.6962 19.8367 38.0412 15.8449 35.0975 12.9012C32.1537 9.95741 28.1619 8.30245 23.9988 8.2998ZM23.9988 36.2998C21.5661 36.2998 19.188 35.5784 17.1653 34.2269C15.1426 32.8753 13.5661 30.9543 12.6351 28.7068C11.7042 26.4593 11.4606 23.9862 11.9352 21.6002C12.4098 19.2142 13.5812 17.0226 15.3014 15.3024C17.0216 13.5822 19.2133 12.4107 21.5992 11.9361C23.9852 11.4615 26.4583 11.7051 28.7058 12.6361C30.9534 13.567 32.8744 15.1436 34.2259 17.1663C35.5775 19.189 36.2988 21.5671 36.2988 23.9998C36.2935 27.2603 34.996 30.3858 32.6904 32.6914C30.3849 34.9969 27.2594 36.2945 23.9988 36.2998Z" fill="current"/>
<path d="M24.7888 22.4598H24.7388C23.5988 22.1698 22.7388 21.9398 22.7388 21.2598C22.7388 20.5798 23.3288 20.4998 23.9088 20.4998C24.4888 20.4998 25.1688 20.7698 25.1688 21.4998H28.5788C28.6189 20.5958 28.3235 19.7089 27.7495 19.0093C27.1755 18.3098 26.3633 17.847 25.4688 17.7098H25.3488V16.4998H22.5388V17.6998H22.4188C21.5306 17.7947 20.7103 18.2191 20.1197 18.8893C19.5291 19.5595 19.2113 20.4267 19.2288 21.3198C19.2288 24.0998 21.4688 24.6598 23.2288 25.0998H23.2888C24.4188 25.3798 25.2888 25.5998 25.2888 26.3398C25.2888 27.0798 24.5888 27.3398 23.9288 27.3398C23.7554 27.3607 23.5794 27.3453 23.4122 27.2945C23.245 27.2438 23.0902 27.1588 22.9576 27.045C22.825 26.9312 22.7175 26.7911 22.642 26.6336C22.5665 26.476 22.5245 26.3044 22.5188 26.1298H18.9988C18.9754 27.1152 19.3166 28.0745 19.957 28.8238C20.5974 29.573 21.4918 30.0595 22.4688 30.1898H22.5888V31.4998H25.3488V30.2198H25.4688C26.4161 30.1127 27.2892 29.6553 27.9164 28.9374C28.5437 28.2194 28.8798 27.2929 28.8588 26.3398C28.9288 23.5298 26.5388 22.9098 24.7888 22.4598Z" fill="current"/>
</svg>
