<svg width="current" height="current" viewBox="0 0 48 48" fill="none" xmlns="http://www.w3.org/2000/svg">
<path d="M28.0008 19.6298H26.3108V23.9998H28.0008C29.2108 23.9998 30.1908 23.0198 30.1908 21.8098C30.1908 20.5998 29.2108 19.6198 28.0008 19.6198V19.6298Z" fill="current"/>
<path d="M24.0008 7.2998C14.7908 7.2998 7.30078 14.7898 7.30078 23.9998C7.30078 33.2098 14.7908 40.6998 24.0008 40.6998C33.2108 40.6998 40.7008 33.2098 40.7008 23.9998C40.7008 14.7898 33.2108 7.2998 24.0008 7.2998ZM19.7608 31.9998H16.2508V15.9998H19.7608V31.9998ZM28.0008 27.6298H26.3108V31.9998H22.6808V15.9998H27.9908C31.2008 15.9998 33.8008 18.6098 33.8008 21.8098C33.8008 25.0098 31.1908 27.6198 27.9908 27.6198L28.0008 27.6298Z" fill="current"/>
</svg>
