<svg width="current" height="current" viewBox="0 0 48 48" fill="none" xmlns="http://www.w3.org/2000/svg">
<path d="M39.2703 17.2195C38.2203 13.8295 35.3003 11.3095 31.8503 10.7895C28.9403 10.3495 26.0503 11.2995 24.0003 13.2795C21.9503 11.3095 19.0503 10.3495 16.1503 10.7895C12.7003 11.3095 9.79028 13.8395 8.73028 17.2195C7.67028 20.6295 8.59028 23.9595 11.3903 26.8595C12.0303 27.5195 14.9303 30.4295 20.2503 35.7695C21.2503 36.7695 22.5803 37.3195 24.0003 37.3195C25.4203 37.3195 26.7503 36.7695 27.7503 35.7695C31.3403 32.1695 35.8003 27.6995 36.6103 26.8595C39.4103 23.9595 40.3303 20.6295 39.2703 17.2195ZM18.5003 25.7995V22.1995H22.2003V18.4995H25.8003V22.1995H29.5003V25.7995H25.8003V29.4995H22.2003V25.7995H18.5003Z" fill="current"/>
</svg>
