<svg width="current" height="current" viewBox="0 0 24 24" fill="none" xmlns="http://www.w3.org/2000/svg">
<path d="M16.7004 5.94998V7.64998C16.9523 7.64998 17.194 7.75006 17.3721 7.92822C17.5503 8.10638 17.6504 8.34802 17.6504 8.59998V14C17.6491 14.2515 17.5486 14.4924 17.3707 14.6703C17.1928 14.8482 16.9519 14.9487 16.7004 14.95H7.30039C7.04884 14.9487 6.80797 14.8482 6.63009 14.6703C6.45222 14.4924 6.3517 14.2515 6.35039 14V8.59998C6.35039 8.34802 6.45048 8.10638 6.62864 7.92822C6.8068 7.75006 7.04843 7.64998 7.30039 7.64998V5.94998C6.59757 5.94998 5.92353 6.22917 5.42656 6.72614C4.92959 7.22311 4.65039 7.89715 4.65039 8.59998V14C4.65171 14.7024 4.93133 15.3757 5.42802 15.8723C5.9247 16.369 6.59797 16.6487 7.30039 16.65H11.1004V17.95H9.00039V19.65H15.0004V17.95H12.9004V16.65H16.7004C17.4028 16.6487 18.0761 16.369 18.5728 15.8723C19.0694 15.3757 19.3491 14.7024 19.3504 14V8.59998C19.3504 7.89715 19.0712 7.22311 18.5742 6.72614C18.0773 6.22917 17.4032 5.94998 16.7004 5.94998Z" fill="#6A7081"/>
<path d="M8.54039 8.86498C8.4315 8.9783 8.36238 9.12393 8.34344 9.27994C8.32451 9.43595 8.35678 9.59389 8.43539 9.72998L8.89539 10.53C8.97481 10.6646 9.09561 10.7699 9.23977 10.8303C9.38394 10.8907 9.54375 10.9028 9.69539 10.865L10.1954 10.745C10.3061 10.7185 10.4228 10.7364 10.5204 10.795C10.6228 10.8578 10.6991 10.9555 10.7354 11.07L10.8654 11.53C10.9094 11.6805 11.0008 11.8129 11.126 11.9075C11.2512 12.002 11.4035 12.0538 11.5604 12.055H12.4804C12.6373 12.0538 12.7896 12.002 12.9148 11.9075C13.04 11.8129 13.1313 11.6805 13.1754 11.53L13.3104 11.055C13.3408 10.9469 13.4127 10.8552 13.5104 10.8C13.6171 10.7412 13.7415 10.7235 13.8604 10.75L14.3254 10.87C14.4781 10.9061 14.6384 10.892 14.7825 10.8299C14.9266 10.7678 15.0468 10.6608 15.1254 10.525L15.5854 9.72998C15.6624 9.59344 15.6938 9.43586 15.6749 9.28024C15.656 9.12462 15.5878 8.97911 15.4804 8.86498L15.1204 8.49998C15.0406 8.41444 14.9959 8.30196 14.9954 8.18498C14.9949 8.0678 15.0397 7.95496 15.1204 7.86998L15.4604 7.51998C15.5686 7.40624 15.6372 7.26067 15.6561 7.10486C15.675 6.94905 15.6432 6.79129 15.5654 6.65498L15.1054 5.85998C15.0273 5.72387 14.9069 5.617 14.7625 5.55563C14.6181 5.49425 14.4576 5.48173 14.3054 5.51998L13.8304 5.63998C13.7749 5.65434 13.717 5.65732 13.6603 5.64873C13.6036 5.64013 13.5492 5.62015 13.5004 5.58998C13.4496 5.56183 13.405 5.52393 13.3689 5.47845C13.3329 5.43297 13.3062 5.38081 13.2904 5.32498L13.1554 4.85498C13.1071 4.70854 13.0141 4.58099 12.8894 4.49036C12.7646 4.39974 12.6146 4.35062 12.4604 4.34998H11.5404C11.3837 4.35198 11.2318 4.40399 11.1067 4.49844C10.9817 4.59288 10.8901 4.72481 10.8454 4.87498L10.7104 5.34498C10.6954 5.4005 10.6696 5.45252 10.6344 5.498C10.5992 5.54349 10.5554 5.58155 10.5054 5.60998C10.4531 5.64067 10.3951 5.66048 10.335 5.66821C10.2748 5.67595 10.2138 5.67144 10.1554 5.65498L9.69539 5.53998C9.54321 5.50173 9.3827 5.51425 9.23829 5.57563C9.09388 5.637 8.97347 5.74387 8.89539 5.87998L8.43539 6.67498C8.35757 6.81129 8.32576 6.96905 8.34468 7.12486C8.36359 7.28067 8.43222 7.42624 8.54039 7.53998L8.88039 7.88998C8.96106 7.97496 9.00584 8.0878 9.00539 8.20498C9.00483 8.32196 8.9602 8.43444 8.88039 8.51998L8.54039 8.86498ZM12.0004 6.77998C12.2822 6.77998 12.5577 6.86355 12.7921 7.02013C13.0264 7.17671 13.2091 7.39927 13.3169 7.65965C13.4248 7.92004 13.453 8.20656 13.398 8.48298C13.343 8.7594 13.2073 9.01331 13.008 9.2126C12.8087 9.41189 12.5548 9.54761 12.2784 9.60259C12.002 9.65758 11.7155 9.62936 11.4551 9.5215C11.1947 9.41365 10.9721 9.231 10.8155 8.99666C10.659 8.76232 10.5754 8.48681 10.5754 8.20498C10.5767 7.82745 10.7273 7.46576 10.9942 7.1988C11.2612 6.93185 11.6229 6.78129 12.0004 6.77998Z" fill="#6A7081"/>
</svg>
