<svg width="current" height="current" viewBox="0 0 48 48" fill="none" xmlns="http://www.w3.org/2000/svg">
<path d="M37.5898 19.4108C36.8098 13.7108 31.9098 9.30078 25.9998 9.30078H21.9998C16.0898 9.30078 11.1898 13.7108 10.4098 19.4108C9.1998 19.7608 8.2998 20.8808 8.2998 22.2008V28.8008C8.2998 30.4008 9.5998 31.7008 11.1998 31.7008H11.2998V35.0008H14.6998V31.5408C15.8598 31.1608 16.6998 30.0808 16.6998 28.8008V27.7008H31.2998V28.8008C31.2998 30.0808 32.1398 31.1608 33.2998 31.5408V37.0008H36.6998V31.7008H36.7998C38.3998 31.7008 39.6998 30.4008 39.6998 28.8008V22.2008C39.6998 20.8708 38.8098 19.7508 37.5898 19.4108ZM33.0998 16.7308C31.8398 17.0008 30.7398 17.6808 29.9898 18.7008C29.6798 18.6708 29.3698 18.6808 29.0698 18.7208C26.4498 19.0308 24.5698 21.4108 24.8798 24.0308C24.8898 24.1208 24.9198 24.2108 24.9398 24.3008H18.7098C18.7498 24.0308 18.7798 23.7608 18.7798 23.4808C18.7798 20.8208 16.6998 18.6608 14.0898 18.4808C14.2498 18.0008 14.4398 17.5308 14.6798 17.0908C15.5498 18.2108 16.8698 18.8208 18.2098 18.8208C19.0898 18.8208 19.9798 18.5608 20.7598 18.0208C20.9698 17.8708 21.1698 17.7108 21.3498 17.5208C22.6198 17.7608 23.9398 17.4908 25.0298 16.7308C26.3698 15.8008 27.0898 14.3108 27.1098 12.7908C29.6498 13.1408 31.8198 14.6308 33.0898 16.7308H33.0998ZM13.2998 27.2008V28.3008H11.6998V22.7008H11.9998C12.6198 22.7008 13.1498 22.3708 13.4498 21.8708C13.5498 21.8508 13.6398 21.8408 13.7398 21.8408C14.6398 21.8408 15.3798 22.5808 15.3798 23.4808C15.3798 23.9108 15.1998 24.3108 14.9098 24.6208C13.9598 25.1008 13.2998 26.0708 13.2998 27.2008ZM23.7398 12.7008C23.7398 13.1808 23.5198 13.6408 23.0998 13.9408C22.6398 14.2608 22.0398 14.2908 21.5298 14.0108C21.1198 13.7808 20.6298 13.7408 20.1798 13.8908C19.7298 14.0408 19.3698 14.3708 19.1698 14.7908C19.0898 14.9708 18.9698 15.1208 18.8198 15.2208C18.3298 15.5608 17.6598 15.4408 17.3298 14.9508C17.1598 14.7108 17.1298 14.4608 17.1398 14.2808C18.5098 13.2908 20.1798 12.6908 21.9998 12.6908H23.7298L23.7398 12.7008ZM31.8098 24.3008H28.5398C28.4198 24.1408 28.2998 23.9208 28.2698 23.6308C28.1798 22.8708 28.7198 22.1808 29.4798 22.0908C29.7098 22.0608 29.9498 22.1008 30.1898 22.2108C30.6198 22.4008 31.1098 22.4008 31.5498 22.2108C31.9798 22.0208 32.3198 21.6708 32.4798 21.2208C32.7198 20.5508 33.2998 20.0808 33.9898 20.0008C34.0798 19.9908 34.1698 20.0008 34.2498 20.0008C34.2898 20.3308 34.3198 20.6608 34.3198 21.0008C34.3198 21.9408 35.0798 22.7008 36.0198 22.7008H36.3198V28.3008H34.7198V27.2008C34.7198 25.6008 33.4198 24.3008 31.8198 24.3008H31.8098Z" fill="current"/>
</svg>
