<svg width="current" height="current" viewBox="0 0 32 32" fill="none" xmlns="http://www.w3.org/2000/svg">
<path fill-rule="evenodd" clip-rule="evenodd" d="M18.3886 13.6665H8.82865V11.3999H18.3886C21.4679 11.3999 23.962 13.8939 23.962 16.9732C23.962 20.0525 21.4679 22.5465 18.3886 22.5465H15.6553V20.2799H18.3886C20.216 20.2799 21.6953 18.8006 21.6953 16.9732C21.6953 15.1458 20.216 13.6665 18.3886 13.6665Z" fill="current"/>
<path fill-rule="evenodd" clip-rule="evenodd" d="M10.1029 12.53L14.1605 8.62306L12.5884 6.99023L8.28326 11.1354C8.28292 11.1357 8.28258 11.1361 8.28223 11.1364C7.4919 11.8956 7.49186 13.1642 8.28212 13.9235C8.2825 13.9238 8.28288 13.9242 8.28326 13.9246L12.5884 18.0697L14.1605 16.4369L10.1029 12.53ZM9.06776 11.9533L9.85336 12.7702L9.06776 11.9533Z" fill="current"/>
</svg>
