<svg width="current" height="current" viewBox="0 0 24 24" fill="none" xmlns="http://www.w3.org/2000/svg">
<path d="M16.7004 4.65039H7.30039C5.84039 4.65039 4.65039 5.84039 4.65039 7.30039V16.7004C4.65039 18.1604 5.84039 19.3504 7.30039 19.3504H16.7004C18.1604 19.3504 19.3504 18.1604 19.3504 16.7004V7.30039C19.3504 5.84039 18.1604 4.65039 16.7004 4.65039ZM7.30039 6.35039H16.7004C17.2254 6.35039 17.6504 6.77539 17.6504 7.30039V9.15039H6.35039V7.30039C6.35039 6.77539 6.77539 6.35039 7.30039 6.35039ZM6.35039 16.7004V10.8504H9.15039V17.6504H7.30039C6.77539 17.6504 6.35039 17.2254 6.35039 16.7004ZM16.7004 17.6504H10.8504V10.8504H17.6504V16.7004C17.6504 17.2254 17.2254 17.6504 16.7004 17.6504Z" fill="current"/>
</svg>
