<svg width="current" height="current" viewBox="0 0 48 48" fill="none" xmlns="http://www.w3.org/2000/svg">
<path d="M20.952 24.9997C19.5279 24.9997 18.1359 24.5773 16.9518 23.7862C15.7678 22.995 14.8449 21.8706 14.3 20.555C13.755 19.2393 13.6125 17.7916 13.8903 16.3949C14.1681 14.9983 14.8538 13.7153 15.8608 12.7084C16.8677 11.7015 18.1506 11.0158 19.5473 10.7379C20.944 10.4601 22.3916 10.6028 23.7072 11.1477C25.0228 11.6927 26.1474 12.6154 26.9385 13.7995C27.7297 14.9835 28.1519 16.3756 28.1519 17.7996C28.1493 19.7083 27.3899 21.5382 26.0402 22.8878C24.6905 24.2375 22.8607 24.997 20.952 24.9997ZM20.952 13.9997C20.2004 13.9997 19.4657 14.2225 18.8408 14.64C18.2158 15.0576 17.7288 15.651 17.4412 16.3454C17.1536 17.0397 17.0783 17.8038 17.2249 18.5409C17.3715 19.278 17.7335 19.9552 18.2649 20.4866C18.7964 21.018 19.4735 21.38 20.2106 21.5266C20.9478 21.6733 21.7118 21.5979 22.4062 21.3103C23.1005 21.0227 23.694 20.5357 24.1115 19.9108C24.5291 19.2859 24.7519 18.5512 24.7519 17.7996C24.7519 16.7918 24.3516 15.8252 23.639 15.1126C22.9263 14.3999 21.9598 13.9997 20.952 13.9997Z" fill="current"/>
<path d="M33.6508 36.2988H30.3008V31.2988C30.3008 30.8745 30.1322 30.4675 29.8322 30.1675C29.5321 29.8674 29.1252 29.6989 28.7008 29.6989H13.3008C12.8764 29.6989 12.4695 29.8674 12.1694 30.1675C11.8694 30.4675 11.7008 30.8745 11.7008 31.2988V36.2988H8.30078V31.2988C8.30078 29.9727 8.82758 28.701 9.76526 27.7633C10.7029 26.8256 11.9747 26.2988 13.3008 26.2988H28.7008C30.0269 26.2988 31.2986 26.8256 32.2363 27.7633C33.174 28.701 33.7008 29.9727 33.7008 31.2988L33.6508 36.2988Z" fill="current"/>
<path d="M29.8307 24.3903L28.4707 21.2802C29.1586 20.9893 29.7454 20.5022 30.1581 19.8798C30.5707 19.2573 30.7908 18.527 30.7908 17.7802C30.7908 17.0333 30.5707 16.3031 30.1581 15.6807C29.7454 15.0582 29.1586 14.571 28.4707 14.2802L29.8307 11.1602C31.116 11.7183 32.2102 12.6399 32.9788 13.8115C33.7473 14.9832 34.1567 16.354 34.1567 17.7552C34.1567 19.1565 33.7473 20.5272 32.9788 21.6989C32.2102 22.8705 31.116 23.7921 29.8307 24.3502V24.3903Z" fill="current"/>
<path d="M39.6511 36.2988H36.3011V31.2988C36.3011 30.8745 36.1326 30.4675 35.8325 30.1675C35.5325 29.8674 35.1255 29.6989 34.7012 29.6989V26.2988C36.0273 26.2988 37.299 26.8256 38.2367 27.7633C39.1744 28.701 39.7012 29.9727 39.7012 31.2988L39.6511 36.2988Z" fill="current"/>
</svg>
