<svg width="current" height="current" viewBox="0 0 48 48" fill="none" xmlns="http://www.w3.org/2000/svg">
<path d="M36.9996 12.9004H19.5996V16.3003H36.9996V12.9004Z" fill="current"/>
<path d="M36.9996 22.3008H19.5996V25.7008H36.9996V22.3008Z" fill="current"/>
<path d="M36.9996 31.6992H19.5996V35.0992H36.9996V31.6992Z" fill="current"/>
<path d="M13.5981 17.2C15.034 17.2 16.198 16.0359 16.198 14.6C16.198 13.164 15.034 12 13.5981 12C12.1621 12 10.998 13.164 10.998 14.6C10.998 16.0359 12.1621 17.2 13.5981 17.2Z" fill="current"/>
<path d="M13.5981 26.6003C15.034 26.6003 16.198 25.4363 16.198 24.0004C16.198 22.5644 15.034 21.4004 13.5981 21.4004C12.1621 21.4004 10.998 22.5644 10.998 24.0004C10.998 25.4363 12.1621 26.6003 13.5981 26.6003Z" fill="current"/>
<path d="M13.5981 36.0009C15.034 36.0009 16.198 34.8368 16.198 33.4009C16.198 31.9649 15.034 30.8008 13.5981 30.8008C12.1621 30.8008 10.998 31.9649 10.998 33.4009C10.998 34.8368 12.1621 36.0009 13.5981 36.0009Z" fill="current"/>
</svg>
