<svg width="current" height="current" viewBox="0 0 48 48" fill="none" xmlns="http://www.w3.org/2000/svg">
<path d="M21.5199 38.6902C18.8299 38.6902 16.1299 37.6702 14.0799 35.6202C9.97988 31.5202 9.97988 24.8502 14.0799 20.7502L23.2699 11.5602C26.2799 8.55023 31.1899 8.55023 34.1999 11.5602C37.2099 14.5702 37.2099 19.4802 34.1999 22.4902L25.0599 31.6302C24.1299 32.5602 22.8799 33.0802 21.5599 33.0802C20.2399 33.0802 18.9999 32.5702 18.0599 31.6302C16.1299 29.7002 16.1299 26.5602 18.0599 24.6302L25.6099 17.0802L28.0099 19.4802L20.4599 27.0302C20.1699 27.3202 20.0099 27.7102 20.0099 28.1202C20.0099 28.5302 20.1699 28.9202 20.4599 29.2102C21.0399 29.8002 22.0599 29.8002 22.6499 29.2102L31.7899 20.0702C33.4799 18.3802 33.4799 15.6302 31.7899 13.9502C30.0999 12.2602 27.3499 12.2602 25.6699 13.9502L16.4799 23.1402C13.7099 25.9102 13.7099 30.4302 16.4799 33.2002C19.2499 35.9702 23.7699 35.9702 26.5399 33.2002L34.0899 25.6502L36.4899 28.0502L28.9399 35.6002C26.8899 37.6502 24.1999 38.6702 21.4999 38.6702L21.5199 38.6902Z" fill="current"/>
</svg>
