<svg width="current" height="current" viewBox="0 0 48 48" fill="none" xmlns="http://www.w3.org/2000/svg">
<path d="M36.6408 20.8108C36.0408 14.3608 30.6008 9.30078 24.0008 9.30078C17.4008 9.30078 11.9608 14.3708 11.3608 20.8108C9.56078 21.6608 8.30078 23.4808 8.30078 25.6008V28.4008C8.30078 31.3208 10.6808 33.7008 13.6008 33.7008H14.8008C16.4008 33.7008 17.7008 32.4008 17.7008 30.8008V23.2008C17.7008 21.6208 16.4308 20.3408 14.8608 20.3108C15.6608 15.9908 19.4508 12.7008 24.0008 12.7008C28.5508 12.7008 32.3408 15.9908 33.1408 20.3108C31.5708 20.3408 30.3008 21.6308 30.3008 23.2008V30.8008C30.3008 32.0808 31.1408 33.1508 32.2908 33.5408C32.2208 34.5208 31.4008 35.3008 30.4008 35.3008H27.7008V34.0008H24.3008V37.0008C24.3008 37.9408 25.0608 38.7008 26.0008 38.7008H30.4008C33.2808 38.7008 35.6208 36.3908 35.6908 33.5208C37.9908 32.9408 39.7008 30.8708 39.7008 28.4008V25.6008C39.7008 23.4808 38.4408 21.6608 36.6408 20.8108ZM14.3008 30.3008H13.6008C12.5508 30.3008 11.7008 29.4508 11.7008 28.4008V25.6008C11.7008 24.5508 12.5508 23.7008 13.6008 23.7008H14.3008V30.3008ZM36.3008 28.4008C36.3008 29.4508 35.4508 30.3008 34.4008 30.3008H33.7008V23.7008H34.4008C35.4508 23.7008 36.3008 24.5508 36.3008 25.6008V28.4008Z" fill="current"/>
</svg>
