<svg width="current" height="current" viewBox="0 0 48 48" fill="none" xmlns="http://www.w3.org/2000/svg">
<path d="M20.33 23.2998C18.64 22.0998 17.69 20.4298 17.64 18.5798C17.59 16.6098 18.58 14.7298 20.42 13.2698C22.39 11.7198 22.45 9.54979 22.45 9.52979H25.85C25.85 9.67979 25.81 13.3498 22.52 15.9398C21.54 16.7098 21.01 17.6198 21.03 18.4898C21.05 19.4498 21.73 20.1198 22.29 20.5198L20.32 23.2898L20.33 23.2998Z" fill="current"/>
<path d="M24.47 21.8598C23.34 19.8598 23.5 18.2298 23.84 17.2198C24.64 14.8398 26.99 13.7598 27.25 13.6498L28.6 16.7698L27.93 15.2098L28.62 16.7698C28.28 16.9198 27.33 17.4998 27.06 18.3198C26.89 18.8398 27.01 19.4598 27.43 20.1898L24.47 21.8698V21.8598Z" fill="current"/>
<path d="M28.06 24.4198H14.06V27.8198H28.06V24.4198Z" fill="current"/>
<path d="M28.06 29.7498H17.06V33.1498H28.06V29.7498Z" fill="current"/>
<path d="M36 35.0798H12V38.4798H36V35.0798Z" fill="current"/>
<path d="M29.94 33.1498V29.7498C31.21 29.7498 32.24 28.7198 32.24 27.4498C32.24 26.1798 31.21 25.1498 29.94 25.1498V21.7498C33.08 21.7498 35.64 24.3098 35.64 27.4498C35.64 30.5898 33.08 33.1498 29.94 33.1498Z" fill="current"/>
</svg>
