<svg width="current" height="current" viewBox="0 0 48 48" fill="none" xmlns="http://www.w3.org/2000/svg">
<path d="M23.9972 40.7007C21.2511 40.7002 18.5473 40.0226 16.1256 38.7278C13.7039 37.4329 11.6389 35.561 10.1134 33.2776C8.58794 30.9941 7.64914 28.3696 7.38013 25.6367C7.11112 22.9038 7.52021 20.1467 8.57117 17.6096C9.62213 15.0725 11.2825 12.8337 13.4053 11.0915C15.5281 9.34938 18.0477 8.15767 20.7411 7.62181C23.4344 7.08594 26.2184 7.22255 28.8463 8.01951C31.4743 8.81647 33.8651 10.2491 35.8071 12.1907C38.1432 14.5262 39.7342 17.5021 40.3788 20.7419C41.0234 23.9818 40.6927 27.34 39.4285 30.3918C38.1643 33.4437 36.0234 36.0522 33.2766 37.8872C30.5298 39.7222 27.3005 40.7012 23.9972 40.7007ZM23.9972 10.7007C20.9199 10.7009 17.9379 11.7684 15.5593 13.7209C13.1808 15.6735 11.5529 18.3904 10.9531 21.4087C10.3534 24.427 10.8189 27.5599 12.2703 30.2734C13.7216 32.987 16.069 35.1133 18.9125 36.29C21.7559 37.4667 24.9194 37.621 27.8639 36.7265C30.8084 35.8321 33.3516 33.9442 35.0601 31.3847C36.7686 28.8253 37.5366 25.7525 37.2334 22.6902C36.9302 19.6278 35.5745 16.7655 33.3972 14.5908C32.1626 13.3569 30.697 12.3781 29.0841 11.7107C27.4712 11.0432 25.7427 10.7 23.9972 10.7007Z" fill="current"/>
<path d="M32.9873 22.3008H14.9873V25.7009H32.9873V22.3008Z" fill="current"/>
</svg>
