<svg width="current" height="current" viewBox="0 0 24 24" fill="none" xmlns="http://www.w3.org/2000/svg">
<path fill-rule="evenodd" clip-rule="evenodd" d="M12.0006 9.75586C11.5257 9.75586 11.1406 10.1409 11.1406 10.6159C11.1406 11.0908 11.5257 11.4759 12.0006 11.4759C12.4756 11.4759 12.8606 11.0908 12.8606 10.6159C12.8606 10.1409 12.4756 9.75586 12.0006 9.75586ZM9.64062 10.6159C9.64062 9.31249 10.6972 8.25586 12.0006 8.25586C13.304 8.25586 14.3606 9.31249 14.3606 10.6159C14.3606 11.9193 13.304 12.9759 12.0006 12.9759C10.6972 12.9759 9.64062 11.9193 9.64062 10.6159Z" fill="current"/>
<path fill-rule="evenodd" clip-rule="evenodd" d="M8.03516 15.5905C8.03516 14.6413 8.80092 13.8755 9.75016 13.8755H14.2552C15.2044 13.8755 15.9702 14.6413 15.9702 15.5905V17.0405H14.4702V15.5905C14.4702 15.4697 14.3759 15.3755 14.2552 15.3755H9.75016C9.6294 15.3755 9.53516 15.4697 9.53516 15.5905V17.0405H8.03516V15.5905Z" fill="current"/>
<path fill-rule="evenodd" clip-rule="evenodd" d="M7.30039 6.35039C6.77573 6.35039 6.35039 6.77573 6.35039 7.30041V16.7004C6.35039 17.2251 6.77571 17.6504 7.30039 17.6504H16.7004C17.2251 17.6504 17.6504 17.2251 17.6504 16.7004V7.30041C17.6504 6.77573 17.2251 6.35039 16.7004 6.35039H7.30039ZM4.65039 7.30041C4.65039 5.83687 5.83683 4.65039 7.30039 4.65039H16.7004C18.164 4.65039 19.3504 5.83687 19.3504 7.30041V16.7004C19.3504 18.164 18.1639 19.3504 16.7004 19.3504H7.30039C5.83684 19.3504 4.65039 18.164 4.65039 16.7004V7.30041Z" fill="current"/>
</svg>
