<svg width="current" height="current" viewBox="0 0 48 48" fill="none" xmlns="http://www.w3.org/2000/svg">
<path d="M23.9989 7.30078C20.6959 7.30078 17.4671 8.28021 14.7208 10.1152C11.9745 11.9503 9.83402 14.5583 8.57004 17.6099C7.30606 20.6614 6.97535 24.0193 7.61972 27.2588C8.2641 30.4983 9.85462 33.4738 12.1902 35.8093C14.5257 38.1449 17.5013 39.7355 20.7408 40.3799C23.9803 41.0243 27.3382 40.6934 30.3897 39.4294C33.4413 38.1655 36.0494 36.0251 37.8844 33.2788C39.7194 30.5325 40.6988 27.3037 40.6988 24.0007C40.6935 19.5732 38.9324 15.3287 35.8017 12.198C32.671 9.06729 28.4264 7.30607 23.9989 7.30078ZM31.5788 29.1707L29.1789 31.5708L23.9989 26.4009L18.8288 31.5708L16.4289 29.1707L21.5988 24.0007L16.4289 18.8208L18.8288 16.4207L23.9989 21.5908L29.1789 16.4207L31.5788 18.8208L26.4089 24.0007L31.5788 29.1707Z" fill="current"/>
</svg>
