<svg width="current" height="current" viewBox="0 0 48 48" fill="none" xmlns="http://www.w3.org/2000/svg">
<path d="M24.2008 11.12C23.1308 10.66 21.9008 10.88 21.0608 11.68L14.5708 17.8H13.8508C10.9308 17.8 8.55078 20.18 8.55078 23.1V24.9C8.55078 27.82 10.9308 30.2 13.8508 30.2H14.5708L21.0608 36.32C21.6108 36.84 22.3208 37.11 23.0508 37.11C23.4408 37.11 23.8308 37.03 24.2008 36.87C25.2608 36.41 25.9508 35.37 25.9508 34.21V13.78C25.9508 12.62 25.2608 11.58 24.2008 11.12ZM22.5508 33.06L16.4208 27.27C16.1008 26.97 15.6908 26.81 15.2508 26.81H13.8508C12.8008 26.81 11.9508 25.96 11.9508 24.91V23.11C11.9508 22.06 12.8008 21.21 13.8508 21.21H15.2508C15.6808 21.21 16.1008 21.04 16.4208 20.75L22.5508 14.96V33.07V33.06Z" fill="current"/>
<path d="M39.4508 20.2L37.0508 17.8L33.2508 21.6L29.4508 17.8L27.0508 20.2L30.8408 24L27.0508 27.8L29.4508 30.2L33.2508 26.4L37.0508 30.2L39.4508 27.8L35.6508 24L39.4508 20.2Z" fill="current"/>
</svg>
