<svg width="current" height="current" viewBox="0 0 48 48" fill="none" xmlns="http://www.w3.org/2000/svg">
<path d="M33.7001 16.1998V13.5998C33.7001 10.6798 31.32 8.2998 28.4 8.2998H19.6C16.68 8.2998 14.3 10.6798 14.3 13.5998V16.1998C14.3 17.8598 15.09 19.4398 16.42 20.4398L21.17 23.9998L16.42 27.5598C15.09 28.5598 14.3 30.1398 14.3 31.7998V34.3998C14.3 37.3198 16.68 39.6998 19.6 39.6998H28.4C31.32 39.6998 33.7001 37.3198 33.7001 34.3998V31.7998C33.7001 30.1398 32.91 28.5598 31.58 27.5598L26.83 23.9998L31.58 20.4398C32.91 19.4398 33.7001 17.8598 33.7001 16.1998ZM29.54 30.2798C30.02 30.6398 30.3 31.1998 30.3 31.7998V34.3998C30.3 35.4498 29.45 36.2998 28.4 36.2998H19.6C18.55 36.2998 17.7 35.4498 17.7 34.3998V31.7998C17.7 31.2098 17.98 30.6398 18.46 30.2798L24 26.1198L29.54 30.2798ZM30.3 16.1998C30.3 16.7898 30.02 17.3598 29.54 17.7198L24 21.8798L18.46 17.7198C17.99 17.3598 17.7 16.7998 17.7 16.1998V13.5998C17.7 12.5498 18.55 11.6998 19.6 11.6998H28.4C29.45 11.6998 30.3 12.5498 30.3 13.5998V16.1998Z" fill="current"/>
</svg>
