<svg width="current" height="current" viewBox="0 0 48 48" fill="none" xmlns="http://www.w3.org/2000/svg">
<path d="M14.59 38.6999C13.5521 38.6892 12.5402 38.3741 11.6799 37.7935C10.8195 37.2129 10.1485 36.3925 9.75025 35.434C9.35195 34.4755 9.24385 33.4212 9.43936 32.4019C9.63486 31.3825 10.1254 30.443 10.85 29.6999L17.24 23.3099C16.7223 21.5436 16.6587 19.6751 17.055 17.8777C17.4512 16.0802 18.2946 14.4117 19.5071 13.0268C20.7195 11.6419 22.2617 10.5853 23.991 9.9548C25.7203 9.32431 27.5807 9.14033 29.4 9.41989C29.9236 9.50043 30.4146 9.72429 30.8188 10.0667C31.223 10.4091 31.5245 10.8567 31.69 11.3599C31.8622 11.8765 31.8869 12.4309 31.7615 12.9608C31.6361 13.4907 31.3655 13.9752 30.98 14.3599L27.33 17.9999L27.91 20.0999L30.01 20.6799L33.66 16.9999C34.0447 16.6145 34.5292 16.3438 35.0591 16.2184C35.589 16.093 36.1434 16.1178 36.66 16.2899C37.1638 16.4544 37.612 16.7556 37.9545 17.16C38.2971 17.5643 38.5206 18.0559 38.6 18.5799C38.8569 20.2831 38.7103 22.0229 38.1718 23.6591C37.6334 25.2952 36.7182 26.7821 35.5 27.9999C34.1181 29.3849 32.3892 30.3728 30.4944 30.8601C28.5996 31.3474 26.6087 31.3163 24.73 30.7699L18.33 37.1699C17.8379 37.6584 17.2543 38.045 16.6125 38.3076C15.9707 38.5701 15.2834 38.7035 14.59 38.6999ZM27.74 12.6999C26.7525 12.6969 25.7742 12.8908 24.8625 13.2703C23.9508 13.6497 23.1238 14.2071 22.43 14.9099C21.3795 15.9568 20.6615 17.2907 20.3662 18.7442C20.0709 20.1977 20.2114 21.706 20.77 23.0799C20.8958 23.389 20.9278 23.7284 20.862 24.0556C20.7962 24.3828 20.6355 24.6834 20.4 24.9199L13.26 32.0699C12.9046 32.424 12.7045 32.9047 12.7035 33.4064C12.7026 33.908 12.901 34.3895 13.255 34.7449C13.6091 35.1003 14.0898 35.3005 14.5915 35.3014C15.0931 35.3023 15.5746 35.104 15.93 34.7499L23.08 27.5999C23.3165 27.3644 23.6171 27.2038 23.9443 27.138C24.2715 27.0722 24.6109 27.1041 24.92 27.2299C26.2939 27.7886 27.8023 27.9291 29.2557 27.6337C30.7092 27.3384 32.0431 26.6204 33.09 25.5699C33.8025 24.8667 34.3655 24.0267 34.7453 23.1005C35.1251 22.1743 35.3138 21.1809 35.3 20.1799L32.21 23.2799C31.8466 23.6404 31.3945 23.8986 30.8994 24.0285C30.4043 24.1584 29.8836 24.1555 29.39 24.0199L26.73 23.2899C26.2545 23.1533 25.8215 22.898 25.4717 22.5482C25.1219 22.1984 24.8667 21.7654 24.73 21.2899L24 18.6099C23.8644 18.1163 23.8615 17.5957 23.9914 17.1005C24.1213 16.6054 24.3795 16.1533 24.74 15.7899L27.83 12.6999H27.74Z" fill="current"/>
</svg>
