<svg width="current" height="current" viewBox="0 0 48 48" fill="none" xmlns="http://www.w3.org/2000/svg">
<path d="M33.4008 11.9V15.3C33.9047 15.3 34.388 15.5001 34.7443 15.8564C35.1006 16.2128 35.3008 16.696 35.3008 17.2V28C35.2982 28.5031 35.0971 28.9848 34.7414 29.3405C34.3856 29.6963 33.9039 29.8973 33.4008 29.9H14.6008C14.0977 29.8973 13.6159 29.6963 13.2602 29.3405C12.9044 28.9848 12.7034 28.5031 12.7008 28V17.2C12.7008 16.696 12.901 16.2128 13.2573 15.8564C13.6136 15.5001 14.0969 15.3 14.6008 15.3V11.9C13.1951 11.9 11.8471 12.4583 10.8531 13.4523C9.85917 14.4462 9.30078 15.7943 9.30078 17.2V28C9.30342 29.4048 9.86266 30.7513 10.856 31.7447C11.8494 32.7381 13.1959 33.2973 14.6008 33.2999H22.2008V35.9H18.0008V39.2999H30.0008V35.9H25.8008V33.2999H33.4008C34.8056 33.2973 36.1522 32.7381 37.1455 31.7447C38.1389 30.7513 38.6981 29.4048 38.7008 28V17.2C38.7008 15.7943 38.1424 14.4462 37.1484 13.4523C36.1545 12.4583 34.8064 11.9 33.4008 11.9Z" fill="current"/>
<path d="M17.0808 17.73C16.863 17.9566 16.7248 18.2479 16.6869 18.5599C16.649 18.8719 16.7136 19.1878 16.8708 19.46L17.7908 21.06C17.9496 21.3292 18.1912 21.5399 18.4795 21.6606C18.7679 21.7813 19.0875 21.8057 19.3908 21.73L20.3908 21.49C20.6122 21.437 20.8455 21.4729 21.0408 21.59C21.2455 21.7157 21.3982 21.9109 21.4708 22.14L21.7308 23.06C21.8189 23.3611 22.0017 23.6258 22.252 23.815C22.5024 24.0041 22.807 24.1075 23.1208 24.11H24.9608C25.2745 24.1075 25.5792 24.0041 25.8295 23.815C26.0799 23.6258 26.2627 23.3611 26.3508 23.06L26.6208 22.11C26.6815 21.8938 26.8253 21.7104 27.0208 21.6C27.2341 21.4825 27.4831 21.4469 27.7208 21.5L28.6508 21.74C28.9562 21.8122 29.2768 21.7841 29.565 21.6598C29.8532 21.5355 30.0937 21.3217 30.2508 21.05L31.1708 19.46C31.3248 19.1869 31.3876 18.8717 31.3498 18.5605C31.312 18.2492 31.1757 17.9582 30.9608 17.73L30.2408 17C30.0812 16.8289 29.9919 16.6039 29.9908 16.37C29.9899 16.1356 30.0794 15.9099 30.2408 15.74L30.9208 15.04C31.1371 14.8125 31.2744 14.5213 31.3122 14.2097C31.35 13.8981 31.2864 13.5826 31.1308 13.31L30.2108 11.72C30.0546 11.4477 29.8138 11.234 29.525 11.1113C29.2362 10.9885 28.9151 10.9635 28.6108 11.04L27.6608 11.28C27.5497 11.3087 27.434 11.3146 27.3206 11.2975C27.2071 11.2803 27.0983 11.2403 27.0008 11.18C26.8993 11.1237 26.8099 11.0479 26.7378 10.9569C26.6658 10.8659 26.6124 10.7616 26.5808 10.65L26.3108 9.70995C26.2143 9.41709 26.0282 9.16198 25.7787 8.98073C25.5293 8.79947 25.2291 8.70125 24.9208 8.69995H23.0808C22.7674 8.70395 22.4635 8.80799 22.2135 8.99688C21.9634 9.18577 21.7803 9.44963 21.6908 9.74995L21.4208 10.69C21.3909 10.801 21.3392 10.905 21.2689 10.996C21.1985 11.087 21.1108 11.1631 21.0108 11.22C20.9062 11.2813 20.7903 11.321 20.67 11.3364C20.5497 11.3519 20.4275 11.3429 20.3108 11.31L19.3908 11.08C19.0864 11.0035 18.7654 11.0285 18.4766 11.1513C18.1878 11.274 17.9469 11.4877 17.7908 11.76L16.8708 13.35C16.7151 13.6226 16.6515 13.9381 16.6894 14.2497C16.7272 14.5613 16.8644 14.8525 17.0808 15.08L17.7608 15.78C17.9221 15.9499 18.0117 16.1756 18.0108 16.41C18.0097 16.6439 17.9204 16.8689 17.7608 17.04L17.0808 17.73ZM24.0008 13.56C24.5645 13.56 25.1155 13.7271 25.5842 14.0403C26.0528 14.3534 26.4181 14.7985 26.6338 15.3193C26.8495 15.8401 26.906 16.4131 26.796 16.966C26.6861 17.5188 26.4146 18.0266 26.016 18.4252C25.6175 18.8238 25.1096 19.0952 24.5568 19.2052C24.0039 19.3152 23.4309 19.2587 22.9101 19.043C22.3894 18.8273 21.9443 18.462 21.6311 17.9933C21.3179 17.5246 21.1508 16.9736 21.1508 16.41C21.1534 15.6549 21.4545 14.9315 21.9884 14.3976C22.5223 13.8637 23.2457 13.5626 24.0008 13.56Z" fill="current"/>
</svg>
