<svg width="current" height="current" viewBox="0 0 48 48" fill="none" xmlns="http://www.w3.org/2000/svg">
<path d="M8.80012 11.1998L13.7701 16.1698C11.2901 18.0598 9.54012 20.5098 8.54012 22.8798C8.23012 23.5998 8.23012 24.3998 8.54012 25.1298C10.6101 29.9998 15.7601 35.2098 24.0101 35.2098C26.9101 35.2098 29.3001 34.5998 31.2801 33.6798L36.8101 39.2098L39.2101 36.8098L11.2001 8.7998L8.80012 11.1998ZM24.0001 30.6998C20.3101 30.6998 17.3001 27.6898 17.3001 23.9998C17.3001 22.7698 17.6401 21.6198 18.2301 20.6298L20.8101 23.2098C20.7501 23.4598 20.7101 23.7298 20.7101 23.9998C20.7101 25.8198 22.1901 27.2998 24.0101 27.2998C24.2801 27.2998 24.5501 27.2598 24.8001 27.1998L27.3801 29.7798C26.3901 30.3598 25.2401 30.7098 24.0101 30.7098L24.0001 30.6998Z" fill="current"/>
<path d="M39.4701 22.8798C38.4701 20.5198 34.3801 12.7998 24.0001 12.7998C22.4601 12.7998 21.0301 12.9798 19.7101 13.3098L23.7201 17.3198C23.8101 17.3198 23.9101 17.3098 24.0001 17.3098C27.6901 17.3098 30.7001 20.3198 30.7001 24.0098C30.7001 24.0998 30.6901 24.1998 30.6901 24.2898L36.3501 29.9498C38.0801 28.0398 39.0501 26.1198 39.4801 25.1298C39.7801 24.4098 39.7801 23.6098 39.4801 22.8898L39.4701 22.8798Z" fill="current"/>
</svg>
