<svg width="current" height="current" viewBox="0 0 48 48" fill="none" xmlns="http://www.w3.org/2000/svg">
<path d="M33.3989 38.7008H14.5989C13.194 38.6982 11.8475 38.1389 10.8541 37.1455C9.86076 36.1521 9.30147 34.8056 9.29883 33.4008V14.6007C9.29883 13.1951 9.85725 11.8471 10.8512 10.8531C11.8451 9.85921 13.1932 9.30078 14.5989 9.30078H33.3989C34.8046 9.30078 36.1527 9.85921 37.1466 10.8531C38.1405 11.8471 38.6989 13.1951 38.6989 14.6007V33.4008C38.6962 34.8056 38.137 36.1521 37.1437 37.1455C36.1503 38.1389 34.8038 38.6982 33.3989 38.7008ZM14.5989 12.7008C14.3494 12.7008 14.1023 12.7499 13.8718 12.8453C13.6413 12.9408 13.4318 13.0808 13.2554 13.2572C13.0789 13.4336 12.939 13.6431 12.8435 13.8737C12.748 14.1042 12.6989 14.3512 12.6989 14.6007V33.4008C12.6989 33.6503 12.748 33.8973 12.8435 34.1278C12.939 34.3583 13.0789 34.5678 13.2554 34.7443C13.4318 34.9207 13.6413 35.0606 13.8718 35.1561C14.1023 35.2516 14.3494 35.3008 14.5989 35.3008H33.3989C33.9028 35.3008 34.3861 35.1006 34.7424 34.7443C35.0988 34.3879 35.2988 33.9047 35.2988 33.4008V14.6007C35.2988 14.0968 35.0988 13.6135 34.7424 13.2572C34.3861 12.9009 33.9028 12.7008 33.3989 12.7008H14.5989Z" fill="current"/>
<path d="M19.6988 24H16.2988V32H19.6988V24Z" fill="current"/>
<path d="M25.6988 16H22.2988V32H25.6988V16Z" fill="current"/>
<path d="M31.6988 22H28.2988V32H31.6988V22Z" fill="current"/>
</svg>
