<svg width="current" height="current" viewBox="0 0 48 48" fill="none" xmlns="http://www.w3.org/2000/svg">
<path d="M29.3114 21.1107L37.2114 13.2108L34.8014 10.8008L26.9014 18.7008L27.0414 12.9208L23.6514 12.8408L23.4314 21.6107C23.418 21.9999 23.483 22.3879 23.6228 22.7513C23.7625 23.1148 23.9739 23.4463 24.2446 23.7263C24.5152 24.0063 24.8395 24.2289 25.198 24.3809C25.5565 24.5328 25.942 24.6109 26.3314 24.6107H26.4014L35.1714 24.4008L35.0914 21.0007L29.3114 21.1107Z" fill="current"/>
<path d="M21.6108 23.4298L12.8408 23.6498L12.9208 27.0498L18.7008 26.8998L10.8008 34.7998L13.2108 37.2098L21.1108 29.3098L20.9708 35.0898L24.3608 35.1698L24.5807 26.3998C24.59 26.0073 24.5194 25.617 24.3733 25.2526C24.2272 24.8882 24.0086 24.5572 23.7308 24.2798C23.1638 23.728 22.4019 23.4225 21.6108 23.4298Z" fill="current"/>
</svg>
