<svg width="current" height="current" viewBox="0 0 48 48" fill="none" xmlns="http://www.w3.org/2000/svg">
<path d="M41.3899 37.67L37.7499 34C38.5611 32.6095 38.8386 30.9713 38.5307 29.3911C38.2227 27.811 37.3504 26.3969 36.0764 25.4127C34.8024 24.4285 33.2139 23.9414 31.6072 24.0424C30.0005 24.1434 28.4854 24.8255 27.3447 25.9615C26.204 27.0975 25.5156 28.6097 25.4079 30.216C25.3003 31.8222 25.7807 33.4128 26.7596 34.6908C27.7385 35.9689 29.149 36.8471 30.7278 37.1616C32.3067 37.4761 33.946 37.2054 35.3399 36.4001L38.9999 40.07L41.3899 37.67ZM32.0599 33.92C31.4306 33.922 30.8148 33.7372 30.2905 33.389C29.7662 33.0408 29.3571 32.5448 29.1149 31.9639C28.8727 31.383 28.8083 30.7433 28.9298 30.1258C29.0514 29.5083 29.3535 28.9407 29.7978 28.495C30.2421 28.0493 30.8087 27.7454 31.4259 27.6219C32.043 27.4984 32.6829 27.5608 33.2645 27.8012C33.8462 28.0416 34.3434 28.4491 34.6933 28.9723C35.0432 29.4955 35.2299 30.1107 35.2299 30.74C35.2273 31.5809 34.8928 32.3867 34.2992 32.9822C33.7055 33.5777 32.9008 33.9148 32.0599 33.92Z" fill="current"/>
<path d="M24.0799 35.3H13.9199C13.571 35.3003 13.2286 35.205 12.93 35.0244C12.6313 34.8438 12.3879 34.5849 12.2261 34.2757C12.0643 33.9665 11.9903 33.6189 12.0121 33.2706C12.0339 32.9223 12.1508 32.5866 12.3499 32.3L19.4699 22C19.6755 21.708 19.7808 21.3571 19.7699 21V12.7H24.3699V21C24.3646 21.3563 24.4693 21.7056 24.6699 22L25.9999 23.86C26.8574 23.1022 27.8473 22.509 28.9199 22.11L27.7899 20.47V12.7H30.0899V9.30005H14.0899V12.7H16.3899V20.47L9.54993 30.4C9.00341 31.196 8.6847 32.1261 8.62822 33.09C8.57174 34.0539 8.77963 35.0149 9.22944 35.8692C9.67926 36.7235 10.3539 37.4388 11.1806 37.9377C12.0072 38.4366 12.9544 38.7002 13.9199 38.7001H27.4599C26.0566 37.8801 24.8916 36.7082 24.0799 35.3Z" fill="current"/>
</svg>
