<svg width="current" height="current" viewBox="0 0 48 48" fill="none" xmlns="http://www.w3.org/2000/svg">
<path d="M33.3998 16.2998H33.2098C33.5198 15.5998 33.6998 14.8198 33.6998 13.9998C33.6998 11.4098 31.5898 9.2998 28.9998 9.2998C27.0098 9.2998 25.2298 10.1798 23.9998 11.5598C22.7698 10.1798 20.9898 9.2998 18.9998 9.2998C16.4098 9.2998 14.2998 11.4098 14.2998 13.9998C14.2998 14.8198 14.4798 15.5998 14.7898 16.2998H14.5998C11.6798 16.2998 9.2998 18.6798 9.2998 21.5998V33.3998C9.2998 36.3198 11.6798 38.6998 14.5998 38.6998H33.3998C36.3198 38.6998 38.6998 36.3198 38.6998 33.3998V21.5998C38.6998 18.6798 36.3198 16.2998 33.3998 16.2998ZM28.9998 12.6998C29.7198 12.6998 30.2998 13.2798 30.2998 13.9998C30.2998 15.2698 29.2698 16.2998 27.9998 16.2998H25.6998V15.9998C25.6998 14.1798 27.1798 12.6998 28.9998 12.6998ZM17.6998 13.9998C17.6998 13.2798 18.2798 12.6998 18.9998 12.6998C20.8198 12.6998 22.2998 14.1798 22.2998 15.9998V16.2998H19.9998C18.7298 16.2998 17.6998 15.2698 17.6998 13.9998ZM12.6998 33.3998V21.5998C12.6998 20.5498 13.5498 19.6998 14.5998 19.6998H22.2998V35.2998H14.5998C13.5498 35.2998 12.6998 34.4498 12.6998 33.3998ZM35.2998 33.3998C35.2998 34.4498 34.4498 35.2998 33.3998 35.2998H25.6998V19.6998H33.3998C34.4498 19.6998 35.2998 20.5498 35.2998 21.5998V33.3998Z" fill="current"/>
</svg>
