<svg width="current" height="current" viewBox="0 0 48 48" fill="none" xmlns="http://www.w3.org/2000/svg">
<path d="M25.0708 22.9498C27.0608 22.9498 28.6708 21.3398 28.6708 19.3498V13.8998C28.6708 11.9098 27.0608 10.2998 25.0708 10.2998H20.5308C18.5408 10.2998 16.9308 11.9098 16.9308 13.8998V16.2298H22.8008V17.9298H12.9008C10.9108 17.9298 9.30078 19.5398 9.30078 21.5298V26.0698C9.30078 28.0598 10.9108 29.6698 12.9008 29.6698H15.2308V27.9498C15.2308 25.1898 17.4708 22.9498 20.2308 22.9498H25.0708ZM21.0808 14.4498C20.5908 14.9398 19.8008 14.9398 19.3108 14.4498C18.8208 13.9598 18.8208 13.1698 19.3108 12.6798C19.8008 12.1898 20.5908 12.1898 21.0808 12.6798C21.5708 13.1698 21.5708 13.9598 21.0808 14.4498Z" fill="current"/>
<path d="M38.1008 24.8398H36.3008V21.5298C36.3008 19.5398 34.6908 17.9298 32.7008 17.9298H30.3708V19.6498C30.3708 22.4098 28.1308 24.6498 25.3708 24.6498H20.5308C18.5408 24.6498 16.9308 26.2598 16.9308 28.2498V33.6998C16.9308 35.6898 18.5408 37.2998 20.5308 37.2998H25.0708C26.0608 37.2998 26.9508 36.8998 27.6008 36.2598V37.3398C27.6008 38.9398 28.9008 40.2398 30.5008 40.2398H38.1008C39.7008 40.2398 41.0008 38.9398 41.0008 37.3398V27.7398C41.0008 26.1398 39.7008 24.8398 38.1008 24.8398ZM26.2908 34.9198C25.8008 35.4098 25.0108 35.4098 24.5208 34.9198C24.0308 34.4298 24.0308 33.6398 24.5208 33.1498C25.0108 32.6598 25.8008 32.6598 26.2908 33.1498C26.7808 33.6398 26.7808 34.4298 26.2908 34.9198ZM27.6008 31.3698H22.8008V29.6698H27.6008V31.3698ZM37.6908 34.2898C37.6908 35.7198 36.5208 36.8898 35.0908 36.8898H31.3408V35.1898H35.0908C35.5908 35.1898 35.9908 34.7898 35.9908 34.2898C35.9908 33.7898 35.5908 33.3898 35.0908 33.3898H32.7508V31.6898H35.0908C35.5908 31.6898 35.9908 31.2898 35.9908 30.7898C35.9908 30.2898 35.5908 29.8898 35.0908 29.8898H31.3408V28.1898H35.0908C35.2508 28.1898 35.4008 28.2098 35.5608 28.2398C36.7708 28.4598 37.6908 29.5198 37.6908 30.7898C37.6908 31.4598 37.4308 32.0798 37.0108 32.5398C37.4308 32.9998 37.6908 33.6198 37.6908 34.2898Z" fill="current"/>
</svg>
