<svg width="current" height="current" viewBox="0 0 48 48" fill="none" xmlns="http://www.w3.org/2000/svg">
<path d="M37.6998 13.1688V7.79883H34.2998V13.1688H28.9298V16.5688H34.2998V21.9388H37.6998V16.5688H43.0698V13.1688H37.6998Z" fill="current"/>
<path d="M34.2998 30.8988C34.2998 31.9488 33.4498 32.7988 32.3998 32.7988H15.5998C14.5498 32.7988 13.6998 31.9488 13.6998 30.8988V17.0988C13.6998 16.0488 14.5498 15.1988 15.5998 15.1988H17.8898C18.4898 15.1988 19.0698 15.4888 19.4198 15.9788L21.4798 18.7988C21.7998 19.2388 22.3098 19.4988 22.8498 19.4988H26.7198V16.0988H23.7098L22.1598 13.9788C21.1598 12.6188 19.5698 11.8088 17.8898 11.8088H15.5998C12.6798 11.8088 10.2998 14.1888 10.2998 17.1088V30.9088C10.2998 33.8288 12.6798 36.2088 15.5998 36.2088H32.3998C35.3198 36.2088 37.6998 33.8288 37.6998 30.9088V25.6488H34.2998V30.9088V30.8988Z" fill="current"/>
</svg>
