<svg width="current" height="current" viewBox="0 0 48 48" fill="none" xmlns="http://www.w3.org/2000/svg">
<path d="M17.8008 11.2998H15.2008C13.5992 11.2998 12.3008 12.5982 12.3008 14.1998V33.7998C12.3008 35.4014 13.5992 36.6998 15.2008 36.6998H17.8008C19.4024 36.6998 20.7008 35.4014 20.7008 33.7998V14.1998C20.7008 12.5982 19.4024 11.2998 17.8008 11.2998Z" fill="current"/>
<path d="M32.8008 11.2998H30.2008C28.5992 11.2998 27.3008 12.5982 27.3008 14.1998V33.7998C27.3008 35.4014 28.5992 36.6998 30.2008 36.6998H32.8008C34.4024 36.6998 35.7008 35.4014 35.7008 33.7998V14.1998C35.7008 12.5982 34.4024 11.2998 32.8008 11.2998Z" fill="current"/>
</svg>
