<svg width="current" height="current" viewBox="0 0 48 48" fill="none" xmlns="http://www.w3.org/2000/svg">
<path d="M33.4008 9.30005H14.6008C11.6808 9.30005 9.30078 11.68 9.30078 14.6V27.4C9.30078 30.32 11.6808 32.7001 14.6008 32.7001H22.2008V35.3H18.0008V38.7001H30.0008V35.3H25.8008V32.7001H33.4008C36.3208 32.7001 38.7008 30.32 38.7008 27.4V14.6C38.7008 11.68 36.3208 9.30005 33.4008 9.30005ZM26.4708 18.23L28.8108 15.77L32.4408 19.23C32.9208 19.69 33.2008 20.34 33.2008 21C33.2008 21.66 32.9208 22.32 32.4408 22.78L28.8108 26.24L26.4708 23.78L29.3808 21.01L26.4708 18.24V18.23ZM21.5408 23.77L19.2008 26.23L15.5708 22.77C15.0908 22.31 14.8108 21.66 14.8108 20.99C14.8108 20.32 15.0908 19.68 15.5708 19.22L19.2008 15.76L21.5408 18.22L18.6308 20.99L21.5408 23.76V23.77Z" fill="current"/>
</svg>
