<svg width="current" height="current" viewBox="0 0 48 48" fill="none" xmlns="http://www.w3.org/2000/svg">
<path d="M38.3507 35.9408L31.3507 28.9408C33.219 26.4624 34.0778 23.3676 33.7538 20.2809C33.4298 17.1942 31.9471 14.3453 29.6049 12.3088C27.2627 10.2724 24.2352 9.20006 21.1334 9.30824C18.0316 9.41642 15.0863 10.6971 12.8916 12.8917C10.697 15.0864 9.41642 18.0316 9.30824 21.1334C9.20006 24.2352 10.2723 27.2627 12.3087 29.6049C14.3451 31.9471 17.1941 33.4298 20.2808 33.7538C23.3676 34.0778 26.4623 33.2191 28.9407 31.3508L35.9407 38.3508L38.3507 35.9408ZM27.6508 23.3508H15.6508V19.9508H27.6508V23.3508Z" fill="current"/>
</svg>
