<svg width="current" height="current" viewBox="0 0 48 48" fill="none" xmlns="http://www.w3.org/2000/svg">
<path d="M38 22.3003H10V25.7003H24.67C27.22 26.4003 29.36 27.3003 29.36 29.8503C29.36 32.4003 27.16 34.1903 24.13 34.1903C20.92 34.1903 18.73 32.2703 18.6 29.3903H14.9C15.01 34.6403 18.62 38.0103 24.17 38.0103C29.72 38.0103 33.1 34.7803 33.1 29.7903C33.1 28.1603 32.74 26.8003 32 25.6903H38V22.2903V22.3003Z" fill="current"/>
<path d="M19.84 20.0503C19.25 19.4303 18.97 18.6803 18.97 17.7703C18.97 15.4803 20.96 13.8803 23.82 13.8803C26.68 13.8803 28.66 15.6403 28.78 18.2803H32.38C32.28 13.0903 29.13 10.0103 23.92 10.0103C18.71 10.0103 15.34 13.0603 15.34 17.9703C15.34 18.7103 15.42 19.3903 15.57 20.0503H19.85H19.84Z" fill="current"/>
</svg>
