<svg width="current" height="current" viewBox="0 0 48 48" fill="none" xmlns="http://www.w3.org/2000/svg">
<path d="M24 7.2998C14.79 7.2998 7.30005 14.7898 7.30005 23.9998C7.30005 33.2098 14.79 40.6998 24 40.6998C33.21 40.6998 40.7001 33.2098 40.7001 23.9998C40.7001 14.7898 33.21 7.2998 24 7.2998ZM17.94 25.5898C17.06 26.4698 15.64 26.4698 14.76 25.5898C13.88 24.7098 13.88 23.2898 14.76 22.4098C15.64 21.5298 17.06 21.5298 17.94 22.4098C18.82 23.2898 18.82 24.7098 17.94 25.5898ZM22.41 22.4098C23.29 21.5298 24.7101 21.5298 25.59 22.4098C26.47 23.2898 26.47 24.7098 25.59 25.5898C24.7101 26.4698 23.29 26.4698 22.41 25.5898C21.53 24.7098 21.53 23.2898 22.41 22.4098ZM30.06 25.5898C29.18 24.7098 29.18 23.2898 30.06 22.4098C30.94 21.5298 32.3601 21.5298 33.2401 22.4098C34.1201 23.2898 34.1201 24.7098 33.2401 25.5898C32.3601 26.4698 30.94 26.4698 30.06 25.5898Z" fill="current"/>
</svg>
