<svg width="current" height="current" viewBox="0 0 48 48" fill="none" xmlns="http://www.w3.org/2000/svg">
<path d="M17.4 9.30078H14.6C11.68 9.30078 9.30005 11.6808 9.30005 14.6008V17.4008C9.30005 20.3208 11.68 22.7008 14.6 22.7008H17.4C20.32 22.7008 22.7 20.3208 22.7 17.4008V14.6008C22.7 11.6808 20.32 9.30078 17.4 9.30078ZM19.3 17.4008C19.3 18.4408 18.44 19.3008 17.4 19.3008H14.6C13.56 19.3008 12.7 18.4408 12.7 17.4008V14.6008C12.7 13.5608 13.56 12.7008 14.6 12.7008H17.4C18.44 12.7008 19.3 13.5608 19.3 14.6008V17.4008Z" fill="current"/>
<path d="M33.4001 9.30078H30.6C27.68 9.30078 25.3 11.6808 25.3 14.6008V17.4008C25.3 20.3208 27.68 22.7008 30.6 22.7008H33.4001C36.3201 22.7008 38.7001 20.3208 38.7001 17.4008V14.6008C38.7001 11.6808 36.3201 9.30078 33.4001 9.30078ZM35.3 17.4008C35.3 18.4408 34.4401 19.3008 33.4001 19.3008H30.6C29.56 19.3008 28.7001 18.4408 28.7001 17.4008V14.6008C28.7001 13.5608 29.56 12.7008 30.6 12.7008H33.4001C34.4401 12.7008 35.3 13.5608 35.3 14.6008V17.4008Z" fill="current"/>
<path d="M17.4 25.3008H14.6C11.68 25.3008 9.30005 27.6808 9.30005 30.6008V33.4008C9.30005 36.3208 11.68 38.7008 14.6 38.7008H17.4C20.32 38.7008 22.7 36.3208 22.7 33.4008V30.6008C22.7 27.6808 20.32 25.3008 17.4 25.3008ZM19.3 33.4008C19.3 34.4408 18.44 35.3008 17.4 35.3008H14.6C13.56 35.3008 12.7 34.4408 12.7 33.4008V30.6008C12.7 29.5608 13.56 28.7008 14.6 28.7008H17.4C18.44 28.7008 19.3 29.5608 19.3 30.6008V33.4008Z" fill="current"/>
<path d="M32 38.7008C35.7004 38.7008 38.7001 35.7011 38.7001 32.0008C38.7001 28.3005 35.7004 25.3008 32 25.3008C28.2997 25.3008 25.3 28.3005 25.3 32.0008C25.3 35.7011 28.2997 38.7008 32 38.7008Z" fill="current"/>
</svg>
