<svg width="current" height="current" viewBox="0 0 48 48" fill="none" xmlns="http://www.w3.org/2000/svg">
<path d="M23.9989 39.5408C23.2876 39.5432 22.6004 39.2832 22.0688 38.8107C16.2188 33.6207 10.7988 27.9307 10.7988 21.5007C10.7988 17.9999 12.1895 14.6424 14.665 12.1669C17.1405 9.69139 20.498 8.30078 23.9989 8.30078C27.4997 8.30078 30.8571 9.69139 33.3326 12.1669C35.8081 14.6424 37.1988 17.9999 37.1988 21.5007C37.1988 27.9307 31.7788 33.6207 25.9188 38.8107C25.3893 39.2801 24.7065 39.5398 23.9989 39.5408ZM23.9989 11.5408C22.6898 11.5224 21.3906 11.7699 20.1802 12.2686C18.9697 12.7672 17.8731 13.5064 16.9568 14.4414C16.0404 15.3764 15.3235 16.4878 14.8495 17.7081C14.3754 18.9284 14.154 20.2324 14.1988 21.5408C14.1988 25.5408 17.0389 29.7907 23.9989 36.0107C30.9489 29.7907 33.7988 25.5808 33.7988 21.5408C33.8436 20.2324 33.6224 18.9284 33.1483 17.7081C32.6742 16.4878 31.9573 15.3764 31.041 14.4414C30.1247 13.5064 29.028 12.7672 27.8175 12.2686C26.607 11.7699 25.3079 11.5224 23.9989 11.5408Z" fill="current"/>
<path d="M24.0084 27.9317C22.3154 27.9186 20.6917 27.2583 19.4699 26.0862C18.2482 24.9142 17.5211 23.3193 17.4377 21.6284C17.3544 19.9374 17.9211 18.2786 19.0216 16.9921C20.1221 15.7056 21.6731 14.8889 23.3565 14.7093C25.04 14.5297 26.7283 15.0009 28.0754 16.0263C29.4225 17.0517 30.3263 18.5537 30.6015 20.2242C30.8767 21.8947 30.5024 23.6071 29.5554 25.0104C28.6084 26.4138 27.1605 27.4018 25.5084 27.7717C25.0156 27.8789 24.5127 27.9326 24.0084 27.9317ZM24.0084 17.9317C23.7462 17.9291 23.4845 17.9559 23.2284 18.0117C22.6356 18.1526 22.0936 18.4552 21.6628 18.8861C21.232 19.3169 20.9292 19.8589 20.7883 20.4516C20.6598 21.0021 20.6732 21.5762 20.8271 22.1202C20.981 22.6641 21.2704 23.16 21.6683 23.5616C22.2876 24.1809 23.1276 24.5289 24.0034 24.5289C24.8792 24.5289 25.7191 24.1809 26.3383 23.5616C26.9576 22.9423 27.3055 22.1024 27.3055 21.2266C27.3055 20.3508 26.9576 19.5109 26.3383 18.8917C26.0314 18.5852 25.6663 18.3433 25.2644 18.1801C24.8625 18.017 24.4321 17.9358 23.9984 17.9416L24.0084 17.9317Z" fill="current"/>
</svg>
