<svg width="current" height="current" viewBox="0 0 48 48" fill="none" xmlns="http://www.w3.org/2000/svg">
<path d="M22.9998 16.3504C24.7119 16.3504 26.0998 14.9625 26.0998 13.2504C26.0998 11.5383 24.7119 10.1504 22.9998 10.1504C21.2877 10.1504 19.8998 11.5383 19.8998 13.2504C19.8998 14.9625 21.2877 16.3504 22.9998 16.3504Z" fill="current"/>
<path d="M33.5598 37.0504L29.6198 30.7404C29.2698 30.1804 28.6698 29.8504 28.0098 29.8504H26.5998C23.6798 29.8504 21.2998 27.4704 21.2998 24.5504V18.1504H24.6998V24.5504C24.6998 25.6004 25.5498 26.4504 26.5998 26.4504H28.0098C29.8498 26.4504 31.5298 27.3804 32.4998 28.9404L36.4398 35.2504L33.5598 37.0504Z" fill="current"/>
<path d="M20.9998 37.8504C15.6498 37.8504 11.2998 33.5004 11.2998 28.1504C11.2998 24.4004 13.4998 20.9504 16.9098 19.3604L18.3498 22.4404C16.1398 23.4704 14.7098 25.7104 14.7098 28.1504C14.7098 31.6204 17.5398 34.4504 21.0098 34.4504C22.6898 34.4504 24.2798 33.7904 25.4698 32.6004L27.8698 35.0004C26.0398 36.8304 23.5998 37.8404 21.0098 37.8404L20.9998 37.8504Z" fill="current"/>
</svg>
