<svg width="current" height="current" viewBox="0 0 48 48" fill="none" xmlns="http://www.w3.org/2000/svg">
<path d="M31.4611 20.3203C31.2378 19.8002 30.8667 19.357 30.3938 19.0459C29.9209 18.7348 29.3671 18.5695 28.8011 18.5703H19.2011C18.6355 18.5722 18.0828 18.7393 17.6111 19.0513C17.1393 19.3632 16.7691 19.8063 16.5459 20.3259C16.3227 20.8456 16.2564 21.4192 16.355 21.9761C16.4536 22.533 16.713 23.0489 17.1011 23.4603L21.9011 28.5203C22.1703 28.8074 22.4956 29.0364 22.8568 29.1929C23.218 29.3494 23.6074 29.4302 24.0011 29.4303C24.3961 29.4292 24.7867 29.3479 25.1494 29.1915C25.512 29.0351 25.8392 28.8068 26.1111 28.5203L30.9011 23.4603C31.2922 23.0496 31.5539 22.5328 31.6535 21.9745C31.7531 21.4161 31.6861 20.8409 31.4611 20.3203Z" fill="current"/>
</svg>
