<svg width="current" height="current" viewBox="0 0 48 48" fill="none" xmlns="http://www.w3.org/2000/svg">
<path d="M39.2008 36.8L11.2008 8.80005L8.80078 11.2L15.3908 17.79C13.5708 18.63 12.3008 20.46 12.3008 22.59V25.39C12.3008 28.31 14.6808 30.69 17.6008 30.69H20.4508L29.1008 36.98C29.6108 37.35 30.2008 37.5401 30.8008 37.5401C31.2508 37.5401 31.7008 37.4401 32.1208 37.2201C32.7208 36.9101 33.1808 36.42 33.4408 35.84L36.8008 39.2001L39.2008 36.8ZM30.3008 33.66L22.0008 27.62C21.7108 27.41 21.3608 27.2901 21.0008 27.2901H17.6008C16.5508 27.2901 15.7008 26.44 15.7008 25.39V22.59C15.7008 21.54 16.5508 20.69 17.6008 20.69H18.3008L30.3008 32.69V33.66Z" fill="current"/>
<path d="M30.3008 14.34V23.9L33.7008 27.3V13.36C33.7008 12.26 33.0908 11.27 32.1208 10.78C31.1408 10.28 29.9908 10.37 29.1008 11.02L22.3408 15.94L24.7708 18.3701L30.3008 14.35V14.34Z" fill="current"/>
</svg>
