<svg width="current" height="current" viewBox="0 0 48 48" fill="none" xmlns="http://www.w3.org/2000/svg">
<path d="M34.4008 37.7001H13.6008C12.1959 37.6974 10.8494 37.1382 9.85603 36.1448C8.86266 35.1514 8.30342 33.8049 8.30078 32.4001V20.6C8.30342 19.1952 8.86266 17.8487 9.85603 16.8553C10.8494 15.8619 12.1959 15.3027 13.6008 15.3H16.0008L17.4508 12.87C17.9269 12.089 18.5949 11.4429 19.3914 10.993C20.1878 10.5432 21.0861 10.3046 22.0008 10.3H26.0008C26.9155 10.3046 27.8138 10.5432 28.6102 10.993C29.4066 11.4429 30.0747 12.089 30.5508 12.87L32.0008 15.3H34.4008C35.8056 15.3027 37.1522 15.8619 38.1455 16.8553C39.1389 17.8487 39.6981 19.1952 39.7008 20.6V32.4001C39.6981 33.8049 39.1389 35.1514 38.1455 36.1448C37.1522 37.1382 35.8056 37.6974 34.4008 37.7001ZM13.6008 18.7C13.0969 18.7 12.6136 18.9002 12.2573 19.2565C11.901 19.6129 11.7008 20.0961 11.7008 20.6V32.4001C11.7008 32.904 11.901 33.3872 12.2573 33.7436C12.6136 34.0999 13.0969 34.3 13.6008 34.3H34.4008C34.9047 34.3 35.388 34.0999 35.7443 33.7436C36.1006 33.3872 36.3008 32.904 36.3008 32.4001V20.6C36.3008 20.0961 36.1006 19.6129 35.7443 19.2565C35.388 18.9002 34.9047 18.7 34.4008 18.7H31.0008C30.7062 18.701 30.4165 18.6248 30.1604 18.4792C29.9043 18.3337 29.6907 18.1236 29.5408 17.87L27.5908 14.62C27.4251 14.3448 27.1924 14.116 26.9144 13.9551C26.6363 13.7942 26.322 13.7065 26.0008 13.7H22.0008C21.6728 13.6997 21.3503 13.7842 21.0646 13.9454C20.779 14.1066 20.54 14.339 20.3708 14.62L18.4208 17.87C18.2744 18.1179 18.0671 18.3242 17.8186 18.4695C17.5701 18.6147 17.2886 18.6941 17.0008 18.7H13.6008Z" fill="current"/>
<path d="M24.0008 32.2001C22.6756 32.2001 21.3803 31.8071 20.2785 31.0709C19.1767 30.3347 18.3179 29.2883 17.8108 28.064C17.3037 26.8398 17.171 25.4926 17.4295 24.1929C17.688 22.8933 18.3262 21.6994 19.2632 20.7624C20.2002 19.8254 21.394 19.1873 22.6937 18.9288C23.9933 18.6703 25.3405 18.8029 26.5648 19.3101C27.789 19.8172 28.8354 20.6759 29.5716 21.7777C30.3078 22.8795 30.7008 24.1749 30.7008 25.5C30.6981 27.2762 29.9914 28.9788 28.7355 30.2347C27.4796 31.4907 25.7769 32.1974 24.0008 32.2001ZM24.0008 22.2C23.3481 22.2 22.7101 22.3936 22.1674 22.7562C21.6247 23.1188 21.2017 23.6342 20.952 24.2372C20.7022 24.8402 20.6369 25.5037 20.7642 26.1438C20.8915 26.784 21.2058 27.372 21.6673 27.8335C22.1288 28.295 22.7168 28.6093 23.357 28.7366C23.9971 28.864 24.6606 28.7986 25.2636 28.5489C25.8666 28.2991 26.382 27.8761 26.7446 27.3334C27.1072 26.7907 27.3008 26.1527 27.3008 25.5C27.3008 24.6248 26.9531 23.7855 26.3342 23.1666C25.7154 22.5477 24.876 22.2 24.0008 22.2Z" fill="current"/>
<path d="M33.5008 23.2C34.4397 23.2 35.2008 22.4389 35.2008 21.5C35.2008 20.5612 34.4397 19.8 33.5008 19.8C32.5619 19.8 31.8008 20.5612 31.8008 21.5C31.8008 22.4389 32.5619 23.2 33.5008 23.2Z" fill="current"/>
</svg>
