<svg width="current" height="current" viewBox="0 0 48 48" fill="none" xmlns="http://www.w3.org/2000/svg">
<path d="M24 38.7896C20.21 38.7896 16.42 37.3496 13.54 34.4596C10.74 31.6696 9.20996 27.9496 9.20996 23.9996C9.20996 20.0496 10.75 16.3296 13.54 13.5396C16.19 10.8896 19.72 9.34962 23.46 9.20962C25.03 9.14962 26.6 9.34962 28.15 9.79962L27.14 13.2596C25.96 12.9196 24.77 12.7596 23.59 12.8096C20.76 12.9096 18.09 14.0796 16.08 16.0796C13.96 18.1996 12.8 21.0096 12.8 23.9996C12.8 26.9896 13.97 29.7996 16.08 31.9196C20.45 36.2896 27.55 36.2896 31.92 31.9196C34.81 29.0296 35.9 24.7896 34.75 20.8496L38.21 19.8396C39.73 25.0396 38.29 30.6396 34.47 34.4596C31.59 37.3496 27.8 38.7896 24.01 38.7896H24Z" fill="current"/>
</svg>
