<svg width="current" height="current" viewBox="0 0 48 48" fill="none" xmlns="http://www.w3.org/2000/svg">
<path d="M23.9998 7.30078C14.7898 7.30078 7.2998 14.7908 7.2998 24.0008C7.2998 33.2108 14.7898 40.7008 23.9998 40.7008C33.2098 40.7008 40.6998 33.2108 40.6998 24.0008C40.6998 14.7908 33.2098 7.30078 23.9998 7.30078ZM16.3198 28.1908C16.2398 27.7008 16.3698 27.1908 16.6998 26.8108C17.0198 26.4308 17.4998 26.2108 17.9998 26.2108H29.9998C30.4998 26.2108 30.9798 26.4308 31.2998 26.8108C31.6198 27.1908 31.7598 27.7008 31.6798 28.1908C31.0498 31.9108 27.8198 34.6008 23.9998 34.6008C20.1798 34.6008 16.9598 31.9008 16.3198 28.1908ZM18.4998 16.2008C20.8198 16.2008 22.6998 18.0808 22.6998 20.4008V22.4008H19.2998V20.4008C19.2998 19.9608 18.9398 19.6008 18.4998 19.6008C18.0598 19.6008 17.6998 19.9608 17.6998 20.4008V22.4008H14.2998V20.4008C14.2998 18.0808 16.1798 16.2008 18.4998 16.2008ZM30.2998 22.4008V20.4008C30.2998 19.9608 29.9398 19.6008 29.4998 19.6008C29.0598 19.6008 28.6998 19.9608 28.6998 20.4008V22.4008H25.2998V20.4008C25.2998 18.0808 27.1798 16.2008 29.4998 16.2008C31.8198 16.2008 33.6998 18.0808 33.6998 20.4008V22.4008H30.2998Z" fill="current"/>
</svg>
