<svg width="current" height="current" viewBox="0 0 48 48" fill="none" xmlns="http://www.w3.org/2000/svg">
<path d="M36.7998 28.2998H34.6998V13.5998C34.6998 10.6798 32.3198 8.2998 29.3998 8.2998H13.5998C10.6798 8.2998 8.2998 10.6798 8.2998 13.5998V35.4998C8.2998 37.8198 10.1798 39.6998 12.4998 39.6998H35.4998C35.6198 39.6998 35.7298 39.6898 35.8398 39.6698C37.9898 39.4898 39.6998 37.6998 39.6998 35.4998V31.1998C39.6998 29.5998 38.3998 28.2998 36.7998 28.2998ZM21.3398 28.7798C20.9098 29.2098 20.3198 29.4498 19.7198 29.4498C19.6998 29.4498 19.6898 29.4498 19.6698 29.4498C19.0498 29.4398 18.4498 29.1698 18.0298 28.7098L14.2498 24.6298L16.7398 22.3198L19.7498 25.5698L26.2998 19.0498L28.6998 21.4598L21.3498 28.7798H21.3398ZM36.2898 35.4998C36.2898 35.9398 35.9298 36.2998 35.4898 36.2998C35.0498 36.2998 34.6898 35.9398 34.6898 35.4998V31.6998H36.2898V35.4998Z" fill="current"/>
</svg>
