<svg width="current" height="current" viewBox="0 0 48 48" fill="none" xmlns="http://www.w3.org/2000/svg">
<path d="M23.9998 7.30078C14.7898 7.30078 7.2998 14.7908 7.2998 24.0008C7.2998 33.2108 14.7898 40.7008 23.9998 40.7008C33.2098 40.7008 40.6998 33.2108 40.6998 24.0008C40.6998 14.7908 33.2098 7.30078 23.9998 7.30078ZM18.4998 17.9008C19.8798 17.9008 20.9998 19.0208 20.9998 20.4008C20.9998 21.7808 19.8798 22.9008 18.4998 22.9008C17.1198 22.9008 15.9998 21.7808 15.9998 20.4008C15.9998 19.0208 17.1198 17.9008 18.4998 17.9008ZM17.9998 27.7008H29.9998V31.1008H17.9998V27.7008ZM29.4998 22.9008C28.1198 22.9008 26.9998 21.7808 26.9998 20.4008C26.9998 19.0208 28.1198 17.9008 29.4998 17.9008C30.8798 17.9008 31.9998 19.0208 31.9998 20.4008C31.9998 21.7808 30.8798 22.9008 29.4998 22.9008Z" fill="current"/>
</svg>
