<svg width="current" height="current" viewBox="0 0 48 48" fill="none" xmlns="http://www.w3.org/2000/svg">
<path d="M34.7998 11.9208H26.9998L25.8298 9.80078C25.3198 8.88078 24.3498 8.30078 23.2898 8.30078H11.9998C11.0598 8.30078 10.2998 9.06078 10.2998 10.0008V38.0008H13.6998V26.0808H22.9998L24.1698 28.2008C24.6798 29.1208 25.6498 29.7008 26.7098 29.7008H34.7998C36.3998 29.7008 37.6998 28.4008 37.6998 26.8008V14.8208C37.6998 13.2208 36.3998 11.9208 34.7998 11.9208ZM34.2998 26.3008H26.9998L25.8298 24.1808C25.3198 23.2608 24.3498 22.6808 23.2898 22.6808H13.6998V11.7008H22.9998L24.1698 13.8208C24.6798 14.7508 25.6498 15.3208 26.7098 15.3208H34.2998V26.3008Z" fill="current"/>
</svg>
