<svg width="current" height="current" viewBox="0 0 48 48" fill="none" xmlns="http://www.w3.org/2000/svg">
<path d="M21.6608 22.2199L24.0208 19.7799C21.6508 17.4899 17.8108 17.4899 15.4408 19.7799C14.2808 20.9099 13.6308 22.4099 13.6308 24.0099C13.6308 25.6099 14.2708 27.1099 15.4408 28.2399C16.6208 29.3799 18.1808 29.9499 19.7308 29.9499C21.2808 29.9499 22.8408 29.3799 24.0208 28.2399L21.6608 25.7999C20.6008 26.8299 18.8708 26.8299 17.8108 25.7999C17.3108 25.3199 17.0408 24.6899 17.0408 24.0199C17.0408 23.3499 17.3108 22.7199 17.8108 22.2399C18.8708 21.2099 20.6008 21.2099 21.6608 22.2399V22.2199Z" fill="current"/>
<path d="M37.1908 15.0799L25.3908 8.64986C24.5208 8.17986 23.4808 8.17986 22.6108 8.64986L10.8108 15.0799C9.88078 15.5899 9.30078 16.5599 9.30078 17.6299V30.3699C9.30078 31.4299 9.88078 32.4099 10.8108 32.9199L22.6108 39.3499C23.0408 39.5899 23.5208 39.6999 23.9908 39.6999C24.4608 39.6999 24.9408 39.5799 25.3808 39.3499L37.1808 32.9199C38.1108 32.4099 38.6908 31.4399 38.6908 30.3699V17.6299C38.6908 16.5699 38.1108 15.5899 37.1808 15.0799H37.1908ZM35.3008 30.0699L24.0008 36.2299L12.7008 30.0699V17.9199L24.0008 11.7599L35.3008 17.9199V30.0699Z" fill="current"/>
<path d="M25.3108 28.9999H27.8508L28.1808 27.1499H29.5408L29.2108 28.9999H31.7508L32.0808 27.1499H33.9508V24.6499H32.5208L32.7308 23.4599H34.3508V20.9599H33.1708L33.5108 19.0099H30.9708L30.6308 20.9599H29.2708L29.6108 19.0099H27.0708L26.7308 20.9599H24.7508V23.4599H26.2908L26.0808 24.6499H24.3508V27.1499H25.6408L25.3108 28.9999ZM28.8308 23.4499H30.1908L29.9808 24.6399H28.6208L28.8308 23.4499Z" fill="current"/>
</svg>
