<svg width="current" height="current" viewBox="0 0 48 48" fill="none" xmlns="http://www.w3.org/2000/svg">
<path d="M34.1997 27.8008L32.0597 25.6608V22.6408C32.0597 21.7008 31.2997 20.9408 30.3597 20.9408H27.3397L25.1997 18.8008C24.5397 18.1408 23.4597 18.1308 22.7997 18.8008L20.6597 20.9408H17.6397C16.6997 20.9408 15.9397 21.7008 15.9397 22.6408V25.6608L13.7997 27.8008C13.1397 28.4608 13.1397 29.5408 13.7997 30.2008L15.9397 32.3408V35.3608C15.9397 36.3008 16.6997 37.0608 17.6397 37.0608H20.6597L22.7997 39.2008C23.1297 39.5308 23.5697 39.7008 23.9997 39.7008C24.4297 39.7008 24.8697 39.5308 25.1997 39.2008L27.3397 37.0608H30.3597C31.2997 37.0608 32.0597 36.3008 32.0597 35.3608V32.3408L34.1997 30.2008C34.8597 29.5408 34.8597 28.4608 34.1997 27.8008ZM25.1997 30.2008C24.5397 30.8608 23.4597 30.8608 22.7997 30.2008C22.1397 29.5408 22.1397 28.4608 22.7997 27.8008C23.4597 27.1408 24.5397 27.1408 25.1997 27.8008C25.8597 28.4608 25.8597 29.5408 25.1997 30.2008Z" fill="current"/>
<path d="M21.5997 17.6008C21.8097 17.3908 22.0497 17.2208 22.2997 17.0708V8.30078H18.1997C16.5997 8.30078 15.2997 9.60078 15.2997 11.2008V16.1508C15.2997 16.7708 15.6397 17.3408 16.1797 17.6408L19.0797 19.2308H19.9597L21.5997 17.5908V17.6008Z" fill="current"/>
<path d="M28.0397 19.2408H28.9197L31.8197 17.6508C32.3597 17.3508 32.6997 16.7808 32.6997 16.1608V11.2108C32.6997 9.61078 31.3997 8.31078 29.7997 8.31078H25.6997V17.0808C25.9497 17.2308 26.1897 17.3908 26.3997 17.6108L28.0397 19.2508V19.2408Z" fill="current"/>
</svg>
