<svg width="current" height="current" viewBox="0 0 48 48" fill="none" xmlns="http://www.w3.org/2000/svg">
<path d="M33.6395 34.9998C33.6394 32.5519 32.9314 30.1562 31.6006 28.1015C30.2699 26.0469 28.3733 24.421 26.1395 23.4198V23.1998C26.1395 22.4307 25.8339 21.6931 25.2901 21.1492C24.7462 20.6054 24.0086 20.2998 23.2395 20.2998H18.6395C17.8703 20.2998 17.1327 20.6054 16.5888 21.1492C16.045 21.6931 15.7395 22.4307 15.7395 23.1998V23.4198C13.5056 24.421 11.609 26.0469 10.2783 28.1015C8.94754 30.1562 8.23948 32.5519 8.23945 34.9998V36.2998H6.93945V39.6998H34.9395V36.2998H33.6395V34.9998ZM11.6395 36.2998V34.9998C11.6385 33.4785 12.0121 31.9803 12.7271 30.6374C13.4421 29.2945 14.4767 28.1483 15.7395 27.2998V29.9998H19.1395V23.6998H22.7395V29.9998H26.1395V27.2998C27.4022 28.1483 28.4368 29.2945 29.1518 30.6374C29.8668 31.9803 30.2404 33.4785 30.2395 34.9998V36.2998H11.6395Z" fill="current"/>
<path d="M40.2595 18.2198L39.5795 17.5198C39.4181 17.3498 39.3286 17.1242 39.3295 16.8898C39.3286 16.6555 39.4181 16.4298 39.5795 16.2598L40.2595 15.5598C40.4758 15.3324 40.6131 15.0412 40.6509 14.7296C40.6887 14.418 40.6251 14.1024 40.4695 13.8298L39.5495 12.2398C39.3933 11.9676 39.1525 11.7539 38.8637 11.6311C38.5748 11.5084 38.2538 11.4833 37.9495 11.5598L36.9495 11.7998C36.7261 11.8564 36.4895 11.8241 36.2895 11.7098C36.0838 11.5921 35.9329 11.3981 35.8695 11.1698L35.5995 10.2298C35.5026 9.938 35.316 9.68422 35.0664 9.50465C34.8169 9.32509 34.5169 9.2289 34.2095 9.22982H32.4195C32.1056 9.22316 31.798 9.31782 31.5423 9.49975C31.2865 9.68168 31.0961 9.9412 30.9995 10.2398L30.7295 11.1798C30.6657 11.3999 30.5186 11.5865 30.3195 11.6998C30.1061 11.8173 29.8572 11.8528 29.6195 11.7998L28.6995 11.5598C28.3951 11.485 28.0747 11.5109 27.7862 11.6334C27.4978 11.756 27.2568 11.9688 27.0995 12.2398L26.1795 13.8298C26.0238 14.1024 25.9602 14.418 25.998 14.7296C26.0359 15.0412 26.1731 15.3324 26.3895 15.5598L27.0695 16.2598C27.2298 16.4304 27.319 16.6557 27.319 16.8898C27.319 17.1239 27.2298 17.3492 27.0695 17.5198L26.3895 18.2098C26.1654 18.4461 26.0262 18.7501 25.9937 19.0741C25.9611 19.398 26.037 19.7237 26.2095 19.9998L27.1295 21.5898C27.2892 21.8586 27.5304 22.0694 27.8182 22.1917C28.1059 22.314 28.4251 22.3414 28.7295 22.2698L29.7295 22.0298C29.8382 21.9999 29.952 21.9924 30.0637 22.0079C30.1755 22.0233 30.2829 22.0614 30.3795 22.1198C30.5842 22.2455 30.7368 22.4408 30.8095 22.6698L31.0695 23.5898C31.1576 23.891 31.3403 24.1557 31.5907 24.3448C31.8411 24.534 32.1457 24.6374 32.4595 24.6398H34.2995C34.6132 24.6374 34.9178 24.534 35.1682 24.3448C35.4186 24.1557 35.6013 23.891 35.6895 23.5898L35.9595 22.6398C36.023 22.4251 36.1661 22.2427 36.3595 22.1298C36.5522 22.0161 36.7776 21.9703 36.9995 21.9998L37.9295 22.2398C38.2338 22.3113 38.553 22.284 38.8408 22.1617C39.1285 22.0394 39.3697 21.8286 39.5295 21.5598L40.4695 19.9998C40.6373 19.722 40.7078 19.3962 40.6697 19.0738C40.6317 18.7514 40.4873 18.451 40.2595 18.2198ZM33.3395 19.7398C32.7758 19.7398 32.2248 19.5727 31.7561 19.2595C31.2874 18.9463 30.9221 18.5012 30.7064 17.9805C30.4907 17.4597 30.4342 16.8867 30.5442 16.3338C30.6542 15.781 30.9256 15.2731 31.3242 14.8746C31.7228 14.476 32.2306 14.2046 32.7834 14.0946C33.3363 13.9846 33.9093 14.0411 34.4301 14.2568C34.9509 14.4725 35.396 14.8378 35.7091 15.3064C36.0223 15.7751 36.1895 16.3261 36.1895 16.8898C36.1868 17.6449 35.8857 18.3683 35.3518 18.9022C34.8179 19.4361 34.0945 19.7372 33.3395 19.7398Z" fill="current"/>
</svg>
