<svg width="current" height="current" viewBox="0 0 48 48" fill="none" xmlns="http://www.w3.org/2000/svg">
<path d="M23.9994 35.2C15.7494 35.2 10.5994 29.99 8.52938 25.12C8.21937 24.4 8.21937 23.6 8.52938 22.87C10.5994 18 15.7394 12.79 23.9994 12.79C34.3794 12.79 38.4694 20.5 39.4694 22.87C39.7794 23.59 39.7794 24.39 39.4694 25.11C38.4694 27.48 34.3794 35.19 23.9994 35.19V35.2ZM11.7494 24C12.6794 26.08 15.9794 31.8 23.9994 31.8C32.0194 31.8 35.3194 26.08 36.2494 24C35.3194 21.92 32.0194 16.2 23.9994 16.2C15.9794 16.2 12.6794 21.92 11.7494 24Z" fill="current"/>
<path d="M23.9994 30.7C20.3094 30.7 17.2994 27.69 17.2994 24C17.2994 20.31 20.3094 17.3 23.9994 17.3C27.6894 17.3 30.6994 20.31 30.6994 24C30.6994 27.69 27.6894 30.7 23.9994 30.7ZM23.9994 20.7C22.1794 20.7 20.6994 22.18 20.6994 24C20.6994 25.82 22.1794 27.3 23.9994 27.3C25.8194 27.3 27.2994 25.82 27.2994 24C27.2994 22.18 25.8194 20.7 23.9994 20.7Z" fill="current"/>
</svg>
