<svg width="current" height="current" viewBox="0 0 48 48" fill="none" xmlns="http://www.w3.org/2000/svg">
<path d="M33.7001 16.1998V13.5998C33.7001 10.6798 31.32 8.2998 28.4 8.2998H19.6C16.68 8.2998 14.3 10.6798 14.3 13.5998V16.1998C14.3 17.8598 15.09 19.4398 16.42 20.4398L21.17 23.9998L16.43 27.5598C15.1 28.5598 14.31 30.1398 14.31 31.7998V34.3998C14.31 37.3198 16.69 39.6998 19.61 39.6998H28.41C31.33 39.6998 33.71 37.3198 33.71 34.3998V31.7998C33.71 30.1398 32.92 28.5598 31.59 27.5598L26.84 23.9998L31.59 20.4398C32.92 19.4398 33.71 17.8598 33.71 16.1998H33.7001Z" fill="current"/>
</svg>
