<svg width="current" height="current" viewBox="0 0 48 48" fill="none" xmlns="http://www.w3.org/2000/svg">
<path d="M31.4008 9.30078H16.6008C15.1952 9.30078 13.8471 9.85921 12.8531 10.8531C11.8592 11.8471 11.3008 13.1951 11.3008 14.6007V35.8008C11.2985 36.3039 11.4285 36.7987 11.6777 37.2357C11.9269 37.6727 12.2866 38.0366 12.7208 38.2908C13.1571 38.5427 13.652 38.6753 14.1558 38.6753C14.6596 38.6753 15.1545 38.5427 15.5908 38.2908L24.0008 33.7008L32.4108 38.2908C32.8521 38.5318 33.3484 38.6539 33.8511 38.6451C34.3538 38.6364 34.8456 38.4971 35.2783 38.241C35.7109 37.9848 36.0695 37.6207 36.3189 37.1841C36.5683 36.7475 36.6999 36.2535 36.7008 35.7507V14.5508C36.6876 13.1538 36.1234 11.8185 35.1309 10.8353C34.1384 9.85217 32.7978 9.30072 31.4008 9.30078Z" fill="current"/>
</svg>
