<svg width="current" height="current" viewBox="0 0 48 48" fill="none" xmlns="http://www.w3.org/2000/svg">
<path d="M28.8299 9.9008C27.1795 9.88512 25.5566 10.3235 24.1387 11.1681C22.7207 12.0127 21.5623 13.231 20.7902 14.6896C20.018 16.1483 19.6618 17.7912 19.7605 19.4386C19.8592 21.0861 20.409 22.6748 21.3499 24.0308L10.6299 34.7107L13.0299 37.1208L15.0299 35.1208L17.7499 37.8407L20.1599 35.4308L17.4399 32.7207L18.9599 31.2007L21.6699 33.9208L24.0799 31.5108L21.3599 28.8008L23.6799 26.4707C24.8474 27.2346 26.1766 27.7166 27.5624 27.8786C28.9482 28.0406 30.3527 27.8782 31.6649 27.4042C32.9772 26.9302 34.1613 26.1576 35.1237 25.1474C36.086 24.1372 36.8003 22.917 37.2102 21.5833C37.6201 20.2496 37.7142 18.8389 37.4853 17.4626C37.2563 16.0862 36.7106 14.782 35.891 13.6529C35.0714 12.5237 34.0005 11.6006 32.7629 10.9563C31.5253 10.3121 30.1549 9.96449 28.7599 9.94084L28.8299 9.9008ZM28.8299 24.6007C27.7124 24.6007 26.6201 24.2694 25.6909 23.6486C24.7618 23.0278 24.0376 22.1454 23.61 21.113C23.1824 20.0806 23.0704 18.9445 23.2885 17.8486C23.5065 16.7526 24.0446 15.7458 24.8347 14.9556C25.6249 14.1654 26.6316 13.6273 27.7276 13.4093C28.8236 13.1913 29.9597 13.3032 30.9921 13.7309C32.0245 14.1585 32.9069 14.8827 33.5277 15.8118C34.1485 16.7409 34.4799 17.8333 34.4799 18.9507C34.4825 19.6948 34.3384 20.4323 34.0557 21.1206C33.7731 21.809 33.3575 22.4349 32.8327 22.9624C32.3079 23.49 31.6843 23.9088 30.9974 24.1951C30.3106 24.4814 29.574 24.6295 28.8299 24.6308V24.6007Z" fill="current"/>
</svg>
