<svg width="current" height="current" viewBox="0 0 48 48" fill="none" xmlns="http://www.w3.org/2000/svg">
<path d="M37.07 14.3008H30.07V12.2007C30.0674 11.4324 29.761 10.6964 29.2177 10.1531C28.6744 9.60979 27.9383 9.30342 27.17 9.30078H20.9C20.1309 9.30078 19.3933 9.60629 18.8494 10.1501C18.3055 10.694 18 11.4316 18 12.2007V14.3008H11V17.7007H12.3V33.4009C12.3027 34.8057 12.8619 36.1521 13.8553 37.1455C14.8486 38.1389 16.1952 38.698 17.6 38.7007H30.4C31.8049 38.698 33.1514 38.1389 34.1447 37.1455C35.1381 36.1521 35.6974 34.8057 35.7 33.4009V17.7007H37L37.07 14.3008ZM21.44 12.7007H26.7V14.3008H21.44V12.7007ZM22.77 30.5007H19.37V22.5007H22.77V30.5007ZM28.77 30.5007H25.37V22.5007H28.77V30.5007Z" fill="current"/>
</svg>
