<svg width="current" height="current" viewBox="0 0 48 48" fill="none" xmlns="http://www.w3.org/2000/svg">
<path d="M31.4008 39.7003H16.6008C13.6808 39.7003 11.3008 37.3203 11.3008 34.4003V18.0003C11.3008 17.5503 11.4808 17.1203 11.8008 16.8003L19.8008 8.80029C20.1208 8.48029 20.5508 8.30029 21.0008 8.30029H31.4008C34.3208 8.30029 36.7008 10.6803 36.7008 13.6003V34.4003C36.7008 37.3203 34.3208 39.7003 31.4008 39.7003ZM14.7008 18.7003V34.4003C14.7008 35.4503 15.5508 36.3003 16.6008 36.3003H31.4008C32.4508 36.3003 33.3008 35.4503 33.3008 34.4003V13.6003C33.3008 12.5503 32.4508 11.7003 31.4008 11.7003H21.7008L14.7008 18.7003Z" fill="current"/>
<path d="M31.1008 15.0003H27.7008V21.0003H31.1008V15.0003Z" fill="current"/>
<path d="M25.1008 15.0003H21.7008V21.0003H25.1008V15.0003Z" fill="current"/>
</svg>
