<svg width="current" height="current" viewBox="0 0 48 48" fill="none" xmlns="http://www.w3.org/2000/svg">
<path d="M23.9998 40.7003C14.7898 40.7003 7.2998 33.2103 7.2998 24.0003C7.2998 14.7903 14.7898 7.30029 23.9998 7.30029C33.2098 7.30029 40.6998 14.7903 40.6998 24.0003C40.6998 33.2103 33.2098 40.7003 23.9998 40.7003ZM23.9998 10.7003C16.6698 10.7003 10.6998 16.6703 10.6998 24.0003C10.6998 31.3303 16.6698 37.3003 23.9998 37.3003C31.3298 37.3003 37.2998 31.3303 37.2998 24.0003C37.2998 16.6703 31.3298 10.7003 23.9998 10.7003Z" fill="current"/>
<path d="M30.0598 22.4103C29.1798 23.2903 29.1798 24.7103 30.0598 25.5903C30.9398 26.4703 32.3598 26.4703 33.2398 25.5903C34.1198 24.7103 34.1198 23.2903 33.2398 22.4103C32.3598 21.5303 30.9398 21.5303 30.0598 22.4103Z" fill="current"/>
<path d="M14.7598 22.4103C13.8798 23.2903 13.8798 24.7103 14.7598 25.5903C15.6398 26.4703 17.0598 26.4703 17.9398 25.5903C18.8198 24.7103 18.8198 23.2903 17.9398 22.4103C17.0598 21.5303 15.6398 21.5303 14.7598 22.4103Z" fill="current"/>
<path d="M22.4098 22.4103C21.5298 23.2903 21.5298 24.7103 22.4098 25.5903C23.2898 26.4703 24.7098 26.4703 25.5898 25.5903C26.4698 24.7103 26.4698 23.2903 25.5898 22.4103C24.7098 21.5303 23.2898 21.5303 22.4098 22.4103Z" fill="current"/>
</svg>
