<svg width="current" height="current" viewBox="0 0 48 48" fill="none" xmlns="http://www.w3.org/2000/svg">
<path d="M33.4008 9.29883H14.6008C11.6808 9.29883 9.30078 11.6788 9.30078 14.5988V33.3988C9.30078 36.3188 11.6808 38.6988 14.6008 38.6988H33.4008C36.3208 38.6988 38.7008 36.3188 38.7008 33.3988V14.5988C38.7008 11.6788 36.3208 9.29883 33.4008 9.29883ZM35.3008 33.3988C35.3008 34.4488 34.4508 35.2988 33.4008 35.2988H14.6008C13.5508 35.2988 12.7008 34.4488 12.7008 33.3988V14.5988C12.7008 13.5488 13.5508 12.6988 14.6008 12.6988H33.4008C34.4508 12.6988 35.3008 13.5488 35.3008 14.5988V33.3988Z" fill="current"/>
<path d="M30.5108 23.1188C30.0008 22.1988 29.0308 21.6288 27.9708 21.6288C26.9108 21.6288 25.9508 22.1988 25.4308 23.1188L22.8708 27.7288L21.4408 25.5888C20.9008 24.7788 20.0008 24.2988 19.0308 24.2988C18.0608 24.2988 17.1608 24.7788 16.6208 25.5888L14.8908 28.1888C14.3008 29.0788 14.2408 30.2188 14.7508 31.1688C15.2508 32.1188 16.2408 32.6988 17.3108 32.6988H30.9108C31.9508 32.6988 32.8808 32.1688 33.4108 31.2688C33.9408 30.3788 33.9508 29.2988 33.4508 28.3888L30.5208 23.1188H30.5108Z" fill="current"/>
</svg>
