<svg width="current" height="current" viewBox="0 0 48 48" fill="none" xmlns="http://www.w3.org/2000/svg">
<path d="M35.6208 14.13L26.2208 9.78999C24.8108 9.13999 23.1908 9.13999 21.7808 9.78999L12.3808 14.13C10.5108 14.99 9.30078 16.88 9.30078 18.94V33.4C9.30078 36.32 11.6808 38.7 14.6008 38.7H33.4008C36.3208 38.7 38.7008 36.32 38.7008 33.4V18.94C38.7008 16.88 37.4908 14.99 35.6208 14.13ZM24.8508 25V23.7H26.3008V27.3H21.7008V23.7H23.1508V25H24.8508ZM30.3008 34.3H25.7008V30.7H27.1508V32H28.8508V30.7H30.3008V34.3ZM19.1508 30.7V32H20.8508V30.7H22.3008V34.3H17.7008V30.7H19.1508ZM35.3008 33.4C35.3008 34.36 34.5808 35.15 33.6508 35.27C33.6808 35.11 33.7008 34.96 33.7008 34.8V30.2C33.7008 28.6 32.4008 27.3 30.8008 27.3H29.7008V23.2C29.7008 21.6 28.4008 20.3 26.8008 20.3H21.2008C19.6008 20.3 18.3008 21.6 18.3008 23.2V27.3H17.2008C15.6008 27.3 14.3008 28.6 14.3008 30.2V34.8C14.3008 34.96 14.3208 35.12 14.3508 35.27C13.4208 35.15 12.7008 34.36 12.7008 33.4V18.94C12.7008 18.2 13.1308 17.52 13.8008 17.22L23.2008 12.88C23.4508 12.76 23.7308 12.71 24.0008 12.71C24.2708 12.71 24.5408 12.77 24.8008 12.88L34.2008 17.22C34.8708 17.53 35.3008 18.21 35.3008 18.95V33.41V33.4Z" fill="current"/>
</svg>
