<svg width="current" height="current" viewBox="0 0 48 48" fill="none" xmlns="http://www.w3.org/2000/svg">
<path d="M36.7998 28.2988H34.6998V13.5988C34.6998 10.6788 32.3198 8.29883 29.3998 8.29883H13.5998C10.6798 8.29883 8.2998 10.6788 8.2998 13.5988V35.4988C8.2998 37.8188 10.1798 39.6988 12.4998 39.6988H35.4998C35.6198 39.6988 35.7298 39.6888 35.8398 39.6688C37.9898 39.4888 39.6998 37.6988 39.6998 35.4988V31.1988C39.6998 29.5988 38.3998 28.2988 36.7998 28.2988ZM12.4998 36.2988C12.0598 36.2988 11.6998 35.9388 11.6998 35.4988V13.5988C11.6998 12.5488 12.5498 11.6988 13.5998 11.6988H29.3998C30.4498 11.6988 31.2998 12.5488 31.2998 13.5988V35.4988C31.2998 35.7688 31.3298 36.0388 31.3798 36.2988H12.4998ZM34.6998 35.4988V31.6988H36.2998V35.4988C36.2998 35.9388 35.9398 36.2988 35.4998 36.2988C35.0598 36.2988 34.6998 35.9388 34.6998 35.4988Z" fill="current"/>
<path d="M19.7498 25.5588L16.7398 22.3088L14.2498 24.6188L18.0298 28.6988C18.4498 29.1588 19.0498 29.4288 19.6698 29.4388C19.6898 29.4388 19.6998 29.4388 19.7198 29.4388C20.3198 29.4388 20.9098 29.1988 21.3398 28.7688L28.6898 21.4488L26.2898 19.0388L19.7398 25.5588H19.7498Z" fill="current"/>
</svg>
