<svg width="current" height="current" viewBox="0 0 48 48" fill="none" xmlns="http://www.w3.org/2000/svg">
<path d="M37.5198 17.2608C37.5198 17.2608 37.4898 17.2008 37.4698 17.1608C37.3998 17.0308 37.3098 16.9108 37.1998 16.8008L29.1998 8.80078C29.0898 8.69078 28.9698 8.61078 28.8398 8.53078C28.8098 8.51078 28.7798 8.49078 28.7398 8.48078C28.6098 8.42078 28.4698 8.36078 28.3298 8.33078C28.2198 8.31078 28.1098 8.30078 27.9998 8.30078H15.5998C12.6798 8.30078 10.2998 10.6808 10.2998 13.6008V34.4008C10.2998 37.3208 12.6798 39.7008 15.5998 39.7008H32.3998C35.3198 39.7008 37.6998 37.3208 37.6998 34.4008V18.0008C37.6998 17.7408 37.6298 17.4908 37.5198 17.2608ZM31.8998 16.3008H29.6998V14.1008L31.8998 16.3008ZM32.3998 36.3008H15.5998C14.5498 36.3008 13.6998 35.4508 13.6998 34.4008V13.6008C13.6998 12.5508 14.5498 11.7008 15.5998 11.7008H26.2998V16.8008C26.2998 18.4008 27.5998 19.7008 29.1998 19.7008H34.2998V34.4008C34.2998 35.4508 33.4498 36.3008 32.3998 36.3008Z" fill="current"/>
</svg>
