<svg width="current" height="current" viewBox="0 0 48 48" fill="none" xmlns="http://www.w3.org/2000/svg">
<path d="M24 7.30078C14.79 7.30078 7.30005 14.7908 7.30005 24.0008C7.30005 33.2108 14.79 40.7008 24 40.7008C33.21 40.7008 40.7001 33.2108 40.7001 24.0008C40.7001 14.7908 33.21 7.30078 24 7.30078ZM25.32 27.9208C24.68 28.7108 23.33 28.7108 22.68 27.9208L19.2 23.6308V30.8408H15.8V18.8408C15.8 18.1208 16.25 17.4808 16.93 17.2408C17.61 17.0008 18.36 17.2108 18.82 17.7708L24 24.1508L29.18 17.7708C29.6301 17.2108 30.39 17.0008 31.07 17.2408C31.75 17.4808 32.2001 18.1208 32.2001 18.8408V30.8408H28.8V23.6308L25.32 27.9108V27.9208Z" fill="current"/>
</svg>
