<svg width="current" height="current" viewBox="0 0 48 48" fill="none" xmlns="http://www.w3.org/2000/svg">
<path d="M33.3998 15.3H30.1998V12.2C30.1998 10.6 28.8998 9.30005 27.2998 9.30005H20.6998C19.0998 9.30005 17.7998 10.6 17.7998 12.2V15.3H14.5998C11.6798 15.3 9.2998 17.68 9.2998 20.6V33.4001C9.2998 36.3201 11.6798 38.7001 14.5998 38.7001H33.3998C36.3198 38.7001 38.6998 36.3201 38.6998 33.4001V20.6C38.6998 17.68 36.3198 15.3 33.3998 15.3ZM21.1998 12.7H26.7998V15.3H21.1998V12.7ZM14.5998 18.7H33.3998C34.4498 18.7 35.2998 19.55 35.2998 20.6V22.3H12.6998V20.6C12.6998 19.55 13.5498 18.7 14.5998 18.7ZM33.3998 35.3H14.5998C13.5498 35.3 12.6998 34.4501 12.6998 33.4001V25.7001H22.2998V29H25.6998V25.7001H35.2998V33.4001C35.2998 34.4501 34.4498 35.3 33.3998 35.3Z" fill="current"/>
</svg>
