<svg width="current" height="current" viewBox="0 0 48 48" fill="none" xmlns="http://www.w3.org/2000/svg">
<path d="M33.4008 9.2998H14.6008C13.1959 9.30245 11.8494 9.86169 10.856 10.8551C9.86266 11.8484 9.30342 13.195 9.30078 14.5998V33.3998C9.30342 34.8046 9.86266 36.1512 10.856 37.1446C11.8494 38.1379 13.1959 38.6972 14.6008 38.6998H33.4008C34.8056 38.6972 36.1522 38.1379 37.1455 37.1446C38.1389 36.1512 38.6981 34.8046 38.7008 33.3998V14.5998C38.6981 13.195 38.1389 11.8484 37.1455 10.8551C36.1522 9.86169 34.8056 9.30245 33.4008 9.2998ZM12.7008 33.3998V14.5998C12.7008 14.0959 12.901 13.6126 13.2573 13.2563C13.6136 12.9 14.0969 12.6998 14.6008 12.6998H22.3008V35.2998H14.6008C14.0969 35.2998 13.6136 35.0996 13.2573 34.7433C12.901 34.387 12.7008 33.9037 12.7008 33.3998ZM35.3008 33.3998C35.3008 33.9037 35.1006 34.387 34.7443 34.7433C34.388 35.0996 33.9047 35.2998 33.4008 35.2998H25.7008V12.6998H33.4008C33.9047 12.6998 34.388 12.9 34.7443 13.2563C35.1006 13.6126 35.3008 14.0959 35.3008 14.5998V33.3998Z" fill="current"/>
</svg>
