<svg width="current" height="current" viewBox="0 0 48 48" fill="none" xmlns="http://www.w3.org/2000/svg">
<path d="M37.0003 34.3H11.0003V37.7H37.0003V34.3Z" fill="current"/>
<path d="M13.9003 31.71C13.1403 31.71 12.4003 31.41 11.8503 30.86C11.1603 30.18 10.8703 29.2 11.0503 28.25L11.9403 23.75C12.0003 23.42 12.1703 23.11 12.4103 22.88L24.1302 11.16C25.2603 10.03 27.1003 10.03 28.2303 11.16L31.5603 14.49C32.6903 15.62 32.6903 17.46 31.5603 18.59L19.8403 30.31C19.6003 30.55 19.3003 30.71 18.9703 30.78L14.4703 31.67C14.2803 31.71 14.0903 31.72 13.9103 31.72L13.9003 31.71ZM15.1803 24.91L14.5403 28.17L17.8003 27.53L28.8003 16.53L26.1803 13.91L15.1803 24.91Z" fill="current"/>
</svg>
