<svg width="current" height="current" viewBox="0 0 18 18" fill="none" xmlns="http://www.w3.org/2000/svg">
<path d="M5.60577 10.6236H8.61387V15.2045H9.36589V10.6236H12.374C12.5731 10.6236 12.75 10.4531 12.75 10.2614V9.25994C12.75 8.53551 12.1749 7.91761 11.445 7.83238L11.2238 5.97869C11.2017 5.80824 11.0469 5.65909 10.8478 5.65909H7.15405C6.95499 5.65909 6.80016 5.78693 6.77804 5.97869L6.55686 7.81108C5.82695 7.8963 5.25187 8.4929 5.25187 9.23863V10.2401C5.22976 10.4744 5.4067 10.6236 5.60577 10.6236Z" fill="current"/>
<path d="M6.33932 4.97727H11.6607C11.8764 4.97727 12.0682 4.77525 12.0682 4.54798V3.63889C12.0682 2.88131 11.4689 2.25 10.7498 2.25H7.25018C6.53108 2.25 5.93182 2.88131 5.93182 3.63889V4.54798C5.93182 4.8005 6.12359 4.97727 6.33932 4.97727Z" fill="current"/>
</svg>
