<svg width="current" height="current" viewBox="0 0 24 24" fill="none" xmlns="http://www.w3.org/2000/svg">
<path d="M17.1999 16.8499H9.7999C8.3399 16.8499 7.1499 15.6599 7.1499 14.1999V6.7999C7.1499 5.3399 8.3399 4.1499 9.7999 4.1499H17.1999C18.6599 4.1499 19.8499 5.3399 19.8499 6.7999V14.1999C19.8499 15.6599 18.6599 16.8499 17.1999 16.8499ZM9.7999 5.8499C9.2749 5.8499 8.8499 6.2749 8.8499 6.7999V14.1999C8.8499 14.7249 9.2749 15.1499 9.7999 15.1499H17.1999C17.7249 15.1499 18.1499 14.7249 18.1499 14.1999V6.7999C18.1499 6.2749 17.7249 5.8499 17.1999 5.8499H9.7999Z" fill="current"/>
<path d="M15.9999 19.8499H6.7999C5.3399 19.8499 4.1499 18.6599 4.1499 17.1999V7.9999H5.8499V17.1999C5.8499 17.7249 6.2749 18.1499 6.7999 18.1499H15.9999V19.8499Z" fill="current"/>
<path d="M12.6199 13.0999H12.5899C12.1949 13.0899 11.8299 12.9299 11.5599 12.6399L9.8799 10.8399L11.1199 9.6799L12.6249 11.2899L15.8999 8.0599L17.0949 9.2699L13.6349 12.6849C13.3599 12.9549 12.9999 13.1049 12.6149 13.1049L12.6199 13.0999Z" fill="current"/>
</svg>
