<svg width="current" height="current" viewBox="0 0 48 48" fill="none" xmlns="http://www.w3.org/2000/svg">
<path d="M33.3508 11.3008H31.6508V11.2008C31.6508 10.4317 31.3452 9.694 30.8014 9.15015C30.2575 8.60629 29.5199 8.30078 28.7508 8.30078H19.2008C18.4317 8.30078 17.6941 8.60629 17.1502 9.15015C16.6064 9.694 16.3008 10.4317 16.3008 11.2008V11.3008H14.6008C13.1952 11.3008 11.8471 11.8592 10.8531 12.8531C9.85921 13.8471 9.30078 15.1951 9.30078 16.6007V34.4008C9.30342 35.8056 9.86271 37.1521 10.8561 38.1455C11.8494 39.1389 13.196 39.6982 14.6008 39.7008H33.4008C34.8057 39.6982 36.1522 39.1389 37.1456 38.1455C38.1389 37.1521 38.6982 35.8056 38.7008 34.4008V16.6007C38.7008 15.9005 38.5621 15.2072 38.2927 14.5609C38.0232 13.9146 37.6283 13.3281 37.1309 12.8353C36.6334 12.3425 36.0432 11.9532 35.3944 11.6898C34.7456 11.4264 34.051 11.2942 33.3508 11.3008ZM19.6508 11.7008H28.2508V14.3008H19.6508V11.7008ZM35.2508 34.4008C35.2508 34.9047 35.0507 35.3879 34.6943 35.7443C34.338 36.1006 33.8547 36.3008 33.3508 36.3008H14.5508C14.0469 36.3008 13.5636 36.1006 13.2073 35.7443C12.851 35.3879 12.6508 34.9047 12.6508 34.4008V16.6007C12.6508 16.0968 12.851 15.6135 13.2073 15.2572C13.5636 14.9009 14.0469 14.7008 14.5508 14.7008H16.2508V14.8008C16.2508 15.5699 16.5564 16.3075 17.1002 16.8513C17.6441 17.3952 18.3817 17.7008 19.1508 17.7008H28.7508C29.5199 17.7008 30.2575 17.3952 30.8014 16.8513C31.3452 16.3075 31.6508 15.5699 31.6508 14.8008V14.7008H33.3508C33.8547 14.7008 34.338 14.9009 34.6943 15.2572C35.0507 15.6135 35.2508 16.0968 35.2508 16.6007V34.4008Z" fill="current"/>
<path d="M31.4512 21.8008H16.4512V25.2008H31.4512V21.8008Z" fill="current"/>
<path d="M31.4512 28.8008H16.4512V32.2008H31.4512V28.8008Z" fill="current"/>
</svg>
