<svg width="current" height="current" viewBox="0 0 48 48" fill="none" xmlns="http://www.w3.org/2000/svg">
<path d="M20.7408 14.7698C20.2508 15.2598 20.2508 16.0498 20.7408 16.5398C21.2308 17.0298 22.0208 17.0298 22.5108 16.5398C23.0008 16.0498 23.0008 15.2598 22.5108 14.7698C22.0208 14.2798 21.2308 14.2798 20.7408 14.7698Z" fill="current"/>
<path d="M25.2608 33.2298C25.7508 32.7398 25.7508 31.9498 25.2608 31.4598C24.7708 30.9698 23.9808 30.9698 23.4908 31.4598C23.0008 31.9498 23.0008 32.7398 23.4908 33.2298C23.9808 33.7198 24.7708 33.7198 25.2608 33.2298Z" fill="current"/>
<path d="M38.1008 24.8398H36.7008V22.9598C36.7008 19.8398 34.3208 17.2998 31.4008 17.2998H29.7008V15.5998C29.7008 12.6798 27.3208 10.2998 24.4008 10.2998H21.6008C18.6808 10.2998 16.3008 12.6798 16.3008 15.5998V17.2998H14.6008C11.6808 17.2998 9.30078 19.8398 9.30078 22.9598V25.0398C9.30078 28.1598 11.6808 30.6998 14.6008 30.6998H16.3008V32.3998C16.3008 35.3198 18.6808 37.6998 21.6008 37.6998H24.4008C25.6108 37.6998 26.7108 37.2798 27.6008 36.5998V37.3398C27.6008 38.9398 28.9008 40.2398 30.5008 40.2398H38.1008C39.7008 40.2398 41.0008 38.9398 41.0008 37.3398V27.7398C41.0008 26.1398 39.7008 24.8398 38.1008 24.8398ZM16.3308 27.2998H14.6008C13.5508 27.2998 12.7008 26.2898 12.7008 25.0398V22.9598C12.7008 21.7098 13.5508 20.6998 14.6008 20.6998H23.0008V17.2998H19.7008V15.5998C19.7008 14.5498 20.5508 13.6998 21.6008 13.6998H24.4008C25.4508 13.6998 26.3008 14.5498 26.3008 15.5998V20.3998C26.3008 21.4498 25.4508 22.2998 24.4008 22.2998H21.6008C18.7808 22.2998 16.4908 24.5198 16.3308 27.2998ZM27.6408 27.2998H23.0008V30.6998H26.3008V32.3998C26.3008 33.4498 25.4508 34.2998 24.4008 34.2998H21.6008C20.5508 34.2998 19.7008 33.4498 19.7008 32.3998V27.5998C19.7008 26.5498 20.5508 25.6998 21.6008 25.6998H24.4008C27.2208 25.6998 29.5108 23.4798 29.6708 20.6998H31.4008C32.4508 20.6998 33.3008 21.7098 33.3008 22.9598V24.8398H30.5008C29.0508 24.8398 27.8608 25.9098 27.6408 27.2998ZM37.6808 34.2898C37.6808 35.7198 36.5108 36.8898 35.0808 36.8898H31.3308V35.1898H35.0808C35.5808 35.1898 35.9808 34.7898 35.9808 34.2898C35.9808 33.7898 35.5808 33.3898 35.0808 33.3898H32.7408V31.6898H35.0808C35.5808 31.6898 35.9808 31.2898 35.9808 30.7898C35.9808 30.2898 35.5808 29.8898 35.0808 29.8898H31.3308V28.1898H35.0808C35.3108 28.1898 35.5208 28.2298 35.7308 28.2798C36.8508 28.5698 37.6808 29.5798 37.6808 30.7898C37.6808 31.4598 37.4208 32.0798 37.0008 32.5398C37.4208 32.9998 37.6808 33.6198 37.6808 34.2898Z" fill="current"/>
</svg>
