<svg width="current" height="current" viewBox="0 0 48 48" fill="none" xmlns="http://www.w3.org/2000/svg">
<path d="M36.5193 30.3998L29.6993 20.4698V12.6998H31.9993V9.2998H15.9993V12.6998H18.2993V20.4698L14.4793 25.9998L11.4793 30.3598C11.0702 30.9511 10.7863 31.6199 10.6453 32.325C10.5043 33.0301 10.5091 33.7566 10.6593 34.4598C10.9061 35.6498 11.5565 36.7179 12.5005 37.4833C13.4445 38.2487 14.624 38.6644 15.8393 38.6598H32.1593C33.1254 38.6616 34.0735 38.3988 34.9008 37.8999C35.7282 37.4011 36.4031 36.6852 36.8523 35.8299C37.3016 34.9746 37.5081 34.0127 37.4494 33.0484C37.3907 32.0841 37.069 31.1543 36.5193 30.3598V30.3998ZM26.2993 12.6998V20.9998C26.2884 21.3568 26.3937 21.7077 26.5993 21.9998L28.8893 25.3398H19.1093L21.3993 21.9998C21.6049 21.7077 21.7102 21.3568 21.6993 20.9998V12.6998H26.2993Z" fill="current"/>
</svg>
