<svg width="current" height="current" viewBox="0 0 48 48" fill="none" xmlns="http://www.w3.org/2000/svg">
<path d="M30.1998 17.7689H33.2998V25.5489H36.6998V16.0689C36.6998 15.9589 36.6898 15.8489 36.6698 15.7489C36.6398 15.5989 36.5898 15.4589 36.5198 15.3289C36.4998 15.2889 36.4798 15.2589 36.4598 15.2289C36.3898 15.0989 36.2998 14.9789 36.1998 14.8789L30.1998 8.87891C30.0898 8.76891 29.9698 8.68891 29.8398 8.60891C29.8098 8.58891 29.7798 8.56891 29.7398 8.55891C29.5098 8.44891 29.2598 8.37891 28.9998 8.37891H16.5998C13.6798 8.37891 11.2998 10.7589 11.2998 13.6789V32.4789C11.2998 35.3989 13.6798 37.7789 16.5998 37.7789H25.2998V34.3789H16.5998C15.5498 34.3789 14.6998 33.5289 14.6998 32.4789V13.6789C14.6998 12.6289 15.5498 11.7789 16.5998 11.7789H27.2998V14.8789C27.2998 16.4789 28.5998 17.7789 30.1998 17.7789V17.7689Z" fill="current"/>
<path d="M39.7998 28.0489L33.2498 34.5689L30.2398 31.3189L27.7498 33.6289L31.5398 37.7089C31.9598 38.1689 32.5598 38.4289 33.1798 38.4489H33.2198C33.8198 38.4489 34.4098 38.2089 34.8398 37.7789L42.1898 30.4589L39.7898 28.0489H39.7998Z" fill="current"/>
</svg>
