<svg width="current" height="current" viewBox="0 0 48 48" fill="none" xmlns="http://www.w3.org/2000/svg">
<path d="M20.9519 24.9996C24.9284 24.9996 28.1519 21.7761 28.1519 17.7996C28.1519 13.8232 24.9284 10.5996 20.9519 10.5996C16.9755 10.5996 13.752 13.8232 13.752 17.7996C13.752 21.7761 16.9755 24.9996 20.9519 24.9996Z" fill="current"/>
<path d="M33.6508 31.3496C33.6508 30.0235 33.124 28.7518 32.1863 27.8141C31.2487 26.8764 29.9768 26.3496 28.6508 26.3496H13.3008C11.9747 26.3496 10.7029 26.8764 9.76526 27.8141C8.82758 28.7518 8.30078 30.0235 8.30078 31.3496V36.3496H33.7008L33.6508 31.3496Z" fill="current"/>
<path d="M29.8307 24.3903L28.4707 21.2802C29.1586 20.9893 29.7455 20.5022 30.1581 19.8798C30.5708 19.2573 30.7908 18.527 30.7908 17.7802C30.7908 17.0333 30.5708 16.3031 30.1581 15.6807C29.7455 15.0582 29.1586 14.571 28.4707 14.2802L29.8307 11.1602C31.116 11.7183 32.2102 12.6399 32.9788 13.8115C33.7473 14.9832 34.1568 16.354 34.1568 17.7552C34.1568 19.1565 33.7473 20.5272 32.9788 21.6989C32.2102 22.8705 31.116 23.7921 29.8307 24.3502V24.3903Z" fill="current"/>
<path d="M39.6511 36.2988H36.3011V31.2988C36.3011 30.8745 36.1326 30.4675 35.8325 30.1675C35.5325 29.8674 35.1255 29.6989 34.7012 29.6989V26.2988C36.0273 26.2988 37.299 26.8256 38.2367 27.7633C39.1744 28.701 39.7012 29.9727 39.7012 31.2988L39.6511 36.2988Z" fill="current"/>
</svg>
