<svg width="current" height="current" viewBox="0 0 48 48" fill="none" xmlns="http://www.w3.org/2000/svg">
<path d="M38.3 35.8582L31.3 28.8582C32.9167 26.7812 33.8057 24.2302 33.83 21.5982C33.8407 18.835 32.9169 16.1495 31.2087 13.9776C29.5004 11.8057 27.108 10.2752 24.4201 9.63456C21.7322 8.99395 18.9067 9.28086 16.4024 10.4488C13.8982 11.6167 11.8624 13.5969 10.6256 16.0679C9.38886 18.5389 9.02384 21.3553 9.58983 24.0599C10.1558 26.7645 11.6196 29.1984 13.7434 30.9661C15.8672 32.7338 18.5262 33.7314 21.2886 33.7972C24.051 33.8629 26.7545 32.9928 28.96 31.3282L35.96 38.3282L38.3 35.8582ZM21.6 30.3682C19.8595 30.3682 18.1581 29.852 16.711 28.885C15.2638 27.9181 14.1359 26.5438 13.4699 24.9358C12.8038 23.3278 12.6295 21.5584 12.9691 19.8514C13.3086 18.1443 14.1468 16.5764 15.3775 15.3457C16.6082 14.115 18.1762 13.2768 19.8832 12.9373C21.5902 12.5977 23.3596 12.772 24.9676 13.438C26.5756 14.1041 27.95 15.2321 28.9169 16.6792C29.8839 18.1264 30.4 19.8277 30.4 21.5682C30.3974 23.9012 29.4694 26.1381 27.8196 27.7879C26.1699 29.4376 23.9331 30.3656 21.6 30.3682Z" fill="current"/>
</svg>
