<svg width="current" height="current" viewBox="0 0 48 48" fill="none" xmlns="http://www.w3.org/2000/svg">
<path d="M24.0003 24.7C28.2529 24.7 31.7003 21.2526 31.7003 17C31.7003 12.7475 28.2529 9.30005 24.0003 9.30005C19.7477 9.30005 16.3003 12.7475 16.3003 17C16.3003 21.2526 19.7477 24.7 24.0003 24.7Z" fill="current"/>
<path d="M42.5203 33.7C42.3604 33.5331 42.2709 33.3111 42.2703 33.08C42.2709 32.849 42.3604 32.627 42.5203 32.46L43.2003 31.76C43.422 31.5295 43.5625 31.2329 43.6004 30.9153C43.6383 30.5976 43.5715 30.2763 43.4103 30L42.4903 28.41C42.3341 28.1378 42.0933 27.9241 41.8045 27.8013C41.5157 27.6786 41.1946 27.6536 40.8903 27.73L39.8903 27.96C39.7783 27.9905 39.6613 27.9982 39.5462 27.9828C39.4311 27.9673 39.3203 27.929 39.2203 27.87C39.0212 27.745 38.8725 27.5538 38.8003 27.33L38.5403 26.4C38.4522 26.0989 38.2694 25.8342 38.019 25.645C37.7687 25.4559 37.4641 25.3525 37.1503 25.35H35.3603C35.0487 25.3585 34.7482 25.4672 34.5032 25.6599C34.2582 25.8527 34.0819 26.1192 34.0003 26.42L33.7303 27.36C33.7002 27.4697 33.6484 27.5723 33.578 27.6616C33.5076 27.7509 33.4199 27.8252 33.3203 27.88C33.2164 27.9431 33.1008 27.9845 32.9805 28.0017C32.8602 28.0189 32.7377 28.0115 32.6203 27.98L31.7003 27.75C31.3959 27.6718 31.0743 27.6961 30.7851 27.819C30.4959 27.9419 30.2552 28.1567 30.1003 28.43L29.1503 30C28.9931 30.2722 28.9285 30.5881 28.9664 30.9001C29.0043 31.2121 29.1425 31.5034 29.3603 31.73L30.0303 32.43C30.1128 32.5119 30.1784 32.6092 30.2231 32.7165C30.2678 32.8238 30.2908 32.9388 30.2908 33.055C30.2908 33.1713 30.2678 33.2863 30.2231 33.3936C30.1784 33.5009 30.1128 33.5982 30.0303 33.68L29.3603 34.38C29.1425 34.6067 29.0043 34.898 28.9664 35.21C28.9285 35.522 28.9931 35.8379 29.1503 36.11L30.0703 37.7C30.2265 37.9723 30.4673 38.186 30.7561 38.3087C31.0449 38.4315 31.3659 38.4565 31.6703 38.38L32.6703 38.14C32.8874 38.0888 33.1158 38.1209 33.3103 38.23C33.5217 38.3529 33.6761 38.5541 33.7403 38.79L34.0103 39.71C34.097 40.012 34.2794 40.2777 34.53 40.4671C34.7807 40.6564 35.0861 40.7592 35.4003 40.76H37.2003C37.514 40.7576 37.8187 40.6542 38.069 40.4651C38.3194 40.2759 38.5022 40.0112 38.5903 39.71L38.8603 38.76C38.9176 38.5451 39.0579 38.3617 39.2503 38.25C39.4665 38.1301 39.7194 38.0945 39.9603 38.15L40.8903 38.38C41.1946 38.4565 41.5157 38.4315 41.8045 38.3087C42.0933 38.186 42.3341 37.9723 42.4903 37.7L43.4103 36.11C43.5644 35.837 43.6271 35.5218 43.5893 35.2106C43.5515 34.8993 43.4152 34.6083 43.2003 34.38L42.5203 33.7ZM36.2803 35.92C35.7166 35.92 35.1656 35.7529 34.6969 35.4397C34.2282 35.1266 33.8629 34.6815 33.6472 34.1607C33.4315 33.6399 33.3751 33.0669 33.4851 32.514C33.595 31.9612 33.8665 31.4534 34.265 31.0548C34.6636 30.6562 35.1714 30.3848 35.7243 30.2748C36.2771 30.1648 36.8502 30.2213 37.3709 30.437C37.8917 30.6527 38.3368 31.018 38.65 31.4867C38.9631 31.9554 39.1303 32.5064 39.1303 33.07C39.1303 33.8259 38.83 34.5508 38.2955 35.0853C37.7611 35.6198 37.0362 35.92 36.2803 35.92Z" fill="current"/>
<path d="M15.6003 26.3C14.1955 26.3027 12.8489 26.8619 11.8555 27.8553C10.8622 28.8487 10.3029 30.1952 10.3003 31.6V37H26.7603C26.0265 35.2286 25.8043 33.2868 26.1189 31.3953C26.4336 29.5038 27.2725 27.7385 28.5403 26.3H15.6003Z" fill="current"/>
</svg>
