<svg width="current" height="current" viewBox="0 0 48 48" fill="none" xmlns="http://www.w3.org/2000/svg">
<path d="M28.8001 26.8401H19.2001C18.0401 26.8401 16.9901 27.5301 16.5401 28.5901C16.0801 29.6601 16.3001 30.8901 17.1001 31.7301L21.9001 36.7901C22.4401 37.3701 23.2101 37.7001 24.0001 37.7001C24.7901 37.7001 25.5601 37.3701 26.1001 36.8001L30.9001 31.7401C31.7001 30.9001 31.9201 29.6701 31.4601 28.6001C31.0001 27.5301 29.9601 26.8501 28.8001 26.8501V26.8401Z" fill="current"/>
<path d="M19.2001 21.1601H28.8001C29.9601 21.1601 31.0101 20.4701 31.4601 19.4101C31.9101 18.3501 31.7001 17.1101 30.9001 16.2701L26.1001 11.2101C25.5501 10.6301 24.7901 10.3101 24.0001 10.3101C23.2101 10.3101 22.4401 10.6401 21.9001 11.2101L17.1001 16.2701C16.3001 17.1101 16.0801 18.3501 16.5401 19.4101C17.0001 20.4801 18.0401 21.1601 19.2001 21.1601Z" fill="current"/>
</svg>
