<svg width="current" height="current" viewBox="0 0 18 18" fill="none" xmlns="http://www.w3.org/2000/svg">
<path fill-rule="evenodd" clip-rule="evenodd" d="M8.36292 14.8456V10.2706H9.63792V14.8456H8.36292Z" fill="current"/>
<path d="M6.91897 8.12565V3.32939H11.0815V8.12565L12.5852 10.2706H5.41521L6.91897 8.12565Z" fill="current"/>
<path fill-rule="evenodd" clip-rule="evenodd" d="M6.28147 3.32939C6.28147 2.97731 6.56688 2.69189 6.91897 2.69189H11.0815C11.4335 2.69189 11.719 2.97731 11.719 3.32939V7.92445L13.1072 9.9047C13.2437 10.0994 13.2605 10.3539 13.1508 10.5649C13.041 10.7758 12.823 10.9081 12.5852 10.9081H5.41521C5.17742 10.9081 4.9594 10.7758 4.84966 10.5649C4.73992 10.3539 4.75671 10.0994 4.89321 9.9047L6.28147 7.92445V3.32939ZM7.55647 3.96689V8.12565C7.55647 8.2566 7.51614 8.38437 7.44097 8.4916L6.64068 9.63315H11.3597L10.5595 8.4916C10.4843 8.38437 10.444 8.2566 10.444 8.12565V3.96689H7.55647Z" fill="current"/>
<path fill-rule="evenodd" clip-rule="evenodd" d="M12.5852 3.96689H5.41521V2.69189H12.5852V3.96689Z" fill="current"/>
</svg>
