<svg width="current" height="current" viewBox="0 0 48 48" fill="none" xmlns="http://www.w3.org/2000/svg">
<path d="M33.4008 9.2998H14.6008C11.6808 9.2998 9.30078 11.6798 9.30078 14.5998V33.3998C9.30078 36.3198 11.6808 38.6998 14.6008 38.6998H33.4008C36.3208 38.6998 38.7008 36.3198 38.7008 33.3998V14.5998C38.7008 11.6798 36.3208 9.2998 33.4008 9.2998ZM23.0408 26.1998L17.1008 31.2898L14.8908 28.7098L20.3908 23.9998L14.8908 19.2898L17.1008 16.7098L23.0408 21.7998C23.6808 22.3498 24.0508 23.1498 24.0508 23.9998C24.0508 24.8498 23.6808 25.6498 23.0408 26.1998ZM33.0008 31.2898H25.0008V27.8898H33.0008V31.2898Z" fill="current"/>
</svg>
