<svg width="current" height="current" viewBox="0 0 48 48" fill="none" xmlns="http://www.w3.org/2000/svg">
<path d="M31.4 38.7002H14.2C12.6 38.7002 11.3 37.4002 11.3 35.8002V29.4502C11.3 28.8402 11.63 28.2802 12.15 27.9802C12.68 27.6802 13.33 27.6802 13.85 27.9802C14.87 28.5702 16.08 28.3002 16.77 27.4602C17.22 26.9202 17.38 26.2302 17.24 25.5102C17.09 24.7302 16.48 24.0702 15.7 23.8102C15.06 23.6002 14.43 23.6702 13.84 24.0202C13.31 24.3202 12.67 24.3302 12.14 24.0202C11.61 23.7202 11.29 23.1502 11.29 22.5502V16.2002C11.29 14.6002 12.59 13.3002 14.19 13.3002H18.3C18.3 13.2002 18.3 13.1002 18.3 13.0002C18.3 11.2902 19.06 9.6802 20.38 8.5902C21.7 7.5002 23.44 7.0702 25.15 7.4102C27.12 7.8002 28.79 9.3002 29.42 11.2402C29.64 11.9202 29.73 12.6102 29.69 13.3002H33.8C35.4 13.3002 36.7 14.6002 36.7 16.2002V20.3102C37.39 20.2802 38.08 20.3602 38.76 20.5802C40.69 21.2102 42.2 22.8802 42.58 24.8502C42.92 26.5502 42.49 28.2902 41.4 29.6102C40.25 31.0102 38.52 31.7902 36.7 31.6802V33.3902C36.7 36.3102 34.32 38.6902 31.4 38.6902V38.7002ZM14.7 35.3002H31.4C32.45 35.3002 33.3 34.4502 33.3 33.4002V29.4402C33.3 28.8302 33.63 28.2702 34.15 27.9702C34.68 27.6702 35.33 27.6702 35.85 27.9702C36.87 28.5602 38.08 28.2902 38.77 27.4502C39.22 26.9102 39.38 26.2202 39.24 25.5002C39.09 24.7202 38.48 24.0602 37.7 23.8002C37.06 23.5902 36.43 23.6602 35.84 24.0102C35.31 24.3102 34.66 24.3202 34.14 24.0102C33.61 23.7102 33.29 23.1402 33.29 22.5402V16.6902H27.44C26.83 16.6902 26.27 16.3602 25.97 15.8402C25.67 15.3202 25.67 14.6602 25.97 14.1402C26.31 13.5502 26.38 12.9202 26.18 12.2802C25.93 11.5102 25.25 10.9002 24.49 10.7502C23.78 10.6002 23.08 10.7802 22.54 11.2202C22 11.6602 21.7 12.3102 21.7 13.0002C21.7 13.3902 21.81 13.7802 22.02 14.1402C22.33 14.6702 22.33 15.3202 22.02 15.8402C21.72 16.3702 21.15 16.6902 20.55 16.6902H14.7V20.3002C15.39 20.2702 16.08 20.3502 16.76 20.5702C18.7 21.2002 20.2 22.8702 20.59 24.8402C20.93 26.5402 20.5 28.2802 19.41 29.6002C18.26 31.0002 16.53 31.7802 14.71 31.6702V35.2802L14.7 35.3002Z" fill="current"/>
</svg>
