<svg width="current" height="current" viewBox="0 0 24 24" fill="none" xmlns="http://www.w3.org/2000/svg">
<path d="M11.0449 14.7999H11.0199C10.6549 14.7949 10.3149 14.6399 10.0649 14.3699L8.1299 12.2799L9.3749 11.1249L11.0549 12.9349L14.6549 9.3499L15.8549 10.5549L11.9899 14.4049C11.7349 14.6599 11.3999 14.7949 11.0449 14.7949V14.7999Z" fill="current"/>
<path d="M16.4499 19.0999H7.5499C6.0899 19.0999 4.8999 17.9099 4.8999 16.4499V7.5499C4.8999 6.0899 6.0899 4.8999 7.5499 4.8999H16.4499C17.9099 4.8999 19.0999 6.0899 19.0999 7.5499V16.4499C19.0999 17.9099 17.9099 19.0999 16.4499 19.0999ZM7.5499 6.5999C7.0249 6.5999 6.5999 7.0249 6.5999 7.5499V16.4499C6.5999 16.9749 7.0249 17.3999 7.5499 17.3999H16.4499C16.9749 17.3999 17.3999 16.9749 17.3999 16.4499V7.5499C17.3999 7.0249 16.9749 6.5999 16.4499 6.5999H7.5499Z" fill="current"/>
</svg>
