<svg width="current" height="current" viewBox="0 0 48 48" fill="none" xmlns="http://www.w3.org/2000/svg">
<path d="M38.7001 14.5988C38.7001 11.6788 36.3201 9.29883 33.4001 9.29883H14.6C11.68 9.29883 9.30005 11.6788 9.30005 14.5988V33.3988C9.30005 36.3188 11.68 38.6988 14.6 38.6988H33.4001C36.3201 38.6988 38.7001 36.3188 38.7001 33.3988V31.9988H35.3V33.3988C35.3 34.4488 34.4501 35.2988 33.4001 35.2988H14.6C13.55 35.2988 12.7 34.4488 12.7 33.3988V14.5988C12.7 13.5488 13.55 12.6988 14.6 12.6988H33.4001C34.4501 12.6988 35.3 13.5488 35.3 14.5988V15.9988H38.7001V14.5988Z" fill="current"/>
<path d="M32.01 31.6088L37.8 26.0988C38.37 25.5588 38.7001 24.7888 38.7001 23.9988C38.7001 23.2088 38.37 22.4388 37.8 21.8988L32.01 16.3888L29.67 18.8488L33.2901 22.2988H20.89V25.6988H33.3L29.68 29.1488L32.0201 31.6088H32.01Z" fill="current"/>
</svg>
