<svg width="current" height="current" viewBox="0 0 24 24" fill="none" xmlns="http://www.w3.org/2000/svg">
<path fill-rule="evenodd" clip-rule="evenodd" d="M4.4625 5.96485C4.4625 5.4954 4.84306 5.11485 5.3125 5.11485H18.6925C19.1619 5.11485 19.5425 5.4954 19.5425 5.96485V14.9148C19.5425 15.7143 18.892 16.3648 18.0925 16.3648H5.9125C5.11305 16.3648 4.4625 15.7143 4.4625 14.9148V5.96485ZM6.1625 6.81485V14.6648H17.8425V6.81485H6.1625Z" fill="current"/>
<path fill-rule="evenodd" clip-rule="evenodd" d="M20.3872 6.81485H3.61719V5.11485H20.3872V6.81485Z" fill="current"/>
<path fill-rule="evenodd" clip-rule="evenodd" d="M6.71717 18.6159L9.92217 15.0159L11.0425 16.0134L7.83751 19.6134L6.71717 18.6159Z" fill="current"/>
<path fill-rule="evenodd" clip-rule="evenodd" d="M16.1663 19.6134L12.9613 16.0134L14.0817 15.0159L17.2867 18.6159L16.1663 19.6134Z" fill="current"/>
<path fill-rule="evenodd" clip-rule="evenodd" d="M16.2766 10.0801H7.72656V8.58008H16.2766V10.0801Z" fill="current"/>
<path fill-rule="evenodd" clip-rule="evenodd" d="M12.0016 12.75H7.72656V11.25H12.0016V12.75Z" fill="current"/>
</svg>
