<svg width="current" height="current" viewBox="0 0 48 48" fill="none" xmlns="http://www.w3.org/2000/svg">
<path d="M33.3003 33.4002C33.3003 34.4502 32.4503 35.3002 31.4003 35.3002H14.6003C13.5503 35.3002 12.7003 34.4502 12.7003 33.4002V16.6002C12.7003 15.5502 13.5503 14.7002 14.6003 14.7002H22.0003V11.3002H14.6003C11.6803 11.3002 9.30029 13.6802 9.30029 16.6002V33.4002C9.30029 36.3202 11.6803 38.7002 14.6003 38.7002H31.4003C34.3203 38.7002 36.7003 36.3202 36.7003 33.4002V26.0002H33.3003V33.4002Z" fill="current"/>
<path d="M37.8503 13.4802L34.5203 10.1502C33.3903 9.02023 31.5503 9.02023 30.4203 10.1502L18.7003 21.8702C18.4603 22.1102 18.3003 22.4102 18.2303 22.7402L17.3403 27.2402C17.1503 28.1902 17.4503 29.1702 18.1303 29.8502C18.6803 30.4002 19.4203 30.7002 20.1803 30.7002C20.3703 30.7002 20.5603 30.6802 20.7403 30.6502L25.2403 29.7602C25.5703 29.6902 25.8803 29.5302 26.1103 29.2902L37.8303 17.5702C38.9603 16.4402 38.9603 14.6002 37.8303 13.4702L37.8503 13.4802ZM24.0903 26.5302L20.8303 27.1702L21.4703 23.9102L32.4703 12.9102L35.0903 15.5302L24.0903 26.5302Z" fill="current"/>
</svg>
