<svg width="current" height="current" viewBox="0 0 48 48" fill="none" xmlns="http://www.w3.org/2000/svg">
<path d="M32.1101 24.05L34.1001 22.06L37.1501 19.01C39.2201 16.94 39.2201 13.58 37.1501 11.51L36.4801 10.84C35.4801 9.84004 34.1501 9.29004 32.7301 9.29004C31.3101 9.29004 29.9801 9.84004 28.9801 10.84L25.9301 13.89L23.9401 15.88L18.2801 10.22C17.1501 9.09004 15.3101 9.09004 14.1801 10.22L10.2201 14.18C9.09011 15.31 9.09011 17.15 10.2201 18.28L15.8801 23.94L11.3501 28.47C11.1401 28.68 10.9801 28.95 10.9101 29.24L9.39011 35.05C9.13011 36.06 9.41011 37.1 10.1401 37.83C10.6901 38.39 11.4201 38.68 12.1801 38.68C12.4301 38.68 12.6801 38.65 12.9201 38.58L18.7301 37.06C19.0201 36.98 19.2901 36.83 19.5001 36.62L24.0301 32.09L29.6901 37.75C30.2401 38.3 30.9701 38.6 31.7401 38.6C32.5101 38.6 33.2401 38.3 33.7901 37.75L37.7501 33.79C38.3001 33.24 38.6001 32.52 38.6001 31.74C38.6001 30.97 38.3001 30.24 37.7501 29.69L32.0901 24.03L32.1101 24.05ZM31.3901 13.26C32.1101 12.54 33.3601 12.54 34.0801 13.26L34.7501 13.93C35.4901 14.67 35.4901 15.88 34.7501 16.62L32.9001 18.47L29.5401 15.11L31.3901 13.26ZM12.9901 16.24L16.2401 12.99L17.7101 14.46L16.0801 16.09L18.4801 18.49L20.1101 16.86L21.5401 18.29L18.2901 21.54L12.9801 16.23L12.9901 16.24ZM17.4501 33.91L12.9101 35.1L14.1001 30.56L19.5001 25.16L25.1601 19.5L27.1501 17.51L30.5101 20.87L27.0001 24.38L22.8601 28.52L17.4501 33.93V33.91ZM31.7701 35.01L26.4601 29.7L28.4501 27.71L29.7101 26.45L31.1401 27.88L29.5101 29.51L31.9101 31.91L33.5401 30.28L35.0101 31.75L31.7601 35L31.7701 35.01Z" fill="current"/>
</svg>
