<svg width="current" height="current" viewBox="0 0 48 48" fill="none" xmlns="http://www.w3.org/2000/svg">
<path d="M32.4001 19.3H31.7001V16C31.7001 11.75 28.24 8.30005 24 8.30005C19.76 8.30005 16.3 11.75 16.3 16V19.3H15.6C12.68 19.3 10.3 21.68 10.3 24.6V34.4001C10.3 37.3201 12.68 39.7001 15.6 39.7001H32.4001C35.3201 39.7001 37.7001 37.3201 37.7001 34.4001V24.6C37.7001 21.68 35.3201 19.3 32.4001 19.3ZM19.7 16C19.7 13.63 21.63 11.7 24 11.7C26.37 11.7 28.3 13.63 28.3 16V19.3H19.7V16ZM34.3 34.4001C34.3 35.4501 33.4501 36.3 32.4001 36.3H15.6C14.55 36.3 13.7 35.4501 13.7 34.4001V24.6C13.7 23.55 14.55 22.7 15.6 22.7H32.4001C33.4501 22.7 34.3 23.55 34.3 24.6V34.4001Z" fill="current"/>
</svg>
