<svg width="current" height="current" viewBox="0 0 48 48" fill="none" xmlns="http://www.w3.org/2000/svg">
<path d="M24.2005 11.1199C23.1305 10.6599 21.9005 10.8799 21.0605 11.6699L14.5805 17.7899H13.8605C10.9405 17.7899 8.56055 20.1699 8.56055 23.0899V24.8899C8.56055 27.8099 10.9405 30.1899 13.8605 30.1899H14.5805L21.0605 36.3099C21.6105 36.8299 22.3205 37.0999 23.0505 37.0999C23.4405 37.0999 23.8305 37.0199 24.2005 36.8599C25.2605 36.3999 25.9505 35.3599 25.9505 34.1999V13.7799C25.9505 12.6199 25.2605 11.5799 24.2005 11.1199Z" fill="current"/>
<path d="M39.4505 20.1999L37.0505 17.7999L33.2505 21.5999L29.4505 17.7999L27.0505 20.1999L30.8405 23.9999L27.0505 27.7999L29.4505 30.1999L33.2505 26.3999L37.0505 30.1999L39.4505 27.7999L35.6505 23.9999L39.4505 20.1999Z" fill="current"/>
</svg>
