<svg width="current" height="current" viewBox="0 0 48 48" fill="none" xmlns="http://www.w3.org/2000/svg">
<path d="M37.5898 19.4699C36.8098 13.7699 31.9098 9.35986 25.9998 9.35986H21.9998C16.0898 9.35986 11.1898 13.7699 10.4098 19.4699C9.1998 19.8199 8.2998 20.9399 8.2998 22.2599V28.8599C8.2998 30.4599 9.5998 31.7599 11.1998 31.7599H11.2998V35.0599H14.6998V31.5999C15.8598 31.2199 16.6998 30.1399 16.6998 28.8599V27.7599H31.2998V28.8599C31.2998 30.1399 32.1398 31.2199 33.2998 31.5999V37.0599H36.6998V31.7599H36.7998C38.3998 31.7599 39.6998 30.4599 39.6998 28.8599V22.2599C39.6998 20.9399 38.8098 19.8199 37.5898 19.4699ZM13.2998 27.2599V28.3599H11.6998V22.7599H11.9998C12.6198 22.7599 13.1498 22.4299 13.4498 21.9299C13.5498 21.9099 13.6398 21.8999 13.7398 21.8999C14.6398 21.8999 15.3798 22.6399 15.3798 23.5399C15.3798 23.9699 15.2098 24.3699 14.9098 24.6799C13.9598 25.1599 13.2998 26.1299 13.2998 27.2599ZM23.7398 12.7599C23.7398 12.8499 23.7398 12.9399 23.7198 13.0299C23.6498 13.4199 23.4298 13.7599 23.1098 13.9899C22.6498 14.3099 22.0498 14.3399 21.5398 14.0599C21.1298 13.8399 20.6398 13.7899 20.1898 13.9399C19.7398 14.0899 19.3798 14.4099 19.1798 14.8399C19.0998 15.0299 18.9798 15.1699 18.8298 15.2699C18.3398 15.6099 17.6698 15.4899 17.3298 14.9999C17.1598 14.7599 17.1298 14.5099 17.1398 14.3299C18.5098 13.3399 20.1798 12.7399 21.9998 12.7399H23.7298L23.7398 12.7599ZM31.7998 24.3599H28.5298C28.4098 24.1999 28.2898 23.9799 28.2598 23.6899C28.1698 22.9299 28.7098 22.2399 29.4698 22.1499C29.6998 22.1199 29.9398 22.1599 30.1798 22.2699C30.6098 22.4599 31.0998 22.4599 31.5298 22.2699C31.9598 22.0799 32.2998 21.7299 32.4598 21.2799C32.6998 20.6099 33.2798 20.1399 33.9698 20.0599C34.0598 20.0499 34.1498 20.0599 34.2398 20.0599C34.2798 20.3899 34.3098 20.7199 34.3098 21.0599C34.3098 21.9999 35.0698 22.7599 36.0098 22.7599H36.3098V28.3599H34.7098V27.2599C34.7098 25.6599 33.4098 24.3599 31.8098 24.3599H31.7998Z" fill="current"/>
</svg>
