<svg width="current" height="current" viewBox="0 0 48 48" fill="none" xmlns="http://www.w3.org/2000/svg">
<path d="M23.9998 7.30078C14.7898 7.30078 7.2998 14.7908 7.2998 24.0008C7.2998 33.2108 14.7898 40.7008 23.9998 40.7008C33.2098 40.7008 40.6998 33.2108 40.6998 24.0008C40.6998 14.7908 33.2098 7.30078 23.9998 7.30078ZM35.4698 17.3008H30.9098C30.2898 14.9408 29.3598 13.0308 28.2498 11.4108C31.2998 12.4508 33.8598 14.5608 35.4598 17.3008H35.4698ZM37.2998 24.0008C37.2998 25.1408 37.1398 26.2408 36.8698 27.3008H31.5198C31.6298 26.2708 31.6998 25.1808 31.6998 24.0008C31.6998 22.8208 31.6298 21.7308 31.5198 20.7008H36.8698C37.1398 21.7608 37.2998 22.8608 37.2998 24.0008ZM20.6398 30.7008H27.3698C26.5598 33.2408 25.3198 35.0508 24.0098 36.5308C22.6998 35.0508 21.4498 33.2408 20.6498 30.7008H20.6398ZM19.8998 27.3008C19.7698 26.2908 19.6998 25.2008 19.6998 24.0008C19.6998 22.8008 19.7698 21.7108 19.8998 20.7008H28.0998C28.2298 21.7108 28.2998 22.8008 28.2998 24.0008C28.2998 25.2008 28.2298 26.2908 28.0998 27.3008H19.8998ZM10.6998 24.0008C10.6998 22.8608 10.8598 21.7608 11.1298 20.7008H16.4798C16.3698 21.7308 16.2998 22.8208 16.2998 24.0008C16.2998 25.1808 16.3698 26.2708 16.4798 27.3008H11.1298C10.8598 26.2408 10.6998 25.1408 10.6998 24.0008ZM27.3598 17.3008H20.6298C21.4398 14.7608 22.6798 12.9508 23.9898 11.4708C25.2998 12.9508 26.5398 14.7608 27.3498 17.3008H27.3598ZM19.7398 11.4108C18.6398 13.0308 17.6998 14.9408 17.0898 17.3008H12.5298C14.1398 14.5608 16.6898 12.4508 19.7398 11.4108ZM12.5298 30.7008H17.0898C17.7098 33.0608 18.6398 34.9708 19.7398 36.5908C16.6898 35.5508 14.1298 33.4408 12.5298 30.7008ZM28.2498 36.5908C29.3498 34.9708 30.2898 33.0608 30.9098 30.7008H35.4698C33.8598 33.4408 31.3098 35.5508 28.2598 36.5908H28.2498Z" fill="current"/>
</svg>
